<svg width="521" height="615" viewBox="0 0 521 615" fill="none" xmlns="http://www.w3.org/2000/svg">
<path d="M11.7345 604.014L75.3957 603.733L139.057 603.628L266.367 603.429L393.677 603.628L457.338 603.733L521 604.014L457.338 604.307L393.677 604.401L266.367 604.6L139.057 604.401L75.3957 604.295L11.7345 604.014Z" fill="#263238"/>
<path d="M459.29 500.537C476.954 517.236 479.9 543.082 476.191 565.72C476.094 566.235 475.269 566.095 475.269 565.614C475.269 560.462 475.439 555.356 475.415 550.261C475.318 550.027 475.245 549.805 475.148 549.57C470.541 546.338 466.298 542.684 463.667 537.66C460.721 532.062 459.557 525.739 457.302 519.883C457.096 519.321 457.714 519.485 458.114 519.778C468.868 527.437 472.287 535.669 475.366 546.713C475.303 540.954 474.678 535.214 473.499 529.568C471.184 519.122 466.589 508.769 458.817 501.017C458.751 500.956 458.713 500.873 458.711 500.785C458.709 500.697 458.743 500.612 458.805 500.548C458.868 500.485 458.954 500.448 459.045 500.445C459.136 500.443 459.224 500.476 459.29 500.537Z" fill="#263238"/>
<path d="M455.969 502.481C452.926 502.586 451.023 507.271 448.695 508.641C448.446 508.836 448.158 508.978 447.849 509.059C447.54 509.139 447.216 509.156 446.9 509.109C446.584 509.061 446.281 508.95 446.012 508.783C445.742 508.616 445.512 508.396 445.337 508.137C442.985 504.964 446.209 501.111 449.24 498.886C447.07 499.74 445.276 501.228 442.936 501.684C442.637 501.778 442.321 501.808 442.009 501.773C441.698 501.739 441.397 501.64 441.128 501.483C440.859 501.327 440.628 501.116 440.451 500.866C440.273 500.616 440.153 500.332 440.099 500.033C439.069 495.724 444.67 493.803 448.513 493.709C446.646 492.468 441.311 489.025 444.148 487.385C446.985 485.746 453.29 490.571 455.338 492.175C458.333 494.517 461.922 498.031 462.055 501.731C462.2 506.029 458.309 503.383 455.969 502.481Z" fill="#ED7155"/>
<path opacity="0.1" d="M455.969 502.481C452.926 502.586 451.023 507.271 448.695 508.641C448.446 508.836 448.158 508.978 447.849 509.059C447.54 509.139 447.216 509.156 446.9 509.109C446.584 509.061 446.281 508.95 446.012 508.783C445.742 508.616 445.512 508.396 445.337 508.137C442.985 504.964 446.209 501.111 449.24 498.886C447.07 499.74 445.276 501.228 442.936 501.684C442.637 501.778 442.321 501.808 442.009 501.773C441.698 501.739 441.397 501.64 441.128 501.483C440.859 501.327 440.628 501.116 440.451 500.866C440.273 500.616 440.153 500.332 440.099 500.033C439.069 495.724 444.67 493.803 448.513 493.709C446.646 492.468 441.311 489.025 444.148 487.385C446.985 485.746 453.29 490.571 455.338 492.175C458.333 494.517 461.922 498.031 462.055 501.731C462.2 506.029 458.309 503.383 455.969 502.481Z" fill="black"/>
<path d="M456.843 503.206C452.963 501.496 445.495 503.956 444.865 502.539C443.58 499.646 449.544 497.655 452.757 497.28C449.799 496.496 444.113 495.266 444.271 492.502C444.489 489.13 452.987 492.034 457.291 495.219C462.711 499.236 462.674 503.101 461.777 503.885C460.565 504.939 457.485 503.487 456.843 503.206Z" fill="#ED7155"/>
<path d="M499.516 498.885C481.21 514.929 477.221 540.646 480.058 563.401C480.131 563.916 480.955 563.81 480.979 563.319C481.173 558.177 481.222 553.06 481.44 547.977L481.731 547.298C486.471 544.241 490.848 540.74 493.673 535.821C496.837 530.329 498.243 524.052 500.729 518.255C500.971 517.704 500.341 517.845 499.929 518.114C488.884 525.375 485.138 533.479 481.622 544.37C481.919 538.618 482.771 532.906 484.168 527.307C486.896 516.955 491.891 506.778 499.929 499.318C500.268 499.06 499.832 498.592 499.516 498.885Z" fill="#263238"/>
<path d="M502.777 500.947C505.808 501.158 507.529 505.912 509.845 507.376C510.085 507.58 510.368 507.734 510.673 507.826C510.979 507.917 511.302 507.946 511.62 507.91C511.937 507.873 512.244 507.772 512.519 507.614C512.794 507.455 513.031 507.243 513.215 506.99C515.64 503.91 512.621 499.893 509.687 497.621C511.809 498.558 513.543 500.139 515.858 500.654C516.154 500.76 516.469 500.803 516.783 500.781C517.098 500.758 517.403 500.671 517.679 500.524C517.955 500.377 518.195 500.175 518.383 499.931C518.571 499.686 518.702 499.406 518.768 499.108C519.98 494.845 514.44 492.714 510.609 492.48C512.524 491.309 517.992 488.1 515.216 486.32C512.439 484.54 505.965 489.166 503.856 490.7C500.764 492.936 497.042 496.321 496.764 499.998C496.388 504.261 500.352 501.767 502.777 500.947Z" fill="#ED7155"/>
<path opacity="0.1" d="M502.777 500.947C505.808 501.158 507.529 505.912 509.845 507.376C510.085 507.58 510.368 507.734 510.673 507.826C510.979 507.917 511.302 507.946 511.62 507.91C511.937 507.873 512.244 507.772 512.519 507.614C512.794 507.455 513.031 507.243 513.215 506.99C515.64 503.91 512.621 499.893 509.687 497.621C511.809 498.558 513.543 500.139 515.858 500.654C516.154 500.76 516.469 500.803 516.783 500.781C517.098 500.758 517.403 500.671 517.679 500.524C517.955 500.377 518.195 500.175 518.383 499.931C518.571 499.686 518.702 499.406 518.768 499.108C519.98 494.845 514.44 492.714 510.609 492.48C512.524 491.309 517.992 488.1 515.216 486.32C512.439 484.54 505.965 489.166 503.856 490.7C500.764 492.936 497.042 496.321 496.764 499.998C496.388 504.261 500.352 501.767 502.777 500.947Z" fill="black"/>
<path d="M501.845 501.637C505.797 500.079 513.156 502.808 513.847 501.414C515.254 498.568 509.374 496.367 506.161 495.863C509.155 495.196 514.89 494.165 514.817 491.401C514.744 488.028 506.137 490.617 501.712 493.638C496.135 497.456 496.013 501.32 496.862 502.128C498.062 503.241 501.202 501.894 501.845 501.637Z" fill="#ED7155"/>
<path d="M480.797 541.254C479.553 549.834 477.653 558.313 475.111 566.62C475.094 566.702 475.061 566.779 475.013 566.848C474.965 566.918 474.904 566.977 474.832 567.023C474.761 567.069 474.681 567.102 474.596 567.118C474.512 567.134 474.425 567.134 474.341 567.118C474.256 567.102 474.176 567.07 474.104 567.024C474.033 566.978 473.971 566.918 473.924 566.849C473.876 566.78 473.842 566.703 473.826 566.621C473.809 566.54 473.809 566.456 473.825 566.374C475.038 558.551 477.22 550.881 478.42 543.058C479.736 535.15 480.208 527.133 479.827 519.132C479.063 505.957 475.353 491.951 466.491 481.657C466.297 481.423 466.709 481.072 466.915 481.294C484.725 501.367 481.9 525.972 481.876 528.138C484.397 519.835 487.004 510.314 496.545 501.847C496.957 501.484 497.273 501.66 497.212 502.28C495.502 517.692 491.065 525.702 481.815 533.97C481.524 536.418 481.197 538.854 480.797 541.254Z" fill="#263238"/>
<path d="M466.298 483.942C463.097 482.56 458.672 486.507 455.496 486.776C455.136 486.858 454.762 486.865 454.399 486.798C454.036 486.731 453.692 486.59 453.388 486.386C453.085 486.181 452.83 485.918 452.64 485.611C452.449 485.305 452.328 484.964 452.283 484.61C451.495 480.195 456.878 477.7 461.157 476.915C458.454 476.751 455.811 477.442 453.168 476.751C452.809 476.706 452.464 476.586 452.157 476.4C451.851 476.215 451.589 475.967 451.39 475.675C451.191 475.383 451.059 475.053 451.004 474.707C450.949 474.361 450.972 474.008 451.07 473.672C452.283 468.694 459.06 469.42 463.097 471.2C461.812 468.999 458.042 462.862 461.885 462.511C465.728 462.16 469.717 470.264 471.002 472.922C472.893 476.822 474.772 482.209 472.99 486.097C470.917 490.652 468.25 486.015 466.298 483.942Z" fill="#ED7155"/>
<path opacity="0.1" d="M466.298 483.942C463.097 482.56 458.672 486.507 455.496 486.776C455.136 486.858 454.762 486.865 454.399 486.798C454.036 486.731 453.692 486.59 453.388 486.386C453.085 486.181 452.83 485.918 452.64 485.611C452.449 485.305 452.328 484.964 452.283 484.61C451.495 480.195 456.878 477.7 461.157 476.915C458.454 476.751 455.811 477.442 453.168 476.751C452.809 476.706 452.464 476.586 452.157 476.4C451.851 476.215 451.589 475.967 451.39 475.675C451.191 475.383 451.059 475.053 451.004 474.707C450.949 474.361 450.972 474.008 451.07 473.672C452.283 468.694 459.06 469.42 463.097 471.2C461.812 468.999 458.042 462.862 461.885 462.511C465.728 462.16 469.717 470.264 471.002 472.922C472.893 476.822 474.772 482.209 472.99 486.097C470.917 490.652 468.25 486.015 466.298 483.942Z" fill="black"/>
<path d="M466.832 485.113C463.692 481.459 454.708 480.37 454.708 478.59C454.878 474.971 462.104 475.803 465.62 476.974C462.953 474.725 457.703 470.685 459.315 467.898C461.304 464.502 468.602 471.645 471.439 477.044C474.967 483.848 472.906 487.853 471.572 488.216C469.778 488.743 467.353 485.734 466.832 485.113Z" fill="#ED7155"/>
<path d="M492.508 545.894L500.352 603.886H452.561C453.543 598.745 462.441 545.823 462.441 545.823L492.508 545.894Z" fill="#ED7155"/>
<path d="M417.5 147.018H208.598C205.796 147.042 203.027 147.6 200.449 148.658C197.87 149.717 195.533 151.256 193.571 153.188C191.608 155.119 190.059 157.405 189.012 159.915C187.964 162.425 187.439 165.11 187.466 167.816V583.216C187.418 588.68 189.616 593.939 193.578 597.838C197.54 601.738 202.942 603.959 208.598 604.015H417.5C423.159 603.962 428.566 601.743 432.532 597.843C436.499 593.944 438.701 588.683 438.656 583.216V167.816C438.681 165.109 438.154 162.423 437.105 159.912C436.055 157.401 434.504 155.114 432.539 153.183C430.575 151.251 428.235 149.713 425.655 148.655C423.074 147.597 420.303 147.041 417.5 147.018ZM425.441 570.369C425.441 581.307 416.954 590.149 406.504 590.149H219.618C209.143 590.149 200.657 581.307 200.657 570.369V183.556C200.657 161.305 209.143 160.134 219.618 160.134H257.056C259.238 160.134 261.02 162.476 261.02 165.486V166.763C261.02 173.695 264.948 173.719 269.762 173.719H356.336C361.186 173.719 365.114 173.719 365.114 166.763V165.545C365.114 162.582 366.872 160.193 369.078 160.193H406.504C416.967 160.193 425.441 163.156 425.441 183.615V570.369Z" fill="#263238"/>
<path d="M425.454 183.557V570.37C425.454 581.308 416.968 590.15 406.517 590.15H219.632C209.157 590.15 200.67 581.308 200.67 570.37V183.557C200.67 161.306 209.157 160.135 219.632 160.135H257.069C259.252 160.135 261.034 162.477 261.034 165.487V166.764C261.034 173.696 264.962 173.72 269.775 173.72H356.35C361.199 173.72 365.127 173.72 365.127 166.764V165.546C365.127 162.583 366.885 160.194 369.092 160.194H406.517C416.98 160.194 425.454 163.157 425.454 183.557Z" fill="white"/>
<path d="M425.454 183.567V218.7H200.67V183.567C200.67 161.316 209.157 160.145 219.632 160.145H257.069C259.252 160.145 261.034 162.487 261.034 165.497V166.773C261.034 173.706 264.962 173.73 269.775 173.73H356.35C361.199 173.73 365.127 173.73 365.127 166.773V165.555C365.127 162.593 366.885 160.204 369.092 160.204H406.517C416.98 160.204 425.454 163.166 425.454 183.567Z" fill="#ED7155"/>
<path d="M324.863 164.783H301.246C300.859 164.78 300.489 164.629 300.217 164.364C299.944 164.098 299.791 163.74 299.791 163.366C299.791 163.181 299.829 162.998 299.902 162.828C299.975 162.657 300.082 162.503 300.217 162.372C300.353 162.242 300.513 162.138 300.689 162.067C300.866 161.997 301.055 161.96 301.246 161.96H324.863C325.054 161.96 325.243 161.997 325.42 162.067C325.596 162.138 325.757 162.242 325.892 162.372C326.027 162.503 326.134 162.657 326.207 162.828C326.28 162.998 326.318 163.181 326.318 163.366C326.319 163.551 326.283 163.735 326.211 163.907C326.138 164.079 326.031 164.235 325.896 164.367C325.761 164.499 325.6 164.603 325.423 164.675C325.245 164.746 325.055 164.783 324.863 164.783Z" fill="white"/>
<path d="M234.833 193.276H215.326V205.221H234.833V193.276Z" fill="white"/>
<path d="M234.846 193.276C234.058 194.002 233.257 194.705 232.421 195.419L229.996 197.515L227.571 199.67L227.499 199.741L225.147 201.626L225.038 201.708L224.929 201.626L222.722 199.729H222.649C221.801 199.014 220.952 198.3 220.115 197.574L217.691 195.478C216.903 194.763 216.103 194.061 215.266 193.335C216.103 193.967 216.927 194.611 217.691 195.255C218.455 195.899 219.34 196.555 220.115 197.223C220.891 197.89 221.946 198.698 222.855 199.448L224.892 201.134L226.941 199.448L229.669 197.223L232.094 195.267L234.846 193.276Z" fill="#ED7155"/>
<path d="M223.051 199.658L222.735 199.904C222.251 200.302 221.741 200.688 221.232 201.075C220.723 201.461 220.02 201.965 219.341 202.398C218.662 202.831 218.056 203.253 217.401 203.663C216.746 204.073 216.067 204.471 215.389 204.834C215.97 204.33 216.601 203.862 217.207 203.405C217.813 202.948 218.419 202.515 219.111 202.082C219.802 201.648 220.396 201.227 221.05 200.817C221.705 200.407 222.117 200.173 222.663 199.868C222.784 199.795 222.909 199.729 223.039 199.669L223.051 199.658Z" fill="#ED7155"/>
<path d="M234.846 204.846C234.155 204.483 233.488 204.085 232.833 203.675C232.179 203.265 231.524 202.843 230.881 202.41C230.239 201.977 229.608 201.543 228.99 201.087C228.372 200.63 227.984 200.337 227.499 199.916L227.184 199.67L227.559 199.88C228.109 200.185 228.642 200.501 229.16 200.829C229.827 201.239 230.469 201.661 231.112 202.094C231.754 202.527 232.385 202.96 233.003 203.417C233.621 203.874 234.191 204.342 234.846 204.846Z" fill="#ED7155"/>
<path d="M239.017 193.275C239.017 194.075 238.771 194.857 238.311 195.521C237.851 196.186 237.197 196.704 236.432 197.009C235.667 197.315 234.825 197.394 234.014 197.237C233.202 197.08 232.457 196.694 231.872 196.128C231.288 195.562 230.891 194.841 230.731 194.056C230.57 193.272 230.655 192.459 230.973 191.721C231.292 190.983 231.83 190.353 232.519 189.91C233.209 189.468 234.019 189.233 234.846 189.235C235.954 189.238 237.014 189.665 237.796 190.423C238.578 191.18 239.017 192.206 239.017 193.275Z" fill="#455A64"/>
<path d="M236.215 194.083C236.212 194.167 236.175 194.248 236.112 194.307C236.048 194.366 235.964 194.399 235.876 194.399V194.844C235.861 194.919 235.82 194.986 235.759 195.035C235.698 195.083 235.621 195.11 235.543 195.11C235.464 195.11 235.387 195.083 235.326 195.035C235.265 194.986 235.224 194.919 235.209 194.844V194.399H233.318C233.28 194.402 233.243 194.397 233.207 194.385C233.171 194.373 233.139 194.354 233.112 194.328C233.08 194.3 233.055 194.266 233.038 194.227C233.021 194.189 233.012 194.148 233.012 194.106C233.012 194.064 233.021 194.023 233.038 193.985C233.055 193.946 233.08 193.912 233.112 193.883L235.221 191.167H235.318H235.512V193.509C235.591 193.419 235.704 193.362 235.825 193.353C235.947 193.343 236.068 193.38 236.161 193.456C236.254 193.532 236.312 193.641 236.322 193.758C236.333 193.876 236.294 193.992 236.215 194.083ZM235.149 192.326L233.936 193.766H235.149V192.326Z" fill="white"/>
<path d="M250.606 168.542L250.242 168.893L250.036 169.092C249.111 168.201 247.858 167.7 246.551 167.7C245.244 167.7 243.99 168.201 243.065 169.092L242.871 168.893C242.75 168.776 242.629 168.671 242.52 168.554L242.98 168.156C243.303 167.899 243.657 167.683 244.035 167.511C244.479 167.295 244.952 167.141 245.441 167.055C245.672 167.055 245.902 167.055 246.132 166.961H246.751H247.224C247.664 167.008 248.096 167.111 248.509 167.265C248.81 167.37 249.102 167.5 249.382 167.652C249.675 167.818 249.955 168.006 250.218 168.214L250.594 168.554L250.606 168.542Z" fill="white"/>
<path d="M244.206 170.194L243.636 169.643C244.249 169.011 245.065 168.599 245.952 168.472C246.59 168.386 247.24 168.447 247.85 168.65C248.459 168.854 249.009 169.194 249.455 169.643L248.886 170.194C248.263 169.598 247.422 169.266 246.546 169.269C246.112 169.265 245.681 169.345 245.28 169.504C244.878 169.663 244.513 169.897 244.206 170.194Z" fill="white"/>
<path d="M248.314 170.743C248.12 170.919 247.926 171.106 247.744 171.294C247.586 171.139 247.397 171.016 247.189 170.933C246.981 170.851 246.757 170.81 246.532 170.814C246.306 170.809 246.082 170.849 245.874 170.931C245.665 171.014 245.476 171.137 245.319 171.294L244.75 170.743C244.982 170.515 245.259 170.333 245.565 170.209C245.871 170.085 246.2 170.021 246.532 170.021C246.864 170.021 247.192 170.085 247.498 170.209C247.804 170.333 248.081 170.515 248.314 170.743Z" fill="white"/>
<path d="M247.053 171.786C247.055 171.887 247.027 171.986 246.97 172.07C246.914 172.155 246.833 172.221 246.737 172.261C246.641 172.3 246.535 172.311 246.433 172.292C246.331 172.273 246.237 172.225 246.163 172.154C246.09 172.083 246.04 171.992 246.02 171.893C246 171.794 246.012 171.692 246.053 171.6C246.093 171.507 246.162 171.429 246.25 171.374C246.337 171.32 246.44 171.292 246.544 171.294C246.679 171.294 246.808 171.346 246.904 171.438C246.999 171.531 247.053 171.656 247.053 171.786Z" fill="white"/>
<path d="M215.326 169.598C215.326 169.313 215.414 169.034 215.578 168.797C215.741 168.56 215.974 168.376 216.247 168.267C216.519 168.158 216.819 168.129 217.108 168.185C217.398 168.24 217.663 168.378 217.872 168.579C218.08 168.78 218.222 169.037 218.28 169.317C218.337 169.596 218.308 169.886 218.195 170.149C218.082 170.412 217.891 170.637 217.646 170.795C217.401 170.954 217.112 171.038 216.817 171.038C216.622 171.038 216.428 171.001 216.247 170.928C216.066 170.856 215.901 170.75 215.763 170.616C215.624 170.482 215.515 170.324 215.44 170.149C215.365 169.974 215.326 169.787 215.326 169.598Z" fill="white"/>
<path d="M220.018 169.598C220.018 169.313 220.105 169.034 220.269 168.797C220.433 168.56 220.666 168.376 220.938 168.267C221.211 168.158 221.511 168.129 221.8 168.185C222.089 168.24 222.355 168.378 222.564 168.579C222.772 168.78 222.914 169.037 222.972 169.317C223.029 169.596 223 169.886 222.887 170.149C222.774 170.412 222.583 170.637 222.338 170.795C222.092 170.954 221.804 171.038 221.509 171.038C221.114 171.038 220.734 170.886 220.455 170.616C220.175 170.346 220.018 169.98 220.018 169.598Z" fill="white"/>
<path d="M224.71 169.598C224.71 169.313 224.797 169.034 224.961 168.797C225.125 168.56 225.358 168.376 225.63 168.267C225.903 168.158 226.203 168.129 226.492 168.185C226.781 168.24 227.047 168.378 227.255 168.579C227.464 168.78 227.606 169.037 227.663 169.317C227.721 169.596 227.691 169.886 227.579 170.149C227.466 170.412 227.275 170.637 227.029 170.795C226.784 170.954 226.496 171.038 226.201 171.038C225.805 171.038 225.426 170.886 225.146 170.616C224.867 170.346 224.71 169.98 224.71 169.598Z" fill="white"/>
<path d="M229.404 169.598C229.404 169.313 229.491 169.034 229.655 168.797C229.819 168.56 230.052 168.376 230.324 168.267C230.597 168.158 230.897 168.129 231.186 168.185C231.475 168.24 231.741 168.378 231.949 168.579C232.158 168.78 232.3 169.037 232.357 169.317C232.415 169.596 232.385 169.886 232.273 170.149C232.16 170.412 231.969 170.637 231.723 170.795C231.478 170.954 231.19 171.038 230.895 171.038C230.699 171.038 230.505 171.001 230.324 170.928C230.143 170.856 229.979 170.75 229.84 170.616C229.702 170.482 229.592 170.324 229.517 170.149C229.442 169.974 229.404 169.787 229.404 169.598Z" fill="white"/>
<path d="M234.093 169.598C234.093 169.313 234.181 169.034 234.345 168.797C234.508 168.56 234.741 168.376 235.014 168.267C235.286 168.158 235.586 168.129 235.875 168.185C236.165 168.24 236.43 168.378 236.639 168.579C236.847 168.78 236.989 169.037 237.047 169.317C237.105 169.596 237.075 169.886 236.962 170.149C236.849 170.412 236.658 170.637 236.413 170.795C236.168 170.954 235.879 171.038 235.584 171.038C235.389 171.038 235.195 171.001 235.014 170.928C234.833 170.856 234.668 170.75 234.53 170.616C234.392 170.482 234.282 170.324 234.207 170.149C234.132 169.974 234.093 169.787 234.093 169.598Z" fill="white"/>
<path d="M408.577 172.747H396.453V167.313H408.577V172.747ZM397.071 172.149H407.982V167.91H397.071V172.149Z" fill="white"/>
<path d="M405.28 168.239H397.46V171.823H405.28V168.239Z" fill="white"/>
<path d="M409.668 168.578H408.589V171.482H409.668V168.578Z" fill="white"/>
<path d="M293.717 195.594C293.716 195.502 293.733 195.409 293.769 195.323C293.805 195.238 293.859 195.159 293.927 195.094C293.995 195.028 294.075 194.977 294.164 194.942C294.253 194.907 294.349 194.89 294.445 194.892C294.541 194.89 294.637 194.907 294.727 194.942C294.816 194.976 294.898 195.028 294.967 195.093C295.036 195.159 295.09 195.237 295.128 195.323C295.165 195.409 295.184 195.501 295.184 195.594V203.101C295.184 203.194 295.165 203.287 295.128 203.373C295.09 203.459 295.036 203.537 294.967 203.602C294.898 203.667 294.816 203.719 294.727 203.754C294.637 203.788 294.541 203.805 294.445 203.804C294.349 203.805 294.253 203.788 294.164 203.753C294.075 203.719 293.995 203.667 293.927 203.601C293.859 203.536 293.805 203.458 293.769 203.372C293.733 203.286 293.716 203.194 293.717 203.101V195.594Z" fill="white"/>
<path d="M299.101 203.101C299.101 203.285 299.026 203.462 298.892 203.594C298.758 203.725 298.577 203.801 298.386 203.804C298.291 203.804 298.197 203.786 298.109 203.75C298.022 203.715 297.942 203.663 297.876 203.597C297.809 203.532 297.757 203.454 297.721 203.369C297.686 203.284 297.669 203.193 297.67 203.101V195.7C297.662 195.587 297.683 195.475 297.732 195.372C297.781 195.27 297.855 195.181 297.949 195.114C298.105 195.01 298.297 194.968 298.484 194.996C298.671 195.025 298.84 195.121 298.956 195.266L303.211 200.958V195.7C303.214 195.519 303.291 195.346 303.425 195.219C303.558 195.092 303.739 195.021 303.926 195.021C304.115 195.02 304.296 195.091 304.432 195.218C304.568 195.345 304.647 195.518 304.654 195.7V203.101C304.654 203.287 304.577 203.466 304.441 203.598C304.304 203.73 304.119 203.804 303.926 203.804C303.822 203.801 303.719 203.776 303.625 203.732C303.531 203.687 303.447 203.624 303.381 203.546V203.476L299.101 197.819V203.101Z" fill="white"/>
<path d="M307.818 203.102V195.595C307.818 195.409 307.894 195.23 308.031 195.098C308.167 194.967 308.352 194.893 308.545 194.893H310.412C311.076 194.893 311.712 195.146 312.182 195.598C312.653 196.051 312.918 196.664 312.922 197.305C312.925 197.831 312.746 198.342 312.412 198.757C312.934 199.07 313.336 199.537 313.557 200.09C313.779 200.642 313.809 201.249 313.641 201.819C313.474 202.389 313.12 202.891 312.631 203.249C312.143 203.608 311.547 203.803 310.933 203.805H308.594C308.494 203.811 308.394 203.798 308.3 203.765C308.206 203.733 308.12 203.682 308.048 203.616C307.975 203.55 307.917 203.471 307.877 203.382C307.838 203.294 307.817 203.198 307.818 203.102ZM309.285 198.347H310.412C310.693 198.341 310.96 198.228 311.155 198.033C311.35 197.838 311.458 197.576 311.455 197.305C311.455 197.173 311.428 197.043 311.375 196.921C311.323 196.8 311.246 196.69 311.149 196.597C311.052 196.504 310.937 196.431 310.81 196.382C310.684 196.333 310.548 196.308 310.412 196.31H309.285V198.347ZM309.285 202.388H310.933C311.273 202.357 311.588 202.204 311.818 201.961C312.047 201.717 312.175 201.4 312.175 201.07C312.175 200.741 312.047 200.423 311.818 200.179C311.588 199.936 311.273 199.784 310.933 199.753H309.285V202.388Z" fill="white"/>
<path d="M322.924 195.993C323.78 196.864 324.258 198.019 324.258 199.22C324.258 200.42 323.78 201.575 322.924 202.446C322.523 202.869 322.036 203.207 321.494 203.441C320.952 203.675 320.366 203.798 319.772 203.804C319.167 203.8 318.57 203.678 318.015 203.444C317.461 203.211 316.962 202.871 316.547 202.446C315.704 201.569 315.236 200.416 315.236 199.22C315.236 198.023 315.704 196.87 316.547 195.993C316.964 195.574 317.465 195.242 318.02 195.016C318.574 194.791 319.17 194.677 319.772 194.682C320.362 194.68 320.947 194.795 321.489 195.021C322.031 195.246 322.52 195.577 322.924 195.993ZM322.754 199.214C322.754 198.39 322.434 197.596 321.857 196.989C321.594 196.706 321.273 196.479 320.914 196.324C320.554 196.169 320.165 196.088 319.772 196.087C319.371 196.085 318.974 196.164 318.606 196.32C318.239 196.475 317.909 196.703 317.638 196.989C317.061 197.596 316.741 198.39 316.741 199.214C316.736 200.039 317.057 200.834 317.638 201.439C317.908 201.726 318.238 201.956 318.605 202.113C318.973 202.271 319.37 202.352 319.772 202.352C320.166 202.349 320.556 202.266 320.915 202.109C321.274 201.952 321.595 201.723 321.857 201.439C322.438 200.834 322.759 200.039 322.754 199.214Z" fill="white"/>
<path d="M332.804 196.098L330.295 199.366L332.804 202.668C332.915 202.818 332.961 203.003 332.931 203.185C332.902 203.367 332.8 203.53 332.647 203.64C332.525 203.73 332.376 203.779 332.222 203.781C332.107 203.778 331.994 203.75 331.891 203.699C331.788 203.648 331.699 203.576 331.628 203.488L329.41 200.537L327.179 203.476C327.11 203.563 327.022 203.634 326.922 203.685C326.821 203.735 326.71 203.764 326.597 203.769C326.443 203.771 326.293 203.721 326.173 203.628C326.018 203.52 325.914 203.358 325.882 203.176C325.85 202.994 325.894 202.808 326.003 202.656L328.513 199.354L326.003 196.063C325.894 195.914 325.851 195.729 325.883 195.549C325.915 195.369 326.019 195.209 326.173 195.103C326.247 195.043 326.333 195 326.426 194.975C326.519 194.95 326.616 194.945 326.711 194.96C326.807 194.974 326.898 195.008 326.978 195.059C327.059 195.11 327.127 195.177 327.179 195.255L329.41 198.195L331.616 195.267C331.669 195.188 331.739 195.121 331.821 195.07C331.902 195.019 331.994 194.985 332.09 194.971C332.186 194.956 332.285 194.962 332.378 194.986C332.472 195.011 332.56 195.055 332.635 195.115C332.714 195.167 332.782 195.235 332.834 195.313C332.886 195.392 332.921 195.48 332.937 195.571C332.953 195.663 332.949 195.757 332.926 195.848C332.904 195.938 332.862 196.024 332.804 196.098Z" fill="white"/>
<path d="M394.49 203.732L392.962 204.904L390.137 201.297L389.107 199.973C389.318 199.893 389.518 199.787 389.701 199.657C390.043 199.399 390.31 199.06 390.477 198.673L391.58 200.067L394.49 203.732Z" fill="white"/>
<path d="M391.482 195.232C390.997 194.623 390.342 194.16 389.594 193.898C388.846 193.636 388.036 193.586 387.26 193.755C386.484 193.923 385.773 194.302 385.213 194.848C384.653 195.393 384.265 196.082 384.097 196.833C383.929 197.584 383.987 198.366 384.263 199.087C384.54 199.807 385.025 200.436 385.659 200.9C386.294 201.363 387.053 201.641 387.846 201.701C388.639 201.762 389.434 201.602 390.136 201.24C390.341 201.137 390.536 201.016 390.718 200.877C391.052 200.636 391.343 200.343 391.579 200.01C392.092 199.308 392.36 198.466 392.343 197.606C392.325 196.746 392.024 195.914 391.482 195.232ZM389.699 199.6C389.516 199.73 389.317 199.837 389.105 199.917C388.572 200.122 387.982 200.143 387.434 199.976C386.887 199.809 386.416 199.463 386.102 198.999C385.789 198.534 385.651 197.979 385.713 197.428C385.775 196.877 386.033 196.363 386.442 195.974C386.852 195.586 387.388 195.346 387.96 195.296C388.532 195.246 389.104 195.389 389.579 195.7C390.054 196.011 390.403 196.472 390.566 197.004C390.73 197.535 390.698 198.105 390.475 198.617C390.309 199.004 390.041 199.342 389.699 199.6Z" fill="white"/>
<path d="M373.759 193.896H362.678V204.6H373.759V193.896Z" fill="white"/>
<path d="M368.825 195.888H367.612V202.622H368.825V195.888Z" fill="#ED7155"/>
<path d="M364.727 198.664V199.835H371.698V198.664H364.727Z" fill="#ED7155"/>
<path d="M408.578 194.587C408.578 194.77 408.522 194.949 408.416 195.101C408.311 195.254 408.162 195.372 407.987 195.442C407.812 195.512 407.619 195.53 407.433 195.495C407.247 195.459 407.077 195.371 406.943 195.242C406.809 195.112 406.718 194.947 406.681 194.768C406.644 194.588 406.663 194.402 406.735 194.233C406.808 194.064 406.93 193.92 407.088 193.818C407.245 193.716 407.431 193.662 407.62 193.662C407.746 193.662 407.87 193.686 407.987 193.733C408.103 193.779 408.208 193.847 408.297 193.933C408.386 194.019 408.457 194.121 408.505 194.233C408.553 194.346 408.578 194.466 408.578 194.587Z" fill="white"/>
<path d="M408.578 199.367C408.578 199.612 408.477 199.847 408.297 200.021C408.118 200.194 407.874 200.292 407.62 200.292C407.366 200.292 407.122 200.194 406.943 200.021C406.763 199.847 406.662 199.612 406.662 199.367C406.662 199.245 406.687 199.125 406.735 199.013C406.783 198.9 406.854 198.798 406.943 198.712C407.032 198.627 407.137 198.558 407.253 198.512C407.37 198.465 407.494 198.441 407.62 198.441C407.746 198.441 407.87 198.465 407.987 198.512C408.103 198.558 408.208 198.627 408.297 198.712C408.386 198.798 408.457 198.9 408.505 199.013C408.553 199.125 408.578 199.245 408.578 199.367Z" fill="white"/>
<path d="M408.578 204.191C408.578 204.312 408.553 204.433 408.505 204.545C408.457 204.657 408.386 204.759 408.297 204.845C408.208 204.931 408.103 204.999 407.987 205.045C407.87 205.092 407.746 205.116 407.62 205.116C407.494 205.116 407.37 205.092 407.253 205.045C407.137 204.999 407.032 204.931 406.943 204.845C406.854 204.759 406.783 204.657 406.735 204.545C406.687 204.433 406.662 204.312 406.662 204.191C406.662 203.945 406.763 203.71 406.943 203.537C407.122 203.363 407.366 203.266 407.62 203.266C407.874 203.266 408.118 203.363 408.297 203.537C408.477 203.71 408.578 203.945 408.578 204.191Z" fill="white"/>
<path d="M425.442 218.653H200.67V252.182H425.442V218.653Z" fill="#F4F4F4"/>
<path d="M237.27 241.899C236.566 242.319 235.797 242.627 234.991 242.812C233.069 243.258 231.044 242.987 229.32 242.055C227.595 241.122 226.298 239.596 225.687 237.78C225.075 235.964 225.195 233.993 226.022 232.259C226.848 230.525 228.321 229.155 230.147 228.424C231.972 227.692 234.016 227.652 235.871 228.311C237.726 228.971 239.255 230.282 240.154 231.982C241.053 233.682 241.255 235.647 240.721 237.485C240.186 239.323 238.954 240.899 237.27 241.899Z" fill="#ED7155"/>
<path d="M235.464 234.498C235.464 234.961 235.322 235.414 235.055 235.799C234.789 236.184 234.41 236.484 233.967 236.662C233.524 236.839 233.036 236.885 232.566 236.795C232.096 236.705 231.664 236.482 231.325 236.154C230.985 235.826 230.755 235.409 230.661 234.955C230.567 234.5 230.615 234.029 230.799 233.601C230.982 233.173 231.293 232.808 231.692 232.55C232.091 232.293 232.56 232.156 233.039 232.156C233.682 232.156 234.299 232.402 234.754 232.842C235.208 233.281 235.464 233.877 235.464 234.498Z" fill="white"/>
<path d="M237.27 240.939V241.899C236.566 242.32 235.796 242.628 234.991 242.813C233.969 243.06 232.905 243.106 231.864 242.949C230.823 242.792 229.825 242.435 228.929 241.899V240.939C228.929 239.877 229.366 238.858 230.143 238.107C230.921 237.356 231.976 236.934 233.075 236.934C234.175 236.934 235.23 237.356 236.007 238.107C236.785 238.858 237.222 239.877 237.222 240.939H237.27Z" fill="white"/>
<path d="M282.564 240.46H272.137L276.393 235.424L272.137 230.388H282.564L286.819 235.424L282.564 240.46Z" fill="white"/>
<path d="M255.771 230.388L257.469 233.702L261.251 234.229L258.511 236.818L259.166 240.46L255.771 238.738L252.389 240.46L253.031 236.818L250.291 234.229L254.074 233.702L255.771 230.388Z" fill="#ED7155"/>
<path d="M355.814 233.375H294.299V237.474H355.814V233.375Z" fill="#263238"/>
<path d="M405.281 233.375H381.167V237.474H405.281V233.375Z" fill="#455A64"/>
<path d="M237.27 275.487C236.566 275.907 235.797 276.216 234.991 276.401C233.069 276.846 231.044 276.576 229.32 275.643C227.595 274.71 226.298 273.184 225.687 271.368C225.075 269.553 225.195 267.581 226.022 265.847C226.848 264.113 228.321 262.744 230.147 262.012C231.972 261.28 234.016 261.24 235.871 261.9C237.726 262.559 239.255 263.87 240.154 265.57C241.053 267.271 241.255 269.236 240.721 271.074C240.186 272.912 238.954 274.488 237.27 275.487Z" fill="#455A64"/>
<path d="M235.464 268.085C235.464 268.548 235.322 269.001 235.055 269.386C234.789 269.771 234.41 270.072 233.967 270.249C233.524 270.426 233.036 270.473 232.566 270.382C232.096 270.292 231.664 270.069 231.325 269.741C230.985 269.414 230.755 268.996 230.661 268.542C230.567 268.088 230.615 267.617 230.799 267.189C230.982 266.761 231.293 266.395 231.692 266.138C232.091 265.88 232.56 265.743 233.039 265.743C233.682 265.743 234.299 265.99 234.754 266.429C235.208 266.868 235.464 267.464 235.464 268.085Z" fill="white"/>
<path d="M237.27 274.469V275.488C236.566 275.908 235.796 276.216 234.991 276.401C233.969 276.651 232.905 276.699 231.863 276.543C230.822 276.386 229.824 276.027 228.929 275.488V274.527C228.929 273.465 229.366 272.446 230.143 271.695C230.921 270.944 231.976 270.522 233.075 270.522C234.175 270.522 235.23 270.944 236.007 271.695C236.785 272.446 237.222 273.465 237.222 274.527L237.27 274.469Z" fill="white"/>
<path d="M282.564 273.989H272.137L276.393 268.953L272.137 263.917H282.564L286.819 268.953L282.564 273.989Z" fill="white"/>
<path d="M282.71 274.316H271.495L276.005 268.988L271.495 263.659H282.71L287.207 268.988L282.71 274.316ZM272.78 273.731H282.479L286.48 268.988L282.479 264.303H272.78L276.781 268.988L272.78 273.731Z" fill="#F4F4F4"/>
<path d="M255.771 263.917L257.469 267.232L261.251 267.759L258.511 270.347L259.166 273.989L255.771 272.267L252.389 273.989L253.031 270.347L250.291 267.759L254.074 267.232L255.771 263.917Z" fill="#ED7155"/>
<path d="M355.814 266.903H294.299V271.002H355.814V266.903Z" fill="#263238"/>
<path d="M405.281 266.903H381.167V271.002H405.281V266.903Z" fill="#455A64"/>
<path d="M425.442 285.711H200.67V319.239H425.442V285.711Z" fill="#F4F4F4"/>
<path d="M237.27 308.956C236.563 309.376 235.795 309.688 234.99 309.882C233.059 310.34 231.019 310.078 229.279 309.147C227.538 308.217 226.225 306.687 225.6 304.863C224.976 303.039 225.087 301.054 225.91 299.305C226.734 297.556 228.209 296.171 230.043 295.427C231.877 294.683 233.934 294.633 235.804 295.289C237.673 295.945 239.218 297.258 240.13 298.965C241.042 300.673 241.254 302.65 240.724 304.502C240.194 306.353 238.96 307.944 237.27 308.956Z" fill="#ED7155"/>
<path d="M235.464 301.613C235.464 302.076 235.322 302.529 235.055 302.914C234.789 303.3 234.41 303.6 233.967 303.777C233.524 303.954 233.036 304.001 232.566 303.91C232.096 303.82 231.664 303.597 231.325 303.269C230.985 302.942 230.755 302.524 230.661 302.07C230.567 301.616 230.615 301.145 230.799 300.717C230.982 300.289 231.293 299.923 231.692 299.666C232.091 299.408 232.56 299.271 233.039 299.271C233.682 299.271 234.299 299.518 234.754 299.957C235.208 300.396 235.464 300.992 235.464 301.613Z" fill="white"/>
<path d="M237.27 307.996V308.957C236.564 309.376 235.795 309.688 234.991 309.882C233.968 310.13 232.904 310.176 231.862 310.017C230.821 309.858 229.823 309.497 228.929 308.957V307.996C228.929 306.934 229.366 305.915 230.143 305.164C230.921 304.413 231.976 303.991 233.075 303.991C234.175 303.991 235.23 304.413 236.007 305.164C236.785 305.915 237.222 306.934 237.222 307.996H237.27Z" fill="white"/>
<path d="M282.564 307.517H272.137L276.393 302.481L272.137 297.446H282.564L286.819 302.481L282.564 307.517Z" fill="white"/>
<path d="M255.771 297.446L257.469 300.76L261.251 301.287L258.511 303.875L259.166 307.517L255.771 305.796L252.389 307.517L253.031 303.875L250.291 301.287L254.074 300.76L255.771 297.446Z" fill="white"/>
<path d="M355.814 300.431H294.299V304.53H355.814V300.431Z" fill="#4D4C4C"/>
<path d="M405.281 300.431H381.167V304.53H405.281V300.431Z" fill="#D51818"/>
<path d="M237.27 342.487C236.563 342.906 235.795 343.218 234.99 343.412C233.059 343.87 231.019 343.608 229.279 342.678C227.538 341.748 226.225 340.218 225.6 338.393C224.976 336.569 225.087 334.585 225.91 332.836C226.734 331.086 228.209 329.702 230.043 328.957C231.877 328.213 233.934 328.164 235.804 328.82C237.673 329.475 239.218 330.788 240.13 332.496C241.042 334.203 241.254 336.18 240.724 338.032C240.194 339.884 238.96 341.475 237.27 342.487Z" fill="#950404"/>
<path d="M235.464 335.142C235.464 335.606 235.322 336.059 235.055 336.444C234.789 336.829 234.41 337.129 233.967 337.306C233.524 337.484 233.036 337.53 232.566 337.44C232.096 337.349 231.664 337.126 231.325 336.799C230.985 336.471 230.755 336.054 230.661 335.599C230.567 335.145 230.615 334.674 230.799 334.246C230.982 333.818 231.293 333.452 231.692 333.195C232.091 332.938 232.56 332.8 233.039 332.8C233.682 332.8 234.299 333.047 234.754 333.486C235.208 333.925 235.464 334.521 235.464 335.142Z" fill="white"/>
<path d="M237.27 341.537V342.485C236.564 342.904 235.795 343.216 234.991 343.41C233.968 343.658 232.904 343.704 231.862 343.545C230.821 343.386 229.823 343.026 228.929 342.485V341.537C228.929 340.474 229.366 339.456 230.143 338.704C230.921 337.953 231.976 337.531 233.075 337.531C234.175 337.531 235.23 337.953 236.007 338.704C236.785 339.456 237.222 340.474 237.222 341.537H237.27Z" fill="white"/>
<path d="M282.564 341.045H272.137L276.393 336.01L272.137 330.974H282.564L286.819 336.01L282.564 341.045Z" fill="white"/>
<path d="M282.71 341.339H271.495L276.005 336.01L271.495 330.682H282.71L287.207 336.01L282.71 341.339ZM272.78 340.753H282.479L286.48 336.069L282.479 331.326H272.78L276.781 336.069L272.78 340.753Z" fill="#F4F4F4"/>
<path d="M255.771 330.974L257.469 334.288L261.251 334.827L258.511 337.403L259.166 341.045L255.771 339.324L252.389 341.045L253.031 337.403L250.291 334.827L254.074 334.288L255.771 330.974Z" fill="#ED7155"/>
<path d="M355.814 333.96H294.299V338.058H355.814V333.96Z" fill="#4D4C4C"/>
<path d="M405.281 333.96H381.167V338.058H405.281V333.96Z" fill="#D51818"/>
<path d="M425.442 352.779H200.67V386.308H425.442V352.779Z" fill="#F4F4F4"/>
<path d="M237.27 376.015C236.563 376.434 235.795 376.746 234.99 376.94C233.059 377.398 231.019 377.136 229.279 376.206C227.538 375.276 226.225 373.746 225.6 371.922C224.976 370.097 225.087 368.113 225.91 366.364C226.734 364.615 228.209 363.23 230.043 362.486C231.877 361.741 233.934 361.692 235.804 362.348C237.673 363.004 239.218 364.316 240.13 366.024C241.042 367.731 241.254 369.708 240.724 371.56C240.194 373.412 238.96 375.003 237.27 376.015Z" fill="#37474F"/>
<path d="M235.464 368.671C235.464 369.134 235.322 369.587 235.055 369.972C234.789 370.357 234.41 370.657 233.967 370.834C233.524 371.012 233.036 371.058 232.566 370.968C232.096 370.877 231.664 370.654 231.325 370.327C230.985 369.999 230.755 369.582 230.661 369.127C230.567 368.673 230.615 368.202 230.799 367.774C230.982 367.346 231.293 366.98 231.692 366.723C232.091 366.466 232.56 366.328 233.039 366.328C233.682 366.328 234.299 366.575 234.754 367.014C235.208 367.454 235.464 368.049 235.464 368.671Z" fill="white"/>
<path d="M237.27 375.031V375.979C236.564 376.399 235.795 376.711 234.991 376.905C233.968 377.152 232.904 377.198 231.862 377.039C230.821 376.88 229.823 376.52 228.929 375.979V375.031C228.929 373.969 229.366 372.95 230.143 372.199C230.921 371.448 231.976 371.026 233.075 371.026C234.175 371.026 235.23 371.448 236.007 372.199C236.785 372.95 237.222 373.969 237.222 375.031H237.27Z" fill="white"/>
<path d="M282.564 374.575H272.137L276.393 369.539L272.137 364.503H282.564L286.819 369.539L282.564 374.575Z" fill="white"/>
<path d="M255.771 364.503L257.469 367.817L261.251 368.356L258.511 370.933L259.166 374.575L255.771 372.853L252.389 374.575L253.031 370.933L250.291 368.356L254.074 367.817L255.771 364.503Z" fill="#ED7155"/>
<path d="M355.814 367.489H294.299V371.588H355.814V367.489Z" fill="#4D4C4C"/>
<path d="M405.281 367.489H381.167V371.588H405.281V367.489Z" fill="#D51818"/>
<path d="M425.453 553.95V570.346C425.503 573.735 424.665 577.081 423.015 580.073C421.366 583.064 418.96 585.604 416.021 587.456H210.113C207.173 585.605 204.767 583.065 203.117 580.073C201.468 577.082 200.63 573.735 200.681 570.346V553.95H425.453Z" fill="#F4F4F4"/>
<path d="M237.27 577.197C236.563 577.616 235.795 577.928 234.99 578.122C233.059 578.58 231.019 578.318 229.279 577.388C227.538 576.458 226.225 574.928 225.6 573.104C224.976 571.279 225.087 569.295 225.91 567.546C226.734 565.797 228.209 564.412 230.043 563.668C231.877 562.923 233.934 562.874 235.804 563.53C237.673 564.186 239.218 565.498 240.13 567.206C241.042 568.913 241.254 570.89 240.724 572.742C240.194 574.594 238.96 576.185 237.27 577.197Z" fill="#ED7155"/>
<path d="M235.464 569.855C235.464 570.318 235.322 570.771 235.055 571.156C234.789 571.541 234.41 571.842 233.967 572.019C233.524 572.196 233.036 572.243 232.566 572.152C232.096 572.062 231.664 571.839 231.325 571.511C230.985 571.184 230.755 570.766 230.661 570.312C230.567 569.858 230.615 569.387 230.799 568.959C230.982 568.531 231.293 568.165 231.692 567.908C232.091 567.65 232.56 567.513 233.039 567.513C233.682 567.513 234.299 567.76 234.754 568.199C235.208 568.638 235.464 569.234 235.464 569.855Z" fill="white"/>
<path d="M237.27 576.237V577.197C236.564 577.617 235.795 577.929 234.991 578.123C233.968 578.368 232.904 578.412 231.863 578.253C230.822 578.094 229.824 577.735 228.929 577.197V576.237C228.929 575.175 229.366 574.156 230.143 573.405C230.921 572.654 231.976 572.232 233.075 572.232C234.175 572.232 235.23 572.654 236.007 573.405C236.785 574.156 237.222 575.175 237.222 576.237H237.27Z" fill="white"/>
<path d="M282.564 575.756H272.137L276.393 570.72L272.137 565.684H282.564L286.819 570.72L282.564 575.756Z" fill="white"/>
<path d="M255.771 565.684L257.469 568.998L261.251 569.525L258.511 572.114L259.166 575.756L255.771 574.034L252.389 575.756L253.031 572.114L250.291 569.525L254.074 568.998L255.771 565.684Z" fill="#ED7155"/>
<path d="M355.814 568.671H294.299V572.77H355.814V568.671Z" fill="#4D4C4C"/>
<path d="M405.281 568.671H381.167V572.77H405.281V568.671Z" fill="#D51818"/>
<path d="M237.27 409.543C236.21 410.173 235.011 410.553 233.77 410.651C232.53 410.748 231.283 410.561 230.131 410.104C228.98 409.648 227.956 408.934 227.145 408.022C226.333 407.111 225.756 406.026 225.462 404.858C225.117 403.492 225.17 402.06 225.615 400.721C226.06 399.382 226.88 398.188 227.984 397.271C229.088 396.354 230.433 395.75 231.87 395.526C233.307 395.302 234.781 395.466 236.128 396C237.474 396.534 238.642 397.418 239.501 398.553C240.36 399.689 240.878 401.031 240.996 402.433C241.114 403.835 240.829 405.241 240.171 406.495C239.514 407.75 238.509 408.805 237.27 409.543Z" fill="#263238"/>
<path d="M235.464 402.2C235.464 402.663 235.322 403.116 235.055 403.501C234.789 403.886 234.41 404.186 233.967 404.364C233.524 404.541 233.036 404.587 232.566 404.497C232.096 404.407 231.664 404.184 231.325 403.856C230.985 403.528 230.755 403.111 230.661 402.657C230.567 402.202 230.615 401.732 230.799 401.304C230.982 400.876 231.293 400.51 231.692 400.252C232.091 399.995 232.56 399.858 233.039 399.858C233.682 399.858 234.299 400.104 234.754 400.544C235.208 400.983 235.464 401.579 235.464 402.2Z" fill="white"/>
<path d="M237.271 408.594V409.543C236.026 410.29 234.59 410.686 233.125 410.686C231.659 410.686 230.223 410.29 228.978 409.543V408.594C228.978 407.532 229.415 406.513 230.193 405.762C230.97 405.011 232.025 404.589 233.125 404.589C234.224 404.589 235.279 405.011 236.056 405.762C236.834 406.513 237.271 407.532 237.271 408.594Z" fill="white"/>
<path d="M282.564 408.103H272.137L276.393 403.067L272.137 398.031H282.564L286.819 403.067L282.564 408.103Z" fill="white"/>
<path d="M282.71 408.395H271.495L276.005 403.067L271.495 397.738H282.71L287.207 403.067L282.71 408.395ZM272.78 407.81H282.479L286.48 403.067L282.479 398.324H272.78L276.781 403.067L272.78 407.81Z" fill="#F4F4F4"/>
<path d="M255.771 398.031L257.469 401.345L261.251 401.884L258.511 404.461L259.166 408.103L255.771 406.381L252.389 408.103L253.031 404.461L250.291 401.884L254.074 401.345L255.771 398.031Z" fill="white"/>
<path d="M259.566 408.641L255.771 406.72L251.976 408.641L252.704 404.566L249.636 401.673L253.88 401.088L255.771 397.375L257.662 401.088L261.905 401.673L258.838 404.566L259.566 408.641ZM255.771 406.053L258.753 407.575L258.184 404.355L260.608 402.083L257.262 401.615L255.771 398.698L254.243 401.615L250.909 402.083L253.334 404.355L252.764 407.575L255.771 406.053Z" fill="#F4F4F4"/>
<path d="M355.814 401.017H294.299V405.116H355.814V401.017Z" fill="#4D4C4C"/>
<path d="M405.281 401.017H381.167V405.116H405.281V401.017Z" fill="#D51818"/>
<path d="M425.442 419.837H200.67V453.365H425.442V419.837Z" fill="#F4F4F4"/>
<path d="M237.271 443.083C236.564 443.498 235.795 443.807 234.991 443.996C233.477 444.352 231.888 444.265 230.425 443.748C228.962 443.231 227.69 442.307 226.77 441.092C225.85 439.877 225.324 438.426 225.258 436.923C225.192 435.419 225.589 433.93 226.398 432.644C227.208 431.358 228.394 430.333 229.807 429.698C231.219 429.063 232.795 428.847 234.335 429.076C235.875 429.306 237.309 429.972 238.458 430.989C239.606 432.006 240.416 433.33 240.786 434.792C241.179 436.355 241.051 437.999 240.42 439.488C239.788 440.977 238.686 442.235 237.271 443.083Z" fill="#ED7155"/>
<path d="M235.464 435.728C235.464 436.191 235.322 436.644 235.055 437.029C234.789 437.414 234.41 437.715 233.967 437.892C233.524 438.069 233.036 438.116 232.566 438.025C232.096 437.935 231.664 437.712 231.325 437.384C230.985 437.057 230.755 436.639 230.661 436.185C230.567 435.731 230.615 435.26 230.799 434.832C230.982 434.404 231.293 434.038 231.692 433.781C232.091 433.523 232.56 433.386 233.039 433.386C233.682 433.386 234.299 433.633 234.754 434.072C235.208 434.511 235.464 435.107 235.464 435.728Z" fill="white"/>
<path d="M237.27 442.122V443.082C236.563 443.498 235.795 443.806 234.991 443.996C233.968 444.244 232.904 444.29 231.862 444.131C230.821 443.972 229.823 443.611 228.929 443.071V442.122C228.929 441.06 229.366 440.041 230.143 439.29C230.921 438.539 231.976 438.117 233.075 438.117C234.175 438.117 235.23 438.539 236.007 439.29C236.785 440.041 237.222 441.06 237.222 442.122H237.27Z" fill="white"/>
<path d="M282.564 441.644H272.137L276.393 436.596L272.137 431.561H282.564L286.819 436.596L282.564 441.644Z" fill="white"/>
<path d="M255.771 431.561L257.469 434.886L261.251 435.413L258.511 437.99L259.166 441.644L255.771 439.922L252.389 441.644L253.031 437.99L250.291 435.413L254.074 434.886L255.771 431.561Z" fill="#ED7155"/>
<path d="M355.814 434.556H294.299V438.655H355.814V434.556Z" fill="#263238"/>
<path d="M405.281 434.556H381.167V438.655H405.281V434.556Z" fill="#455A64"/>
<path d="M237.271 476.611C236.566 477.031 235.797 477.34 234.991 477.525C233.477 477.88 231.888 477.794 230.425 477.277C228.962 476.76 227.69 475.835 226.77 474.62C225.85 473.405 225.324 471.954 225.258 470.451C225.192 468.947 225.589 467.458 226.398 466.172C227.208 464.886 228.394 463.861 229.807 463.226C231.219 462.591 232.795 462.375 234.335 462.605C235.875 462.834 237.309 463.5 238.458 464.517C239.606 465.535 240.416 466.858 240.786 468.32C241.179 469.883 241.051 471.527 240.42 473.016C239.788 474.505 238.686 475.763 237.271 476.611Z" fill="#ED7155"/>
<path d="M235.464 469.257C235.464 469.721 235.322 470.173 235.055 470.559C234.789 470.944 234.41 471.244 233.967 471.421C233.524 471.599 233.036 471.645 232.566 471.555C232.096 471.464 231.664 471.241 231.325 470.914C230.985 470.586 230.755 470.169 230.661 469.714C230.567 469.26 230.615 468.789 230.799 468.361C230.982 467.933 231.293 467.567 231.692 467.31C232.091 467.053 232.56 466.915 233.039 466.915C233.682 466.915 234.299 467.162 234.754 467.601C235.208 468.04 235.464 468.636 235.464 469.257Z" fill="white"/>
<path d="M237.27 475.65V476.611C236.566 477.031 235.796 477.339 234.991 477.524C233.968 477.772 232.904 477.818 231.862 477.659C230.821 477.5 229.823 477.139 228.929 476.599V475.65C228.929 474.588 229.366 473.569 230.143 472.818C230.921 472.067 231.976 471.645 233.075 471.645C234.175 471.645 235.23 472.067 236.007 472.818C236.785 473.569 237.222 474.588 237.222 475.65H237.27Z" fill="white"/>
<path d="M282.564 475.171H272.137L276.393 470.135L272.137 465.1H282.564L286.819 470.135L282.564 475.171Z" fill="white"/>
<path d="M282.71 475.464H271.495L276.005 470.135L271.495 464.807H282.71L287.207 470.135L282.71 475.464ZM272.78 474.878H282.479L286.48 470.135L282.479 465.451H272.78L276.781 470.135L272.78 474.878Z" fill="#F4F4F4"/>
<path d="M255.771 465.1L257.469 468.414L261.251 468.941L258.511 471.517L259.166 475.171L255.771 473.45L252.389 475.171L253.031 471.517L250.291 468.941L254.074 468.414L255.771 465.1Z" fill="white"/>
<path d="M259.566 475.745L255.771 473.824L251.976 475.745L252.704 471.669L249.636 468.718L253.88 468.121L255.771 464.408L257.662 468.121L261.905 468.718L258.838 471.599L259.566 475.745ZM250.946 469.198L253.37 471.47L252.801 474.679L255.783 473.157L258.765 474.679L258.196 471.47L260.62 469.198L257.274 468.718L255.783 465.802L254.243 468.718L250.946 469.198Z" fill="#F4F4F4"/>
<path d="M355.814 468.085H294.299V472.184H355.814V468.085Z" fill="#4D4C4C"/>
<path d="M405.281 468.085H381.167V472.184H405.281V468.085Z" fill="#D51818"/>
<path d="M425.442 486.894H200.67V520.423H425.442V486.894Z" fill="#F4F4F4"/>
<path d="M237.27 510.141C236.566 510.561 235.797 510.869 234.991 511.054C233.069 511.5 231.044 511.229 229.32 510.296C227.595 509.364 226.298 507.837 225.687 506.022C225.075 504.206 225.195 502.235 226.022 500.501C226.848 498.767 228.321 497.397 230.147 496.666C231.972 495.934 234.016 495.894 235.871 496.553C237.726 497.213 239.255 498.523 240.154 500.224C241.053 501.924 241.255 503.889 240.721 505.727C240.186 507.565 238.954 509.141 237.27 510.141Z" fill="#455A64"/>
<path d="M235.464 502.786C235.464 503.249 235.322 503.702 235.055 504.087C234.789 504.472 234.41 504.772 233.967 504.949C233.524 505.127 233.036 505.173 232.566 505.083C232.096 504.992 231.664 504.769 231.325 504.442C230.985 504.114 230.755 503.697 230.661 503.243C230.567 502.788 230.615 502.317 230.799 501.889C230.982 501.461 231.293 501.095 231.692 500.838C232.091 500.581 232.56 500.443 233.039 500.443C233.682 500.443 234.299 500.69 234.754 501.129C235.208 501.569 235.464 502.164 235.464 502.786Z" fill="white"/>
<path d="M237.27 509.18V510.14C236.566 510.56 235.796 510.869 234.991 511.053C233.969 511.3 232.905 511.347 231.864 511.19C230.823 511.033 229.825 510.676 228.929 510.14V509.18C228.929 508.117 229.366 507.099 230.143 506.348C230.921 505.596 231.976 505.174 233.075 505.174C234.175 505.174 235.23 505.596 236.007 506.348C236.785 507.099 237.222 508.117 237.222 509.18H237.27Z" fill="white"/>
<path d="M282.564 508.699H272.137L276.393 503.664L272.137 498.628H282.564L286.819 503.664L282.564 508.699Z" fill="white"/>
<path d="M255.771 498.628L257.469 501.942L261.251 502.469L258.511 505.045L259.166 508.699L255.771 506.978L252.389 508.699L253.031 505.045L250.291 502.469L254.074 501.942L255.771 498.628Z" fill="white"/>
<path d="M355.814 501.615H294.299V505.713H355.814V501.615Z" fill="#4D4C4C"/>
<path d="M405.281 501.615H381.167V505.713H405.281V501.615Z" fill="#D51818"/>
<path d="M237.27 543.668C236.566 544.088 235.797 544.396 234.991 544.581C233.069 545.027 231.044 544.756 229.32 543.824C227.595 542.891 226.298 541.365 225.687 539.549C225.075 537.733 225.195 535.762 226.022 534.028C226.848 532.294 228.321 530.924 230.147 530.193C231.972 529.461 234.016 529.421 235.871 530.08C237.726 530.74 239.255 532.05 240.154 533.751C241.053 535.451 241.255 537.416 240.721 539.254C240.186 541.092 238.954 542.668 237.27 543.668Z" fill="#950404"/>
<path d="M235.464 536.326C235.464 536.789 235.322 537.242 235.055 537.627C234.789 538.012 234.41 538.312 233.967 538.49C233.524 538.667 233.036 538.713 232.566 538.623C232.096 538.533 231.664 538.309 231.325 537.982C230.985 537.654 230.755 537.237 230.661 536.783C230.567 536.328 230.615 535.857 230.799 535.429C230.982 535.001 231.293 534.636 231.692 534.378C232.091 534.121 232.56 533.984 233.039 533.984C233.682 533.984 234.299 534.23 234.754 534.67C235.208 535.109 235.464 535.705 235.464 536.326Z" fill="white"/>
<path d="M237.27 542.709V543.669C236.566 544.09 235.796 544.398 234.991 544.583C233.969 544.833 232.905 544.881 231.863 544.724C230.822 544.567 229.824 544.208 228.929 543.669V542.709C228.929 541.647 229.366 540.628 230.143 539.877C230.921 539.126 231.976 538.704 233.075 538.704C234.175 538.704 235.23 539.126 236.007 539.877C236.785 540.628 237.222 541.647 237.222 542.709H237.27Z" fill="white"/>
<path d="M282.564 542.227H272.137L276.393 537.192L272.137 532.156H282.564L286.819 537.192L282.564 542.227Z" fill="white"/>
<path d="M282.71 542.498H271.495L276.005 537.17L271.495 531.841H282.71L287.207 537.17L282.71 542.498ZM272.78 541.913H282.479L286.48 537.228L282.479 532.485H272.78L276.781 537.228L272.78 541.913Z" fill="#F4F4F4"/>
<path d="M255.771 532.156L257.469 535.47L261.251 535.997L258.511 538.585L259.166 542.227L255.771 540.506L252.389 542.227L253.031 538.585L250.291 535.997L254.074 535.47L255.771 532.156Z" fill="white"/>
<path d="M259.566 542.767L255.771 540.834L251.976 542.767L252.704 538.679L249.636 535.799L253.88 535.201L255.771 531.489L257.662 535.201L261.905 535.799L258.838 538.679L259.566 542.767ZM255.771 540.155L258.753 541.666L258.184 538.457L260.608 536.185L257.262 535.717L255.771 532.789L254.28 535.717L250.946 536.185L253.37 538.457L252.801 541.666L255.771 540.155Z" fill="#F4F4F4"/>
<path d="M355.814 535.142H294.299V539.241H355.814V535.142Z" fill="#4D4C4C"/>
<path d="M405.281 535.142H381.167V539.241H405.281V535.142Z" fill="#D51818"/>
<path d="M235.731 604.237H137.311C125.539 564.349 116.071 533.971 116.071 533.971H209.386C209.386 533.971 220.916 564.057 235.731 604.237Z" fill="#37474F"/>
<path d="M151.727 604.237H149.702C143.871 585.44 137.809 566.761 131.868 547.942C131.783 547.696 132.183 547.579 132.28 547.825C133.493 551.08 134.705 554.336 135.917 557.603C141.591 573.015 146.792 588.591 151.727 604.237Z" fill="#263238"/>
<path d="M207.254 534.006C207.145 535.892 201.944 553.142 199.252 578.953C198.27 588.474 197.155 597.433 195.967 604.237H65.3588C52.435 565.661 71.6146 533.971 71.6146 533.971C71.6146 533.971 207.266 533.924 207.254 534.006Z" fill="#37474F"/>
<path d="M181.152 576.728C181.612 583.205 181.77 589.693 181.685 596.169C181.472 598.854 181.448 601.549 181.612 604.238H179.345C178.8 600.127 179.345 595.009 179.345 590.969C179.272 574.234 177.066 557.686 174.399 541.174C174.396 541.1 174.421 541.027 174.468 540.969C174.516 540.911 174.583 540.87 174.658 540.855C174.733 540.84 174.812 540.85 174.879 540.885C174.947 540.92 175 540.976 175.029 541.045C178.333 552.705 180.384 564.663 181.152 576.728Z" fill="#263238"/>
<path d="M197.349 585.091C197.228 588.534 196.258 597.703 193.457 604.238H191.505C195.3 595.303 195.082 577.865 194.803 573.79C194.015 561.844 193.057 550.625 190.96 538.048C190.887 537.65 191.566 537.626 191.651 537.989C195.349 553.167 197.858 569.515 197.349 585.091Z" fill="#263238"/>
<path d="M73.4211 550.753C69.6385 566.552 71.4813 583.544 75.0941 599.178C75.47 600.876 75.8943 602.563 76.3065 604.237H74.3425C68.9959 582.443 67.3593 559.888 76.7672 538.75C76.8884 538.492 77.2885 538.75 77.1794 538.972C75.6186 542.801 74.3622 546.74 73.4211 550.753Z" fill="#263238"/>
<path d="M290.252 303.593L268.793 369.573C267.933 371.493 268.866 373.156 270.854 373.262L306.595 375.229C307.689 375.213 308.756 374.896 309.671 374.316C310.586 373.735 311.31 372.914 311.759 371.95L333.17 306.017C334.031 304.085 333.097 302.434 331.109 302.328L295.465 300.361C294.368 300.364 293.294 300.67 292.37 301.242C291.447 301.815 290.712 302.631 290.252 303.593Z" fill="#37474F"/>
<path d="M294.494 303.839L273.083 369.772C272.223 371.692 273.156 373.343 275.157 373.461L310.885 375.428C311.981 375.41 313.048 375.092 313.965 374.512C314.881 373.932 315.608 373.112 316.062 372.149L337.46 306.204C338.321 304.284 337.399 302.691 335.399 302.527L299.658 300.548C298.564 300.569 297.498 300.89 296.583 301.472C295.669 302.054 294.945 302.875 294.494 303.839Z" fill="#455A64"/>
<path d="M304.108 307.435C304.061 308.014 303.836 308.568 303.463 309.024C303.09 309.48 302.585 309.82 302.013 309.999C301.44 310.178 300.825 310.189 300.246 310.031C299.666 309.872 299.149 309.551 298.758 309.109C298.368 308.666 298.122 308.121 298.052 307.544C297.983 306.966 298.092 306.381 298.366 305.864C298.64 305.346 299.067 304.918 299.593 304.635C300.119 304.352 300.72 304.226 301.32 304.273C302.124 304.335 302.869 304.704 303.391 305.296C303.914 305.889 304.172 306.658 304.108 307.435Z" fill="#263238"/>
<path d="M169.051 398.58C186.425 441.454 228.118 498.346 246.885 499.775C255.808 500.465 271.617 503.545 284.02 494.376C311.08 474.373 335.291 434.345 341.268 410.935C343.401 402.609 302.205 381.658 295.465 388.11C279.704 403.241 260.488 433.678 257.881 433.326C248.328 432.015 212.806 399.365 188.037 376.423C157.97 348.551 162.105 381.494 169.051 398.58Z" fill="#EB9481"/>
<path d="M345.293 367.465C341.971 350.062 338.358 346.092 343.62 329.99C347.075 319.45 341.571 312.739 333.096 320.867C319.227 334.147 318.633 357.463 320.839 365.603L345.293 367.465Z" fill="#EB9481"/>
<path d="M338.696 418.151C338.696 418.151 348.226 394.811 346.589 375.992C345.449 362.946 339.703 334.816 303.247 317.835C294.603 313.807 279.327 313.994 290.978 325.529C299.246 333.727 307.066 336.502 310.982 342.112C310.982 342.112 291.584 344.571 287.729 353.097C284.38 360.552 281.581 368.226 279.351 376.062C280.742 376.787 282.18 377.424 283.655 377.971C283.655 377.971 280.321 386.063 285.862 398.196L338.696 418.151Z" fill="#EB9481"/>
<path d="M343.449 363.647C338.345 358.869 327.349 348.926 315.419 343.808C302.18 338.128 275.072 330.633 270.828 340.119C267.725 347.076 277.812 350.823 277.812 350.823C277.812 350.823 265.931 350.003 264.548 356.878C263.336 363.143 271.265 365.591 271.265 365.591C271.265 365.591 263.991 366.293 263.991 372.559C263.991 380.089 279.254 377.384 286.068 385.031C287.571 386.741 343.449 363.647 343.449 363.647Z" fill="#EB9481"/>
<path d="M311.54 358.33C305.976 354.594 291.088 349.254 278.055 350.647C277.752 350.647 277.618 350.905 277.897 350.929C289.369 352.114 300.649 354.639 311.492 358.447C311.565 358.482 311.601 358.365 311.54 358.33Z" fill="#263238"/>
<path d="M305.164 371.084C300.023 368.332 284.432 363.495 271.217 365.334C270.927 365.334 270.805 365.615 271.084 365.638C282.581 366.245 293.969 368.112 305.03 371.201C305.046 371.218 305.069 371.228 305.093 371.229C305.117 371.23 305.14 371.222 305.158 371.207C305.175 371.191 305.186 371.169 305.187 371.146C305.188 371.123 305.18 371.101 305.164 371.084Z" fill="#263238"/>
<path d="M223.281 402.071L216.661 409.835L215.291 411.451L188.777 442.392C188.777 442.392 164.784 404.542 159.935 383.017C157.037 370.135 159.123 362.464 164.954 361.071C165.388 360.972 165.83 360.91 166.276 360.883C170.046 360.567 175.114 362.488 181.176 366.809C198.246 378.989 223.281 402.071 223.281 402.071Z" fill="#ED7155"/>
<path d="M221.802 400.795C221.19 402.735 220.441 404.633 219.559 406.474L223.196 402.259C223.205 402.208 223.205 402.157 223.196 402.106C223.087 401.895 222.59 401.439 221.802 400.795ZM181.079 366.833C178.723 368.28 176.564 370.007 174.653 371.974C168.846 377.844 165.599 385.648 165.585 393.768C165.603 395.949 165.748 398.126 166.021 400.291C166.619 401.626 167.226 402.961 167.84 404.296C167.731 403.43 167.609 402.575 167.488 401.696C166.643 397.021 166.578 392.245 167.294 387.55C168.06 383.848 169.519 380.312 171.598 377.115C174.16 373.121 177.574 369.699 181.612 367.079C181.455 366.985 181.321 366.88 181.176 366.774L181.079 366.833Z" fill="white"/>
<path d="M183.625 429.522C185.056 426.266 199.786 406.72 212.055 394.307C212.092 394.266 212.144 394.242 212.2 394.239C212.256 394.235 212.31 394.253 212.352 394.289C212.394 394.325 212.419 394.375 212.423 394.429C212.426 394.483 212.407 394.536 212.37 394.576C211.158 396.099 186.911 427.496 184.05 429.873C183.819 430.072 183.528 429.756 183.625 429.522Z" fill="#263238"/>
<path opacity="0.05" d="M205.749 422.612L188.776 442.38C188.776 442.38 164.783 404.542 159.934 383.017C156.588 368.168 159.849 360.274 167.814 360.872L205.749 422.612Z" fill="black"/>
<path d="M210.6 539.205C207.206 542.719 63.6739 557.533 62.8495 556.573C60.6551 553.985 73.8578 413.863 132.657 362.534C143.023 353.493 161.33 356.069 169.816 360.719C174.047 363.061 181.419 382.407 188.632 405.021C194.088 422.295 212.685 536.934 210.6 539.205Z" fill="#ED7155"/>
<path d="M210.6 539.206C209.848 539.991 202.114 541.349 190.56 542.965L189.25 543.141C183.407 543.949 176.666 544.816 169.392 545.694L167.816 545.893C147.048 548.411 122.279 551.105 102.009 553.166L101.354 553.224C79.5315 555.449 63.1283 556.901 62.8494 556.574C62.5706 556.246 62.5706 550.402 63.5284 541.197C63.5284 540.811 63.6132 540.401 63.6496 540.026C65.941 518.747 72.2937 480.089 85.2175 442.696C85.4236 442.087 85.6419 441.525 85.848 440.881C89.7152 429.733 94.278 418.822 99.5113 408.207C99.6689 407.891 99.8144 407.587 99.9841 407.27C105.107 396.857 111.279 386.956 118.412 377.712C118.654 377.407 118.885 377.115 119.139 376.834C123.193 371.693 127.717 366.915 132.657 362.558C134.042 361.365 135.578 360.346 137.228 359.525C137.604 359.337 137.992 359.162 138.38 358.998C143.549 356.902 149.182 356.096 154.759 356.656L156.141 356.796C160.922 357.248 165.566 358.592 169.816 360.754C171.477 361.68 173.635 365.216 176.072 370.592C176.193 370.826 176.302 371.084 176.411 371.341C180.049 379.539 184.401 391.765 188.632 405.057C190.123 409.741 192.609 421.687 195.361 436.583L195.543 437.59C196.5 442.731 197.482 448.235 198.464 453.904C198.61 454.712 198.755 455.508 198.889 456.316C200.889 467.886 202.889 480.042 204.672 491.379C204.732 491.835 204.805 492.304 204.89 492.749C206.393 502.445 207.727 511.486 208.757 518.97C208.83 519.567 208.903 520.141 208.988 520.726C210.358 531.477 211.061 538.656 210.6 539.206Z" fill="#ED7155"/>
<path d="M163.898 525.622C161.452 522.319 158.338 519.531 154.745 517.424C150.885 515.257 146.629 513.829 142.209 513.22C137.578 512.447 132.716 512.049 128.376 510.105C124.23 508.29 121.32 505.046 118.422 501.778C117.659 500.923 116.871 500.068 116.07 499.249C116.98 498.651 117.901 498.078 118.847 497.48C124.29 494.248 130.304 491.812 135.335 487.971C139.888 484.561 143.076 479.731 144.355 474.304C145.578 468.956 145.156 463.38 143.142 458.26C141.004 453.094 137.481 448.571 132.934 445.156C128.273 441.708 122.944 439.198 117.261 437.774C111.578 436.35 105.658 436.04 99.849 436.864C94.989 437.491 90.2555 438.825 85.8098 440.823C85.6037 441.432 85.3855 441.994 85.1794 442.638C87.3344 441.59 89.5722 440.709 91.8716 440.003C102.963 436.483 115.042 437.303 125.515 442.286C130.566 444.713 134.937 448.28 138.257 452.686C141.451 457.043 143.251 462.211 143.433 467.547C143.686 472.821 142.121 478.027 138.984 482.35C135.347 487.116 129.806 489.997 124.545 492.749C121.296 494.459 118.144 496.262 115.076 498.265C113.303 496.489 111.175 495.078 108.82 494.119C104.91 492.741 100.625 492.716 96.6969 494.049C88.1497 496.824 83.0699 504.823 82.0879 513.22C81.609 517.902 82.1711 522.63 83.7367 527.086C80.1736 530.613 76.1893 533.718 71.8677 536.337C69.273 537.886 66.487 539.114 63.5751 539.991C63.5751 540.389 63.4902 540.799 63.4539 541.162C63.9752 541.022 64.4965 540.869 65.0057 540.694C72.4375 538.27 78.6205 533.609 84.2095 528.374C85.7656 532.438 87.7995 536.316 90.2713 539.933C93.4715 544.703 97.1682 549.145 101.304 553.189L101.959 553.131C99.5676 550.693 97.3289 548.12 95.2541 545.425C90.908 540.038 87.4597 534.028 85.0339 527.613C87.1071 525.622 89.1075 523.549 91.0957 521.499C94.9268 517.471 98.6972 513.302 102.783 509.543C106.592 506.005 110.7 502.782 115.064 499.904C117.671 502.586 119.914 505.619 122.751 508.102C126.098 510.788 130.122 512.57 134.413 513.267C138.863 514.168 143.446 514.531 147.822 515.831C151.719 517.019 155.299 519.018 158.309 521.687C161.344 524.297 163.775 527.494 165.446 531.072C167.117 534.649 167.99 538.526 168.008 542.45C168 543.607 167.907 544.761 167.729 545.905L169.305 545.706C170.177 538.593 168.247 531.423 163.898 525.622ZM108.384 503.008C103.789 506.664 99.4812 510.645 95.4966 514.918C91.8595 518.689 88.3558 522.635 84.5853 526.324C83.9208 524.243 83.4581 522.106 83.2032 519.942C82.2576 511.744 84.8399 502.375 92.1384 497.48C95.4722 495.213 99.4844 494.065 103.559 494.213C107.552 494.48 111.297 496.18 114.058 498.979C112.13 500.256 110.227 501.579 108.384 503.008ZM204.609 491.297C200.414 494.541 196.426 498.078 191.734 500.666C184.981 504.39 175.694 506.369 169.548 500.455C166.987 498.054 165.444 494.817 165.22 491.377C164.996 487.936 166.107 484.538 168.335 481.846C170.76 478.567 173.755 475.815 176.107 472.477C178.035 469.686 179.718 466.745 181.138 463.682C184.15 464.556 187.376 464.445 190.316 463.366C193.902 461.974 196.894 459.447 198.802 456.199C198.669 455.391 198.523 454.595 198.378 453.787C197.427 455.586 196.201 457.236 194.741 458.682C193.393 460.067 191.743 461.144 189.91 461.835C188.077 462.526 186.107 462.813 184.145 462.675C183.351 462.598 182.564 462.461 181.793 462.265C181.974 461.902 182.144 461.528 182.314 461.094C185.721 453.576 188.57 445.624 193.928 439.113C194.404 438.527 194.91 437.964 195.444 437.426L195.262 436.419C190.219 441.478 186.969 448.06 184.096 454.419C182.969 456.914 181.865 459.42 180.665 461.902C177.974 460.976 175.536 459.47 173.536 457.499C166.953 451.023 166.456 441.022 167.135 432.496C167.572 427.296 168.347 422.12 168.614 416.921C168.671 411.786 168.266 406.657 167.402 401.591C166.557 396.915 166.491 392.139 167.208 387.444C167.974 383.742 169.432 380.206 171.512 377.01C172.852 374.884 174.448 372.919 176.264 371.154C176.155 370.896 176.046 370.639 175.925 370.405C175.464 370.826 175.015 371.259 174.567 371.716C168.726 377.664 165.505 385.57 165.583 393.768C165.583 399.108 166.687 404.366 167.111 409.683C167.4 415.161 167.128 420.653 166.299 426.079C165.171 435.553 164.165 445.987 169.281 454.606C171.696 458.661 175.499 461.775 180.035 463.413C179.465 464.584 178.883 465.755 178.252 466.833C177.138 468.833 175.89 470.761 174.518 472.606C173.221 474.316 171.766 475.909 170.336 477.513C167.705 480.476 165.026 483.708 164.274 487.62C163.629 490.979 164.166 494.45 165.802 497.48C167.38 500.553 170.029 502.991 173.282 504.366C177.22 505.833 181.561 505.945 185.575 504.683C193.165 502.539 198.911 497.375 204.888 492.714C204.743 492.269 204.67 491.8 204.609 491.344V491.297ZM208.925 520.645C205.106 517.717 201.033 514.789 196.038 514.403C193.596 514.132 191.135 514.718 189.103 516.054C187.246 517.409 185.862 519.281 185.139 521.417C183.484 526.125 183.679 531.255 185.684 535.834C186.841 538.492 188.484 540.928 190.534 543.024L189.224 543.2C187.863 541.777 186.679 540.205 185.696 538.516C184.305 536.106 183.38 533.47 182.969 530.739C182.217 525.996 182.969 520.656 186.193 516.85C189.697 512.728 195.407 512.306 200.317 514.04C203.376 515.234 206.217 516.895 208.731 518.958C208.768 519.532 208.84 520.118 208.925 520.691V520.645ZM154.83 358.565C155.266 357.979 155.666 357.394 156.042 356.761L154.66 356.621C151.847 360.791 148.503 364.603 144.706 367.969L143.955 368.66C143.191 366.071 141.99 363.622 140.403 361.411C139.762 360.546 139.053 359.732 138.281 358.975C137.893 359.139 137.505 359.314 137.129 359.502C139.67 361.997 141.553 365.046 142.621 368.39C142.742 368.777 142.852 369.163 142.961 369.561C139.676 372.706 135.832 375.253 131.613 377.08C127.636 378.637 122.787 378.954 119.041 376.822C118.786 377.103 118.556 377.396 118.313 377.701C121.414 379.419 125.064 379.966 128.558 379.235C134.122 378.216 138.875 374.667 143.033 371.142L143.312 370.908C145.058 378.146 144.403 385.781 145.579 393.159C146.925 401.556 151.096 410.046 148.95 418.642C148.244 422.012 146.345 425.039 143.579 427.203C141.913 428.302 139.998 428.998 137.995 429.23C135.993 429.462 133.961 429.225 132.074 428.538C123.49 425.879 118.483 417.998 111.379 413.15C107.736 410.87 103.89 408.91 99.8854 407.294C99.7156 407.61 99.5701 407.915 99.4125 408.231C101.837 409.344 104.262 410.386 106.468 411.569C108.205 412.453 109.866 413.467 111.439 414.602C113.277 415.997 115.026 417.499 116.677 419.099C119.962 422.19 123.187 425.481 127.188 427.741C130.825 429.791 135.177 431.091 139.396 430.306C141.206 429.92 142.91 429.167 144.396 428.097C145.882 427.027 147.116 425.664 148.016 424.099C149.863 420.934 150.816 417.356 150.78 413.723C150.78 409.039 149.459 404.355 148.283 399.823C147.619 397.412 147.089 394.969 146.695 392.503C146.379 390.325 146.198 388.147 146.064 385.957C145.929 381.619 145.557 377.292 144.949 372.993C144.779 371.997 144.573 371.014 144.331 370.03C148.262 366.599 151.784 362.753 154.83 358.565Z" fill="white"/>
<path d="M118.69 382.057C95.0615 429.568 63.4309 547.638 58.7876 564.994C55.6233 576.775 119.309 588.709 120.994 580.523C122.934 571.154 147.29 432.964 144.865 383.193C143.544 355.953 126.862 365.661 118.69 382.057Z" fill="#EB9481"/>
<path d="M121.782 575.077C121.03 584.024 115.72 602.223 111.258 605.186C106.797 608.149 82.3193 608.805 70.0381 609.437C57.7568 610.07 55.1139 606.908 55.0897 602.774C55.0654 598.64 80.8766 596.579 80.8766 596.579C80.8766 596.579 46.9304 607.88 38.3348 609.871C29.7391 611.861 10.0382 617.752 6.81336 610.96C5.26154 607.891 10.5596 604.448 10.5596 604.448C10.5596 604.448 2.30337 607.236 0.75155 603.277C-1.0185 598.769 5.51614 595.911 5.51614 595.911C5.51614 595.911 0.327222 597.199 0.0120078 593.463C-0.71541 585.137 31.8487 579.41 31.8487 579.41C31.8487 579.41 7.38317 592.491 6.20718 585.723C4.58262 576.354 55.4655 563.401 60.5938 559.022C64.3212 555.687 67.7785 552.081 70.9352 548.236L121.782 575.077Z" fill="#EB9481"/>
<path d="M55.4172 604.835C55.2999 604.257 55.3291 603.66 55.5022 603.095C55.6753 602.531 55.9872 602.014 56.4113 601.591C57.2533 600.764 58.2327 600.08 59.3089 599.565C61.5298 598.506 63.8472 597.648 66.2314 597.001C71.0203 595.56 75.9303 594.471 80.7798 592.984C75.6579 593.165 70.5811 593.979 65.6738 595.408C63.1693 596.095 60.7776 597.12 58.5693 598.453C57.4273 599.136 56.4447 600.041 55.6839 601.111C55.312 601.657 55.0921 602.287 55.0454 602.939C54.9987 603.592 55.1267 604.245 55.4172 604.835Z" fill="#263238"/>
<path d="M10.5592 604.447C14.0629 603.428 17.506 602.281 20.937 601.133C24.368 599.985 27.7869 598.791 31.2057 597.62L41.426 593.943C44.8327 592.771 48.2273 591.507 51.6704 590.324C48.063 590.895 44.4989 591.697 41.0016 592.725C37.4858 593.685 34.0427 594.856 30.6117 596.051C27.1807 597.245 23.7982 598.557 20.4642 599.974C17.1302 601.391 13.7962 602.784 10.5592 604.447Z" fill="#263238"/>
<path d="M42.8935 582.396C39.563 582.776 36.265 583.387 33.0249 584.223C29.773 585.03 26.5679 586.003 23.423 587.139C20.2733 588.259 17.1929 589.554 14.1969 591.015C11.1865 592.445 8.28562 594.081 5.51636 595.91C8.63213 594.739 11.6509 593.357 14.7424 592.186C17.834 591.015 20.9134 589.844 24.0291 588.673C27.1449 587.502 30.2728 586.483 33.4007 585.417C36.5286 584.352 39.7171 583.403 42.8935 582.396Z" fill="#263238"/>
<path d="M37.3891 574.702C32.0119 575.378 26.7498 576.732 21.7375 578.731C16.6817 580.634 11.9081 583.174 7.54077 586.284C12.5478 584.27 17.4094 582.174 22.3801 580.288C27.3508 578.403 32.3821 576.564 37.3891 574.702Z" fill="#263238"/>
<path d="M146.089 436.641L89.3264 436.911C89.3264 436.911 104.736 392.842 119.405 374.632C134.075 356.421 145.847 358.822 147.156 380.253C148.465 401.684 146.089 436.641 146.089 436.641Z" fill="#ED7155"/>
<path d="M147.157 380.254C147.23 381.226 147.278 382.245 147.315 383.264C147.315 383.72 147.315 384.177 147.388 384.646C148.188 406.112 146.102 436.642 146.102 436.642L130.681 436.724H129.141L89.3396 436.935C89.3396 436.935 95.8742 418.198 104.458 400.186C104.749 399.589 105.028 399.015 105.343 398.383C109.719 389.342 114.593 380.617 119.394 374.656C134.076 356.422 145.836 358.835 147.157 380.254Z" fill="#ED7155"/>
<path d="M100.092 436.866L111.622 436.795C107.79 436.362 103.918 436.386 100.092 436.866ZM146.732 392.458C146.417 390.28 146.235 388.101 146.102 385.911C145.966 381.574 145.594 377.247 144.986 372.947C144.816 371.952 144.61 370.968 144.368 369.984C144.586 369.774 144.816 369.586 145.047 369.364C144.877 368.942 144.707 368.544 144.526 368.193C144.356 368.368 144.162 368.521 143.992 368.696C143.664 367.571 143.259 366.467 142.78 365.394C142.119 364.56 141.295 363.86 140.355 363.333C141.373 364.93 142.187 366.641 142.78 368.427C142.901 368.813 143.01 369.2 143.119 369.598C139.835 372.742 135.991 375.289 131.771 377.116C127.468 378.814 122.133 379.037 118.29 376.273C118.06 376.578 117.841 376.87 117.623 377.187C119.226 378.249 121.038 378.982 122.946 379.34C124.854 379.699 126.818 379.675 128.716 379.271C134.281 378.252 139.033 374.704 143.192 371.179L143.471 370.945C145.217 378.182 144.562 385.818 145.738 393.196C146.186 395.936 146.95 398.7 147.653 401.464C147.653 399.906 147.653 398.348 147.653 396.779C147.229 395.304 146.938 393.887 146.732 392.458ZM143.616 427.146C141.951 428.245 140.036 428.941 138.033 429.173C136.03 429.405 133.999 429.168 132.111 428.481C123.527 425.822 118.52 417.941 111.416 413.092C108.119 411.005 104.633 409.21 101.002 407.729C100.844 408.045 100.711 408.373 100.565 408.701C102.578 409.626 104.602 410.528 106.506 411.523C108.242 412.408 109.904 413.422 111.476 414.556C113.315 415.952 115.064 417.454 116.714 419.053C119.999 422.145 123.224 425.436 127.225 427.696C130.862 429.745 135.215 431.045 139.434 430.261C142.31 429.672 144.883 428.131 146.708 425.904C146.708 425.213 146.781 424.487 146.805 423.738C145.977 425.06 144.894 426.217 143.616 427.146Z" fill="white"/>
<path d="M96.6368 424.215C100.274 423.138 126.473 421.463 145.046 422.658C145.104 422.658 145.16 422.68 145.201 422.72C145.242 422.759 145.265 422.813 145.265 422.869C145.265 422.925 145.242 422.978 145.201 423.018C145.16 423.057 145.104 423.079 145.046 423.079C142.998 423.197 100.516 425.422 96.6368 424.789C96.261 424.778 96.3216 424.344 96.6368 424.215Z" fill="#263238"/>
<path d="M149.691 403.406C149.691 403.369 149.675 403.333 149.648 403.307C149.621 403.28 149.584 403.265 149.545 403.265C149.507 403.265 149.47 403.28 149.442 403.307C149.415 403.333 149.4 403.369 149.4 403.406C148.881 405.271 148.476 407.163 148.187 409.074C148.103 409.507 148.042 409.952 147.957 410.386C147.799 405.701 147.569 401.146 147.315 396.555C147.315 396.344 146.951 396.344 146.963 396.555C147.108 412.47 146.672 427.004 145.666 436.208L140.744 436.607C140.675 436.62 140.613 436.656 140.569 436.708C140.525 436.76 140.501 436.826 140.501 436.894C140.501 436.961 140.525 437.026 140.569 437.079C140.613 437.131 140.675 437.167 140.744 437.18L146.999 437.391C147.266 437.391 148.309 424.134 148.054 413.688C148.394 412.178 148.757 410.679 149.012 409.156C149.39 407.259 149.617 405.337 149.691 403.406Z" fill="#263238"/>
<path d="M97.0013 436.923C94.4432 437.075 91.8851 437.204 89.3392 437.274H88.83L88.9876 436.794C89.9817 433.773 91.0001 430.763 92.1155 427.788C93.2308 424.814 94.3583 421.828 95.5707 418.888C96.7831 415.949 97.9954 413.033 99.4139 410.128C100.832 407.224 102.19 404.378 103.778 401.603L100.141 410.456L96.6497 419.31L93.1581 428.175L89.6786 437.099L89.3392 436.63C91.8851 436.642 94.4432 436.771 97.0013 436.923Z" fill="#263238"/>
<path d="M166.323 384.997C157.691 387.749 141.397 376.026 134.474 366.001C134.002 365.311 134.474 336.174 133.989 330.4C133.88 329.229 172.385 336.045 172.385 336.045C172.385 336.045 169.778 348.482 170.748 358.553C170.845 359.396 174.664 382.338 166.323 384.997Z" fill="#EB9481"/>
<path d="M172.398 336.032C172.398 336.208 172.216 336.934 172.022 338.105C171.682 340.096 171.173 343.316 170.87 346.97C170.496 350.81 170.467 354.673 170.785 358.517C170.797 358.785 170.83 359.051 170.882 359.314V359.442C170.967 359.911 171.04 360.543 171.125 361.293C169.928 361.552 168.712 361.72 167.487 361.796C146.986 363.061 137.918 339.393 135.178 330.235L135.833 330.294C136.839 330.364 138.173 330.516 139.773 330.715L140.985 330.879C143.543 331.231 146.598 331.699 149.775 332.191C150.817 332.355 151.86 332.507 152.927 332.695C155.206 333.081 157.51 333.456 159.643 333.795C160.565 333.971 161.474 334.123 162.323 334.264C163.171 334.404 164.202 334.58 165.063 334.721L166.275 334.931L166.869 335.048L170.058 335.599L171.585 335.857C171.802 335.891 172.017 335.938 172.228 335.997C172.288 335.997 172.313 335.997 172.337 335.997L172.398 336.032Z" fill="#263238"/>
<path d="M126.618 287.948C122.981 300.982 131.298 338.024 141.082 346.034C155.291 357.64 177.901 358.073 187.976 341.748C197.675 325.927 186 277.818 175.125 270.604C159.098 259.982 132.001 268.695 126.618 287.948Z" fill="#EB9481"/>
<path d="M132.183 324.204C139.033 322.073 136.002 304.858 136.002 304.858C136.002 304.858 144.174 300.173 144.065 284.059C144.065 284.059 152.891 298.428 181.442 289.973C181.416 284.826 179.72 279.817 176.592 275.651C180.373 280.005 183.779 284.65 186.776 289.54C186.776 289.54 189.407 264.947 167.172 260.262C158.322 258.4 145.919 261.234 128.558 273.613C128.558 273.613 122.872 263.225 120.945 265.052C119.017 266.879 125.152 276.435 125.152 276.435C125.152 276.435 116.326 275.381 115.235 277.314C114.289 278.976 122.727 279.656 122.727 279.656C122.727 279.656 110.603 285.804 115.453 299.681C119.805 312.376 128.789 325.27 132.183 324.204Z" fill="#263238"/>
<path d="M125.007 279C121.296 279.519 117.909 281.331 115.484 284.094C113.059 286.857 111.763 290.381 111.84 294.002C111.974 298.136 113.829 302.305 115.865 305.889C118.159 309.693 120.95 313.196 124.17 316.311C124.34 316.487 124.607 316.194 124.425 316.019C121.584 313.059 119.232 309.693 117.454 306.041C115.55 302.637 114.224 298.96 113.526 295.15C113.058 291.603 113.988 288.016 116.13 285.101C118.273 282.185 121.471 280.154 125.092 279.41C125.142 279.394 125.184 279.36 125.21 279.316C125.237 279.271 125.246 279.219 125.235 279.169C125.225 279.119 125.196 279.074 125.154 279.043C125.112 279.012 125.06 278.997 125.007 279Z" fill="#263238"/>
<path d="M149.775 259.22C145.006 261.162 140.522 263.702 136.439 266.774C132.412 269.513 128.901 272.9 126.061 276.787C125.928 276.986 126.195 277.22 126.364 277.033C132.729 270.44 141.022 265.451 149.399 261.516C157.195 257.827 166.93 256.152 174.398 261.516C174.409 261.531 174.423 261.543 174.44 261.551C174.456 261.56 174.475 261.565 174.494 261.565C174.512 261.566 174.531 261.562 174.548 261.555C174.565 261.547 174.58 261.536 174.592 261.521C174.604 261.507 174.612 261.491 174.616 261.473C174.62 261.455 174.619 261.437 174.615 261.419C174.61 261.402 174.601 261.385 174.589 261.372C174.576 261.358 174.561 261.347 174.544 261.34C167.657 255.578 157.74 256.105 149.775 259.22Z" fill="#263238"/>
<path d="M136.366 318.292C136.366 318.292 127.443 306.358 121.817 309.45C116.192 312.542 123.03 329.921 129.722 332.216C130.559 332.568 131.462 332.752 132.375 332.758C133.288 332.764 134.193 332.592 135.035 332.252C135.878 331.911 136.64 331.41 137.277 330.778C137.914 330.146 138.412 329.397 138.742 328.574L136.366 318.292Z" fill="#EB9481"/>
<path d="M123.902 314.379C123.793 314.379 123.781 314.52 123.902 314.555C128.594 316.312 131.116 320.411 132.898 324.755C131.492 323.116 129.588 322.226 127.297 323.854C127.176 323.936 127.297 324.123 127.418 324.088C128.235 323.824 129.116 323.81 129.941 324.049C130.766 324.288 131.494 324.768 132.025 325.423C132.9 326.516 133.656 327.693 134.28 328.936C134.498 329.334 135.25 329.112 135.092 328.643C135.09 328.612 135.09 328.581 135.092 328.55C135.056 322.835 130.304 314.871 123.902 314.379Z" fill="#263238"/>
<path d="M166.602 309.215C166.602 309.133 166.432 309.367 166.445 309.472C166.99 311.932 167.172 314.848 165.002 316.066C164.989 316.071 164.978 316.08 164.97 316.092C164.962 316.103 164.958 316.116 164.958 316.13C164.958 316.144 164.962 316.157 164.97 316.169C164.978 316.18 164.989 316.189 165.002 316.195C167.802 315.305 167.524 311.475 166.602 309.215Z" fill="#263238"/>
<path d="M163.839 307.025C159.669 307.435 160.808 315.481 164.676 315.106C168.543 314.731 167.343 306.686 163.839 307.025Z" fill="#263238"/>
<path d="M181.284 306.31C181.284 306.216 181.502 306.403 181.515 306.509C181.793 309.003 182.545 311.826 184.994 312.364C185.067 312.364 185.079 312.505 184.994 312.505C182.084 312.481 181.127 308.722 181.284 306.31Z" fill="#263238"/>
<path d="M183.223 303.405C187.333 302.55 188.8 310.549 184.993 311.333C181.187 312.118 179.78 304.119 183.223 303.405Z" fill="#263238"/>
<path d="M159.934 304.764C160.984 304.306 162.008 303.794 163.001 303.23C164.162 302.843 165.156 302.093 165.826 301.098C165.973 300.749 165.996 300.362 165.893 299.998C165.791 299.634 165.567 299.313 165.256 299.084C164.564 298.723 163.784 298.547 162.998 298.573C162.212 298.6 161.447 298.829 160.783 299.236C159.311 299.856 158.131 300.984 157.473 302.398C157.344 302.73 157.316 303.09 157.394 303.436C157.472 303.783 157.652 304.1 157.912 304.35C158.172 304.6 158.501 304.772 158.86 304.845C159.218 304.919 159.591 304.89 159.934 304.764Z" fill="#263238"/>
<path d="M185.236 299.003C184.086 298.929 182.941 298.796 181.805 298.604C180.578 298.628 179.377 298.262 178.386 297.562C178.12 297.285 177.956 296.929 177.921 296.552C177.886 296.175 177.981 295.797 178.192 295.478C178.707 294.906 179.371 294.477 180.115 294.236C180.859 293.995 181.656 293.951 182.424 294.107C184.033 294.184 185.553 294.845 186.679 295.958C186.924 296.223 187.084 296.551 187.14 296.902C187.195 297.254 187.142 297.613 186.989 297.936C186.836 298.26 186.589 298.533 186.277 298.722C185.966 298.911 185.604 299.009 185.236 299.003Z" fill="#263238"/>
<path d="M167.088 331.383C167.791 331.886 168.519 332.554 169.513 332.554C170.469 332.411 171.383 332.071 172.192 331.558C172.277 331.558 172.374 331.558 172.326 331.676C172.026 332.213 171.582 332.663 171.04 332.979C170.498 333.294 169.879 333.463 169.246 333.467C168.701 333.403 168.187 333.184 167.771 332.838C167.354 332.492 167.054 332.035 166.906 331.523C166.797 331.383 166.955 331.312 167.088 331.383Z" fill="#263238"/>
<path d="M168.736 323.56C169.531 324.459 170.51 325.19 171.612 325.706C172.714 326.222 173.914 326.512 175.137 326.558C176.204 326.611 177.274 326.516 178.314 326.277C178.515 326.244 178.713 326.197 178.908 326.136L179.465 325.972C179.598 325.929 179.713 325.845 179.792 325.733C179.87 325.621 179.909 325.487 179.902 325.352L179.841 325.094V324.872C179.611 322.951 179.005 320.058 179.005 320.058C179.781 320.316 183.709 321.429 183.515 320.433C181.817 312.236 179.938 303.054 176.459 295.208C176.441 295.147 176.399 295.096 176.342 295.065C176.285 295.034 176.218 295.027 176.156 295.044C176.093 295.061 176.04 295.101 176.008 295.156C175.976 295.211 175.968 295.276 175.986 295.337C177.295 303.312 180.035 311.006 181.478 318.993C180.08 318.57 178.626 318.345 177.162 318.325C176.895 318.442 178.435 323.9 178.471 324.766C178.474 324.797 178.474 324.829 178.471 324.86C175.198 325.715 172.543 325.071 168.991 323.338C168.736 323.185 168.554 323.384 168.736 323.56Z" fill="#263238"/>
<path d="M177.005 325.458C176.112 326.972 174.83 328.239 173.283 329.135C172.425 329.601 171.436 329.794 170.458 329.686C168.325 329.44 168.034 327.625 168.167 326.009C168.257 325.15 168.453 324.305 168.749 323.491C171.213 324.98 174.106 325.67 177.005 325.458Z" fill="#263238"/>
<path d="M173.283 329.134C172.425 329.6 171.436 329.792 170.458 329.684C168.325 329.438 168.034 327.623 168.167 326.007C170.41 325.937 172.798 327.084 173.283 329.134Z" fill="#FF9ABB"/>
</svg>
