<svg width="169" height="46" viewBox="0 0 169 46" fill="none" xmlns="http://www.w3.org/2000/svg">
<path d="M28.4162 0.526646C21.7043 3.04671 18.1328 10.3891 20.2572 17.296C21.5812 21.5583 24.9987 24.6695 29.7709 25.9139C32.6651 26.6917 35.1898 26.4428 38.3918 25.105C39.2539 24.7628 39.531 24.7628 40.4854 25.2295C41.0704 25.5095 41.563 25.9451 41.563 26.2251C41.563 27.0029 43.1948 26.7851 43.9953 25.9451L44.7035 25.1673L44.0569 24.3272C43.1332 23.145 43.2256 21.5583 44.3648 19.256C47.0742 13.7803 45.935 7.68238 41.4399 3.42005C38.8228 0.962213 36.8831 0.184415 32.9422 0.0288561C30.6022 -0.0644796 29.6786 0.0599679 28.4162 0.526646ZM36.4829 4.75786C38.4534 5.66011 40.2083 7.43348 41.1628 9.51798C41.8093 10.9491 41.9017 11.5091 41.8093 13.5625C41.6862 16.3626 41.0396 17.8871 39.3154 19.6293C37.4373 21.5272 35.7132 22.1805 32.6343 22.1805C30.5099 22.1805 29.7709 22.0561 28.6933 21.4649C25.4913 19.7538 23.6748 17.0471 23.4593 13.7181C23.2745 11.1358 24.0135 9.08241 25.7684 7.09125C28.6625 3.82451 32.5727 2.98448 36.4829 4.75786Z" fill="#002064"/>
<path d="M26.5392 12.4424C25.7079 13.2824 26.3545 14.558 27.6168 14.558C28.4789 14.558 28.9407 13.6869 28.6021 12.7535C28.325 12.0068 27.155 11.8201 26.5392 12.4424Z" fill="#002064"/>
<path d="M30.2337 12.3491C29.9874 12.5046 29.8643 13.0024 29.9258 13.5002C30.0182 14.3091 30.1414 14.4025 31.0958 14.4025C31.9887 14.4025 32.2042 14.278 32.2658 13.6869C32.4505 12.4113 31.3113 11.6646 30.2337 12.3491Z" fill="#002064"/>
<path d="M33.5587 12.5359C33.3432 12.8159 33.2509 13.3137 33.374 13.7803C33.5587 14.4648 33.7127 14.5893 34.5748 14.4959C35.4061 14.4026 35.5908 14.247 35.6524 13.5003C35.8063 12.1625 34.39 11.5092 33.5587 12.5359Z" fill="#002064"/>
<path d="M36.9449 12.6913C36.2059 14.0602 38.1148 15.2736 39.1001 14.0913C39.408 13.718 39.408 13.438 39.1617 12.8468C38.7306 11.8824 37.4375 11.789 36.9449 12.6913Z" fill="#002064"/>
<path d="M14.5005 3.35778C11.668 4.16669 8.3428 5.97118 6.34153 7.77567C0.0606387 13.438 -1.78668 22.8649 1.84638 30.6118C2.36979 31.6696 2.77004 32.7585 2.77004 33.0074C2.77004 33.2874 2.27742 35.683 1.66165 38.3275C0.399314 43.9899 0.399314 45.0166 1.66165 45.6388C2.52373 46.0433 2.77004 45.95 7.75781 43.3366L12.9919 40.5987L15.301 41.1587C18.5339 41.9365 23.0906 41.6876 25.9539 40.5987C28.6018 39.572 31.9269 37.3942 33.7435 35.4964C35.0982 34.0963 37.5613 30.6118 37.5613 30.0829C37.5613 29.9584 36.8223 30.0518 35.9603 30.3007C35.0674 30.5185 33.9282 30.7362 33.4356 30.7362C32.7582 30.7362 32.0193 31.2651 30.3259 32.883C27.7705 35.3408 25.1842 36.7097 22.1669 37.2697C19.8886 37.7053 18.0104 37.5186 14.9008 36.6164L12.7148 35.963L9.57434 37.5809C7.81939 38.452 6.31074 39.1053 6.21838 38.9809C6.12601 38.8876 6.37232 37.1453 6.77257 35.123L7.48071 31.4518L6.68021 30.3629C4.55579 27.5628 3.53976 22.7716 4.27869 19.1626C4.74052 16.9537 6.09522 14.1847 7.54229 12.4736C8.92778 10.8246 11.8527 8.86458 14.1003 8.02456C15.7013 7.43343 15.9476 7.18454 17.0868 5.31783C17.7641 4.16669 18.3799 3.13999 18.4107 2.98443C18.5954 2.57998 16.5942 2.73554 14.5005 3.35778Z" fill="#002064"/>
<path d="M13.5152 14.3715C11.2676 15.9271 9.85132 18.8516 9.85132 21.9628C9.85132 24.8873 10.5595 26.8163 12.2836 28.5585C14.5312 30.7986 16.2246 31.5142 19.5498 31.5142C21.9821 31.5142 22.5055 31.3897 23.9218 30.6741C24.7838 30.2075 25.5843 29.7097 25.6767 29.5541C25.7383 29.4297 25.0301 28.9008 24.0757 28.403C19.8884 26.2251 16.1938 20.9361 15.3625 15.9582C15.147 14.6826 14.9007 13.6248 14.7775 13.6248C14.6851 13.6248 14.1309 13.9671 13.5152 14.3715Z" fill="#002064"/>
<path d="M81.8103 13.7395C81.8103 15.4302 83.501 15.2765 83.7571 13.5346C83.9108 12.6637 83.6547 12.4075 82.8862 12.4075C82.0665 12.4075 81.8103 12.7149 81.8103 13.7395Z" fill="#002064"/>
<path d="M133.044 20.6049C133.044 27.5725 133.147 28.8021 133.813 28.8021C134.479 28.8021 134.581 27.5725 134.581 20.6049C134.581 13.6373 134.479 12.4077 133.813 12.4077C133.147 12.4077 133.044 13.6373 133.044 20.6049Z" fill="#002064"/>
<path d="M138.781 13.5346C139.037 15.2765 140.728 15.4302 140.728 13.7395C140.728 12.7149 140.472 12.4075 139.652 12.4075C138.883 12.4075 138.627 12.6637 138.781 13.5346Z" fill="#002064"/>
<path d="M101.792 15.4815C101.792 16.5062 101.536 17.0185 101.024 17.0185C100.614 17.0185 100.255 17.3771 100.255 17.787C100.255 18.1968 100.614 18.5554 101.024 18.5554C101.638 18.5554 101.792 19.3752 101.792 22.8077C101.792 26.3428 101.946 27.2649 102.714 27.931C103.944 29.0581 107.428 29.1093 107.428 28.0334C107.428 27.5211 106.915 27.2649 105.686 27.2649C103.636 27.2649 103.329 26.5989 103.329 21.7319V18.5554H105.378C106.864 18.5554 107.428 18.3505 107.428 17.787C107.428 17.2234 106.864 17.0185 105.378 17.0185C103.432 17.0185 103.329 16.916 103.329 15.4815C103.329 14.4569 103.073 13.9445 102.561 13.9445C102.048 13.9445 101.792 14.4569 101.792 15.4815Z" fill="#002064"/>
<path d="M55.8358 17.7867C53.3255 19.5286 53.1205 24.9593 55.426 27.4697C56.8605 29.0066 59.4221 29.2628 61.2152 27.982C62.2911 27.2647 62.3424 27.2647 62.3424 28.4943C62.3424 29.2116 61.83 30.3387 61.2665 30.9022C60.3443 31.8244 59.7295 31.9269 57.6802 31.7732C55.8871 31.5683 55.1698 31.7219 55.1698 32.1318C55.1698 33.5663 59.4221 33.8737 61.83 32.6441C63.8281 31.6195 64.3917 29.3653 64.3917 22.5001C64.3917 17.3769 64.3404 17.0183 63.367 17.0183C62.7522 17.0183 62.3424 17.3769 62.3424 17.8892C62.3424 18.6577 62.2911 18.6577 61.4202 17.8892C60.2418 16.8133 57.2704 16.7621 55.8358 17.7867ZM61.5739 19.7336C62.5985 21.1681 62.5473 24.7031 61.5226 26.1376C61.0103 26.9061 60.2418 27.2647 59.0123 27.2647C56.8605 27.2647 55.6822 25.779 55.6822 23.0124C55.6822 20.6045 56.3994 19.1188 57.8851 18.6065C59.3709 18.0429 60.7029 18.4528 61.5739 19.7336Z" fill="#002064"/>
<path d="M69.6183 18.0431C66.5956 20.8609 67.1592 26.6502 70.5917 28.4945C72.2312 29.4167 72.6923 29.4167 74.5879 28.9044C77.1495 28.0847 78.2254 26.2915 78.2254 22.654C78.2254 20.3998 77.9692 19.785 76.7396 18.5042C74.844 16.6599 71.4115 16.4037 69.6183 18.0431ZM75.3051 19.4264C77.8155 22.2954 76.2273 27.7773 72.846 27.7773C72.3849 27.7773 71.4627 27.2137 70.7967 26.4965C69.3109 25.062 69.106 22.3979 70.2843 20.0924C70.9504 18.8629 71.4115 18.5555 72.7947 18.5555C73.7681 18.5555 74.844 18.9653 75.3051 19.4264Z" fill="#002064"/>
<path d="M81.8103 22.9103C81.8103 28.4434 81.8615 28.8021 82.8349 28.8021C83.8084 28.8021 83.8596 28.4434 83.8596 22.9103C83.8596 17.3772 83.8084 17.0186 82.8349 17.0186C81.8615 17.0186 81.8103 17.3772 81.8103 22.9103Z" fill="#002064"/>
<path d="M87.9597 22.9103C87.9597 27.6237 88.1134 28.8021 88.677 28.8021C89.2405 28.8021 89.4455 27.7262 89.5479 24.3961C89.7528 19.5802 90.3676 18.5556 93.1342 18.5556C95.2347 18.5556 95.7983 19.7339 96.0544 24.4985C96.2081 27.675 96.4643 28.8021 96.9766 28.8021C97.5402 28.8021 97.6939 27.7774 97.6939 24.2424C97.6939 18.6581 96.7717 17.0186 93.5953 17.0186C92.5194 17.0186 91.3923 17.326 91.0337 17.7871C90.675 18.197 90.2139 18.5556 89.9578 18.5556C89.7016 18.5556 89.4967 18.197 89.4967 17.7871C89.4967 17.3772 89.1381 17.0186 88.7282 17.0186C88.1134 17.0186 87.9597 17.992 87.9597 22.9103Z" fill="#002064"/>
<path d="M111.525 18.4018C108.349 21.2708 109.117 27.0601 112.908 28.6483C115.368 29.6217 119.364 29.0581 119.62 27.6236C119.773 26.8552 119.62 26.8039 118.441 27.265C115.214 28.4946 111.525 26.9064 111.525 24.1911C111.525 23.2177 111.832 23.1664 115.88 23.1664H120.235V21.6807C120.235 20.8097 119.671 19.5289 118.903 18.6067C117.058 16.4038 113.831 16.3525 111.525 18.4018ZM117.878 19.6826C119.364 21.7831 118.954 22.1418 115.111 22.1418C111.269 22.1418 110.859 21.7831 112.345 19.6826C112.908 18.8629 113.626 18.5555 115.111 18.5555C116.597 18.5555 117.314 18.8629 117.878 19.6826Z" fill="#002064"/>
<path d="M123.82 22.9103C123.82 27.8286 123.974 28.8021 124.589 28.8021C125.203 28.8021 125.357 28.0336 125.357 25.1646C125.357 20.2463 126.279 18.5556 129.097 18.5556C129.968 18.5556 130.48 18.2994 130.48 17.7871C130.48 16.7625 127.97 16.7625 126.484 17.8383C125.46 18.5556 125.357 18.5556 125.357 17.8383C125.357 17.3772 124.998 17.0186 124.589 17.0186C123.974 17.0186 123.82 17.992 123.82 22.9103Z" fill="#002064"/>
<path d="M138.678 22.9103C138.678 28.4434 138.729 28.8021 139.703 28.8021C140.676 28.8021 140.728 28.4434 140.728 22.9103C140.728 17.3772 140.676 17.0186 139.703 17.0186C138.729 17.0186 138.678 17.3772 138.678 22.9103Z" fill="#002064"/>
<path d="M144.826 22.9103C144.826 28.4434 144.877 28.8021 145.851 28.8021C146.773 28.8021 146.875 28.4434 146.875 24.5498C146.875 19.6827 147.541 18.5556 150.41 18.5556C152.511 18.5556 153.023 19.8364 153.023 25.0109C153.023 28.0336 153.177 28.8021 153.792 28.8021C154.406 28.8021 154.56 27.9823 154.56 24.3961C154.56 20.2463 154.048 18.2482 152.818 17.4285C151.794 16.7112 148.771 17.0186 147.797 17.8896C146.926 18.6581 146.875 18.6581 146.875 17.8896C146.875 17.3772 146.465 17.0186 145.851 17.0186C144.877 17.0186 144.826 17.3772 144.826 22.9103Z" fill="#002064"/>
<path d="M160.3 17.3772C159.122 17.8383 158.148 20.5024 158.148 23.1664C158.148 25.4207 158.404 26.0355 159.634 27.3163C161.325 29.0069 164.245 29.3656 165.321 28.0335C166.345 26.8039 167.011 27.1113 166.602 28.6483C165.936 31.3124 164.86 32.0296 161.888 31.7222C159.788 31.5173 159.173 31.6198 159.173 32.1321C159.173 33.0543 162.196 33.6178 164.501 33.208C167.677 32.5932 168.139 31.5685 168.292 23.8837C168.446 17.8895 168.395 17.0186 167.677 17.0186C167.216 17.0186 166.858 17.3772 166.858 17.787C166.858 18.1969 166.704 18.5555 166.55 18.5555C166.397 18.5555 165.936 18.1969 165.526 17.787C164.757 17.0698 161.683 16.8136 160.3 17.3772ZM165.167 19.2728C167.934 21.6295 166.602 27.265 163.323 27.265C161.683 27.265 161.068 26.8552 160.249 25.3694C158.712 22.3467 160.3 18.6068 163.374 18.0944C163.579 18.0944 164.399 18.6068 165.167 19.2728Z" fill="#002064"/>
</svg>
