<svg width="279" height="682" viewBox="0 0 279 682" fill="none" xmlns="http://www.w3.org/2000/svg">
<path d="M74.4341 866.77H199.388C199.388 866.77 174.288 574.97 175.283 569.871C176.552 563.353 183.94 533.825 193.766 495.242C196.826 483.152 200.159 470.216 203.717 456.783C213.02 420.488 223.319 380.81 232.25 346.282C245.708 294.564 256.181 267.921 256.181 267.921H150.183C150.183 267.921 63.1154 517.133 59.6825 568.627C56.6475 613.529 74.4341 866.77 74.4341 866.77Z" fill="#263238"/>
<path d="M151.775 552.061C155.879 534.001 161.999 516.313 167.322 498.577C178.168 462.556 189.073 426.559 200.035 390.588C205.508 372.603 230.906 305.287 233.419 296.332C234.439 292.7 234.986 294.69 233.693 299.317C231.056 308.645 187.646 442.082 176.676 478.651L160.108 533.627C157.316 542.345 155.065 551.226 153.367 560.22C151.887 569.631 151.511 579.181 152.247 588.679C153.441 607.784 155.655 626.889 157.422 645.894C159.188 664.9 160.929 684.129 162.695 703.11C166.228 741.154 169.711 779.19 173.143 817.218C173.566 822.044 173.989 826.845 174.362 831.671C174.487 833.288 172.049 833.164 171.875 831.671C167.77 794.058 164.636 756.321 161.103 718.658C157.571 680.995 154.088 643.705 150.605 606.217C149.735 596.813 148.715 587.385 148.715 577.932C148.771 569.222 149.797 560.544 151.775 552.061Z" fill="#37474F"/>
<path d="M162.197 267.896C169.536 324.763 183.541 417.876 193.741 495.241C217.622 401.507 256.056 267.921 256.056 267.921L162.197 267.896Z" fill="#37474F"/>
<path d="M150.902 267.897C153.094 294.041 157.783 319.914 164.908 345.163C165.853 348.472 166.848 351.731 167.943 354.865C177.469 359.594 186.751 364.8 195.754 370.463C195.754 370.463 196.973 411.235 198.242 456.684C199.585 507.507 200.978 564.2 200.73 576.215C199.66 621.192 206.302 868.513 206.302 868.513L331.206 869.06C331.206 869.06 308.693 592.932 308.818 576.364C309.066 549.871 302.225 457.878 297.374 372.503C296.976 365.338 301.28 349.716 300.882 343.497C298.394 304.142 292.573 267.823 292.573 267.823L150.902 267.897Z" fill="#263238"/>
<path d="M271.878 331.307C268.793 330.511 265.51 330.262 262.375 329.764C259.888 329.366 257.4 328.919 254.912 328.371C250.107 327.506 245.553 325.586 241.579 322.749C235.36 317.774 228.195 293.221 227.325 291.654C225.832 288.942 226.28 291.455 226.28 291.654C226.28 294.515 231.927 315.983 234.464 320.013C239.091 327.476 247.4 330.362 255.684 331.406C258.171 331.705 260.435 331.879 262.823 332.003C265.835 332.277 268.866 332.277 271.878 332.003C271.935 331.964 271.981 331.912 272.013 331.852C272.045 331.791 272.061 331.724 272.061 331.655C272.061 331.587 272.045 331.519 272.013 331.458C271.981 331.398 271.935 331.346 271.878 331.307Z" fill="#37474F"/>
<path d="M133.614 326.484C134.978 325.831 136.402 325.315 137.868 324.942C139.021 324.542 140.15 324.076 141.251 323.549C143.786 322.354 145.877 320.386 147.221 317.927C150.007 312.951 153.216 288.398 153.614 286.831C154.286 284.12 154.062 286.632 154.062 286.831C153.337 296.358 152.116 305.84 150.405 315.24C148.341 322.703 144.609 325.589 140.903 326.633C139.849 326.915 138.776 327.122 137.694 327.255C136.363 327.516 134.994 327.516 133.664 327.255C133.44 327.255 133.39 326.608 133.614 326.484Z" fill="#37474F"/>
<path d="M168.341 355.536C180.521 359.966 192.291 365.452 203.516 371.929C203.6 371.979 203.662 372.058 203.692 372.151C203.721 372.244 203.715 372.345 203.675 372.434C203.635 372.523 203.564 372.594 203.475 372.634C203.386 372.674 203.286 372.68 203.193 372.651C191.352 367.676 179.262 362.7 167.719 356.954C167.626 356.913 167.542 356.854 167.471 356.781C167.401 356.708 167.346 356.621 167.309 356.526C167.272 356.432 167.254 356.331 167.256 356.229C167.258 356.127 167.28 356.027 167.321 355.934C167.362 355.841 167.421 355.757 167.494 355.686C167.567 355.616 167.654 355.561 167.749 355.524C167.843 355.487 167.944 355.469 168.046 355.471C168.148 355.473 168.248 355.495 168.341 355.536Z" fill="#37474F"/>
<path d="M164.786 274.291C164.786 273.893 165.532 273.794 165.532 274.291C165.526 287.509 166.191 300.719 167.522 313.87C168.069 319.989 172.97 353.672 183.567 351.184C185.333 350.786 186.229 349.02 186.527 346.358C186.472 342.864 185.996 339.39 185.11 336.01C183.94 328.945 182.995 321.855 182.398 314.74C181.158 301.453 181.299 288.072 182.821 274.814C182.841 274.74 182.885 274.675 182.946 274.629C183.006 274.583 183.08 274.558 183.157 274.558C183.233 274.558 183.307 274.583 183.368 274.629C183.429 274.675 183.472 274.74 183.493 274.814C183.188 293.236 184.269 311.655 186.726 329.915C188.045 338.672 192.473 351.881 183.294 353.249C174.114 354.617 167.895 332.477 166.751 326.432C163.841 309.21 163.18 291.684 164.786 274.291Z" fill="#37474F"/>
<path d="M183.293 352.131C184.233 354.406 185.022 356.742 185.656 359.121C186.342 360.958 186.679 362.907 186.651 364.867C186.637 364.945 186.599 365.016 186.544 365.073C186.489 365.129 186.418 365.168 186.341 365.184C186.263 365.2 186.183 365.193 186.11 365.163C186.037 365.133 185.974 365.082 185.93 365.016C184.821 363.288 183.982 361.401 183.442 359.419C182.621 357.255 181.775 355.116 180.955 352.927C180.849 352.616 180.871 352.277 181.016 351.983C181.16 351.689 181.416 351.465 181.726 351.359C182.036 351.254 182.375 351.276 182.669 351.42C182.963 351.565 183.187 351.82 183.293 352.131Z" fill="#37474F"/>
<path d="M275.908 273.941C277.998 285.434 279.988 296.952 281.779 308.495C283.57 320.037 285.908 331.63 285.908 343.67C283.904 352.063 282.68 360.624 282.252 369.243C291.307 515.317 295.486 687.436 306.058 832.988C299.615 786.693 297.476 739.901 294.192 693.282C287.55 585.568 283.147 477.38 279.266 369.491C279.809 360.575 281.234 351.733 283.52 343.098C283.371 322.923 278.197 294.166 275.908 273.867V273.941Z" fill="#37474F"/>
<path d="M169.014 117.492C115.654 164.508 66.125 216.077 62.0453 242.645C56.3237 279.437 78.8617 289.91 89.0113 290.109C116.649 290.706 168.143 179.235 186.029 136.671C203.443 95.3267 180.73 107.168 169.014 117.492Z" fill="#FFC727"/>
<path d="M164.162 165.63C163.001 165.63 161.887 165.169 161.066 164.348C160.245 163.526 159.784 162.413 159.784 161.252C159.777 159.815 159.204 158.44 158.188 157.424C157.173 156.409 155.797 155.835 154.361 155.829H150.953V156.873H154.361C155.518 156.88 156.625 157.344 157.44 158.165C158.256 158.985 158.714 160.095 158.714 161.252C158.714 162.697 159.288 164.082 160.31 165.104C161.331 166.126 162.717 166.7 164.162 166.7H167.371V165.63H164.162ZM123.315 251.031C122.154 251.031 121.04 250.569 120.219 249.748C119.398 248.927 118.937 247.813 118.937 246.652C118.93 245.212 118.353 243.832 117.332 242.816C116.311 241.8 114.929 241.229 113.489 241.229H110.106V242.299H113.489C114.063 242.296 114.631 242.406 115.162 242.623C115.693 242.84 116.176 243.161 116.583 243.565C116.99 243.97 117.313 244.451 117.533 244.981C117.754 245.51 117.867 246.078 117.867 246.652C117.867 248.097 118.441 249.483 119.463 250.505C120.484 251.526 121.87 252.1 123.315 252.1H126.524V251.031H123.315ZM82.468 230.756C82.061 230.35 81.7383 229.867 81.518 229.335C81.2978 228.804 81.1844 228.234 81.1844 227.659C81.1844 227.084 81.2978 226.514 81.518 225.983C81.7383 225.451 82.061 224.969 82.468 224.562C82.9741 224.058 83.3758 223.459 83.6499 222.8C83.924 222.14 84.0651 221.433 84.0651 220.719C84.0651 220.004 83.924 219.297 83.6499 218.638C83.3758 217.978 82.9741 217.379 82.468 216.875L79.9803 214.388L79.2341 215.159L81.7217 217.646C82.5375 218.471 82.995 219.584 82.995 220.744C82.995 221.903 82.5375 223.016 81.7217 223.841C81.2125 224.343 80.8081 224.941 80.5322 225.601C80.2562 226.261 80.1141 226.969 80.1141 227.684C80.1141 228.399 80.2562 229.107 80.5322 229.767C80.8081 230.427 81.2125 231.025 81.7217 231.527L83.9854 233.791L84.7317 233.045L82.468 230.756ZM95.6773 272.35L93.1897 274.837C92.7831 275.244 92.3002 275.567 91.7688 275.787C91.2374 276.007 90.6678 276.121 90.0926 276.121C89.5173 276.121 88.9477 276.007 88.4163 275.787C87.8848 275.567 87.4021 275.244 86.9955 274.837C85.9745 273.821 84.5926 273.25 83.152 273.25C81.7115 273.25 80.3296 273.821 79.3087 274.837L77.0449 277.101L77.7912 277.847L80.0549 275.583C80.8793 274.768 81.9923 274.31 83.152 274.31C84.3118 274.31 85.4248 274.768 86.2491 275.583C86.753 276.09 87.352 276.491 88.0115 276.765C88.6711 277.04 89.3783 277.181 90.0926 277.181C90.8068 277.181 91.514 277.04 92.1736 276.765C92.8332 276.491 93.432 276.09 93.9359 275.583L96.4236 273.096L95.6773 272.35ZM129.086 194.387L126.599 196.875C126.192 197.282 125.709 197.604 125.178 197.825C124.646 198.045 124.077 198.158 123.502 198.158C122.926 198.158 122.357 198.045 121.825 197.825C121.294 197.604 120.811 197.282 120.404 196.875C119.383 195.858 118.002 195.288 116.561 195.288C115.12 195.288 113.739 195.858 112.718 196.875L110.454 199.138L111.2 199.91L113.464 197.621C114.288 196.805 115.401 196.348 116.561 196.348C117.721 196.348 118.834 196.805 119.658 197.621C120.162 198.127 120.761 198.529 121.42 198.803C122.08 199.077 122.787 199.218 123.502 199.218C124.216 199.218 124.923 199.077 125.583 198.803C126.242 198.529 126.841 198.127 127.345 197.621L129.833 195.133L129.086 194.387Z" fill="white"/>
<path opacity="0.1" d="M186.03 136.598C168.094 179.162 116.6 290.633 89.0117 290.036C86.9566 289.963 84.9219 289.603 82.9668 288.966L190.209 108.438C193.592 110.826 193.567 118.762 186.03 136.598Z" fill="black"/>
<path d="M297.524 285.509C297.176 285.931 144.31 283.394 142.843 281.926C142.295 281.354 157.221 146.499 177.968 113.016C186.501 99.2094 210.307 92.1196 226.527 112.717C276.653 176.202 297.947 284.986 297.524 285.509Z" fill="#FFC727"/>
<path d="M210.632 235.231C209.471 235.231 208.358 234.77 207.537 233.949C206.716 233.128 206.254 232.014 206.254 230.853C206.254 229.408 205.68 228.023 204.659 227.001C203.637 225.979 202.251 225.405 200.806 225.405H197.423V226.475H200.806C201.968 226.475 203.081 226.936 203.902 227.757C204.723 228.578 205.185 229.692 205.185 230.853C205.191 232.294 205.768 233.673 206.789 234.689C207.81 235.706 209.192 236.276 210.632 236.276H213.842V235.231H210.632ZM164.163 165.578C163.589 165.58 163.019 165.467 162.489 165.245C161.96 165.022 161.48 164.696 161.079 164.284C161.079 164.682 160.905 165.08 160.805 165.478C161.754 166.247 162.942 166.66 164.163 166.647H167.373V165.578H164.163ZM171.004 265.083C170.595 264.68 170.27 264.2 170.049 263.671C169.827 263.141 169.712 262.573 169.712 261.998C169.712 261.424 169.827 260.856 170.049 260.326C170.27 259.797 170.595 259.317 171.004 258.914C172.021 257.888 172.593 256.502 172.597 255.058C172.597 254.346 172.456 253.641 172.183 252.983C171.91 252.326 171.509 251.729 171.004 251.227L168.517 248.739L167.771 249.486L170.258 251.973C170.667 252.376 170.992 252.856 171.214 253.386C171.436 253.915 171.55 254.484 171.55 255.058C171.55 255.632 171.436 256.2 171.214 256.73C170.992 257.26 170.667 257.74 170.258 258.143C169.24 259.168 168.669 260.554 168.669 261.998C168.669 263.443 169.24 264.829 170.258 265.854L172.547 268.118L173.293 267.372L171.004 265.083ZM202.647 187.494C201.833 186.674 201.376 185.565 201.376 184.409C201.376 183.253 201.833 182.144 202.647 181.324C203.663 180.303 204.234 178.921 204.234 177.481C204.234 176.04 203.663 174.658 202.647 173.638L200.16 171.15L199.413 171.921L201.901 174.409C202.308 174.815 202.631 175.298 202.851 175.83C203.071 176.361 203.184 176.931 203.184 177.506C203.184 178.081 203.071 178.651 202.851 179.182C202.631 179.714 202.308 180.196 201.901 180.603C200.885 181.624 200.314 183.006 200.314 184.446C200.314 185.887 200.885 187.269 201.901 188.29L204.165 190.553L204.936 189.807L202.647 187.494ZM284.739 257.57C284.332 257.164 284.01 256.681 283.789 256.15C283.569 255.618 283.456 255.049 283.456 254.473C283.456 253.898 283.569 253.328 283.789 252.797C284.01 252.266 284.332 251.783 284.739 251.376C285.756 250.355 286.326 248.973 286.326 247.533C286.326 246.092 285.756 244.71 284.739 243.689L282.252 241.202L281.505 241.948L283.993 244.436C284.4 244.842 284.723 245.325 284.943 245.857C285.163 246.388 285.277 246.958 285.277 247.533C285.277 248.108 285.163 248.678 284.943 249.209C284.723 249.741 284.4 250.223 283.993 250.63C282.977 251.651 282.406 253.033 282.406 254.473C282.406 255.914 282.977 257.296 283.993 258.317L286.282 260.58L287.028 259.834L284.739 257.57ZM208.294 282.447L206.677 284.064H208.17L209.04 283.193L208.294 282.447ZM193.592 283.765H198.368C197.6 283.402 196.759 283.219 195.909 283.232C195.06 283.245 194.224 283.453 193.468 283.84L193.592 283.765ZM261.704 172.294L259.937 174.06L260.684 174.807L262.152 173.339L261.704 172.294ZM241.554 253.516V256.725C241.554 257.886 241.093 258.999 240.271 259.821C239.45 260.642 238.337 261.103 237.176 261.103C235.735 261.103 234.353 261.673 233.332 262.69C232.311 263.706 231.734 265.085 231.728 266.526V269.934H232.797V266.451C232.797 265.877 232.911 265.309 233.131 264.78C233.351 264.25 233.674 263.769 234.081 263.364C234.488 262.96 234.971 262.639 235.502 262.422C236.033 262.205 236.602 262.095 237.176 262.098C238.616 262.091 239.995 261.514 241.012 260.493C242.028 259.473 242.599 258.091 242.599 256.65V253.516H241.554ZM163.542 204.211V207.42C163.542 208.581 163.08 209.694 162.259 210.516C161.438 211.337 160.324 211.798 159.163 211.798C157.723 211.804 156.343 212.381 155.327 213.402C154.311 214.423 153.74 215.805 153.74 217.246V220.629H154.785V217.246C154.785 216.085 155.246 214.971 156.067 214.15C156.888 213.329 158.002 212.868 159.163 212.868C160.608 212.868 161.994 212.294 163.016 211.272C164.037 210.25 164.611 208.865 164.611 207.42V204.211H163.542ZM201.801 115.651V118.86C201.801 120.021 201.34 121.135 200.519 121.956C199.698 122.777 198.584 123.238 197.423 123.238C195.987 123.245 194.611 123.818 193.596 124.834C192.58 125.849 192.007 127.225 192 128.661V132.069H193.045V128.661C193.028 128.076 193.129 127.493 193.342 126.947C193.554 126.402 193.874 125.904 194.282 125.484C194.691 125.065 195.179 124.731 195.718 124.503C196.258 124.275 196.838 124.158 197.423 124.158C198.866 124.152 200.248 123.576 201.268 122.556C202.288 121.535 202.865 120.153 202.871 118.711V115.501L201.801 115.651ZM249.912 200.927V204.136C249.912 205.297 249.451 206.411 248.63 207.232C247.809 208.053 246.695 208.514 245.534 208.514C244.089 208.514 242.703 209.088 241.682 210.11C240.66 211.132 240.086 212.517 240.086 213.962V217.345H241.156V213.962C241.156 212.801 241.617 211.687 242.438 210.866C243.259 210.045 244.373 209.584 245.534 209.584C246.975 209.577 248.354 209 249.37 207.979C250.387 206.958 250.957 205.577 250.957 204.136V200.927H249.912ZM238.196 158.463C237.034 158.463 235.921 158.002 235.1 157.181C234.279 156.36 233.817 155.246 233.817 154.085C233.817 152.64 233.243 151.254 232.222 150.232C231.2 149.211 229.814 148.637 228.369 148.637H225.036V149.706H228.419C229.58 149.706 230.694 150.168 231.515 150.989C232.336 151.81 232.797 152.924 232.797 154.085C232.804 155.528 233.38 156.909 234.4 157.93C235.421 158.95 236.802 159.526 238.245 159.533H241.454V158.463H238.196Z" fill="white"/>
<path d="M231.428 112.917C281.181 151.923 329.864 219.338 330.237 257.025C330.586 294.34 317.625 290.633 313.943 290.385C291.554 288.917 238.518 185.357 222.398 143.141C206.278 100.926 219.139 103.265 231.428 112.917Z" fill="#FFC727"/>
<path d="M298.52 217.971C297.359 217.971 296.245 217.51 295.424 216.689C294.603 215.868 294.142 214.754 294.142 213.593C294.142 212.152 293.571 210.77 292.555 209.749C291.539 208.728 290.159 208.151 288.719 208.145H285.311V209.215H288.719C289.876 209.221 290.983 209.685 291.798 210.506C292.614 211.326 293.072 212.436 293.072 213.593C293.079 215.033 293.656 216.413 294.676 217.429C295.697 218.445 297.079 219.016 298.52 219.016H301.729V217.971H298.52ZM284.738 257.574C284.332 257.168 284.009 256.685 283.789 256.153C283.568 255.622 283.455 255.052 283.455 254.477C283.455 253.902 283.568 253.332 283.789 252.801C284.009 252.269 284.332 251.787 284.738 251.38C285.755 250.359 286.325 248.977 286.325 247.537C286.325 246.096 285.755 244.714 284.738 243.693L282.251 241.206L281.505 241.952L283.992 244.44C284.399 244.846 284.722 245.329 284.942 245.86C285.162 246.392 285.276 246.961 285.276 247.537C285.276 248.112 285.162 248.682 284.942 249.213C284.722 249.744 284.399 250.227 283.992 250.634C282.976 251.655 282.405 253.037 282.405 254.477C282.405 255.918 282.976 257.3 283.992 258.321L286.281 260.584L287.027 259.838L284.738 257.574ZM278.47 169.487L275.982 171.975C275.158 172.79 274.045 173.248 272.885 173.248C271.725 173.248 270.612 172.79 269.788 171.975C268.767 170.958 267.385 170.388 265.944 170.388C264.504 170.388 263.122 170.958 262.101 171.975L259.837 174.238L260.584 174.985L262.847 172.721C263.672 171.905 264.785 171.448 265.944 171.448C267.104 171.448 268.217 171.905 269.041 172.721C270.062 173.737 271.444 174.308 272.885 174.308C274.325 174.308 275.707 173.737 276.728 172.721L279.216 170.233L278.47 169.487ZM326.556 236.653C325.196 236.766 323.929 237.387 323.007 238.392C322.085 239.397 321.576 240.712 321.58 242.076V245.459H322.65V242.076C322.65 240.939 323.095 239.846 323.89 239.033C324.685 238.219 325.767 237.749 326.904 237.723C326.68 237.3 326.556 236.952 326.431 236.579L326.556 236.653ZM249.912 200.931V202.921L250.907 204.836C250.919 204.604 250.919 204.372 250.907 204.14V200.931H249.912ZM321.779 271.555V274.764C321.779 275.925 321.318 277.039 320.497 277.86C319.676 278.681 318.562 279.142 317.401 279.142C315.961 279.142 314.579 279.713 313.558 280.729C312.537 281.745 311.96 283.125 311.953 284.565V287.948H313.023V284.565C313.023 283.404 313.484 282.29 314.305 281.469C315.126 280.648 316.24 280.187 317.401 280.187C318.837 280.18 320.213 279.607 321.229 278.591C322.244 277.576 322.818 276.2 322.824 274.764V271.555H321.779ZM238.195 158.467C237.034 158.467 235.92 158.006 235.099 157.184C234.278 156.363 233.817 155.25 233.817 154.089C233.817 152.644 233.243 151.258 232.221 150.236C231.199 149.215 229.813 148.641 228.369 148.641H225.035V149.71H228.418C229.579 149.71 230.693 150.172 231.514 150.993C232.335 151.814 232.797 152.927 232.797 154.089C232.803 155.531 233.379 156.913 234.399 157.934C235.42 158.954 236.802 159.53 238.245 159.536H241.454V158.467H238.195Z" fill="white"/>
<path d="M284.067 261.328C281.455 256.626 278.794 251.999 276.256 247.273L268.52 233.193C263.395 223.765 258.221 214.411 253.246 204.908C248.27 195.406 243.295 186.027 238.32 176.5C235.849 171.757 233.444 166.98 231.106 162.171C228.618 157.395 226.479 152.519 224.215 147.643C227.807 157.815 231.96 167.781 236.653 177.495C241.205 187.221 246.156 196.749 251.131 206.252C256.106 215.755 261.455 225.058 266.952 234.263C272.45 243.467 277.898 252.522 284.067 261.328Z" fill="#263238"/>
<path d="M229.438 160.131C228.522 158.405 227.492 156.743 226.354 155.155C225.806 154.409 225.284 153.613 224.687 152.867C224.09 152.12 223.543 151.349 222.871 150.628C223.327 152.539 224.174 154.335 225.359 155.902C226.444 157.553 227.828 158.987 229.438 160.131Z" fill="#263238"/>
<path d="M77.5684 188.167C80.056 170.754 85.3795 146.35 91.6981 141.3C98.0167 136.25 122.346 118.339 129.261 116.026C136.177 113.712 166.974 102.393 172.571 105.702C177.049 108.364 171.576 120.18 156.924 125.603C148.966 128.799 141.207 132.471 133.689 136.598C129.933 138.165 120.779 150.181 123.192 155.579C124.61 158.763 133.764 162.569 139.511 160.057C145.257 157.544 146.774 146.225 153.367 140.952C159.959 135.678 171.502 136.449 172.123 139.583C172.745 142.718 168.939 144.111 162.919 154.509C159.038 161.251 158.616 177.57 149.884 189.187C145.43 196.07 141.392 203.214 137.794 210.581L77.5684 188.167Z" fill="#AD6359"/>
<path d="M159.535 136.3C161.645 136.026 163.636 135.164 165.281 133.813C165.93 133.181 166.387 132.379 166.6 131.499C166.687 131.014 166.687 130.517 166.6 130.032C166.589 129.517 166.395 129.023 166.052 128.639C166.052 128.639 166.052 128.415 166.177 128.639C166.301 128.862 166.55 129.086 166.699 129.335C166.827 129.549 166.935 129.774 167.023 130.007C167.197 130.458 167.273 130.942 167.246 131.425C167.204 132.493 166.79 133.514 166.077 134.31C165.232 135.18 164.197 135.841 163.053 136.242C161.909 136.644 160.688 136.774 159.485 136.624C159.485 136.624 159.435 136.325 159.535 136.3Z" fill="#263238"/>
<path d="M91.6973 141.3C97.3442 132.643 111.748 117.046 125.902 111.772C135.455 108.24 168.192 124.534 167.048 130.802C165.904 137.071 160.431 137.021 152.122 135.952C149.112 135.554 133.191 129.633 130.43 132.967C126.474 137.743 121.325 154.161 121.325 154.161L91.6973 141.3Z" fill="#AD6359"/>
<path d="M166.278 128.34C162.298 121.599 153.417 117.917 144.586 115.006C144.461 115.006 144.387 115.156 144.586 115.205C146.849 115.952 161.203 122.668 166.253 128.44C166.228 128.514 166.303 128.415 166.278 128.34Z" fill="#263238"/>
<path d="M91.6973 141.299C97.3442 132.642 111.748 117.045 125.902 111.771C135.455 108.238 161.177 128.936 160.157 135.18C159.137 141.423 151.077 141.871 142.221 138.662C139.36 137.642 129.783 130.752 127.047 134.085C123.066 138.861 113.414 150.727 113.414 150.727L91.6973 141.299Z" fill="#AD6359"/>
<path d="M118.987 143.364L121.126 140.155C122.071 138.812 123.017 137.494 124.037 136.2C124.848 135.015 125.858 133.98 127.022 133.14C128.217 132.474 129.596 132.212 130.952 132.394C134.01 133.073 136.892 134.387 139.41 136.25C142.296 137.941 148.341 140.727 152.968 140.28C154.247 140.219 155.5 139.898 156.65 139.334C157.521 138.947 158.281 138.348 158.864 137.593C160.903 134.21 158.441 130.279 155.903 127.493C150.865 122.452 144.969 118.349 138.49 115.378C136.972 114.607 135.405 113.886 133.863 113.164C132.142 112.204 130.231 111.635 128.266 111.498C125.032 111.498 119.708 114.657 118.066 115.627C118.066 115.627 117.842 115.627 118.066 115.428C120.056 114.209 125.032 110.229 130.231 110.453C132.119 110.763 133.938 111.403 135.604 112.344C137.42 113.14 139.211 113.985 140.953 114.831C144.43 116.541 147.758 118.538 150.903 120.801C154.034 122.864 156.758 125.487 158.938 128.538C159.85 129.897 160.376 131.478 160.459 133.112C160.543 134.746 160.18 136.373 159.411 137.817C158.709 138.724 157.818 139.467 156.8 139.996C155.782 140.524 154.661 140.825 153.515 140.877C152.162 141.063 150.789 141.063 149.435 140.877C146.406 140.187 143.43 139.28 140.53 138.165C137.719 137.021 135.206 135.081 132.32 134.185C131.637 133.937 130.91 133.829 130.183 133.867C129.457 133.905 128.745 134.09 128.091 134.409C126.909 135.199 125.845 136.154 124.932 137.245C122.974 139.136 121.193 141.201 119.609 143.414C119.036 144.061 118.614 144.061 118.987 143.364Z" fill="#263238"/>
<path d="M87.4941 148.888C89.5589 144.758 93.1909 127.668 96.5492 122.444C99.9075 117.22 115.182 99.2346 122.222 100.056C131.078 101.15 121.674 117.021 116.973 123.539C112.271 130.056 112.943 141.226 112.943 141.226L87.4941 148.888Z" fill="#AD6359"/>
<path d="M123.54 112.717C121.873 114.782 120.405 117.071 118.937 119.31C117.444 121.368 116.097 123.529 114.907 125.778C113.916 128.084 113.311 130.538 113.116 133.041C112.992 134.285 112.942 135.529 112.917 136.748C112.892 137.967 112.917 139.46 112.917 140.803C112.917 140.952 113.141 140.977 113.141 140.803C113.329 138.336 113.678 135.885 114.186 133.464C114.661 130.954 115.429 128.507 116.475 126.176C118.589 121.573 121.674 117.469 123.938 112.867C123.938 112.717 123.664 112.593 123.54 112.717Z" fill="#263238"/>
<path d="M113.091 143.139C112.745 147.399 113.481 151.678 115.23 155.577C116.789 159.555 118.944 163.271 121.624 166.598C124.151 169.794 126.281 173.286 127.967 176.996C129.532 180.821 130.626 184.823 131.226 188.912C131.565 184.662 131.075 180.387 129.783 176.324C128.393 172.262 126.333 168.462 123.688 165.08C121.164 161.856 118.98 158.38 117.171 154.707C115.182 151.102 113.804 147.194 113.091 143.139Z" fill="#263238"/>
<path d="M91.5236 288.841C108.788 286.503 120.082 257.646 139.784 206.874C143.242 197.968 98.1408 143.19 92.0212 151.375C84.2846 161.673 63.4631 218.989 61.2988 234.611C56.9703 265.408 71.3738 291.553 91.5236 288.841Z" fill="#AD6359"/>
<path d="M129.386 235.209L73.7621 181.152C73.7621 181.152 57.9407 227.671 59.4333 247.174C60.9259 266.677 67.6923 288.892 91.1756 290.111C108.763 291.031 129.386 235.209 129.386 235.209Z" fill="#FFC727"/>
<path d="M118.937 246.725C118.93 245.284 118.353 243.905 117.332 242.888C116.311 241.872 114.929 241.302 113.489 241.302H110.106V242.371H113.489C114.063 242.368 114.631 242.478 115.162 242.695C115.693 242.913 116.176 243.233 116.583 243.637C116.99 244.042 117.313 244.523 117.533 245.053C117.754 245.583 117.867 246.151 117.867 246.725C117.867 247.988 118.306 249.213 119.109 250.189C119.912 251.165 121.03 251.831 122.27 252.073C122.444 251.725 122.594 251.376 122.743 251.028C121.692 250.9 120.724 250.392 120.023 249.599C119.321 248.806 118.935 247.783 118.937 246.725ZM82.468 230.829C82.061 230.422 81.7383 229.939 81.518 229.408C81.2978 228.876 81.1844 228.307 81.1844 227.731C81.1844 227.156 81.2978 226.587 81.518 226.055C81.7383 225.524 82.061 225.041 82.468 224.634C82.9741 224.13 83.3758 223.532 83.6499 222.872C83.924 222.212 84.0651 221.505 84.0651 220.791C84.0651 220.077 83.924 219.37 83.6499 218.71C83.3758 218.05 82.9741 217.451 82.468 216.948L79.9803 214.46L79.2341 215.231L81.7217 217.719C82.5375 218.543 82.995 219.656 82.995 220.816C82.995 221.976 82.5375 223.089 81.7217 223.913C81.2125 224.415 80.8081 225.014 80.5322 225.673C80.2562 226.333 80.1141 227.041 80.1141 227.756C80.1141 228.472 80.2562 229.18 80.5322 229.839C80.8081 230.499 81.2125 231.098 81.7217 231.6L83.9854 233.864L84.7317 233.117L82.468 230.829ZM95.6773 272.347L93.1897 274.835C92.7831 275.242 92.3002 275.565 91.7688 275.785C91.2374 276.005 90.6678 276.118 90.0926 276.118C89.5173 276.118 88.9477 276.005 88.4163 275.785C87.8848 275.565 87.4021 275.242 86.9955 274.835C85.9745 273.819 84.5926 273.248 83.152 273.248C81.7115 273.248 80.3296 273.819 79.3087 274.835L77.0449 277.099L77.7912 277.845L80.0549 275.581C80.8793 274.765 81.9923 274.308 83.152 274.308C84.3118 274.308 85.4248 274.765 86.2491 275.581C86.753 276.087 87.352 276.489 88.0115 276.763C88.6711 277.037 89.3783 277.178 90.0926 277.178C90.8068 277.178 91.514 277.037 92.1736 276.763C92.8332 276.489 93.432 276.087 93.9359 275.581L96.4236 273.094L95.6773 272.347Z" fill="white"/>
<path d="M111.4 272.623C113.415 269.788 115.206 266.802 116.948 263.817C118.689 260.832 120.306 257.723 121.923 254.638C123.54 251.553 124.933 248.369 126.202 245.135C127.581 241.924 128.664 238.593 129.436 235.185C127.968 238.344 126.426 241.404 124.834 244.488L120.182 253.742C118.664 256.852 117.122 259.937 115.679 263.096C114.236 266.255 112.694 269.39 111.4 272.623Z" fill="#263238"/>
<path d="M117.395 244.635C114.708 241.675 111.748 238.913 108.887 236.127C106.026 233.341 103.116 230.555 100.18 227.819C94.3097 222.346 88.414 216.898 82.4436 211.549L77.4684 207.171C75.6773 205.629 73.712 204.31 71.9458 202.768C71.9194 202.745 71.885 202.733 71.85 202.736C71.815 202.738 71.7824 202.754 71.7593 202.781C71.7362 202.807 71.7245 202.841 71.7269 202.876C71.7292 202.911 71.7453 202.944 71.7717 202.967C73.1897 204.335 74.4086 205.927 75.8017 207.32C77.1948 208.714 78.7122 210.181 80.1799 211.599L88.9364 219.858C94.8072 225.331 100.703 230.779 106.723 236.053C110.156 239.038 113.489 242.147 117.072 244.934C117.111 244.976 117.166 245.002 117.224 245.004C117.283 245.006 117.34 244.986 117.383 244.946C117.425 244.906 117.451 244.851 117.453 244.793C117.455 244.735 117.435 244.678 117.395 244.635Z" fill="#263238"/>
<path d="M189.038 136.598C198.044 137.493 213.019 120.777 217.497 109.234C217.795 108.438 215.606 100.776 213.392 91.3478C212.074 85.6013 210.755 79.1832 209.959 73.2378L173.889 87.2929C177.023 94.4535 179.262 101.973 180.556 109.682C180.629 110.509 180.629 111.342 180.556 112.169C180.543 112.302 180.543 112.435 180.556 112.567C180.481 117.145 180.257 135.702 189.038 136.598Z" fill="#AD6359"/>
<path d="M180.63 111.997C180.618 112.129 180.618 112.263 180.63 112.395C181.921 112.4 183.211 112.3 184.486 112.097C205.979 108.738 207.522 81.6728 207.522 74.1104L198.516 77.6179L173.889 87.1953C177.022 94.3541 179.253 101.875 180.531 109.584C180.646 110.383 180.68 111.191 180.63 111.997Z" fill="#263238"/>
<path d="M211.85 30.4255C217.049 43.3363 213.417 82.3176 204.735 91.696C192.123 105.303 169.908 108.463 157.843 92.9398C146.226 78.014 151.848 27.1667 161.724 18.46C176.252 5.64863 204.138 11.3204 211.85 30.4255Z" fill="#AD6359"/>
<path d="M178.442 63.189C178.442 63.189 178.641 63.3133 178.616 63.4377C178.367 65.9254 178.616 69.1095 180.83 70.1295C180.83 70.1295 180.83 70.3036 180.83 70.2787C177.919 69.6817 177.77 65.6268 178.442 63.189Z" fill="#263238"/>
<path d="M180.953 60.5996C185.207 60.5996 184.983 69.0576 180.953 69.1073C176.923 69.1571 177.396 60.6245 180.953 60.5996Z" fill="#263238"/>
<path d="M163.217 62.3159C163.217 62.3159 162.993 62.3159 162.993 62.5398C162.993 65.1767 162.595 68.2116 160.182 69.0325C163.117 68.8335 163.639 64.8284 163.217 62.3159Z" fill="#263238"/>
<path d="M160.929 59.4816C156.7 59.0587 156.153 67.5416 160.058 67.9396C163.964 68.3376 164.486 59.8796 160.929 59.4816Z" fill="#263238"/>
<path d="M185.233 54.5056C184.089 54.2716 182.959 53.9726 181.85 53.6101C180.623 53.4519 179.48 52.9023 178.591 52.0428C178.351 51.7238 178.221 51.3352 178.221 50.9358C178.221 50.5365 178.351 50.1479 178.591 49.8289C179.195 49.3128 179.927 48.9671 180.709 48.8272C181.492 48.6873 182.298 48.7583 183.044 49.0328C184.634 49.3367 186.054 50.2239 187.024 51.5204C187.231 51.823 187.346 52.1785 187.357 52.5448C187.368 52.9111 187.274 53.2729 187.085 53.5872C186.897 53.9014 186.622 54.155 186.294 54.3178C185.965 54.4806 185.597 54.5458 185.233 54.5056Z" fill="#263238"/>
<path d="M157.495 52.3186C158.644 52.1209 159.781 51.8635 160.903 51.5474C162.135 51.4256 163.295 50.9111 164.212 50.0797C164.452 49.7606 164.582 49.3721 164.582 48.9727C164.582 48.5734 164.452 48.1848 164.212 47.8657C163.629 47.3288 162.914 46.9578 162.139 46.7915C161.365 46.6253 160.56 46.6698 159.809 46.9204C158.185 47.2079 156.728 48.096 155.729 49.4081C155.545 49.708 155.448 50.0526 155.447 50.4042C155.447 50.7558 155.543 51.1008 155.725 51.4014C155.908 51.702 156.169 51.9466 156.481 52.1084C156.794 52.2701 157.144 52.3429 157.495 52.3186Z" fill="#263238"/>
<path d="M181.999 85.4783C181.402 86.1003 180.78 86.9709 179.835 87.0704C178.85 87.0715 177.876 86.8682 176.974 86.4734C176.974 86.4734 176.8 86.4734 176.974 86.6227C177.363 87.1326 177.883 87.527 178.479 87.7637C179.075 88.0003 179.724 88.0703 180.357 87.966C180.901 87.7965 181.383 87.4699 181.741 87.0272C182.1 86.5845 182.319 86.0456 182.372 85.4783C182.297 85.4286 182.098 85.3788 181.999 85.4783Z" fill="#263238"/>
<path d="M179.038 77.6429C178.396 78.7053 177.541 79.6229 176.526 80.338C175.511 81.053 174.359 81.5499 173.143 81.7973C172.087 82.0086 171.008 82.0838 169.934 82.0212C169.727 82.0472 169.518 82.0472 169.312 82.0212C169.113 82.044 168.913 82.044 168.715 82.0212C168.576 81.999 168.448 81.9303 168.353 81.8264C168.259 81.7225 168.202 81.5894 168.192 81.449V81.1754V80.9266C168.192 78.9116 168.192 75.9513 168.192 75.9513C167.471 76.3245 163.714 78.1156 163.764 77.0708C163.762 67.8773 164.704 58.7079 166.575 49.7068C166.575 49.6408 166.601 49.5775 166.648 49.5309C166.695 49.4842 166.758 49.458 166.824 49.458C166.89 49.458 166.953 49.4842 167 49.5309C167.047 49.5775 167.073 49.6408 167.073 49.7068C167.073 58.1896 165.655 66.5978 165.555 75.0807C166.89 74.4349 168.303 73.9665 169.759 73.6876C170.033 73.6876 169.411 79.6579 169.535 80.5784C171.204 80.7075 172.881 80.4987 174.467 79.9644C176.053 79.4301 177.515 78.5813 178.765 77.4688C178.989 77.2698 179.188 77.4439 179.038 77.6429Z" fill="#263238"/>
<path d="M138.739 9.48247C140.682 5.75741 143.881 2.84042 147.769 1.24838C153.142 -0.965622 158.59 0.37771 163.988 1.82054C164.137 1.82054 163.988 2.09419 163.988 2.04444C159.494 0.45883 154.633 0.225306 150.008 1.37276C146.163 2.58243 142.857 5.08809 140.654 8.46253C138.49 11.948 137.659 16.0978 138.313 20.1478C138.966 24.1977 141.061 27.8752 144.211 30.503C146.063 31.9678 148.193 33.0407 150.473 33.6565C152.752 34.2724 155.133 34.4182 157.47 34.0852C157.645 34.0852 157.744 34.334 157.47 34.3588C154.289 34.9467 151.008 34.6368 147.993 33.4641C144.978 32.2913 142.35 30.3019 140.402 27.7189C138.455 25.136 137.265 22.0617 136.967 18.8406C136.669 15.6195 137.273 12.379 138.714 9.48247H138.739Z" fill="#263238"/>
<path d="M213.667 38.8591C213.667 38.8591 214.687 27.0179 212.15 22.9631C209.612 18.9082 203.02 17.1918 203.02 17.1918C203.02 17.1918 200.532 6.66906 191.129 4.75358C182.696 2.9376 175.855 9.72885 175.855 9.72885C175.855 9.72885 165.755 -3.70439 151.327 0.997242C137.62 5.45011 136.401 25.1771 147.894 33.1873C155.954 38.8093 169.039 32.9634 169.039 32.9634C170.158 33.3116 180.706 42.1925 191.179 33.1624C191.179 33.1624 198.244 40.6253 203.493 36.8441C203.493 36.5456 209.189 40.3517 213.667 38.8591Z" fill="#263238"/>
<path opacity="0.2" d="M212.596 69.4303C210.108 66.072 206.427 56.0468 204.66 51.6188C202.894 47.1908 203.815 28.3346 204.387 20.001C207.668 22.8425 210.226 26.4238 211.85 30.4491C214.934 38.111 214.91 55.002 212.596 69.4303Z" fill="#263238"/>
<path d="M206.403 62.4156C206.403 62.4156 214.239 49.3804 220.085 52.1168C225.931 54.8532 220.632 73.2866 214.164 76.1971C213.363 76.6264 212.483 76.8892 211.578 76.9697C210.672 77.0503 209.76 76.9468 208.895 76.6656C208.031 76.3844 207.232 75.9313 206.547 75.3336C205.862 74.7358 205.306 74.0056 204.91 73.1871L206.403 62.4156Z" fill="#AD6359"/>
<path d="M218.442 57.3652C218.442 57.3652 218.442 57.3652 218.442 57.5394C213.939 59.7285 211.8 64.2062 210.382 68.7835C210.621 68.3004 210.962 67.8749 211.381 67.5361C211.8 67.1973 212.288 66.9533 212.81 66.8209C213.333 66.6885 213.877 66.6709 214.407 66.7692C214.937 66.8675 215.44 67.0794 215.88 67.3904C216.004 67.3904 215.88 67.664 215.755 67.6392C214.924 67.4391 214.052 67.4988 213.255 67.8102C212.459 68.1216 211.778 68.6697 211.303 69.3805C210.518 70.5917 209.867 71.8845 209.362 73.2364C209.188 73.6593 208.417 73.4851 208.541 72.9876C208.069 66.9426 212.123 58.3852 218.442 57.3652Z" fill="#263238"/>
<path d="M205.334 214.436L198.095 136.722L193.343 132.916L86.748 132.269L89.2108 206.177L93.9622 209.983L205.334 214.436Z" fill="#37474F"/>
<path d="M200.582 210.629L193.343 132.915L81.9961 128.462L89.2102 206.176L200.582 210.629Z" fill="#455A64"/>
<path d="M130.132 165.528C131.02 163.958 132.447 162.764 134.148 162.164C135.849 161.565 137.71 161.603 139.386 162.269C140.201 162.475 140.963 162.853 141.621 163.377C142.278 163.902 142.815 164.561 143.197 165.31C143.579 166.059 143.796 166.881 143.834 167.721C143.871 168.561 143.729 169.4 143.416 170.18C142.524 171.74 141.1 172.925 139.405 173.519C137.71 174.113 135.857 174.076 134.187 173.414C133.37 173.214 132.606 172.841 131.946 172.321C131.286 171.8 130.745 171.144 130.361 170.396C129.976 169.648 129.757 168.827 129.717 167.987C129.678 167.147 129.819 166.309 130.132 165.528Z" fill="white"/>
<path d="M319.118 290.31C302.476 292.599 281.803 279.663 227.971 240.408C220.508 234.985 244.738 172.148 252.972 177.546C263.37 184.337 302.177 212.945 304.764 215.408C326.481 236.105 330.387 288.768 319.118 290.31Z" fill="#AD6359"/>
<path d="M272.3 196.55C272.3 196.55 257.001 175.057 245.458 166.251C233.217 157.426 219.024 151.691 204.089 149.534C187.969 147.046 147.37 152.569 146.873 164.46C146.425 175.281 187.67 167.669 187.67 167.669C187.67 167.669 144.336 168.49 146.226 181.649C148.117 194.809 195.456 183.217 195.456 183.217C195.456 183.217 150.953 185.057 155.032 198.317C158.117 208.267 201.601 200.257 201.601 200.257C201.601 200.257 163.366 202.123 166.077 212.546C169.087 224.088 209.686 219.163 209.686 219.163C221.079 244.512 237.398 251.651 249.264 255.582C252 256.602 272.3 196.55 272.3 196.55Z" fill="#AD6359"/>
<path d="M202.497 166.45C197.522 166.45 192.248 166.226 187.173 166.599C182.098 166.972 177.023 167.52 171.998 168.341C165.406 169.311 158.947 171.031 152.744 173.465C164.063 169.958 182.248 168.365 187.322 167.992C192.397 167.619 197.447 166.997 202.522 166.624C202.646 166.674 202.646 166.45 202.497 166.45Z" fill="#263238"/>
<path d="M204.163 184.809C197.645 184.983 191.202 184.933 184.685 185.381C178.167 185.829 172.247 186.848 165.704 187.744C165.207 187.744 165.406 188.043 165.903 187.993C172.346 187.346 178.341 187.271 184.834 186.699C191.327 186.127 197.72 185.306 204.188 184.983L204.163 184.809Z" fill="#263238"/>
<path d="M208.417 200.282C198.434 200.313 188.481 201.372 178.715 203.441C178.217 203.441 178.516 203.814 179.013 203.74C188.964 202.521 196.601 201.476 208.417 200.63C208.591 200.63 208.616 200.307 208.417 200.282Z" fill="#263238"/>
<path d="M272.3 188.018L251.105 265.134C251.105 265.134 307.973 298.593 320.535 289.737C333.098 280.881 324.864 236.303 310.585 219.312C304.639 212.322 272.3 188.018 272.3 188.018Z" fill="#FFC727"/>
<path d="M271.479 190.579L272.299 188.092H272.1C277.474 192.47 282.872 196.823 288.171 201.251C293.469 205.679 298.818 210.082 303.868 214.759C306.432 217.025 308.842 219.46 311.082 222.048C313.244 224.691 315.168 227.522 316.828 230.506C320.123 236.561 322.432 243.103 323.669 249.885C323.118 242.9 321.235 236.086 318.122 229.809C316.557 226.653 314.655 223.676 312.45 220.928C310.192 218.287 307.766 215.794 305.186 213.466C300.037 208.789 294.638 204.411 289.166 200.132C283.693 195.853 278.046 191.848 272.25 187.992H272.1V188.166L271.479 190.579Z" fill="#263238"/>
<path d="M284.738 207.172C283.445 210.953 282.45 214.884 281.38 218.74C280.31 222.596 279.29 226.476 278.295 230.382C276.33 238.143 274.39 245.93 272.574 253.741C272.076 255.88 271.579 258.02 271.106 260.184C270.633 262.348 270.41 264.836 269.912 267.124C269.912 267.298 270.136 267.348 270.186 267.124C270.708 265.234 271.479 263.393 272.051 261.502C272.624 259.612 273.146 257.572 273.668 255.607C274.713 251.726 275.708 247.845 276.703 243.94C278.669 236.178 280.634 228.392 282.35 220.556C283.32 216.128 284.44 211.7 285.136 207.222C285.143 207.169 285.128 207.116 285.096 207.074C285.063 207.032 285.015 207.005 284.962 206.998C284.91 206.992 284.856 207.006 284.814 207.039C284.772 207.071 284.745 207.119 284.738 207.172Z" fill="#263238"/>
<path d="M252.871 258.368C252.448 260.731 251.926 263.045 251.453 265.383L251.229 264.836C257.025 268.02 265.508 272.299 271.429 275.458C278.195 278.941 284.986 282.274 291.902 285.558C288.224 284.51 284.611 283.248 281.081 281.777C270.328 277.384 260.051 271.908 250.408 265.433C251.229 263.095 252 260.707 252.896 258.368H252.871Z" fill="#263238"/>
</svg>
