<svg width="332" height="932" viewBox="0 0 332 932" fill="none" xmlns="http://www.w3.org/2000/svg">
<path d="M2.9208 929.302C8.99064 931.292 182.478 929.078 189.021 924.775C191.509 923.207 192.703 897.908 193.2 867.31V866.34C193.325 860.046 193.424 853.529 193.424 846.961C193.424 846.041 193.424 845.145 193.424 844.25L185.041 754.247L68.9924 755.367L80.4356 844.523L80.5599 848.056L81.2566 866.514V868.405C81.2566 868.405 15.2097 898.953 8.51799 904.426C1.82624 909.899 -3.17391 927.387 2.9208 929.302Z" fill="#AD6359"/>
<path d="M2.9208 929.306C8.99064 931.296 182.478 929.082 189.021 924.778C191.509 923.211 192.703 897.912 193.2 867.314V866.344C193.325 860.05 193.424 853.532 193.424 846.965C193.424 846.045 193.424 845.149 193.424 844.253L80.4356 844.527L80.5599 848.06L81.2566 866.518V868.408C81.2566 868.408 15.2097 898.957 8.51799 904.429C1.82624 909.902 -3.17391 927.39 2.9208 929.306Z" fill="#EBEBEB"/>
<path d="M2.89609 929.303C6.03052 930.323 53.1712 930.224 99.2422 929.303C108.496 929.104 117.701 928.905 126.482 928.657C159.344 927.761 186.484 926.418 189.021 924.776C191.558 923.134 192.653 898.606 193.151 868.58C193.151 868.157 193.151 867.734 193.151 867.312C193.151 866.889 193.151 866.64 193.151 866.316H193.001L81.2069 866.515V868.406C81.2069 868.406 15.185 898.954 8.49328 904.402C1.80153 909.85 -3.17374 927.363 2.89609 929.303Z" fill="#FFC727"/>
<path d="M4.78723 922.565C34.017 921.47 152.03 919.828 181.011 920.973C181.26 920.973 181.26 921.147 181.011 921.172C152.08 922.888 34.0418 923.659 4.78723 923.037C4.1902 923.037 4.16532 922.59 4.78723 922.565Z" fill="#263238"/>
<path d="M68.8188 866.99C80.3117 864.702 94.3916 866.294 103.297 874.453C103.646 874.777 103.297 875.249 102.825 875.15C91.7824 871.741 80.4073 869.523 68.8934 868.533C68.6889 868.543 68.4888 868.471 68.3372 868.333C68.1855 868.195 68.0948 868.003 68.0849 867.799C68.075 867.594 68.1468 867.394 68.2844 867.243C68.422 867.091 68.6142 867 68.8188 866.99Z" fill="#263238"/>
<path d="M60.5846 872.114C72.0526 869.825 86.1575 871.392 95.0632 879.577C95.4115 879.9 94.9388 880.398 94.5657 880.273C83.5239 876.863 72.1486 874.644 60.6344 873.656C60.4298 873.663 60.231 873.588 60.0818 873.448C59.9325 873.308 59.8449 873.114 59.8383 872.91C59.8317 872.705 59.9067 872.507 60.0466 872.357C60.1866 872.208 60.38 872.12 60.5846 872.114Z" fill="#263238"/>
<path d="M52.3502 877.215C63.8182 874.926 77.9231 876.518 86.804 884.678C87.1522 885.001 86.804 885.474 86.3313 885.374C75.2919 881.954 63.9156 879.735 52.4 878.757C52.1955 878.764 51.9967 878.689 51.8474 878.549C51.6981 878.409 51.6105 878.215 51.6039 878.011C51.5973 877.806 51.6722 877.608 51.8122 877.458C51.9521 877.309 52.1457 877.221 52.3502 877.215Z" fill="#263238"/>
<path opacity="0.1" d="M99.2422 929.303C108.496 929.104 117.7 928.905 126.482 928.657C159.344 927.761 186.484 926.418 189.021 924.776C191.558 923.134 192.653 898.606 193.15 868.58C193.15 868.157 193.15 867.734 193.15 867.312C193.15 866.889 193.15 866.64 193.15 866.316H193.001C177.777 877.063 123.77 912.91 99.2422 929.303Z" fill="black"/>
<path d="M74.5904 866.913H199.544C199.544 866.913 174.444 575.114 175.439 570.014C176.708 563.496 184.096 533.968 193.922 495.385C196.982 483.295 200.316 470.359 203.873 456.926C213.177 420.631 223.475 380.953 232.406 346.425C245.864 294.707 256.337 268.064 256.337 268.064H150.339C150.339 268.064 63.2717 517.276 59.8387 568.77C56.8038 613.672 74.5904 866.913 74.5904 866.913Z" fill="#263238"/>
<path d="M80.137 845.595C99.2171 845.197 93.7443 845.048 112.824 844.849C122.153 844.849 183.523 844.252 192.255 845.695C192.454 845.695 192.454 846.043 192.255 846.093C183.523 847.536 122.153 846.988 112.824 846.889C93.7443 846.69 99.2171 846.541 80.137 846.143C80.0644 846.143 79.9948 846.114 79.9434 846.062C79.8921 846.011 79.8633 845.941 79.8633 845.869C79.8633 845.796 79.8921 845.727 79.9434 845.675C79.9948 845.624 80.0644 845.595 80.137 845.595Z" fill="#37474F"/>
<path d="M151.931 552.204C156.035 534.144 162.155 516.456 167.479 498.72C178.325 462.699 189.229 426.703 200.191 390.731C205.664 372.746 231.063 305.43 233.575 296.475C234.595 292.843 235.142 294.833 233.849 299.46C231.212 308.788 187.803 442.225 176.832 478.794L160.264 533.77C157.473 542.488 155.221 551.369 153.523 560.363C152.043 569.774 151.668 579.324 152.403 588.822C153.598 607.927 155.812 627.032 157.578 646.038C159.344 665.043 161.085 684.273 162.852 703.253C166.384 741.297 169.867 779.333 173.3 817.361C173.723 822.187 174.145 826.988 174.519 831.814C174.643 833.431 172.205 833.307 172.031 831.814C167.926 794.201 164.792 756.464 161.259 718.801C157.727 681.138 154.244 643.848 150.762 606.36C149.891 596.956 148.871 587.528 148.871 578.075C148.927 569.365 149.953 560.687 151.931 552.204Z" fill="#37474F"/>
<path d="M162.354 268.039C169.692 324.906 183.698 418.018 193.897 495.384C217.778 401.65 256.212 268.063 256.212 268.063L162.354 268.039Z" fill="#37474F"/>
<path d="M132.128 931.022C138.198 933.012 311.686 931.42 318.253 927.166C320.741 925.599 322.01 900.299 322.632 869.701C322.632 869.378 322.632 869.055 322.632 868.731C322.756 862.437 322.88 855.945 322.905 849.352C322.905 848.457 322.905 847.536 322.905 846.641C323.303 802.46 320.144 756.638 320.144 756.638L206.732 757.36L209.892 846.517L210.016 850.049L210.638 868.507V870.398C210.638 870.398 144.517 900.722 137.775 906.145C131.034 911.568 126.033 929.056 132.128 931.022Z" fill="#AD6359"/>
<path d="M132.128 931.021C138.198 933.011 311.686 931.419 318.253 927.165C320.741 925.598 322.01 900.299 322.632 869.701C322.632 869.378 322.632 869.054 322.632 868.731C322.756 862.437 322.88 855.944 322.905 849.352C322.905 848.457 322.905 847.536 322.905 846.64L209.892 846.516L210.016 850.049L210.638 868.507V870.397C210.638 870.397 144.517 900.722 137.775 906.145C131.034 911.568 126.033 929.056 132.128 931.021Z" fill="#EBEBEB"/>
<path d="M132.128 931.02C138.198 933.01 311.686 931.418 318.253 927.164C320.741 925.597 322.01 900.298 322.631 869.7C322.631 869.377 322.631 869.053 322.631 868.73L210.688 868.506V870.396C210.688 870.396 144.566 900.721 137.825 906.144C131.083 911.567 126.033 929.055 132.128 931.02Z" fill="#FFC727"/>
<path d="M134.019 924.277C163.249 923.282 281.287 922.088 310.243 923.331C310.492 923.331 310.492 923.506 310.243 923.506C281.287 925.123 163.274 925.371 134.019 924.749C133.397 924.724 133.397 924.302 134.019 924.277Z" fill="#263238"/>
<path d="M198.251 868.93C209.744 866.691 223.824 868.333 232.705 876.393C233.053 876.716 232.705 877.189 232.207 877.089C221.189 873.626 209.829 871.366 198.325 870.348C198.173 870.307 198.037 870.219 197.938 870.097C197.839 869.974 197.781 869.823 197.773 869.666C197.764 869.508 197.806 869.352 197.892 869.22C197.978 869.088 198.104 868.986 198.251 868.93Z" fill="#263238"/>
<path d="M189.992 874.031C201.484 871.768 215.564 873.409 224.445 881.494C224.794 881.818 224.321 882.29 223.948 882.191C212.914 878.788 201.547 876.578 190.041 875.598C189.833 875.605 189.631 875.529 189.48 875.387C189.328 875.244 189.239 875.048 189.233 874.84C189.226 874.632 189.302 874.43 189.445 874.278C189.587 874.127 189.784 874.038 189.992 874.031Z" fill="#263238"/>
<path d="M181.733 879.103C193.226 876.839 207.306 878.481 216.187 886.566C216.535 886.864 216.062 887.362 215.689 887.238C204.658 883.809 193.291 881.574 181.783 880.571C181.686 880.574 181.59 880.558 181.5 880.524C181.41 880.491 181.327 880.439 181.256 880.373C181.186 880.308 181.129 880.228 181.089 880.141C181.049 880.053 181.027 879.958 181.024 879.862C181.021 879.765 181.036 879.669 181.07 879.579C181.104 879.489 181.155 879.406 181.221 879.336C181.287 879.265 181.366 879.208 181.454 879.168C181.542 879.128 181.636 879.106 181.733 879.103Z" fill="#263238"/>
<path d="M151.059 268.04C153.25 294.183 157.94 320.057 165.064 345.306C166.009 348.615 167.004 351.873 168.099 355.008C177.625 359.737 186.908 364.943 195.911 370.605C195.911 370.605 197.13 411.378 198.398 456.827C199.742 507.649 201.135 564.342 200.886 576.358C199.816 621.334 206.458 868.655 206.458 868.655L331.362 869.202C331.362 869.202 308.849 593.075 308.974 576.507C309.223 550.014 302.382 458.021 297.531 372.645C297.133 365.481 301.436 349.858 301.038 343.639C298.551 304.285 292.729 267.965 292.729 267.965L151.059 268.04Z" fill="#263238"/>
<path d="M210.613 846.542C229.693 846.244 224.22 846.045 243.3 845.97C252.654 845.97 314.024 845.647 322.731 847.139C322.769 847.153 322.801 847.179 322.825 847.212C322.848 847.245 322.86 847.285 322.86 847.326C322.86 847.366 322.848 847.406 322.825 847.439C322.801 847.473 322.769 847.498 322.731 847.512C313.999 848.93 252.629 848.109 243.3 847.985C224.22 847.711 229.693 847.587 210.613 847.114C210.264 847.089 210.264 846.542 210.613 846.542Z" fill="#37474F"/>
<path d="M272.034 331.449C268.95 330.653 265.666 330.405 262.532 329.907C260.044 329.509 257.556 329.061 255.069 328.514C250.263 327.648 245.709 325.728 241.735 322.892C235.516 317.917 228.352 293.364 227.481 291.796C225.988 289.085 226.436 291.597 226.436 291.796C226.436 294.657 232.083 316.126 234.62 320.156C239.247 327.618 247.556 330.504 255.84 331.549C258.328 331.847 260.591 332.022 262.979 332.146C265.992 332.419 269.022 332.419 272.034 332.146C272.091 332.107 272.137 332.055 272.169 331.994C272.201 331.934 272.217 331.866 272.217 331.798C272.217 331.729 272.201 331.662 272.169 331.601C272.137 331.54 272.091 331.488 272.034 331.449Z" fill="#37474F"/>
<path d="M133.77 326.627C135.134 325.974 136.559 325.457 138.024 325.084C139.177 324.684 140.307 324.219 141.407 323.691C143.942 322.497 146.033 320.528 147.377 318.069C150.164 313.094 153.373 288.541 153.771 286.974C154.442 284.262 154.218 286.775 154.218 286.974C153.493 296.5 152.272 305.983 150.562 315.383C148.497 322.845 144.765 325.731 141.059 326.776C140.005 327.057 138.933 327.265 137.85 327.398C136.519 327.659 135.15 327.659 133.82 327.398C133.596 327.398 133.546 326.751 133.77 326.627Z" fill="#37474F"/>
<path d="M168.497 355.679C180.677 360.109 192.447 365.595 203.672 372.072C203.756 372.122 203.819 372.202 203.848 372.294C203.877 372.387 203.871 372.488 203.831 372.577C203.792 372.666 203.72 372.737 203.632 372.777C203.543 372.817 203.442 372.823 203.349 372.794C191.508 367.819 179.418 362.843 167.875 357.097C167.782 357.056 167.698 356.997 167.628 356.924C167.557 356.851 167.502 356.764 167.465 356.669C167.428 356.575 167.41 356.474 167.412 356.372C167.414 356.27 167.436 356.17 167.477 356.077C167.518 355.984 167.577 355.9 167.65 355.829C167.724 355.759 167.81 355.704 167.905 355.667C168 355.63 168.101 355.612 168.202 355.614C168.304 355.616 168.404 355.638 168.497 355.679Z" fill="#37474F"/>
<path d="M164.942 274.434C164.942 274.036 165.688 273.937 165.688 274.434C165.683 287.652 166.347 300.862 167.678 314.012C168.225 320.132 173.126 353.815 183.723 351.327C185.49 350.929 186.385 349.163 186.684 346.501C186.628 343.007 186.152 339.532 185.266 336.152C184.097 329.087 183.151 321.998 182.554 314.883C181.314 301.595 181.456 288.215 182.977 274.956C182.997 274.883 183.041 274.818 183.102 274.772C183.162 274.725 183.237 274.7 183.313 274.7C183.389 274.7 183.463 274.725 183.524 274.772C183.585 274.818 183.629 274.883 183.649 274.956C183.344 293.379 184.425 311.798 186.883 330.058C188.201 338.814 192.629 352.023 183.45 353.392C174.27 354.76 168.051 332.62 166.907 326.575C163.997 309.353 163.336 291.826 164.942 274.434Z" fill="#37474F"/>
<path d="M183.449 352.274C184.389 354.55 185.178 356.885 185.812 359.264C186.498 361.101 186.835 363.05 186.808 365.01C186.793 365.088 186.756 365.16 186.7 365.216C186.645 365.272 186.574 365.311 186.497 365.327C186.42 365.343 186.339 365.336 186.266 365.306C186.193 365.276 186.13 365.225 186.086 365.16C184.977 363.431 184.138 361.544 183.598 359.562C182.778 357.398 181.932 355.259 181.111 353.07C181.005 352.76 181.027 352.42 181.172 352.126C181.316 351.832 181.572 351.608 181.882 351.502C182.192 351.397 182.531 351.419 182.825 351.563C183.119 351.708 183.344 351.963 183.449 352.274Z" fill="#37474F"/>
<path d="M276.064 274.084C278.154 285.577 280.144 297.095 281.935 308.637C283.726 320.18 286.065 331.772 286.065 343.812C284.06 352.206 282.836 360.766 282.408 369.385C291.463 515.459 295.642 687.579 306.215 833.131C299.772 786.836 297.632 740.043 294.349 693.425C287.707 585.71 283.303 477.523 279.423 369.634C279.965 360.717 281.39 351.876 283.677 343.24C283.527 323.065 278.353 294.308 276.064 274.009V274.084Z" fill="#37474F"/>
<path d="M169.17 117.628C115.81 164.644 66.2813 216.213 62.2016 242.781C56.48 279.573 79.018 290.046 89.1675 290.245C116.805 290.842 168.299 179.371 186.185 136.807C203.599 95.4629 180.887 107.304 169.17 117.628Z" fill="#FFC727"/>
<path d="M164.318 165.766C163.157 165.766 162.043 165.305 161.222 164.484C160.401 163.663 159.94 162.549 159.94 161.388C159.933 159.952 159.36 158.576 158.344 157.56C157.329 156.545 155.953 155.971 154.517 155.965H151.109V157.01H154.517C155.674 157.016 156.781 157.48 157.597 158.301C158.412 159.121 158.87 160.231 158.87 161.388C158.87 162.833 159.444 164.218 160.466 165.24C161.488 166.262 162.873 166.836 164.318 166.836H167.527V165.766H164.318ZM123.471 251.167C122.31 251.167 121.196 250.705 120.375 249.884C119.554 249.063 119.093 247.95 119.093 246.789C119.086 245.348 118.51 243.969 117.489 242.952C116.468 241.936 115.086 241.365 113.645 241.365H110.262V242.435H113.645C114.219 242.432 114.788 242.542 115.319 242.759C115.85 242.977 116.333 243.297 116.739 243.701C117.146 244.106 117.469 244.587 117.69 245.117C117.91 245.647 118.023 246.215 118.023 246.789C118.023 248.233 118.597 249.619 119.619 250.641C120.641 251.662 122.026 252.236 123.471 252.236H126.68V251.167H123.471ZM82.6242 230.893C82.2173 230.486 81.8945 230.003 81.6743 229.472C81.454 228.94 81.3406 228.371 81.3406 227.795C81.3406 227.22 81.454 226.651 81.6743 226.119C81.8945 225.588 82.2173 225.105 82.6242 224.698C83.1304 224.194 83.5321 223.595 83.8061 222.936C84.0802 222.276 84.2213 221.569 84.2213 220.855C84.2213 220.141 84.0802 219.433 83.8061 218.774C83.5321 218.114 83.1304 217.515 82.6242 217.011L80.1366 214.524L79.3903 215.295L81.8779 217.783C82.6937 218.607 83.1513 219.72 83.1513 220.88C83.1513 222.04 82.6937 223.153 81.8779 223.977C81.3687 224.479 80.9644 225.077 80.6884 225.737C80.4124 226.397 80.2703 227.105 80.2703 227.82C80.2703 228.535 80.4124 229.243 80.6884 229.903C80.9644 230.563 81.3687 231.161 81.8779 231.664L84.1416 233.927L84.888 233.181L82.6242 230.893ZM95.8336 272.486L93.3459 274.973C92.9393 275.38 92.4565 275.703 91.9251 275.923C91.3936 276.144 90.8241 276.257 90.2488 276.257C89.6736 276.257 89.1039 276.144 88.5725 275.923C88.0411 275.703 87.5583 275.38 87.1517 274.973C86.1308 273.957 84.7488 273.387 83.3083 273.387C81.8677 273.387 80.4859 273.957 79.4649 274.973L77.2012 277.237L77.9474 277.983L80.2112 275.72C81.0356 274.904 82.1485 274.446 83.3083 274.446C84.4681 274.446 85.581 274.904 86.4054 275.72C86.9093 276.226 87.5082 276.628 88.1678 276.902C88.8274 277.176 89.5346 277.317 90.2488 277.317C90.9631 277.317 91.6703 277.176 92.3298 276.902C92.9894 276.628 93.5883 276.226 94.0922 275.72L96.5798 273.232L95.8336 272.486ZM129.243 194.523L126.755 197.011C126.348 197.418 125.866 197.741 125.334 197.961C124.803 198.181 124.233 198.294 123.658 198.294C123.083 198.294 122.513 198.181 121.982 197.961C121.45 197.741 120.967 197.418 120.561 197.011C119.54 195.995 118.158 195.424 116.717 195.424C115.277 195.424 113.895 195.995 112.874 197.011L110.61 199.275L111.356 200.046L113.62 197.757C114.445 196.941 115.557 196.484 116.717 196.484C117.877 196.484 118.99 196.941 119.814 197.757C120.318 198.263 120.917 198.665 121.577 198.939C122.236 199.213 122.944 199.354 123.658 199.354C124.372 199.354 125.079 199.213 125.739 198.939C126.398 198.665 126.997 198.263 127.501 197.757L129.989 195.27L129.243 194.523Z" fill="white"/>
<path opacity="0.1" d="M186.186 136.734C168.25 179.298 116.756 290.769 89.168 290.172C87.1129 290.1 85.0781 289.74 83.123 289.102L190.365 108.574C193.748 110.962 193.723 118.898 186.186 136.734Z" fill="black"/>
<path d="M297.68 285.645C297.332 286.068 144.467 283.53 142.999 282.063C142.452 281.49 157.377 146.636 178.124 113.152C186.657 99.3456 210.464 92.2558 226.683 112.853C276.809 176.338 298.103 285.122 297.68 285.645Z" fill="#FFC727"/>
<path d="M210.789 235.368C209.628 235.368 208.514 234.906 207.693 234.085C206.872 233.264 206.411 232.151 206.411 230.989C206.411 229.545 205.837 228.159 204.815 227.137C203.793 226.115 202.408 225.541 200.963 225.541H197.579V226.611H200.963C202.124 226.611 203.237 227.072 204.059 227.894C204.88 228.715 205.341 229.828 205.341 230.989C205.347 232.43 205.924 233.809 206.945 234.826C207.966 235.842 209.348 236.413 210.789 236.412H213.998V235.368H210.789ZM164.32 165.714C163.745 165.716 163.176 165.603 162.646 165.381C162.116 165.159 161.636 164.832 161.235 164.42C161.235 164.818 161.061 165.216 160.961 165.614C161.911 166.383 163.098 166.796 164.32 166.784H167.529V165.714H164.32ZM171.161 265.219C170.752 264.817 170.427 264.336 170.205 263.807C169.983 263.277 169.869 262.709 169.869 262.135C169.869 261.561 169.983 260.992 170.205 260.463C170.427 259.933 170.752 259.453 171.161 259.05C172.177 258.024 172.749 256.639 172.753 255.194C172.753 254.482 172.613 253.777 172.339 253.12C172.066 252.462 171.666 251.865 171.161 251.363L168.673 248.876L167.927 249.622L170.414 252.109C170.824 252.512 171.148 252.992 171.37 253.522C171.592 254.052 171.706 254.62 171.706 255.194C171.706 255.768 171.592 256.337 171.37 256.866C171.148 257.396 170.824 257.876 170.414 258.279C169.397 259.304 168.825 260.69 168.825 262.135C168.825 263.579 169.397 264.965 170.414 265.99L172.703 268.254L173.449 267.508L171.161 265.219ZM202.803 187.63C201.989 186.81 201.532 185.701 201.532 184.545C201.532 183.39 201.989 182.281 202.803 181.461C203.82 180.44 204.39 179.058 204.39 177.617C204.39 176.177 203.82 174.795 202.803 173.774L200.316 171.286L199.57 172.057L202.057 174.545C202.464 174.952 202.787 175.434 203.007 175.966C203.227 176.497 203.341 177.067 203.341 177.642C203.341 178.217 203.227 178.787 203.007 179.318C202.787 179.85 202.464 180.333 202.057 180.739C201.041 181.76 200.47 183.142 200.47 184.583C200.47 186.023 201.041 187.405 202.057 188.426L204.321 190.69L205.092 189.943L202.803 187.63ZM284.895 257.707C284.489 257.3 284.166 256.817 283.946 256.286C283.725 255.754 283.612 255.185 283.612 254.61C283.612 254.034 283.725 253.465 283.946 252.933C284.166 252.402 284.489 251.919 284.895 251.512C285.912 250.491 286.482 249.11 286.482 247.669C286.482 246.229 285.912 244.847 284.895 243.826L282.408 241.338L281.662 242.084L284.149 244.572C284.556 244.979 284.879 245.461 285.099 245.993C285.319 246.524 285.433 247.094 285.433 247.669C285.433 248.244 285.319 248.814 285.099 249.345C284.879 249.877 284.556 250.36 284.149 250.766C283.133 251.787 282.562 253.169 282.562 254.61C282.562 256.05 283.133 257.432 284.149 258.453L286.438 260.717L287.184 259.97L284.895 257.707ZM208.45 282.583L206.833 284.2H208.326L209.197 283.329L208.45 282.583ZM193.748 283.901H198.525C197.757 283.538 196.915 283.355 196.066 283.368C195.216 283.381 194.381 283.589 193.624 283.976L193.748 283.901ZM261.86 172.43L260.094 174.197L260.84 174.943L262.308 173.475L261.86 172.43ZM241.71 253.652V256.861C241.71 258.022 241.249 259.136 240.428 259.957C239.607 260.778 238.493 261.239 237.332 261.239C235.891 261.239 234.509 261.81 233.488 262.826C232.467 263.842 231.891 265.222 231.884 266.662V270.07H232.954V266.588C232.954 266.014 233.067 265.446 233.287 264.916C233.508 264.386 233.831 263.905 234.238 263.5C234.644 263.096 235.127 262.776 235.658 262.558C236.189 262.341 236.758 262.231 237.332 262.234C238.772 262.228 240.152 261.651 241.168 260.63C242.184 259.609 242.755 258.227 242.755 256.786V253.652H241.71ZM163.698 204.347V207.556C163.698 208.717 163.236 209.831 162.415 210.652C161.594 211.473 160.481 211.934 159.32 211.934C157.879 211.941 156.5 212.518 155.483 213.539C154.467 214.56 153.896 215.941 153.896 217.382V220.765H154.941V217.382C154.941 216.221 155.403 215.107 156.224 214.286C157.045 213.465 158.158 213.004 159.32 213.004C160.764 213.004 162.15 212.43 163.172 211.408C164.194 210.386 164.767 209.001 164.767 207.556V204.347H163.698ZM201.958 115.787V118.996C201.958 120.157 201.496 121.271 200.675 122.092C199.854 122.913 198.741 123.374 197.579 123.374C196.143 123.381 194.768 123.954 193.752 124.97C192.736 125.985 192.163 127.361 192.156 128.797V132.205H193.201V128.797C193.185 128.212 193.285 127.629 193.498 127.084C193.711 126.538 194.03 126.04 194.439 125.621C194.847 125.201 195.335 124.867 195.875 124.639C196.414 124.412 196.994 124.294 197.579 124.295C199.022 124.288 200.404 123.712 201.424 122.692C202.445 121.671 203.021 120.29 203.027 118.847V115.638L201.958 115.787ZM250.069 201.063V204.272C250.069 205.433 249.607 206.547 248.786 207.368C247.965 208.189 246.851 208.65 245.69 208.65C244.245 208.65 242.86 209.224 241.838 210.246C240.816 211.268 240.242 212.654 240.242 214.098V217.482H241.312V214.098C241.312 212.937 241.773 211.824 242.594 211.003C243.415 210.181 244.529 209.72 245.69 209.72C247.131 209.714 248.51 209.137 249.527 208.116C250.543 207.095 251.113 205.713 251.113 204.272V201.063H250.069ZM238.352 158.599C237.191 158.599 236.077 158.138 235.256 157.317C234.435 156.496 233.974 155.382 233.974 154.221C233.974 152.776 233.4 151.39 232.378 150.369C231.356 149.347 229.97 148.773 228.526 148.773H225.192V149.843H228.575C229.737 149.843 230.85 150.304 231.671 151.125C232.492 151.946 232.954 153.06 232.954 154.221C232.96 155.664 233.536 157.046 234.557 158.066C235.577 159.086 236.959 159.662 238.402 159.669H241.611V158.599H238.352Z" fill="white"/>
<path d="M231.585 113.053C281.337 152.059 330.02 219.474 330.393 257.162C330.742 294.476 317.781 290.77 314.099 290.521C291.711 289.053 238.674 185.493 222.554 143.278C206.435 101.062 219.296 103.401 231.585 113.053Z" fill="#FFC727"/>
<path d="M298.676 218.107C297.515 218.107 296.401 217.646 295.58 216.825C294.759 216.004 294.298 214.89 294.298 213.729C294.298 212.288 293.727 210.907 292.711 209.886C291.695 208.865 290.316 208.288 288.875 208.281H285.467V209.351H288.875C290.032 209.357 291.139 209.822 291.955 210.642C292.77 211.462 293.228 212.572 293.228 213.729C293.235 215.17 293.812 216.549 294.833 217.565C295.854 218.582 297.236 219.152 298.676 219.152H301.885V218.107H298.676ZM284.895 257.711C284.488 257.304 284.165 256.821 283.945 256.29C283.725 255.758 283.611 255.189 283.611 254.613C283.611 254.038 283.725 253.469 283.945 252.937C284.165 252.406 284.488 251.923 284.895 251.516C285.911 250.495 286.482 249.113 286.482 247.673C286.482 246.232 285.911 244.85 284.895 243.829L282.407 241.342L281.661 242.088L284.148 244.576C284.555 244.982 284.878 245.465 285.098 245.997C285.319 246.528 285.432 247.098 285.432 247.673C285.432 248.248 285.319 248.818 285.098 249.349C284.878 249.881 284.555 250.363 284.148 250.77C283.132 251.791 282.562 253.173 282.562 254.613C282.562 256.054 283.132 257.436 284.148 258.457L286.437 260.721L287.183 259.974L284.895 257.711ZM278.626 169.623L276.138 172.111C275.314 172.927 274.201 173.384 273.041 173.384C271.881 173.384 270.768 172.927 269.944 172.111C268.923 171.095 267.541 170.524 266.101 170.524C264.66 170.524 263.278 171.095 262.257 172.111L259.993 174.375L260.74 175.121L263.004 172.857C263.828 172.041 264.941 171.584 266.101 171.584C267.26 171.584 268.373 172.041 269.198 172.857C270.219 173.873 271.601 174.444 273.041 174.444C274.482 174.444 275.864 173.873 276.885 172.857L279.372 170.37L278.626 169.623ZM326.712 236.789C325.353 236.902 324.086 237.523 323.164 238.528C322.241 239.533 321.732 240.849 321.737 242.212V245.596H322.806V242.212C322.806 241.075 323.251 239.982 324.046 239.169C324.841 238.355 325.923 237.885 327.06 237.859C326.836 237.436 326.712 237.088 326.588 236.715L326.712 236.789ZM250.068 201.067V203.057L251.063 204.973C251.075 204.741 251.075 204.508 251.063 204.276V201.067H250.068ZM321.936 271.691V274.9C321.936 276.061 321.474 277.175 320.653 277.996C319.832 278.817 318.719 279.278 317.557 279.278C316.117 279.278 314.735 279.849 313.714 280.865C312.693 281.881 312.116 283.261 312.109 284.701V288.085H313.179V284.701C313.179 283.54 313.64 282.427 314.462 281.605C315.283 280.784 316.396 280.323 317.557 280.323C318.994 280.317 320.369 279.743 321.385 278.727C322.4 277.712 322.974 276.336 322.98 274.9V271.691H321.936ZM238.351 158.603C237.19 158.603 236.076 158.142 235.255 157.321C234.434 156.5 233.973 155.386 233.973 154.225C233.973 152.78 233.399 151.394 232.377 150.373C231.355 149.351 229.97 148.777 228.525 148.777H225.191V149.847H228.575C229.736 149.847 230.849 150.308 231.671 151.129C232.492 151.95 232.953 153.064 232.953 154.225C232.959 155.668 233.535 157.05 234.556 158.07C235.576 159.09 236.958 159.666 238.401 159.673H241.61V158.603H238.351Z" fill="white"/>
<path d="M284.224 261.464C281.612 256.763 278.95 252.136 276.412 247.409L268.676 233.329C263.551 223.901 258.377 214.547 253.402 205.045C248.427 195.542 243.451 186.164 238.476 176.636C236.005 171.893 233.6 167.117 231.262 162.307C228.774 157.531 226.635 152.655 224.371 147.779C227.963 157.952 232.116 167.917 236.809 177.631C241.362 187.358 246.312 196.885 251.287 206.388C256.263 215.891 261.611 225.195 267.109 234.399C272.606 243.603 278.054 252.658 284.224 261.464Z" fill="#263238"/>
<path d="M229.595 160.267C228.679 158.542 227.648 156.879 226.51 155.292C225.963 154.545 225.44 153.749 224.843 153.003C224.246 152.257 223.699 151.486 223.027 150.764C223.483 152.675 224.33 154.471 225.515 156.038C226.6 157.689 227.984 159.123 229.595 160.267Z" fill="#263238"/>
<path d="M77.7246 188.303C80.2122 170.89 85.5358 146.486 91.8544 141.436C98.173 136.386 122.502 118.475 129.418 116.162C136.333 113.848 167.13 102.529 172.727 105.838C177.205 108.5 171.732 120.316 157.08 125.739C149.122 128.936 141.363 132.607 133.846 136.735C130.089 138.302 120.935 150.317 123.348 155.715C124.766 158.899 133.92 162.705 139.667 160.193C145.413 157.68 146.931 146.362 153.523 141.088C160.115 135.814 171.658 136.585 172.28 139.72C172.902 142.854 169.096 144.247 163.075 154.645C159.195 161.387 158.772 177.706 150.04 189.323C145.586 196.206 141.548 203.35 137.95 210.717L77.7246 188.303Z" fill="#AD6359"/>
<path d="M159.691 136.437C161.802 136.162 163.793 135.3 165.438 133.949C166.086 133.318 166.543 132.516 166.756 131.636C166.843 131.15 166.843 130.653 166.756 130.168C166.745 129.653 166.551 129.159 166.209 128.775C166.209 128.775 166.209 128.551 166.333 128.775C166.457 128.999 166.706 129.223 166.855 129.471C166.983 129.685 167.091 129.91 167.179 130.143C167.353 130.594 167.43 131.078 167.403 131.561C167.36 132.629 166.947 133.65 166.234 134.447C165.389 135.316 164.353 135.977 163.21 136.379C162.066 136.78 160.844 136.911 159.641 136.76C159.641 136.76 159.592 136.462 159.691 136.437Z" fill="#263238"/>
<path d="M91.8535 141.436C97.5005 132.779 111.904 117.182 126.059 111.908C135.611 108.376 168.348 124.67 167.204 130.939C166.06 137.207 160.587 137.158 152.278 136.088C149.268 135.69 133.347 129.769 130.586 133.103C126.631 137.879 121.481 154.298 121.481 154.298L91.8535 141.436Z" fill="#AD6359"/>
<path d="M166.434 128.476C162.454 121.735 153.573 118.053 144.742 115.143C144.618 115.143 144.543 115.292 144.742 115.342C147.006 116.088 161.359 122.804 166.409 128.576C166.384 128.65 166.459 128.551 166.434 128.476Z" fill="#263238"/>
<path d="M91.8535 141.435C97.5005 132.778 111.904 117.181 126.059 111.907C135.611 108.375 161.333 129.072 160.313 135.316C159.293 141.56 151.233 142.008 142.377 138.798C139.517 137.779 129.939 130.888 127.203 134.221C123.223 138.997 113.571 150.863 113.571 150.863L91.8535 141.435Z" fill="#AD6359"/>
<path d="M119.143 143.501L121.282 140.292C122.228 138.948 123.173 137.63 124.193 136.336C125.004 135.152 126.014 134.116 127.178 133.276C128.373 132.61 129.752 132.348 131.108 132.53C134.167 133.21 137.048 134.523 139.566 136.386C142.452 138.078 148.497 140.864 153.124 140.416C154.403 140.355 155.656 140.034 156.806 139.471C157.677 139.083 158.438 138.484 159.02 137.729C161.06 134.346 158.597 130.416 156.059 127.629C151.022 122.588 145.125 118.485 138.646 115.515C137.129 114.744 135.561 114.022 134.019 113.301C132.298 112.341 130.387 111.772 128.422 111.634C125.188 111.634 119.864 114.793 118.223 115.763C118.223 115.763 117.999 115.763 118.223 115.564C120.213 114.345 125.188 110.365 130.387 110.589C132.275 110.899 134.094 111.539 135.76 112.48C137.576 113.276 139.368 114.122 141.109 114.967C144.586 116.677 147.914 118.674 151.059 120.938C154.191 123.001 156.914 125.623 159.094 128.674C160.007 130.033 160.532 131.614 160.616 133.248C160.699 134.883 160.336 136.509 159.567 137.953C158.865 138.86 157.974 139.603 156.956 140.132C155.938 140.66 154.817 140.961 153.671 141.013C152.318 141.2 150.945 141.2 149.592 141.013C146.562 140.323 143.586 139.417 140.686 138.301C137.875 137.157 135.362 135.217 132.477 134.321C131.793 134.073 131.066 133.965 130.339 134.003C129.613 134.042 128.902 134.226 128.248 134.545C127.065 135.335 126.001 136.29 125.088 137.381C123.131 139.272 121.349 141.337 119.765 143.55C119.193 144.197 118.77 144.197 119.143 143.501Z" fill="#263238"/>
<path d="M87.6504 149.024C89.7151 144.895 93.3471 127.805 96.7054 122.581C100.064 117.356 115.338 99.3708 122.378 100.192C131.234 101.286 121.831 117.157 117.129 123.675C112.427 130.193 113.099 141.362 113.099 141.362L87.6504 149.024Z" fill="#AD6359"/>
<path d="M123.696 112.854C122.029 114.918 120.561 117.207 119.094 119.446C117.6 121.504 116.253 123.666 115.064 125.914C114.072 128.22 113.467 130.675 113.273 133.178C113.148 134.421 113.098 135.665 113.074 136.884C113.049 138.103 113.074 139.596 113.074 140.939C113.074 141.088 113.297 141.113 113.297 140.939C113.485 138.473 113.834 136.021 114.342 133.601C114.817 131.09 115.585 128.643 116.631 126.312C118.745 121.71 121.83 117.605 124.094 113.003C124.094 112.854 123.82 112.729 123.696 112.854Z" fill="#263238"/>
<path d="M113.247 143.275C112.901 147.535 113.637 151.814 115.387 155.714C116.945 159.691 119.101 163.407 121.78 166.734C124.307 169.931 126.437 173.422 128.123 177.132C129.688 180.958 130.782 184.959 131.382 189.048C131.722 184.798 131.232 180.523 129.939 176.46C128.55 172.399 126.49 168.598 123.845 165.216C121.321 161.992 119.137 158.516 117.327 154.843C115.338 151.238 113.96 147.33 113.247 143.275Z" fill="#263238"/>
<path d="M91.6799 288.978C108.944 286.639 120.238 257.783 139.94 207.01C143.398 198.104 98.297 143.326 92.1774 151.511C84.4409 161.81 63.6193 219.125 61.4551 234.747C57.1266 265.544 71.53 291.689 91.6799 288.978Z" fill="#AD6359"/>
<path d="M129.542 235.345L73.9184 181.289C73.9184 181.289 58.097 227.807 59.5896 247.31C61.0822 266.814 67.8486 289.028 91.3318 290.247C108.919 291.168 129.542 235.345 129.542 235.345Z" fill="#FFC727"/>
<path d="M119.093 246.861C119.086 245.42 118.51 244.041 117.489 243.025C116.468 242.008 115.086 241.438 113.645 241.438H110.262V242.507H113.645C114.219 242.504 114.788 242.614 115.319 242.832C115.85 243.049 116.333 243.369 116.739 243.774C117.146 244.178 117.469 244.659 117.69 245.189C117.91 245.719 118.023 246.287 118.023 246.861C118.023 248.125 118.462 249.349 119.265 250.325C120.069 251.301 121.186 251.967 122.426 252.209C122.601 251.861 122.75 251.513 122.899 251.164C121.848 251.037 120.88 250.528 120.179 249.735C119.478 248.942 119.091 247.92 119.093 246.861ZM82.6242 230.965C82.2173 230.558 81.8945 230.075 81.6743 229.544C81.454 229.013 81.3406 228.443 81.3406 227.868C81.3406 227.292 81.454 226.723 81.6743 226.191C81.8945 225.66 82.2173 225.177 82.6242 224.771C83.1304 224.267 83.5321 223.668 83.8061 223.008C84.0802 222.349 84.2213 221.641 84.2213 220.927C84.2213 220.213 84.0802 219.506 83.8061 218.846C83.5321 218.187 83.1304 217.588 82.6242 217.084L80.1366 214.596L79.3903 215.367L81.8779 217.855C82.6937 218.679 83.1513 219.792 83.1513 220.952C83.1513 222.112 82.6937 223.225 81.8779 224.049C81.3687 224.551 80.9644 225.15 80.6884 225.81C80.4124 226.469 80.2703 227.177 80.2703 227.893C80.2703 228.608 80.4124 229.316 80.6884 229.976C80.9644 230.635 81.3687 231.234 81.8779 231.736L84.1416 234L84.888 233.253L82.6242 230.965ZM95.8336 272.484L93.3459 274.971C92.9393 275.378 92.4565 275.701 91.9251 275.921C91.3936 276.141 90.8241 276.255 90.2488 276.255C89.6736 276.255 89.1039 276.141 88.5725 275.921C88.0411 275.701 87.5583 275.378 87.1517 274.971C86.1308 273.955 84.7488 273.384 83.3083 273.384C81.8677 273.384 80.4859 273.955 79.4649 274.971L77.2012 277.235L77.9474 277.981L80.2112 275.717C81.0356 274.902 82.1485 274.444 83.3083 274.444C84.4681 274.444 85.581 274.902 86.4054 275.717C86.9093 276.224 87.5082 276.625 88.1678 276.899C88.8274 277.173 89.5346 277.315 90.2488 277.315C90.9631 277.315 91.6703 277.173 92.3298 276.899C92.9894 276.625 93.5883 276.224 94.0922 275.717L96.5798 273.23L95.8336 272.484Z" fill="white"/>
<path d="M111.557 272.76C113.572 269.924 115.363 266.939 117.104 263.953C118.845 260.968 120.462 257.859 122.079 254.774C123.696 251.689 125.089 248.505 126.358 245.271C127.738 242.06 128.82 238.729 129.592 235.321C128.124 238.48 126.582 241.54 124.99 244.625L120.338 253.879C118.821 256.988 117.278 260.073 115.835 263.232C114.393 266.391 112.85 269.526 111.557 272.76Z" fill="#263238"/>
<path d="M117.551 244.771C114.865 241.811 111.904 239.05 109.043 236.264C106.183 233.477 103.272 230.691 100.337 227.955C94.4659 222.482 88.5702 217.034 82.5999 211.686L77.6246 207.307C75.8335 205.765 73.8683 204.447 72.102 202.904C72.0757 202.881 72.0412 202.87 72.0062 202.872C71.9713 202.874 71.9386 202.89 71.9155 202.917C71.8924 202.943 71.8808 202.978 71.8831 203.013C71.8854 203.048 71.9016 203.08 71.928 203.103C73.3459 204.472 74.5649 206.064 75.9579 207.457C77.351 208.85 78.8684 210.317 80.3361 211.735L89.0927 219.994C94.9635 225.467 100.859 230.915 106.879 236.189C110.312 239.174 113.646 242.284 117.228 245.07C117.267 245.113 117.322 245.138 117.381 245.14C117.439 245.143 117.496 245.122 117.539 245.082C117.582 245.043 117.607 244.988 117.609 244.929C117.612 244.871 117.591 244.814 117.551 244.771Z" fill="#263238"/>
<path d="M189.195 136.734C198.2 137.63 213.175 120.913 217.653 109.37C217.952 108.574 215.763 100.912 213.549 91.484C212.23 85.7376 210.912 79.3195 210.116 73.374L174.045 87.4292C177.179 94.5898 179.418 102.109 180.712 109.818C180.785 110.645 180.785 111.478 180.712 112.306C180.699 112.438 180.699 112.571 180.712 112.704C180.637 117.281 180.413 135.839 189.195 136.734Z" fill="#AD6359"/>
<path d="M180.786 112.133C180.774 112.266 180.774 112.399 180.786 112.531C182.078 112.536 183.367 112.436 184.642 112.233C206.135 108.874 207.678 81.809 207.678 74.2466L198.673 77.7542L174.045 87.3316C177.178 94.4903 179.41 102.011 180.687 109.72C180.803 110.519 180.836 111.328 180.786 112.133Z" fill="#263238"/>
<path d="M212.006 30.5617C217.205 43.4726 213.573 82.4538 204.891 91.8322C192.279 105.44 170.064 108.599 157.999 93.076C146.382 78.1502 152.004 27.3029 161.88 18.5962C176.408 5.78487 204.294 11.4567 212.006 30.5617Z" fill="#AD6359"/>
<path d="M178.598 63.3252C178.598 63.3252 178.797 63.4496 178.772 63.574C178.523 66.0616 178.772 69.2458 180.986 70.2657C180.986 70.2657 180.986 70.4398 180.986 70.415C178.076 69.8179 177.926 65.7631 178.598 63.3252Z" fill="#263238"/>
<path d="M181.11 60.7358C185.364 60.7358 185.14 69.1938 181.11 69.2436C177.08 69.2933 177.552 60.7607 181.11 60.7358Z" fill="#263238"/>
<path d="M163.373 62.4521C163.373 62.4521 163.149 62.4522 163.149 62.676C163.149 65.3129 162.751 68.3478 160.338 69.1688C163.273 68.9698 163.796 64.9647 163.373 62.4521Z" fill="#263238"/>
<path d="M161.085 59.6178C156.856 59.1949 156.309 67.6778 160.214 68.0758C164.12 68.4738 164.642 60.0159 161.085 59.6178Z" fill="#263238"/>
<path d="M185.389 54.6418C184.245 54.4078 183.116 54.1088 182.006 53.7463C180.779 53.5882 179.636 53.0386 178.747 52.1791C178.507 51.86 178.377 51.4714 178.377 51.0721C178.377 50.6727 178.507 50.2842 178.747 49.9651C179.352 49.4491 180.083 49.1033 180.866 48.9634C181.648 48.8235 182.454 48.8945 183.2 49.169C184.79 49.4729 186.21 50.3601 187.18 51.6567C187.387 51.9592 187.503 52.3147 187.514 52.681C187.524 53.0474 187.43 53.4091 187.241 53.7234C187.053 54.0377 186.778 54.2912 186.45 54.454C186.121 54.6168 185.753 54.682 185.389 54.6418Z" fill="#263238"/>
<path d="M157.651 52.4548C158.8 52.2571 159.937 51.9997 161.059 51.6837C162.291 51.5619 163.451 51.0473 164.368 50.216C164.608 49.8969 164.738 49.5083 164.738 49.109C164.738 48.7096 164.608 48.3211 164.368 48.002C163.786 47.465 163.07 47.094 162.295 46.9278C161.521 46.7615 160.716 46.806 159.965 47.0567C158.341 47.3442 156.884 48.2322 155.885 49.5443C155.702 49.8442 155.604 50.1889 155.604 50.5405C155.603 50.8921 155.699 51.2371 155.881 51.5377C156.064 51.8382 156.325 52.0828 156.638 52.2446C156.95 52.4064 157.301 52.4791 157.651 52.4548Z" fill="#263238"/>
<path d="M182.155 85.6146C181.558 86.2365 180.936 87.1072 179.991 87.2067C179.006 87.2078 178.032 87.0045 177.13 86.6096C177.13 86.6096 176.956 86.6097 177.13 86.7589C177.519 87.2688 178.039 87.6632 178.635 87.8999C179.231 88.1366 179.881 88.2065 180.513 88.1022C181.057 87.9328 181.539 87.6061 181.897 87.1634C182.256 86.7208 182.476 86.1818 182.528 85.6146C182.454 85.5648 182.255 85.5151 182.155 85.6146Z" fill="#263238"/>
<path d="M179.195 77.7792C178.552 78.8415 177.697 79.7592 176.682 80.4742C175.667 81.1893 174.515 81.6861 173.299 81.9335C172.243 82.1448 171.165 82.2201 170.09 82.1574C169.883 82.1834 169.674 82.1834 169.468 82.1574C169.27 82.1802 169.069 82.1802 168.871 82.1574C168.732 82.1352 168.605 82.0665 168.51 81.9626C168.415 81.8587 168.358 81.7257 168.348 81.5853V81.3116V81.0629C168.348 79.0479 168.348 76.0876 168.348 76.0876C167.627 76.4607 163.871 78.2518 163.92 77.207C163.919 68.0135 164.861 58.8441 166.731 49.843C166.731 49.777 166.758 49.7138 166.804 49.6671C166.851 49.6204 166.914 49.5942 166.98 49.5942C167.046 49.5942 167.109 49.6204 167.156 49.6671C167.203 49.7138 167.229 49.777 167.229 49.843C167.229 58.3258 165.811 66.734 165.712 75.2169C167.046 74.5711 168.459 74.1028 169.916 73.8238C170.189 73.8238 169.567 79.7942 169.692 80.7146C171.36 80.8438 173.037 80.6349 174.623 80.1006C176.209 79.5663 177.671 78.7175 178.921 77.605C179.145 77.406 179.344 77.5802 179.195 77.7792Z" fill="#263238"/>
<path d="M138.895 9.6187C140.838 5.89364 144.037 2.97665 147.925 1.38461C153.298 -0.829392 158.746 0.513941 164.144 1.95677C164.294 1.95677 164.144 2.23042 164.144 2.18067C159.65 0.59506 154.789 0.361537 150.164 1.509C146.319 2.71866 143.014 5.22432 140.81 8.59876C138.647 12.0842 137.815 16.234 138.469 20.284C139.122 24.334 141.217 28.0114 144.368 30.6392C146.219 32.104 148.35 33.177 150.629 33.7928C152.908 34.4086 155.289 34.5544 157.627 34.2214C157.801 34.2214 157.9 34.4702 157.627 34.4951C154.446 35.0829 151.164 34.7731 148.149 33.6003C145.134 32.4275 142.506 30.4381 140.558 27.8552C138.611 25.2723 137.421 22.1979 137.123 18.9768C136.825 15.7557 137.43 12.5153 138.87 9.6187H138.895Z" fill="#263238"/>
<path d="M213.823 38.9953C213.823 38.9953 214.843 27.1542 212.306 23.0993C209.769 19.0445 203.176 17.328 203.176 17.328C203.176 17.328 200.689 6.80529 191.285 4.88981C182.852 3.07384 176.011 9.86508 176.011 9.86508C176.011 9.86508 165.911 -3.56816 151.483 1.13347C137.776 5.58634 136.557 25.3133 148.05 33.3235C156.11 38.9456 169.195 33.0996 169.195 33.0996C170.315 33.4479 180.862 42.3287 191.335 33.2986C191.335 33.2986 198.4 40.7615 203.649 36.9803C203.649 36.6818 209.346 40.4879 213.823 38.9953Z" fill="#263238"/>
<path opacity="0.2" d="M212.752 69.5666C210.265 66.2083 206.583 56.1831 204.817 51.7551C203.05 47.3271 203.971 28.4708 204.543 20.1372C207.824 22.9787 210.382 26.56 212.006 30.5853C215.091 38.2472 215.066 55.1383 212.752 69.5666Z" fill="#263238"/>
<path d="M206.559 62.5519C206.559 62.5519 214.395 49.5166 220.241 52.253C226.087 54.9894 220.788 73.4228 214.32 76.3334C213.519 76.7627 212.639 77.0255 211.734 77.106C210.828 77.1865 209.916 77.083 209.051 76.8019C208.187 76.5207 207.388 76.0676 206.704 75.4698C206.019 74.872 205.462 74.1419 205.066 73.3233L206.559 62.5519Z" fill="#AD6359"/>
<path d="M218.598 57.501C218.598 57.501 218.598 57.501 218.598 57.6751C214.096 59.8642 211.956 64.342 210.538 68.9192C210.777 68.4362 211.118 68.0106 211.537 67.6718C211.956 67.333 212.444 67.089 212.966 66.9566C213.489 66.8242 214.034 66.8066 214.564 66.9049C215.094 67.0032 215.596 67.2152 216.036 67.5262C216.16 67.5262 216.036 67.7998 215.912 67.7749C215.08 67.5748 214.208 67.6345 213.412 67.9459C212.615 68.2573 211.934 68.8054 211.459 69.5163C210.674 70.7274 210.024 72.0203 209.518 73.3721C209.344 73.795 208.573 73.6209 208.697 73.1233C208.225 67.0784 212.28 58.5209 218.598 57.501Z" fill="#263238"/>
<path d="M205.49 214.572L198.251 136.858L193.5 133.052L86.9043 132.405L89.367 206.313L94.1184 210.119L205.49 214.572Z" fill="#37474F"/>
<path d="M200.738 210.765L193.499 133.051L82.1523 128.598L89.3665 206.312L200.738 210.765Z" fill="#455A64"/>
<path d="M130.288 165.664C131.177 164.095 132.603 162.9 134.304 162.301C136.006 161.702 137.866 161.739 139.542 162.406C140.358 162.611 141.119 162.989 141.777 163.513C142.434 164.038 142.972 164.697 143.353 165.446C143.735 166.195 143.952 167.017 143.99 167.857C144.028 168.697 143.885 169.536 143.572 170.316C142.681 171.876 141.257 173.062 139.561 173.656C137.866 174.25 136.013 174.212 134.343 173.55C133.526 173.35 132.762 172.978 132.102 172.457C131.442 171.936 130.901 171.28 130.517 170.532C130.133 169.785 129.913 168.963 129.874 168.123C129.834 167.283 129.976 166.445 130.288 165.664Z" fill="white"/>
<path d="M319.274 290.447C302.632 292.735 281.96 279.8 228.127 240.545C220.664 235.122 244.894 172.284 253.128 177.682C263.526 184.473 302.333 213.081 304.921 215.544C326.638 236.241 330.543 288.904 319.274 290.447Z" fill="#AD6359"/>
<path d="M272.456 196.687C272.456 196.687 257.157 175.193 245.614 166.387C233.373 157.563 219.18 151.827 204.245 149.67C188.125 147.183 147.527 152.705 147.029 164.596C146.581 175.417 187.826 167.805 187.826 167.805C187.826 167.805 144.492 168.626 146.382 181.786C148.273 194.945 195.613 183.353 195.613 183.353C195.613 183.353 151.109 185.194 155.189 198.453C158.273 208.403 201.757 200.393 201.757 200.393C201.757 200.393 163.522 202.259 166.234 212.682C169.244 224.225 209.842 219.299 209.842 219.299C221.235 244.648 237.554 251.788 249.42 255.718C252.157 256.738 272.456 196.687 272.456 196.687Z" fill="#AD6359"/>
<path d="M202.653 166.586C197.678 166.586 192.404 166.362 187.329 166.735C182.255 167.109 177.18 167.656 172.155 168.477C165.563 169.448 159.103 171.167 152.9 173.601C164.219 170.094 182.404 168.502 187.479 168.128C192.553 167.755 197.603 167.133 202.678 166.76C202.802 166.81 202.802 166.586 202.653 166.586Z" fill="#263238"/>
<path d="M204.319 184.945C197.802 185.119 191.359 185.069 184.841 185.517C178.324 185.965 172.403 186.985 165.86 187.88C165.363 187.88 165.562 188.179 166.059 188.129C172.502 187.482 178.498 187.408 184.99 186.835C191.483 186.263 197.876 185.442 204.344 185.119L204.319 184.945Z" fill="#263238"/>
<path d="M208.573 200.418C198.59 200.449 188.637 201.508 178.871 203.577C178.373 203.577 178.672 203.95 179.169 203.876C189.12 202.657 196.757 201.612 208.573 200.766C208.747 200.766 208.772 200.443 208.573 200.418Z" fill="#263238"/>
<path d="M272.456 188.154L251.262 265.271C251.262 265.271 308.129 298.729 320.692 289.873C333.254 281.017 325.02 236.439 310.741 219.448C304.796 212.458 272.456 188.154 272.456 188.154Z" fill="#FFC727"/>
<path d="M321.96 271.687V274.896C321.96 276.057 321.499 277.171 320.678 277.992C319.856 278.813 318.743 279.275 317.582 279.275C316.141 279.275 314.759 279.845 313.738 280.861C312.717 281.878 312.14 283.257 312.134 284.698V288.081H313.203V284.698C313.203 283.536 313.665 282.423 314.486 281.602C315.307 280.781 316.42 280.319 317.582 280.319C319.018 280.313 320.393 279.739 321.409 278.724C322.425 277.708 322.998 276.333 323.005 274.896V271.687H321.96ZM321.686 241.214C321.661 241.503 321.661 241.795 321.686 242.084V245.468H322.756V244.448C322.358 243.428 322.035 242.333 321.686 241.214ZM284.894 257.707C284.487 257.3 284.164 256.817 283.944 256.286C283.724 255.754 283.61 255.185 283.61 254.61C283.61 254.034 283.724 253.465 283.944 252.933C284.164 252.402 284.487 251.919 284.894 251.512C285.91 250.492 286.481 249.11 286.481 247.669C286.481 246.229 285.91 244.847 284.894 243.826L282.406 241.338L281.66 242.084L284.148 244.572C284.555 244.979 284.877 245.461 285.098 245.993C285.318 246.524 285.431 247.094 285.431 247.669C285.431 248.244 285.318 248.814 285.098 249.345C284.877 249.877 284.555 250.36 284.148 250.766C283.132 251.787 282.561 253.169 282.561 254.61C282.561 256.05 283.132 257.432 284.148 258.453L286.436 260.717L287.183 259.97L284.894 257.707ZM298.8 218.104C297.639 218.104 296.525 217.642 295.704 216.821C294.883 216 294.422 214.886 294.422 213.725C294.422 212.285 293.851 210.903 292.835 209.882C291.819 208.861 290.439 208.284 288.999 208.277H285.591V209.347H288.999C290.156 209.354 291.263 209.818 292.079 210.638C292.894 211.459 293.352 212.568 293.352 213.725C293.359 215.166 293.935 216.545 294.956 217.561C295.977 218.578 297.359 219.148 298.8 219.148H302.009V218.104H298.8Z" fill="white"/>
<path d="M271.635 190.716L272.456 188.228H272.257C277.63 192.606 283.028 196.96 288.327 201.388C293.625 205.816 298.974 210.219 304.024 214.895C306.588 217.161 308.999 219.596 311.238 222.184C313.401 224.827 315.324 227.658 316.984 230.642C320.279 236.698 322.588 243.239 323.825 250.021C323.275 243.036 321.392 236.222 318.278 229.946C316.713 226.79 314.811 223.812 312.606 221.065C310.348 218.423 307.922 215.93 305.342 213.602C300.193 208.925 294.795 204.547 289.322 200.268C283.849 195.989 278.202 191.984 272.406 188.128H272.257V188.303L271.635 190.716Z" fill="#263238"/>
<path d="M284.895 207.308C283.601 211.09 282.606 215.02 281.536 218.876C280.467 222.732 279.447 226.613 278.452 230.518C276.486 238.28 274.546 246.066 272.73 253.877C272.233 256.016 271.735 258.156 271.262 260.32C270.79 262.484 270.566 264.972 270.068 267.261C270.068 267.435 270.292 267.484 270.342 267.261C270.864 265.37 271.636 263.529 272.208 261.639C272.78 259.748 273.302 257.708 273.825 255.743C274.869 251.862 275.865 247.981 276.86 244.076C278.825 236.314 280.79 228.528 282.507 220.692C283.477 216.264 284.596 211.836 285.293 207.358C285.299 207.305 285.285 207.252 285.252 207.21C285.219 207.168 285.171 207.141 285.119 207.134C285.066 207.128 285.013 207.142 284.971 207.175C284.929 207.208 284.901 207.256 284.895 207.308Z" fill="#263238"/>
<path d="M253.027 258.511C252.604 260.874 252.082 263.187 251.609 265.526L251.385 264.979C257.182 268.163 265.664 272.441 271.585 275.601C278.351 279.083 285.143 282.417 292.058 285.701C288.38 284.653 284.767 283.39 281.237 281.919C270.485 277.527 260.207 272.05 250.564 265.576C251.385 263.237 252.157 260.849 253.052 258.511H253.027Z" fill="#263238"/>
</svg>
