<svg width="228" height="215" viewBox="0 0 228 215" fill="none" xmlns="http://www.w3.org/2000/svg">
<path d="M98.5001 57.2238C98.9284 71.2537 97.0884 88.1547 104.052 100.971C109.5 110.996 119.811 117.238 130.272 120.949C153.272 129.11 184.544 128.016 198.478 104.738C204.03 95.4354 203.697 76.9799 192.863 71.0237C187.312 67.9861 180.967 67.6689 174.812 66.503C166.739 64.9803 160.695 60.9513 156.484 53.8927C148.243 40.0928 148.87 29.4811 146.324 14.0711C145.84 11.2159 144.952 8.43213 141.922 6.21938C139.187 3.90479 135.872 2.3802 132.334 1.80974C129.279 0.750263 126.01 0.461489 122.817 0.969053C116.004 2.20629 109.889 9.05076 104.877 13.397C99.8642 17.7431 97.6435 22.1687 97.7387 28.9497C97.7942 38.3797 98.2146 47.8017 98.5001 57.2238Z" fill="#002064"/>
<path d="M97.27 63.9501C97.6983 51.0543 98.3883 38.1981 98.991 25.3181C98.991 25.2388 99.11 25.2309 99.11 25.3181C98.9276 35.9298 98.88 46.5336 98.5548 57.1453C98.2376 67.5428 97.1986 78.21 97.7617 88.6076C99.0941 111.933 123.768 119.594 143.492 116.945C144.388 116.826 144.475 118.27 143.563 118.357C126.179 120.141 104.939 115.771 98.2376 97.2366C94.5972 87.0928 96.9131 74.5063 97.27 63.9501Z" fill="#002064"/>
<path d="M145.049 12.9369C145.058 12.8921 145.082 12.8518 145.117 12.8228C145.153 12.7939 145.197 12.7781 145.243 12.7781C145.289 12.7781 145.333 12.7939 145.368 12.8228C145.404 12.8518 145.428 12.8921 145.437 12.9369C147.023 25.7058 147.618 40.6954 155.748 51.3389C159.768 56.5439 165.266 60.4139 171.522 62.4423C176.479 64.0285 181.595 63.8144 186.702 64.425C206.657 66.8043 208.909 93.3336 195.363 104.778C195.085 105.016 194.657 104.54 194.935 104.278C204.381 95.4988 206.593 80.6757 197.576 70.6033C190.343 62.5216 177.907 66.2095 168.58 62.2599C149.252 54.0751 146.072 31.5668 145.049 12.9369Z" fill="#002064"/>
<path d="M142.994 67.368C163.718 88.3773 189.787 132.577 184.933 141.531C179.516 151.516 150.655 122.06 150.766 120.339C150.854 119.039 140.694 92.1921 132.993 72.6659C125.292 53.1398 137.863 62.1415 142.994 67.368Z" fill="#F7A9A0"/>
<path d="M150.576 120.339C149.688 117.468 135.872 82.0721 131.922 70.8735C127.973 59.6749 131.637 56.2169 142.915 66.4717C154.193 76.7266 178.922 110.973 184.561 129.127C190.001 146.638 180.984 146.638 169.087 138.565C159.348 131.99 150.576 120.339 150.576 120.339Z" fill="#ED7155"/>
<path d="M130.44 64.8302C130.44 65.0364 130.479 65.2426 130.511 65.4647C130.578 65.5605 130.667 65.6387 130.77 65.6926C130.874 65.7465 130.989 65.7744 131.106 65.774C131.235 65.7737 131.362 65.7379 131.472 65.6706C131.582 65.6033 131.672 65.507 131.731 65.3922C131.791 65.2774 131.817 65.1485 131.808 65.0196C131.8 64.8907 131.755 64.7667 131.681 64.6611C131.606 64.5555 131.504 64.4725 131.386 64.4209C131.267 64.3694 131.137 64.3513 131.009 64.3688C130.881 64.3862 130.76 64.4385 130.66 64.5198C130.559 64.6012 130.483 64.7086 130.44 64.8302ZM153.955 79.6454C154.097 79.6438 154.236 79.6845 154.355 79.7624C154.473 79.8402 154.566 79.9516 154.621 80.0823C154.676 80.2131 154.691 80.3572 154.664 80.4964C154.636 80.6356 154.568 80.7635 154.468 80.8638C154.367 80.9641 154.24 81.0323 154.1 81.0596C153.961 81.0869 153.817 81.0721 153.686 81.0171C153.556 80.9621 153.444 80.8693 153.366 80.7508C153.288 80.6322 153.248 80.4931 153.249 80.3512C153.249 80.164 153.324 79.9845 153.456 79.8521C153.588 79.7197 153.768 79.6454 153.955 79.6454ZM142.535 79.6454C142.676 79.6454 142.814 79.6874 142.932 79.7662C143.049 79.845 143.141 79.957 143.195 80.0879C143.248 80.2188 143.262 80.3627 143.234 80.5014C143.206 80.64 143.137 80.7672 143.036 80.8667C142.936 80.9662 142.808 81.0336 142.669 81.0602C142.53 81.0868 142.386 81.0716 142.256 81.0163C142.126 80.9611 142.015 80.8684 141.937 80.7499C141.86 80.6315 141.819 80.4927 141.821 80.3512C141.821 80.2579 141.839 80.1654 141.875 80.0793C141.911 79.9931 141.964 79.9149 142.03 79.8493C142.097 79.7836 142.175 79.7318 142.262 79.6968C142.349 79.6618 142.441 79.6443 142.535 79.6454ZM148.245 72.325C148.386 72.325 148.525 72.3671 148.642 72.4459C148.76 72.5247 148.851 72.6366 148.905 72.7675C148.959 72.8984 148.972 73.0423 148.944 73.181C148.916 73.3197 148.847 73.4469 148.747 73.5464C148.646 73.6459 148.518 73.7132 148.379 73.7399C148.24 73.7665 148.096 73.7512 147.966 73.696C147.836 73.6407 147.725 73.548 147.647 73.4296C147.57 73.3112 147.529 73.1724 147.531 73.0309C147.531 72.9375 147.55 72.8451 147.586 72.7589C147.622 72.6728 147.674 72.5946 147.741 72.529C147.807 72.4633 147.886 72.4115 147.972 72.3765C148.059 72.3415 148.151 72.324 148.245 72.325ZM136.816 72.325C136.958 72.3235 137.097 72.3642 137.216 72.442C137.334 72.5198 137.427 72.6312 137.482 72.762C137.537 72.8927 137.552 73.0369 137.525 73.1761C137.497 73.3153 137.429 73.4432 137.329 73.5435C137.229 73.6438 137.101 73.712 136.961 73.7393C136.822 73.7665 136.678 73.7517 136.547 73.6967C136.417 73.6417 136.305 73.549 136.227 73.4304C136.15 73.3118 136.109 73.1728 136.11 73.0309C136.11 72.8437 136.185 72.6642 136.317 72.5318C136.45 72.3994 136.629 72.325 136.816 72.325ZM165.368 94.9284C165.51 94.9269 165.649 94.9676 165.767 95.0454C165.886 95.1232 165.979 95.2346 166.034 95.3654C166.089 95.4961 166.104 95.6403 166.076 95.7795C166.049 95.9187 165.981 96.0466 165.881 96.1469C165.78 96.2472 165.652 96.3154 165.513 96.3426C165.374 96.3699 165.23 96.3551 165.099 96.3001C164.968 96.2451 164.857 96.1524 164.779 96.0338C164.701 95.9152 164.66 95.7761 164.662 95.6343C164.662 95.5409 164.681 95.4485 164.717 95.3623C164.752 95.2762 164.805 95.198 164.872 95.1323C164.938 95.0667 165.017 95.0149 165.103 94.9799C165.19 94.9449 165.282 94.9274 165.376 94.9284H165.368ZM153.947 94.9284C154.089 94.9269 154.228 94.9676 154.347 95.0454C154.465 95.1232 154.558 95.2346 154.613 95.3654C154.668 95.4961 154.683 95.6403 154.656 95.7795C154.628 95.9187 154.56 96.0466 154.46 96.1469C154.36 96.2472 154.232 96.3154 154.092 96.3426C153.953 96.3699 153.809 96.3551 153.678 96.3001C153.548 96.2451 153.436 96.1524 153.358 96.0338C153.281 95.9152 153.24 95.7761 153.241 95.6343C153.241 95.5409 153.26 95.4485 153.296 95.3623C153.332 95.2762 153.385 95.198 153.451 95.1323C153.517 95.0667 153.596 95.0149 153.683 94.9799C153.769 94.9449 153.862 94.9274 153.955 94.9284H153.947ZM142.527 94.9284C142.668 94.9284 142.806 94.9705 142.924 95.0493C143.042 95.1281 143.133 95.24 143.187 95.3709C143.241 95.5018 143.254 95.6457 143.226 95.7844C143.198 95.9231 143.129 96.0503 143.028 96.1498C142.928 96.2493 142.8 96.3166 142.661 96.3433C142.522 96.3699 142.378 96.3546 142.248 96.2994C142.118 96.2441 142.007 96.1514 141.929 96.033C141.852 95.9146 141.811 95.7758 141.813 95.6343C141.813 95.5403 141.832 95.4472 141.868 95.3605C141.904 95.2738 141.958 95.1952 142.025 95.1295C142.092 95.0637 142.172 95.0121 142.26 94.9775C142.347 94.943 142.441 94.9263 142.535 94.9284H142.527ZM159.658 87.6081C159.799 87.6065 159.939 87.6473 160.057 87.7251C160.176 87.8029 160.268 87.9143 160.323 88.0451C160.378 88.1758 160.393 88.32 160.366 88.4592C160.339 88.5984 160.271 88.7263 160.17 88.8266C160.07 88.9269 159.942 88.995 159.803 89.0223C159.664 89.0496 159.519 89.0348 159.389 88.9798C159.258 88.9248 159.147 88.8321 159.069 88.7135C158.991 88.5949 158.95 88.4558 158.952 88.314C158.952 88.2206 158.97 88.1282 159.006 88.042C159.042 87.9558 159.095 87.8777 159.161 87.812C159.228 87.7464 159.306 87.6946 159.393 87.6596C159.48 87.6246 159.572 87.607 159.666 87.6081H159.658ZM148.237 87.6081C148.378 87.6081 148.517 87.6502 148.634 87.729C148.752 87.8078 148.843 87.9197 148.897 88.0506C148.951 88.1815 148.965 88.3254 148.936 88.4641C148.908 88.6028 148.839 88.7299 148.739 88.8294C148.638 88.9289 148.51 88.9963 148.371 89.0229C148.232 89.0496 148.089 89.0343 147.958 88.9791C147.828 88.9238 147.717 88.8311 147.64 88.7127C147.562 88.5943 147.522 88.4555 147.523 88.314C147.523 88.2199 147.542 88.1268 147.578 88.0401C147.615 87.9534 147.668 87.8749 147.735 87.8092C147.803 87.7434 147.882 87.6917 147.97 87.6572C148.057 87.6227 148.151 87.606 148.245 87.6081H148.237ZM165.376 110.196C165.518 110.194 165.657 110.235 165.775 110.313C165.894 110.39 165.987 110.502 166.042 110.633C166.097 110.763 166.111 110.908 166.084 111.047C166.057 111.186 165.989 111.314 165.888 111.414C165.788 111.514 165.66 111.583 165.521 111.61C165.382 111.637 165.238 111.622 165.107 111.567C164.976 111.512 164.865 111.42 164.787 111.301C164.709 111.182 164.668 111.043 164.67 110.902C164.67 110.714 164.744 110.535 164.877 110.402C165.009 110.27 165.189 110.196 165.376 110.196ZM153.955 110.196C154.097 110.194 154.236 110.235 154.355 110.313C154.473 110.39 154.566 110.502 154.621 110.633C154.676 110.763 154.691 110.908 154.664 111.047C154.636 111.186 154.568 111.314 154.468 111.414C154.367 111.514 154.24 111.583 154.1 111.61C153.961 111.637 153.817 111.622 153.686 111.567C153.556 111.512 153.444 111.42 153.366 111.301C153.288 111.182 153.248 111.043 153.249 110.902C153.249 110.714 153.324 110.535 153.456 110.402C153.588 110.27 153.768 110.196 153.955 110.196ZM171.086 102.891C171.228 102.891 171.366 102.933 171.484 103.012C171.601 103.091 171.693 103.203 171.746 103.334C171.8 103.465 171.814 103.608 171.786 103.747C171.757 103.886 171.689 104.013 171.588 104.113C171.487 104.212 171.359 104.279 171.221 104.306C171.082 104.333 170.938 104.317 170.807 104.262C170.677 104.207 170.566 104.114 170.489 103.996C170.411 103.877 170.371 103.739 170.372 103.597C170.372 103.504 170.391 103.411 170.427 103.325C170.463 103.239 170.516 103.161 170.582 103.095C170.648 103.029 170.727 102.978 170.814 102.943C170.9 102.908 170.993 102.89 171.086 102.891ZM159.658 102.891C159.799 102.89 159.939 102.93 160.057 103.008C160.176 103.086 160.268 103.197 160.323 103.328C160.378 103.459 160.393 103.603 160.366 103.742C160.339 103.881 160.271 104.009 160.17 104.11C160.07 104.21 159.942 104.278 159.803 104.305C159.664 104.333 159.519 104.318 159.389 104.263C159.258 104.208 159.147 104.115 159.069 103.997C158.991 103.878 158.95 103.739 158.952 103.597C158.952 103.504 158.97 103.411 159.006 103.325C159.042 103.239 159.095 103.161 159.161 103.095C159.228 103.029 159.306 102.978 159.393 102.943C159.48 102.908 159.572 102.89 159.666 102.891H159.658ZM148.237 102.891C148.378 102.891 148.517 102.933 148.634 103.012C148.752 103.091 148.843 103.203 148.897 103.334C148.951 103.465 148.965 103.608 148.936 103.747C148.908 103.886 148.839 104.013 148.739 104.113C148.638 104.212 148.51 104.279 148.371 104.306C148.232 104.333 148.089 104.317 147.958 104.262C147.828 104.207 147.717 104.114 147.64 103.996C147.562 103.877 147.522 103.739 147.523 103.597C147.523 103.503 147.542 103.41 147.578 103.323C147.615 103.236 147.668 103.158 147.735 103.092C147.803 103.026 147.882 102.975 147.97 102.94C148.057 102.906 148.151 102.889 148.245 102.891H148.237ZM176.789 125.495C176.928 125.496 177.064 125.539 177.179 125.617C177.294 125.696 177.383 125.807 177.435 125.936C177.487 126.065 177.5 126.207 177.472 126.343C177.444 126.479 177.376 126.604 177.277 126.702C177.178 126.8 177.052 126.867 176.915 126.893C176.779 126.92 176.637 126.905 176.509 126.852C176.38 126.798 176.27 126.708 176.193 126.592C176.116 126.476 176.075 126.34 176.075 126.2C176.075 126.106 176.094 126.012 176.131 125.925C176.168 125.837 176.222 125.759 176.29 125.693C176.358 125.627 176.439 125.575 176.527 125.541C176.615 125.507 176.71 125.491 176.804 125.495H176.789ZM165.36 125.495C165.5 125.495 165.636 125.536 165.752 125.614C165.868 125.691 165.959 125.801 166.012 125.93C166.066 126.059 166.08 126.201 166.052 126.338C166.025 126.475 165.958 126.601 165.859 126.7C165.76 126.798 165.635 126.865 165.498 126.893C165.361 126.92 165.219 126.906 165.09 126.853C164.961 126.799 164.851 126.709 164.773 126.593C164.696 126.477 164.654 126.34 164.654 126.2C164.654 126.106 164.673 126.013 164.709 125.927C164.746 125.84 164.799 125.761 164.866 125.696C164.934 125.63 165.013 125.578 165.101 125.544C165.188 125.509 165.282 125.492 165.376 125.495H165.36ZM171.086 118.174C171.228 118.174 171.366 118.216 171.484 118.295C171.601 118.374 171.693 118.486 171.746 118.617C171.8 118.748 171.814 118.892 171.786 119.03C171.757 119.169 171.689 119.296 171.588 119.396C171.487 119.495 171.359 119.562 171.221 119.589C171.082 119.616 170.938 119.6 170.807 119.545C170.677 119.49 170.566 119.397 170.489 119.279C170.411 119.16 170.371 119.022 170.372 118.88C170.372 118.787 170.391 118.694 170.427 118.608C170.463 118.522 170.516 118.444 170.582 118.378C170.648 118.313 170.727 118.261 170.814 118.226C170.9 118.191 170.993 118.173 171.086 118.174ZM159.658 118.174C159.799 118.173 159.939 118.213 160.057 118.291C160.176 118.369 160.268 118.48 160.323 118.611C160.378 118.742 160.393 118.886 160.366 119.025C160.339 119.165 160.271 119.292 160.17 119.393C160.07 119.493 159.942 119.561 159.803 119.588C159.664 119.616 159.519 119.601 159.389 119.546C159.258 119.491 159.147 119.398 159.069 119.28C158.991 119.161 158.95 119.022 158.952 118.88C158.952 118.787 158.97 118.694 159.006 118.608C159.042 118.522 159.095 118.444 159.161 118.378C159.228 118.313 159.306 118.261 159.393 118.226C159.48 118.191 159.572 118.173 159.666 118.174H159.658ZM176.797 140.778C176.936 140.779 177.071 140.822 177.186 140.9C177.302 140.979 177.391 141.09 177.443 141.219C177.495 141.348 177.508 141.49 177.48 141.626C177.452 141.762 177.384 141.887 177.285 141.985C177.186 142.083 177.06 142.15 176.923 142.176C176.787 142.203 176.645 142.188 176.517 142.135C176.388 142.081 176.278 141.991 176.201 141.875C176.124 141.759 176.083 141.623 176.083 141.484C176.083 141.389 176.101 141.296 176.138 141.21C176.174 141.123 176.228 141.044 176.295 140.979C176.362 140.913 176.442 140.861 176.529 140.827C176.617 140.792 176.71 140.776 176.804 140.778H176.797ZM182.507 133.457C182.649 133.456 182.788 133.496 182.906 133.574C183.025 133.652 183.118 133.764 183.173 133.894C183.228 134.025 183.242 134.169 183.215 134.308C183.188 134.448 183.12 134.575 183.019 134.676C182.919 134.776 182.791 134.844 182.652 134.872C182.513 134.899 182.369 134.884 182.238 134.829C182.107 134.774 181.996 134.681 181.918 134.563C181.84 134.444 181.799 134.305 181.801 134.163C181.801 134.07 181.819 133.977 181.855 133.891C181.891 133.805 181.944 133.727 182.011 133.661C182.077 133.596 182.156 133.544 182.242 133.509C182.329 133.474 182.421 133.456 182.515 133.457H182.507ZM171.086 133.457C171.228 133.457 171.366 133.499 171.484 133.578C171.601 133.657 171.693 133.769 171.746 133.9C171.8 134.031 171.814 134.175 171.786 134.313C171.757 134.452 171.689 134.579 171.588 134.679C171.487 134.778 171.359 134.845 171.221 134.872C171.082 134.899 170.938 134.884 170.807 134.828C170.677 134.773 170.566 134.68 170.489 134.562C170.411 134.443 170.371 134.305 170.372 134.163C170.372 134.07 170.391 133.977 170.427 133.891C170.463 133.805 170.516 133.727 170.582 133.661C170.648 133.596 170.727 133.544 170.814 133.509C170.9 133.474 170.993 133.456 171.086 133.457Z" fill="white"/>
<path d="M158.768 152.499L156.698 140.087L153.723 118.063C153.723 118.063 160.727 105.833 156.666 97.0614C154.612 92.6121 136.616 64.9884 129.05 59.4366C121.912 54.2736 111.602 59.8015 107.779 63.8384C92.9798 79.4149 86.0005 110.346 80.6867 152.475L158.768 152.499Z" fill="#F7A9A0"/>
<path d="M156.173 136.194L153.723 118.071C153.723 118.071 160.726 105.842 156.665 97.0621C154.611 92.6128 136.616 64.9891 129.049 59.4374C121.911 54.2822 111.601 59.8022 107.778 63.847C94.9619 77.3297 88.0064 102.344 82.9226 136.17L156.173 136.194Z" fill="#ED7155"/>
<path d="M125.798 117.698C129.253 117.396 132.726 117.351 136.187 117.563C137.901 117.69 139.606 117.897 141.311 118.142C142.159 118.261 143.008 118.357 143.865 118.444C144.755 118.555 145.655 118.555 146.545 118.444C146.555 118.44 146.565 118.439 146.575 118.44C146.586 118.442 146.595 118.445 146.604 118.451C146.612 118.457 146.619 118.465 146.624 118.474C146.628 118.483 146.631 118.493 146.631 118.503C146.631 118.514 146.628 118.524 146.624 118.533C146.619 118.542 146.612 118.55 146.604 118.555C146.595 118.561 146.586 118.565 146.575 118.566C146.565 118.567 146.555 118.566 146.545 118.563C145.717 118.753 144.877 118.889 144.031 118.967C143.21 119.023 142.386 119.023 141.565 118.967C139.82 118.856 138.083 118.658 136.338 118.531C132.825 118.261 129.311 118 125.782 117.984C125.744 117.982 125.709 117.965 125.683 117.936C125.658 117.908 125.645 117.871 125.647 117.833C125.649 117.795 125.666 117.76 125.695 117.734C125.723 117.709 125.76 117.696 125.798 117.698Z" fill="#002064"/>
<path d="M117.948 122.203C120.696 121.41 123.487 120.775 126.307 120.299C127.719 120.061 129.131 119.919 130.558 119.8C131.24 119.744 131.922 119.705 132.605 119.673C133.287 119.641 134.111 119.673 134.865 119.673C134.944 119.673 134.968 119.784 134.865 119.792C134.159 119.863 133.461 120.046 132.763 120.157L130.654 120.474C129.242 120.688 127.83 120.918 126.418 121.124C123.595 121.529 120.779 121.957 117.972 122.457C117.821 122.464 117.789 122.242 117.948 122.203Z" fill="#002064"/>
<path d="M156.697 140.087C156.3 136.407 155.904 132.719 155.436 129.047C154.968 125.375 154.564 121.687 154.072 118.015L154 118.277C155.053 116.778 155.919 115.156 156.578 113.447C157.254 111.752 157.743 109.989 158.037 108.189C158.323 106.382 158.403 104.549 158.275 102.724C158.069 100.902 157.616 99.1174 156.927 97.4184C155.556 94.0834 153.853 90.895 151.843 87.9011C149.882 84.8839 147.742 81.9865 145.435 79.2246C147.568 82.1115 149.567 85.1015 151.439 88.1549C153.326 91.1791 154.942 94.3638 156.269 97.6721C156.921 99.3112 157.343 101.033 157.522 102.788C157.621 104.55 157.533 106.318 157.26 108.062C156.991 109.812 156.531 111.527 155.888 113.177C155.269 114.831 154.448 116.403 153.445 117.857L153.366 117.976V118.11C153.858 121.782 154.437 125.439 154.952 129.111C155.468 132.783 156.102 136.431 156.697 140.087Z" fill="#002064"/>
<path d="M151.439 87.8853C151.398 87.3918 151.299 86.9048 151.146 86.4339C151.001 85.9642 150.829 85.5034 150.63 85.0539C150.432 84.6098 150.226 84.1656 149.988 83.7374C149.751 83.3055 149.486 82.8895 149.195 82.4922C149.496 83.436 149.885 84.3242 150.266 85.2125C150.646 86.1008 151.067 86.9732 151.439 87.8853Z" fill="#002064"/>
<path d="M215.705 214.544H12.2587L4.67662 176.412H223.287L215.705 214.544Z" fill="#ED7155"/>
<path opacity="0.12" d="M223.279 176.412L220.567 190.045H7.39708L4.68468 176.412H223.279Z" fill="black"/>
<path d="M227.093 185.366L0.869141 185.366L0.869141 173.763L227.093 173.763V185.366Z" fill="#ED7155"/>
<path d="M3.43202 170.099C4.12285 170.776 4.99682 171.237 5.94617 171.423C5.48768 172.577 5.39394 173.843 5.67758 175.051C5.96122 176.259 6.60858 177.352 7.53237 178.18C7.26476 178.782 7.17669 179.448 7.27874 180.099C7.38079 180.75 7.66862 181.357 8.10762 181.848C8.54661 182.339 9.11805 182.692 9.75326 182.866C10.3885 183.04 11.0604 183.027 11.6882 182.828C12.2472 183.881 13.0207 184.805 13.9588 185.541C14.897 186.277 15.9789 186.808 17.1349 187.101C18.2908 187.393 19.4952 187.44 20.6703 187.238C21.8454 187.036 22.9652 186.59 23.9575 185.929C24.4827 186.866 25.2311 187.659 26.1361 188.237C27.0411 188.815 28.0748 189.161 29.1456 189.245C30.2164 189.328 31.2912 189.145 32.2746 188.714C33.258 188.282 34.1198 187.614 34.7833 186.77C36.8344 188.258 39.3598 188.944 41.8821 188.697C44.4044 188.45 46.7489 187.288 48.4723 185.429C49.4248 186.306 50.629 186.861 51.9143 187.016C53.5005 187.285 55.166 187.103 56.7205 187.476C58.9253 188.007 60.2498 189.593 61.955 190.918C63.6602 192.242 66.7136 192.742 68.3553 191.393C70.1334 194.545 72.6577 197.212 75.7068 199.16C78.7558 201.108 82.2364 202.279 85.8432 202.568C92.0373 203.044 99.7542 200.086 101.221 193.741C102.787 195.093 104.653 196.05 106.664 196.534C108.675 197.017 110.772 197.013 112.781 196.521C114.79 196.029 116.652 195.063 118.212 193.705C119.771 192.347 120.983 190.635 121.747 188.713C126.609 190.743 132.906 192.099 136.023 187.412C137.331 188.924 139.152 189.899 141.135 190.15C143.118 190.402 145.125 189.913 146.769 188.776C151.718 194.019 160.593 200.348 166.446 193.416C171.459 197.913 179.826 200.879 184.14 194.209C188.336 196.676 193.657 198.896 198.273 196.469C201.319 194.883 203.286 191.631 202.786 188.308C203.967 188.53 205.188 188.4 206.296 187.935C207.404 187.47 208.351 186.69 209.02 185.691C211.003 186.635 212.129 184.565 213.691 183.24C216.697 180.663 220.67 182.542 223.803 180.338C228.879 176.777 224.517 171.082 220.448 169.234C220.634 167.949 220.499 166.637 220.054 165.417C219.609 164.197 218.869 163.106 217.9 162.242C216.93 161.378 215.762 160.767 214.499 160.465C213.235 160.163 211.917 160.178 210.662 160.51C210.957 158.509 210.637 156.465 209.745 154.649C208.853 152.833 207.43 151.332 205.665 150.343C200.256 147.297 193.975 149.954 190.009 154.094C188.051 151.117 185.346 148.707 182.164 147.102C178.983 145.498 175.437 144.755 171.879 144.949C167.453 145.187 161.569 147.789 159.427 151.913C157.969 151.075 156.395 150.457 154.756 150.081C151.669 149.358 148.443 149.501 145.433 150.495C142.423 151.489 139.746 153.294 137.696 155.712C135.075 154.743 132.238 154.511 129.494 155.039C126.749 155.568 124.202 156.837 122.128 158.71C120.852 156.938 119.158 155.508 117.196 154.549C115.235 153.591 113.066 153.132 110.884 153.215C108.702 153.297 106.574 153.918 104.691 155.022C102.807 156.126 101.225 157.679 100.087 159.543C98.0068 157.117 95.4 155.2 92.4656 153.935C89.5313 152.67 86.347 152.093 83.1554 152.246C79.9638 152.399 76.8494 153.278 74.0494 154.818C71.2495 156.357 68.8382 158.516 66.9991 161.129C63.1129 154.253 55.2771 153.856 47.7664 154.697C45.3871 154.95 43.8009 154.935 41.6437 153.943C40.8506 153.586 40.1685 153.071 39.3833 152.73C37.7462 152 35.9983 151.55 34.2123 151.397C30.6176 151.081 27.0108 151.855 23.8623 153.618C22.4744 154.411 21.0547 156.41 19.7223 156.957C18.0489 157.639 14.9637 156.664 13.0365 156.917C9.57857 157.385 5.89859 159.011 3.65412 161.795C1.74274 164.254 0.949617 167.775 3.43202 170.099Z" fill="#002064"/>
<path d="M199.795 166.87C198.209 163.579 199.795 157.694 203.943 156.005C208.091 154.316 213.738 157.52 214.658 161.144C215.578 164.769 211.612 170.828 208.361 171.264C204.728 171.724 200.969 169.289 199.795 166.87Z" fill="#ED7155"/>
<path opacity="0.12" d="M216.395 162.017C213.453 164.539 208.567 166.775 204.57 166.609C206.133 168.538 207.911 170.283 209.868 171.812C209.979 171.907 209.868 172.113 209.717 172.026C205.133 168.972 200.62 163.452 200.422 157.75C200.422 157.671 200.525 157.671 200.533 157.75C200.728 159.348 201.18 160.904 201.874 162.358C203.46 158.947 207.949 156.386 211.391 155.577C211.413 155.569 211.437 155.571 211.458 155.582C211.479 155.592 211.494 155.61 211.502 155.632C211.509 155.654 211.507 155.678 211.497 155.699C211.487 155.72 211.468 155.736 211.446 155.743C210.393 156.169 209.363 156.651 208.361 157.187C210.265 158.868 211.7 162.144 211.272 164.658C213.009 163.882 214.657 162.922 216.189 161.795C216.292 161.676 216.53 161.906 216.395 162.017ZM204.396 166.411C206.042 166.297 207.666 165.966 209.226 165.427C206.869 165.562 204.531 164.945 202.548 163.666C203.098 164.624 203.716 165.541 204.396 166.411ZM202.016 162.62C202.143 162.881 202.278 163.135 202.421 163.413C203.97 164.199 205.645 164.706 207.37 164.912C205.731 163.882 204.454 162.369 203.714 160.581C203.087 161.208 202.519 161.89 202.016 162.62ZM203.809 160.462C204.44 161.577 205.204 162.61 206.085 163.54C206.41 163.468 206.727 163.373 207.045 163.27C206.532 162.886 206.12 162.384 205.844 161.807C205.568 161.23 205.436 160.594 205.458 159.955C205.014 160.01 204.562 160.09 204.102 160.185L203.809 160.462ZM207.187 159.86C207.043 160.091 206.925 160.338 206.838 160.597C206.766 160.917 206.736 161.245 206.751 161.573C207.279 161.648 207.817 161.626 208.337 161.509C208.217 160.961 208.033 160.429 207.79 159.923C207.568 159.875 207.386 159.867 207.187 159.86ZM206.894 159.86C206.451 159.858 206.009 159.885 205.569 159.939C205.685 160.468 205.855 160.984 206.077 161.477L206.688 161.565C206.593 161.283 206.563 160.984 206.598 160.689C206.634 160.394 206.735 160.111 206.894 159.86ZM206.172 161.66C206.468 162.227 206.866 162.735 207.346 163.159C207.635 163.044 207.919 162.914 208.195 162.77C208.341 162.425 208.398 162.049 208.361 161.676C208.018 161.835 207.643 161.917 207.265 161.914C206.886 161.911 206.513 161.825 206.172 161.66ZM208.234 157.242C206.88 157.971 205.613 158.852 204.459 159.867C206.254 159.273 208.209 159.387 209.924 160.185C209.499 159.13 208.931 158.14 208.234 157.242ZM210.019 160.415C209.349 160.16 208.652 159.987 207.941 159.899C208.249 160.257 208.465 160.684 208.569 161.145C208.673 161.606 208.661 162.085 208.536 162.54C209.195 162.155 209.78 161.655 210.265 161.065C210.185 160.859 210.098 160.645 210.019 160.431V160.415ZM210.384 161.414C209.872 162.045 209.24 162.568 208.523 162.95C207.807 163.333 207.021 163.569 206.212 163.643C206.672 164.112 207.174 164.54 207.711 164.92C208.409 165.015 209.13 165.078 209.892 165.15C210.28 164.999 210.685 164.848 211.058 164.682C210.937 163.579 210.711 162.49 210.384 161.43V161.414Z" fill="black"/>
<path d="M130.487 165.641C128.901 162.342 130.487 156.465 134.635 154.768C138.783 153.071 144.437 156.291 145.357 159.907C146.277 163.524 142.304 169.599 139.013 170.019C135.396 170.471 131.661 168.092 130.487 165.641Z" fill="#ED7155"/>
<path opacity="0.12" d="M147.086 160.788C144.144 163.302 139.266 165.546 135.261 165.38C136.824 167.309 138.601 169.054 140.559 170.583C140.67 170.678 140.559 170.876 140.408 170.797C135.824 167.743 131.311 162.215 131.113 156.521C131.113 156.506 131.119 156.492 131.129 156.482C131.14 156.471 131.154 156.465 131.168 156.465C131.183 156.465 131.197 156.471 131.208 156.482C131.218 156.492 131.224 156.506 131.224 156.521C131.419 158.119 131.872 159.675 132.564 161.129C134.15 157.718 138.639 155.157 142.081 154.348C142.104 154.34 142.128 154.342 142.148 154.353C142.169 154.363 142.185 154.381 142.193 154.403C142.2 154.425 142.198 154.449 142.188 154.47C142.177 154.491 142.159 154.507 142.137 154.514C141.083 154.939 140.053 155.421 139.052 155.958C140.955 157.639 142.391 160.907 141.963 163.421C143.701 162.651 145.349 161.693 146.88 160.566C147.022 160.447 147.221 160.669 147.086 160.788ZM135.102 165.182C136.749 165.066 138.373 164.732 139.932 164.19C137.578 164.334 135.239 163.716 133.262 162.429C133.805 163.392 134.42 164.312 135.102 165.182ZM132.723 161.39C132.85 161.652 132.985 161.906 133.127 162.184C134.676 162.97 136.351 163.477 138.076 163.683C136.438 162.653 135.16 161.14 134.42 159.352C133.785 159.975 133.211 160.658 132.707 161.39H132.723ZM134.523 159.225C135.147 160.345 135.909 161.382 136.791 162.31C137.117 162.237 137.437 162.145 137.751 162.033C137.239 161.649 136.827 161.147 136.551 160.57C136.275 159.993 136.142 159.357 136.165 158.718C135.721 158.771 135.269 158.85 134.809 158.956L134.523 159.225ZM137.894 158.631C137.753 158.864 137.636 159.111 137.545 159.368C137.472 159.688 137.443 160.016 137.458 160.344C137.986 160.416 138.524 160.392 139.044 160.272C138.921 159.725 138.737 159.193 138.497 158.686C138.275 158.646 138.076 158.631 137.878 158.631H137.894ZM137.6 158.631C137.158 158.633 136.716 158.66 136.276 158.71C136.389 159.241 136.562 159.757 136.791 160.248C136.99 160.248 137.196 160.32 137.394 160.344C137.297 160.061 137.263 159.759 137.296 159.462C137.329 159.164 137.427 158.877 137.585 158.623L137.6 158.631ZM136.879 160.439C137.177 161.005 137.575 161.512 138.053 161.938C138.342 161.823 138.625 161.693 138.901 161.549C139.047 161.204 139.104 160.828 139.068 160.455C138.722 160.616 138.344 160.697 137.963 160.693C137.581 160.689 137.205 160.599 136.863 160.431L136.879 160.439ZM138.941 156.021C137.587 156.747 136.32 157.625 135.166 158.638C136.962 158.047 138.917 158.163 140.63 158.964C140.202 157.906 139.628 156.913 138.925 156.013L138.941 156.021ZM140.725 159.194C140.057 158.936 139.359 158.762 138.647 158.678C138.956 159.035 139.172 159.463 139.276 159.924C139.379 160.385 139.368 160.864 139.242 161.319C139.894 160.933 140.472 160.434 140.947 159.844L140.725 159.194ZM141.09 160.193C140.578 160.823 139.945 161.344 139.228 161.727C138.512 162.11 137.727 162.346 136.918 162.422C137.381 162.889 137.882 163.316 138.417 163.698C139.115 163.786 139.837 163.857 140.598 163.92H140.638C141.027 163.778 141.431 163.627 141.804 163.461C141.666 162.353 141.422 161.261 141.074 160.201L141.09 160.193Z" fill="black"/>
<path d="M77.602 180.591C74.0172 179.798 70.361 174.952 71.5586 170.654C72.7562 166.355 78.7679 163.841 82.1941 165.332C85.6203 166.823 87.9758 173.683 86.3103 176.523C84.4544 179.671 80.2272 181.146 77.602 180.591Z" fill="#ED7155"/>
<path opacity="0.12" d="M83.9458 164.507C84.1282 168.369 82.8989 173.596 80.3213 176.657C82.8015 176.603 85.2676 176.271 87.6734 175.666C87.8241 175.666 87.8955 175.872 87.7527 175.92C82.5341 177.664 75.4041 177.839 70.7645 174.5C70.7575 174.489 70.7539 174.476 70.7544 174.463C70.7549 174.45 70.7593 174.438 70.7671 174.427C70.7748 174.417 70.7856 174.409 70.7979 174.405C70.8102 174.401 70.8234 174.401 70.8359 174.405C72.2181 175.233 73.7263 175.831 75.301 176.173C73.5562 172.85 74.3096 167.711 75.7769 164.499C75.7842 164.477 75.8001 164.459 75.8209 164.448C75.8417 164.438 75.8658 164.436 75.8879 164.443C75.91 164.451 75.9283 164.467 75.9387 164.487C75.9491 164.508 75.9508 164.532 75.9434 164.554C75.6182 165.647 75.3535 166.756 75.1503 167.878C77.6486 167.402 81.1065 168.282 82.8355 170.162C83.2993 168.315 83.5652 166.425 83.6286 164.523C83.6365 164.34 83.9379 164.324 83.9458 164.507ZM80.0675 176.665C80.9838 175.294 81.717 173.809 82.2486 172.247C80.9155 174.192 78.9951 175.66 76.7682 176.435C77.861 176.591 78.9637 176.668 80.0675 176.665ZM75.6024 176.229C75.8879 176.292 76.1734 176.34 76.4589 176.38C78.0312 175.64 79.4598 174.628 80.6782 173.39C78.8609 174.054 76.8821 174.137 75.0155 173.627C75.1295 174.511 75.326 175.382 75.6024 176.229ZM74.9996 173.485C76.265 173.675 77.5491 173.707 78.8224 173.58C78.9663 173.279 79.0908 172.969 79.1952 172.652C78.5779 172.819 77.9296 172.833 77.3054 172.695C76.6812 172.557 76.0997 172.27 75.6103 171.859C75.3777 172.25 75.1635 172.655 74.9679 173.072C74.9758 173.215 74.9838 173.35 74.9996 173.485ZM76.5858 170.447C76.6829 170.703 76.8079 170.948 76.9586 171.177C77.1585 171.436 77.3996 171.661 77.6724 171.843C78.0528 171.474 78.362 171.039 78.5844 170.558C78.0785 170.313 77.5464 170.127 76.9982 170.003L76.5858 170.447ZM76.4034 170.685C76.1324 171.031 75.8834 171.394 75.6579 171.772C76.1424 172.013 76.6534 172.197 77.1807 172.319L77.6327 171.891C77.3521 171.793 77.0968 171.635 76.8855 171.426C76.6741 171.218 76.5121 170.964 76.4114 170.685H76.4034ZM77.3789 172.359C78.0105 172.477 78.6587 172.477 79.2903 172.359C79.3786 172.062 79.4474 171.76 79.4965 171.454C79.307 171.124 79.0333 170.851 78.7034 170.661C78.6229 171.024 78.4632 171.364 78.2355 171.658C78.0079 171.951 77.718 172.19 77.3869 172.359H77.3789ZM75.1582 168.02C74.9051 169.534 74.8253 171.072 74.9203 172.604C75.5491 170.824 76.8382 169.353 78.521 168.496C77.4304 168.182 76.3012 168.022 75.1662 168.02H75.1582ZM78.7748 168.568C78.1597 168.935 77.5946 169.38 77.0934 169.892C77.5651 169.867 78.0357 169.958 78.4633 170.159C78.8909 170.36 79.2622 170.663 79.5441 171.042C79.6424 170.283 79.6048 169.512 79.4331 168.766L78.7748 168.568ZM79.782 168.893C79.9684 169.684 79.9942 170.504 79.858 171.305C79.7218 172.106 79.4263 172.871 78.9889 173.556C79.6423 173.48 80.2874 173.345 80.9162 173.152C81.4158 172.652 81.9155 172.129 82.431 171.565C82.5579 171.161 82.6689 170.772 82.78 170.36C81.833 169.773 80.8317 169.279 79.79 168.885L79.782 168.893Z" fill="black"/>
<path d="M22.8696 171.851C26.4465 171.058 30.1106 166.212 28.913 161.914C27.7155 157.615 21.7037 155.101 18.2775 156.6C14.8513 158.099 12.4959 164.943 14.1614 167.783C16.0093 170.931 20.2444 172.407 22.8696 171.851Z" fill="#ED7155"/>
<path opacity="0.12" d="M16.8352 155.783C16.9021 157.686 17.1679 159.576 17.6283 161.422C19.3493 159.543 22.8152 158.67 25.3134 159.138C25.1094 158.017 24.8447 156.908 24.5203 155.815C24.5167 155.804 24.5152 155.793 24.516 155.781C24.5169 155.77 24.5199 155.758 24.5251 155.748C24.5302 155.738 24.5374 155.729 24.5461 155.721C24.5548 155.714 24.5649 155.708 24.5758 155.704C24.5868 155.7 24.5983 155.699 24.6098 155.7C24.6213 155.701 24.6325 155.704 24.6428 155.709C24.6532 155.714 24.6623 155.721 24.6699 155.73C24.6775 155.739 24.6832 155.749 24.6869 155.76C26.1541 158.972 26.8996 164.111 25.1627 167.434C26.7374 167.091 28.2457 166.494 29.6279 165.665C29.6341 165.661 29.6412 165.658 29.6485 165.657C29.6559 165.655 29.6635 165.656 29.6708 165.657C29.6782 165.658 29.6852 165.661 29.6914 165.666C29.6977 165.67 29.703 165.675 29.7072 165.681C29.7114 165.688 29.7143 165.695 29.7157 165.702C29.7172 165.709 29.7172 165.717 29.7157 165.724C29.7142 165.732 29.7113 165.739 29.7071 165.745C29.703 165.751 29.6976 165.756 29.6913 165.761C25.0596 169.108 17.9296 168.933 12.7031 167.18C12.5683 167.133 12.6396 166.895 12.7824 166.934C15.1924 167.531 17.6603 167.864 20.1424 167.926C17.5648 164.857 16.3276 159.63 16.5179 155.768C16.5338 155.585 16.8352 155.601 16.8352 155.783ZM23.7034 167.68C21.4766 166.905 19.5562 165.437 18.2231 163.492C18.7514 165.055 19.4848 166.54 20.4041 167.91C21.5076 167.918 22.6103 167.847 23.7034 167.696V167.68ZM25.4482 164.872C23.5816 165.382 21.6028 165.299 19.7855 164.634C21.0086 165.873 22.4393 166.888 24.0127 167.632C24.2982 167.585 24.5838 167.537 24.8614 167.474C25.1382 166.643 25.3348 165.788 25.4482 164.92V164.872ZM25.5038 164.325C25.2976 163.905 25.0834 163.532 24.8534 163.112C24.3641 163.523 23.7825 163.81 23.1583 163.948C22.5341 164.086 21.8858 164.071 21.2686 163.905C21.3764 164.22 21.5008 164.53 21.6414 164.833C22.9173 164.96 24.204 164.928 25.472 164.738C25.4879 164.611 25.4879 164.476 25.5038 164.341V164.325ZM23.4814 161.256C22.9326 161.374 22.4 161.558 21.8952 161.803C22.1211 162.286 22.4328 162.724 22.8151 163.096C23.0845 162.907 23.325 162.68 23.5289 162.422C23.6796 162.196 23.8046 161.954 23.9017 161.7C23.751 161.565 23.6162 161.414 23.4814 161.272V161.256ZM22.831 163.135C22.9738 163.286 23.1245 163.429 23.2751 163.564C23.804 163.442 24.3175 163.261 24.8058 163.024C24.5822 162.643 24.3331 162.278 24.0603 161.93C23.9592 162.212 23.7964 162.468 23.5837 162.68C23.371 162.891 23.1139 163.052 22.831 163.151V163.135ZM21.7207 161.89C21.3901 162.079 21.1162 162.353 20.9276 162.683C20.983 162.988 21.0545 163.29 21.1417 163.588C21.7706 163.706 22.4162 163.706 23.0451 163.588C22.7152 163.421 22.4258 163.184 22.197 162.893C21.9682 162.603 21.8057 162.266 21.7207 161.906V161.89ZM21.9427 159.741C23.6241 160.604 24.9121 162.076 25.5434 163.857C25.6386 162.322 25.5588 160.782 25.3055 159.265C24.1671 159.271 23.0351 159.436 21.9427 159.757V159.741ZM21.0307 160.019C20.8522 160.761 20.8119 161.53 20.9117 162.287C21.1948 161.908 21.5677 161.605 21.9968 161.405C22.426 161.206 22.898 161.117 23.3703 161.145C22.8698 160.63 22.3047 160.182 21.6889 159.812C21.4669 159.9 21.2448 159.955 21.0307 160.034V160.019ZM17.6441 161.605C17.7472 162.009 17.8662 162.398 17.9931 162.81C18.5165 163.373 19.0083 163.897 19.5079 164.397C20.1394 164.59 20.7871 164.725 21.4431 164.801C21.0058 164.116 20.7102 163.351 20.574 162.55C20.4378 161.749 20.4636 160.928 20.65 160.138C19.6036 160.53 18.597 161.021 17.6441 161.605Z" fill="black"/>
<path d="M171.243 186.634C174.82 185.88 178.476 180.995 177.286 176.696C176.097 172.398 170.077 169.884 166.651 171.382C163.225 172.881 160.861 179.734 162.527 182.565C164.383 185.722 168.61 187.197 171.243 186.634Z" fill="#ED7155"/>
<path opacity="0.12" d="M165.208 170.566C165.266 172.469 165.532 174.359 166.001 176.205C167.722 174.325 171.18 173.453 173.678 173.921C173.487 172.803 173.236 171.696 172.925 170.605C172.916 170.583 172.917 170.559 172.927 170.537C172.936 170.516 172.954 170.499 172.976 170.49C172.998 170.482 173.023 170.483 173.044 170.492C173.066 170.502 173.083 170.52 173.091 170.542C174.566 173.754 175.312 178.901 173.567 182.216C175.142 181.875 176.651 181.278 178.032 180.448C178.096 180.448 178.159 180.503 178.104 180.543C173.472 183.89 166.334 183.715 161.115 181.963C160.973 181.915 161.052 181.685 161.195 181.717C163.601 182.322 166.067 182.654 168.547 182.708C165.969 179.639 164.74 174.412 164.922 170.558C164.906 170.375 165.2 170.391 165.208 170.566ZM172.076 182.462C169.847 181.683 167.925 180.213 166.588 178.267C167.118 179.829 167.851 181.314 168.769 182.684C169.875 182.702 170.98 182.636 172.076 182.486V182.462ZM173.821 179.647C171.955 180.159 169.976 180.078 168.158 179.417C169.38 180.655 170.811 181.668 172.385 182.407L173.234 182.256C173.509 181.414 173.706 180.549 173.821 179.671V179.647ZM173.876 179.107C173.67 178.679 173.456 178.275 173.226 177.886C172.737 178.297 172.155 178.584 171.531 178.722C170.907 178.861 170.259 178.846 169.641 178.679C169.748 178.993 169.872 179.3 170.014 179.599C171.287 179.729 172.571 179.699 173.837 179.512C173.861 179.401 173.861 179.266 173.876 179.131V179.107ZM171.878 176.022C171.33 176.146 170.798 176.333 170.292 176.577C170.52 177.055 170.828 177.489 171.204 177.862C171.473 177.676 171.713 177.452 171.918 177.196C172.074 176.971 172.2 176.725 172.29 176.466C172.116 176.347 171.989 176.197 171.878 176.022ZM171.228 177.91L171.672 178.33C172.2 178.206 172.713 178.025 173.202 177.791C172.972 177.412 172.721 177.047 172.449 176.696C172.351 176.986 172.187 177.248 171.971 177.464C171.756 177.68 171.493 177.843 171.204 177.942L171.228 177.91ZM170.117 176.657C169.788 176.847 169.515 177.121 169.324 177.45C169.372 177.759 169.443 178.064 169.538 178.362C170.167 178.477 170.812 178.477 171.442 178.362C171.107 178.2 170.813 177.966 170.58 177.676C170.347 177.387 170.18 177.05 170.093 176.688L170.117 176.657ZM170.339 174.507C172.019 175.37 173.304 176.843 173.932 178.624C174.027 177.091 173.947 175.554 173.694 174.039C172.542 174.039 171.395 174.207 170.292 174.539L170.339 174.507ZM169.419 174.785C169.248 175.531 169.21 176.302 169.308 177.061C169.59 176.68 169.962 176.375 170.392 176.174C170.821 175.974 171.294 175.883 171.767 175.911C171.262 175.403 170.698 174.958 170.085 174.587L169.419 174.785ZM166.041 176.371C166.144 176.784 166.263 177.164 166.382 177.577C166.382 177.577 166.382 177.577 166.421 177.577C166.937 178.14 167.436 178.663 167.936 179.163C168.569 179.35 169.216 179.483 169.871 179.559C169.434 178.876 169.139 178.112 169.003 177.312C168.866 176.512 168.892 175.694 169.078 174.904C168.011 175.296 166.986 175.793 166.017 176.387L166.041 176.371Z" fill="black"/>
<path d="M184.932 141.498C180.269 148.176 167.571 149.429 135.887 155.655C131.509 156.512 117.154 127.207 121.762 126.057C127.599 124.597 150.559 120.204 152.28 120.093C166.786 119.165 188.097 136.978 184.932 141.498Z" fill="#F7A9A0"/>
<path d="M128.099 124.607C128.099 124.607 114.672 126.629 107.954 129.881C98.9527 134.227 92.9727 141.69 90.6569 144.95C85.8189 151.794 78.8555 171.677 84.2407 174.683C89.1024 177.403 95.1934 156.719 95.1934 156.719C95.1934 156.719 85.5017 176.785 91.9655 178.982C98.4292 181.179 104.14 156.775 104.14 156.775C104.14 156.775 94.6224 177.61 101.665 178.823C106.971 179.743 113.387 157.917 113.387 157.917C113.387 157.917 105.353 175.889 110.77 177.062C116.758 178.403 123.935 158.575 123.935 158.575C138.211 159.249 145.286 153.729 149.854 149.209C150.956 148.13 128.099 124.607 128.099 124.607Z" fill="#F7A9A0"/>
<path d="M98.1192 149.582C96.8978 151.898 95.6368 154.229 94.6296 156.648C93.6223 159.067 92.6865 161.518 91.9013 164.016C90.8066 167.264 90.0933 170.628 89.7758 174.041C90.7909 168.029 94.2885 159.321 95.3275 156.902C96.3664 154.483 97.2309 152.024 98.2461 149.613C98.2223 149.55 98.1192 149.526 98.1192 149.582Z" fill="#002064"/>
<path d="M106.899 153.078C105.463 156.108 103.925 159.058 102.624 162.143C101.323 165.229 100.372 168.25 99.293 171.407C99.2057 171.645 99.3643 171.613 99.4595 171.367C100.665 168.258 102.021 165.482 103.258 162.381C104.496 159.28 105.638 156.148 106.97 153.11C106.994 153.062 106.915 153.023 106.899 153.078Z" fill="#002064"/>
<path d="M114.981 154.728C112.67 159.315 110.839 164.128 109.517 169.091C109.437 169.329 109.643 169.266 109.731 169.02C111.46 164.214 112.776 160.431 115.14 154.816C115.179 154.728 115.037 154.609 114.981 154.728Z" fill="#002064"/>
<path d="M100 134.988C98.435 136.005 96.9739 137.174 95.6379 138.477C94.2814 139.763 93.0296 141.156 91.8945 142.641C91.3155 143.379 90.8 144.156 90.2607 144.925C89.7214 145.694 89.2535 146.511 88.849 147.304C87.9529 148.945 87.2248 150.672 86.6759 152.46C87.1438 151.666 87.469 150.786 87.9845 150.001L88.6507 148.788C88.8807 148.391 89.1345 147.994 89.3724 147.614C90.3495 146.049 91.4084 144.538 92.5449 143.085C93.6552 141.626 94.8528 140.222 96.09 138.866C96.7166 138.184 97.351 137.518 98.0093 136.867C98.6676 136.217 99.31 135.614 100 134.988Z" fill="#002064"/>
<path d="M125.299 124.607L153.058 155.538C153.058 155.538 181.126 149.09 185.258 141.896C187.978 137.138 166.85 117.969 150.901 120.205L125.299 124.607Z" fill="#ED7155"/>
<path d="M164.668 126.201C164.666 126.343 164.707 126.482 164.785 126.601C164.862 126.719 164.974 126.812 165.105 126.867C165.235 126.922 165.379 126.937 165.519 126.909C165.658 126.882 165.786 126.814 165.886 126.714C165.986 126.613 166.055 126.485 166.082 126.346C166.109 126.207 166.094 126.063 166.039 125.932C165.984 125.801 165.892 125.69 165.773 125.612C165.654 125.534 165.515 125.494 165.373 125.495C165.186 125.495 165.007 125.57 164.874 125.702C164.742 125.834 164.668 126.014 164.668 126.201ZM153.953 125.495C154.092 125.495 154.229 125.537 154.345 125.614C154.461 125.692 154.552 125.802 154.605 125.931C154.658 126.06 154.672 126.202 154.645 126.339C154.618 126.476 154.551 126.601 154.452 126.7C154.353 126.799 154.227 126.866 154.091 126.893C153.954 126.921 153.812 126.907 153.683 126.853C153.554 126.8 153.443 126.709 153.366 126.593C153.288 126.477 153.247 126.341 153.247 126.201C153.247 126.014 153.321 125.834 153.454 125.702C153.586 125.57 153.766 125.495 153.953 125.495ZM142.532 125.495C142.671 125.497 142.807 125.539 142.922 125.618C143.037 125.696 143.126 125.807 143.179 125.936C143.231 126.065 143.244 126.207 143.216 126.344C143.187 126.48 143.12 126.605 143.021 126.703C142.922 126.801 142.796 126.867 142.659 126.894C142.522 126.92 142.381 126.906 142.252 126.852C142.124 126.799 142.014 126.708 141.937 126.592C141.86 126.476 141.818 126.34 141.818 126.201C141.818 126.108 141.837 126.015 141.873 125.929C141.909 125.843 141.962 125.765 142.028 125.699C142.094 125.633 142.173 125.582 142.26 125.547C142.346 125.512 142.439 125.494 142.532 125.495ZM131.104 125.495C131.243 125.495 131.38 125.537 131.496 125.614C131.612 125.692 131.702 125.802 131.756 125.931C131.809 126.06 131.823 126.202 131.796 126.339C131.769 126.476 131.701 126.601 131.603 126.7C131.504 126.799 131.378 126.866 131.241 126.893C131.104 126.921 130.962 126.907 130.833 126.853C130.704 126.8 130.594 126.709 130.517 126.593C130.439 126.477 130.398 126.341 130.398 126.201C130.398 126.014 130.472 125.834 130.604 125.702C130.737 125.57 130.916 125.495 131.104 125.495ZM176.802 140.778C176.941 140.78 177.077 140.823 177.192 140.901C177.307 140.98 177.396 141.09 177.449 141.219C177.501 141.349 177.514 141.49 177.485 141.627C177.457 141.763 177.389 141.888 177.29 141.986C177.191 142.084 177.066 142.15 176.929 142.177C176.792 142.203 176.651 142.189 176.522 142.135C176.394 142.082 176.284 141.991 176.207 141.875C176.129 141.759 176.088 141.623 176.088 141.484C176.088 141.391 176.107 141.298 176.143 141.212C176.179 141.126 176.231 141.048 176.298 140.982C176.364 140.916 176.443 140.865 176.53 140.83C176.616 140.795 176.709 140.777 176.802 140.778ZM165.373 140.778C165.513 140.778 165.65 140.82 165.766 140.897C165.882 140.975 165.972 141.085 166.026 141.214C166.079 141.343 166.093 141.485 166.066 141.622C166.039 141.759 165.971 141.884 165.873 141.983C165.774 142.082 165.648 142.149 165.511 142.176C165.374 142.204 165.232 142.19 165.103 142.136C164.974 142.083 164.864 141.992 164.787 141.876C164.709 141.76 164.668 141.624 164.668 141.484C164.668 141.297 164.742 141.117 164.874 140.985C165.007 140.853 165.186 140.778 165.373 140.778ZM153.953 140.778C154.092 140.778 154.229 140.82 154.345 140.897C154.461 140.975 154.552 141.085 154.605 141.214C154.658 141.343 154.672 141.485 154.645 141.622C154.618 141.759 154.551 141.884 154.452 141.983C154.353 142.082 154.227 142.149 154.091 142.176C153.954 142.204 153.812 142.19 153.683 142.136C153.554 142.083 153.443 141.992 153.366 141.876C153.288 141.76 153.247 141.624 153.247 141.484C153.247 141.297 153.321 141.117 153.454 140.985C153.586 140.853 153.766 140.778 153.953 140.778ZM142.532 140.778C142.671 140.78 142.807 140.823 142.922 140.901C143.037 140.98 143.126 141.09 143.179 141.219C143.231 141.349 143.244 141.49 143.216 141.627C143.187 141.763 143.12 141.888 143.021 141.986C142.922 142.084 142.796 142.15 142.659 142.177C142.522 142.203 142.381 142.189 142.252 142.135C142.124 142.082 142.014 141.991 141.937 141.875C141.86 141.759 141.818 141.623 141.818 141.484C141.818 141.391 141.837 141.298 141.873 141.212C141.909 141.126 141.962 141.048 142.028 140.982C142.094 140.916 142.173 140.865 142.26 140.83C142.346 140.795 142.439 140.777 142.532 140.778ZM171.084 133.458C171.225 133.458 171.364 133.5 171.481 133.579C171.599 133.658 171.69 133.77 171.744 133.9C171.798 134.031 171.811 134.175 171.783 134.314C171.755 134.453 171.686 134.58 171.586 134.679C171.485 134.779 171.357 134.846 171.218 134.873C171.079 134.899 170.935 134.884 170.805 134.829C170.675 134.774 170.564 134.681 170.486 134.562C170.409 134.444 170.368 134.305 170.37 134.164C170.37 134.07 170.389 133.978 170.424 133.892C170.46 133.806 170.513 133.727 170.58 133.662C170.646 133.596 170.725 133.544 170.811 133.509C170.898 133.474 170.99 133.457 171.084 133.458ZM159.655 133.458C159.797 133.456 159.936 133.497 160.055 133.575C160.173 133.653 160.266 133.764 160.321 133.895C160.376 134.026 160.391 134.17 160.364 134.309C160.336 134.448 160.268 134.576 160.168 134.676C160.068 134.777 159.94 134.845 159.8 134.872C159.661 134.899 159.517 134.885 159.386 134.83C159.256 134.775 159.144 134.682 159.066 134.563C158.989 134.445 158.948 134.306 158.949 134.164C158.949 134.07 158.968 133.978 159.004 133.892C159.04 133.806 159.093 133.727 159.159 133.662C159.225 133.596 159.304 133.544 159.391 133.509C159.477 133.474 159.57 133.457 159.663 133.458H159.655ZM148.235 133.458C148.376 133.458 148.514 133.5 148.632 133.579C148.749 133.658 148.841 133.77 148.895 133.9C148.949 134.031 148.962 134.175 148.934 134.314C148.906 134.453 148.837 134.58 148.736 134.679C148.636 134.779 148.508 134.846 148.369 134.873C148.23 134.899 148.086 134.884 147.956 134.829C147.826 134.774 147.715 134.681 147.637 134.562C147.56 134.444 147.519 134.305 147.521 134.164C147.521 134.07 147.54 133.977 147.576 133.89C147.612 133.803 147.666 133.725 147.733 133.659C147.8 133.593 147.88 133.542 147.968 133.507C148.055 133.472 148.148 133.456 148.242 133.458H148.235ZM136.806 133.458C136.948 133.456 137.087 133.497 137.205 133.575C137.324 133.653 137.417 133.764 137.472 133.895C137.527 134.026 137.542 134.17 137.514 134.309C137.487 134.448 137.419 134.576 137.319 134.676C137.218 134.777 137.09 134.845 136.951 134.872C136.812 134.899 136.668 134.885 136.537 134.83C136.406 134.775 136.295 134.682 136.217 134.563C136.139 134.445 136.099 134.306 136.1 134.164C136.1 134.07 136.119 133.978 136.155 133.892C136.191 133.806 136.243 133.727 136.31 133.662C136.376 133.596 136.455 133.544 136.541 133.509C136.628 133.474 136.721 133.457 136.814 133.458H136.806ZM171.084 148.741C171.225 148.741 171.364 148.783 171.481 148.862C171.599 148.941 171.69 149.053 171.744 149.183C171.798 149.314 171.811 149.458 171.783 149.597C171.755 149.736 171.686 149.863 171.586 149.962C171.485 150.062 171.357 150.129 171.218 150.156C171.079 150.182 170.935 150.167 170.805 150.112C170.675 150.057 170.564 149.964 170.486 149.846C170.409 149.727 170.368 149.588 170.37 149.447C170.37 149.353 170.389 149.261 170.424 149.175C170.46 149.089 170.513 149.011 170.58 148.945C170.646 148.879 170.725 148.827 170.811 148.792C170.898 148.757 170.99 148.74 171.084 148.741ZM159.655 148.741C159.797 148.739 159.936 148.78 160.055 148.858C160.173 148.936 160.266 149.047 160.321 149.178C160.376 149.309 160.391 149.453 160.364 149.592C160.336 149.731 160.268 149.859 160.168 149.959C160.068 150.06 159.94 150.128 159.8 150.155C159.661 150.182 159.517 150.168 159.386 150.113C159.256 150.058 159.144 149.965 159.066 149.846C158.989 149.728 158.948 149.589 158.949 149.447C158.949 149.353 158.968 149.261 159.004 149.175C159.04 149.089 159.093 149.011 159.159 148.945C159.225 148.879 159.304 148.827 159.391 148.792C159.477 148.757 159.57 148.74 159.663 148.741H159.655ZM148.227 148.741C148.416 148.741 148.597 148.816 148.731 148.95C148.865 149.084 148.94 149.265 148.94 149.455C148.94 149.548 148.922 149.641 148.886 149.727C148.85 149.813 148.797 149.891 148.731 149.957C148.664 150.022 148.586 150.074 148.499 150.109C148.413 150.144 148.32 150.162 148.227 150.161L147.529 149.368C147.548 149.194 147.631 149.033 147.761 148.916C147.891 148.799 148.06 148.734 148.235 148.733L148.227 148.741Z" fill="white"/>
<path d="M169.919 125.208C167.35 123.344 160.109 118.998 150.885 120.156C150.805 120.156 150.797 120.299 150.885 120.291C157.848 120.093 167.246 123.733 169.919 125.319C169.927 125.359 169.983 125.264 169.919 125.208Z" fill="#002064"/>
<path d="M160.639 150.334C157.768 146.773 154.715 143.371 151.646 139.976C148.576 136.582 145.515 133.171 142.358 129.848C140.582 127.969 138.805 126.081 136.957 124.297C136.91 124.249 136.823 124.297 136.862 124.376C139.725 127.929 142.779 131.355 145.816 134.766C148.854 138.176 151.947 141.57 155.056 144.933C156.817 146.829 158.609 148.692 160.457 150.485C160.552 150.572 160.719 150.437 160.639 150.334Z" fill="#002064"/>
<path d="M125.244 124.201C126.949 123.689 128.687 123.294 130.446 123.02C132.199 122.687 133.96 122.393 135.713 122.108C139.21 121.545 146.562 119.958 153.026 119.974C153.097 119.974 152.733 120.323 152.661 120.323C149.584 120.157 127.536 124.543 125.696 124.669C125.769 124.787 125.836 124.909 125.894 125.034C125.894 125.129 125.838 125.24 125.743 125.177C125.513 125.026 125.355 124.836 125.141 124.669C125.099 124.639 125.068 124.598 125.05 124.551C125.032 124.503 125.028 124.451 125.039 124.402C125.05 124.352 125.075 124.307 125.112 124.271C125.148 124.236 125.194 124.211 125.244 124.201Z" fill="#002064"/>
<path d="M102.719 65.7816C76.1981 88.9163 55.3395 117.5 56.7195 124.646C59.2178 137.954 76.7057 138.787 79.3864 135.908C90.1249 124.273 101.458 101.733 113.736 76.5836C124.704 54.1071 111.451 58.1757 102.719 65.7816Z" fill="#ED7155"/>
<path d="M107.549 65.0682C107.548 65.21 107.589 65.3491 107.666 65.4677C107.744 65.5863 107.856 65.679 107.986 65.734C108.117 65.789 108.261 65.8038 108.4 65.7765C108.54 65.7493 108.668 65.6811 108.768 65.5808C108.868 65.4805 108.936 65.3526 108.964 65.2134C108.991 65.0742 108.976 64.93 108.921 64.7993C108.866 64.6685 108.773 64.5571 108.655 64.4793C108.536 64.4015 108.397 64.3608 108.255 64.3623C108.068 64.3623 107.889 64.4367 107.756 64.5691C107.624 64.7015 107.549 64.881 107.549 65.0682ZM108.255 79.6454C108.397 79.6439 108.536 79.6846 108.655 79.7624C108.773 79.8402 108.866 79.9516 108.921 80.0824C108.976 80.2131 108.991 80.3573 108.964 80.4965C108.936 80.6357 108.868 80.7636 108.768 80.8639C108.668 80.9642 108.54 81.0323 108.4 81.0596C108.261 81.0869 108.117 81.0721 107.986 81.0171C107.856 80.9621 107.744 80.8694 107.666 80.7508C107.589 80.6322 107.548 80.4931 107.549 80.3513C107.549 80.1641 107.624 79.9845 107.756 79.8521C107.889 79.7198 108.068 79.6454 108.255 79.6454ZM96.8346 79.6454C96.9761 79.6454 97.1144 79.6875 97.232 79.7663C97.3495 79.8451 97.441 79.957 97.4948 80.0879C97.5486 80.2188 97.5622 80.3627 97.534 80.5014C97.5058 80.6401 97.4371 80.7672 97.3365 80.8667C97.2358 80.9662 97.1079 81.0336 96.9689 81.0602C96.8299 81.0869 96.6862 81.0716 96.5559 81.0164C96.4256 80.9611 96.3147 80.8684 96.2372 80.75C96.1598 80.6316 96.1192 80.4928 96.1208 80.3513C96.1208 80.2579 96.1393 80.1655 96.1753 80.0793C96.2113 79.9932 96.264 79.915 96.3303 79.8493C96.3967 79.7837 96.4755 79.7319 96.562 79.6969C96.6486 79.6618 96.7412 79.6444 96.8346 79.6454ZM113.981 72.3251C114.123 72.3235 114.262 72.3642 114.381 72.4421C114.5 72.5199 114.592 72.6313 114.647 72.762C114.702 72.8928 114.717 73.037 114.69 73.1762C114.663 73.3153 114.594 73.4433 114.494 73.5436C114.394 73.6439 114.266 73.712 114.127 73.7393C113.987 73.7666 113.843 73.7518 113.713 73.6968C113.582 73.6418 113.47 73.549 113.393 73.4305C113.315 73.3119 113.274 73.1728 113.276 73.031C113.276 72.8437 113.35 72.6642 113.482 72.5318C113.615 72.3995 113.794 72.3251 113.981 72.3251ZM102.561 72.3251C102.703 72.3235 102.842 72.3642 102.96 72.4421C103.079 72.5199 103.172 72.6313 103.227 72.762C103.282 72.8928 103.296 73.037 103.269 73.1762C103.242 73.3153 103.174 73.4433 103.073 73.5436C102.973 73.6439 102.845 73.712 102.706 73.7393C102.567 73.7666 102.423 73.7518 102.292 73.6968C102.161 73.6418 102.05 73.549 101.972 73.4305C101.894 73.3119 101.853 73.1728 101.855 73.031C101.855 72.8465 101.927 72.6693 102.056 72.5373C102.185 72.4054 102.36 72.3292 102.545 72.3251H102.561ZM96.8505 94.9285C96.992 94.9285 97.1303 94.9706 97.2478 95.0493C97.3654 95.1281 97.4568 95.2401 97.5106 95.371C97.5644 95.5019 97.5781 95.6458 97.5499 95.7845C97.5217 95.9231 97.4529 96.0503 97.3523 96.1498C97.2517 96.2493 97.1238 96.3167 96.9848 96.3433C96.8458 96.3699 96.7021 96.3547 96.5718 96.2994C96.4415 96.2442 96.3306 96.1514 96.2531 96.033C96.1756 95.9146 96.1351 95.7758 96.1367 95.6343C96.1367 95.4485 96.2099 95.2702 96.3406 95.138C96.4713 95.0059 96.6488 94.9306 96.8346 94.9285H96.8505ZM85.4219 94.9285C85.5637 94.9269 85.7028 94.9676 85.8214 95.0455C85.94 95.1233 86.0327 95.2347 86.0877 95.3654C86.1427 95.4962 86.1575 95.6403 86.1302 95.7795C86.1029 95.9187 86.0348 96.0467 85.9345 96.147C85.8342 96.2473 85.7063 96.3154 85.5671 96.3427C85.4279 96.37 85.2837 96.3552 85.153 96.3002C85.0222 96.2452 84.9108 96.1524 84.833 96.0339C84.7552 95.9153 84.7144 95.7762 84.716 95.6343C84.716 95.541 84.7345 95.4485 84.7705 95.3624C84.8065 95.2762 84.8592 95.198 84.9255 95.1324C84.9919 95.0667 85.0707 95.0149 85.1572 94.9799C85.2438 94.9449 85.3364 94.9274 85.4298 94.9285H85.4219ZM74.2471 94.9681C74.3822 95.0195 74.4985 95.1108 74.5807 95.2297C74.6628 95.3487 74.7069 95.4898 74.7071 95.6343C74.7071 95.8216 74.6327 96.0011 74.5003 96.1334C74.368 96.2658 74.1884 96.3402 74.0012 96.3402C73.8788 96.3398 73.7586 96.3083 73.6518 96.2486C73.5449 96.189 73.4551 96.1031 73.3905 95.9992L74.2471 94.9681ZM102.561 87.6081C102.703 87.6066 102.842 87.6473 102.96 87.7251C103.079 87.803 103.172 87.9144 103.227 88.0451C103.282 88.1759 103.296 88.32 103.269 88.4592C103.242 88.5984 103.174 88.7263 103.073 88.8266C102.973 88.9269 102.845 88.9951 102.706 89.0224C102.567 89.0496 102.423 89.0348 102.292 88.9798C102.161 88.9248 102.05 88.8321 101.972 88.7135C101.894 88.5949 101.853 88.4559 101.855 88.314C101.855 88.1295 101.927 87.9523 102.056 87.8204C102.185 87.6885 102.36 87.6123 102.545 87.6081H102.561ZM91.1401 87.6081C91.2816 87.6081 91.42 87.6502 91.5375 87.729C91.6551 87.8078 91.7465 87.9198 91.8003 88.0507C91.8541 88.1815 91.8678 88.3255 91.8396 88.4641C91.8114 88.6028 91.7426 88.73 91.642 88.8295C91.5414 88.929 91.4134 88.9963 91.2745 89.023C91.1355 89.0496 90.9917 89.0343 90.8614 88.9791C90.7312 88.9239 90.6202 88.8311 90.5427 88.7127C90.4653 88.5943 90.4248 88.4555 90.4263 88.314C90.4263 88.1282 90.4996 87.9498 90.6303 87.8177C90.7609 87.6855 90.9384 87.6102 91.1243 87.6081H91.1401ZM80.3143 87.9413C80.3816 88.054 80.4172 88.1827 80.4174 88.314C80.4184 88.4074 80.401 88.5 80.366 88.5866C80.331 88.6731 80.2791 88.7519 80.2135 88.8183C80.1478 88.8847 80.0697 88.9373 79.9835 88.9733C79.8973 89.0093 79.8049 89.0278 79.7115 89.0278C79.6102 89.0293 79.5098 89.0076 79.4181 88.9644C79.6957 88.6154 79.997 88.2823 80.2984 87.9413H80.3143ZM96.5332 110.259C96.3825 110.521 96.2477 110.783 96.1049 111.052C96.1013 111.013 96.1013 110.973 96.1049 110.933C96.0988 110.791 96.1365 110.649 96.2131 110.529C96.2897 110.408 96.4014 110.314 96.5332 110.259ZM85.4298 110.196C85.5716 110.194 85.7107 110.235 85.8293 110.313C85.9479 110.39 86.0406 110.502 86.0956 110.633C86.1506 110.763 86.1654 110.908 86.1381 111.047C86.1108 111.186 86.0427 111.314 85.9424 111.414C85.8421 111.514 85.7142 111.583 85.575 111.61C85.4358 111.637 85.2916 111.622 85.1609 111.567C85.0301 111.512 84.9187 111.42 84.8409 111.301C84.7631 111.182 84.7224 111.043 84.7239 110.902C84.7239 110.714 84.7983 110.535 84.9307 110.402C85.063 110.27 85.2426 110.196 85.4298 110.196ZM74.0091 110.196C74.151 110.194 74.2901 110.235 74.4086 110.313C74.5272 110.39 74.6199 110.502 74.675 110.633C74.73 110.763 74.7448 110.908 74.7175 111.047C74.6902 111.186 74.622 111.314 74.5217 111.414C74.4214 111.514 74.2935 111.583 74.1543 111.61C74.0151 111.637 73.871 111.622 73.7402 111.567C73.6095 111.512 73.4981 111.42 73.4203 111.301C73.3424 111.182 73.3017 111.043 73.3033 110.902C73.3032 110.718 73.3743 110.542 73.5015 110.411C73.6288 110.279 73.8023 110.202 73.9853 110.196H74.0091ZM62.8581 110.243C63.0056 110.31 63.1261 110.425 63.1998 110.569C63.2735 110.713 63.2961 110.878 63.2638 111.036C63.2315 111.195 63.1463 111.338 63.0222 111.441C62.898 111.545 62.7423 111.604 62.5805 111.607C62.4024 111.608 62.2303 111.543 62.0967 111.425C62.3188 111.052 62.5726 110.656 62.8343 110.259L62.8581 110.243ZM91.1481 102.875C91.2896 102.875 91.4279 102.917 91.5454 102.996C91.663 103.075 91.7545 103.187 91.8083 103.318C91.862 103.449 91.8757 103.593 91.8475 103.731C91.8193 103.87 91.7505 103.997 91.6499 104.097C91.5493 104.196 91.4214 104.264 91.2824 104.29C91.1434 104.317 90.9997 104.302 90.8694 104.246C90.7391 104.191 90.6282 104.098 90.5507 103.98C90.4732 103.862 90.4327 103.723 90.4343 103.581C90.4383 103.399 90.5123 103.226 90.6408 103.098C90.7694 102.969 90.9425 102.895 91.1243 102.891L91.1481 102.875ZM79.7195 102.875C79.8613 102.874 80.0004 102.915 80.119 102.992C80.2376 103.07 80.3303 103.182 80.3853 103.312C80.4403 103.443 80.4551 103.587 80.4278 103.726C80.4005 103.866 80.3324 103.994 80.2321 104.094C80.1318 104.194 80.0039 104.262 79.8647 104.29C79.7255 104.317 79.5813 104.302 79.4506 104.247C79.3198 104.192 79.2084 104.099 79.1306 103.981C79.0528 103.862 79.012 103.723 79.0136 103.581C79.0176 103.401 79.0905 103.229 79.2173 103.1C79.3442 102.972 79.5153 102.897 79.6957 102.891L79.7195 102.875ZM67.5929 103.438L67.926 103.002C68.0341 102.939 68.1575 102.906 68.2829 102.907C68.4583 102.926 68.6205 103.008 68.7384 103.139C68.8564 103.271 68.9216 103.441 68.9216 103.617C68.9216 103.793 68.8564 103.963 68.7384 104.094C68.6205 104.225 68.4583 104.308 68.2829 104.327C68.0956 104.325 67.9164 104.25 67.7832 104.118C67.65 103.986 67.5733 103.808 67.5692 103.621C67.5643 103.565 67.5643 103.51 67.5692 103.454L67.5929 103.438ZM85.4298 125.495C85.5694 125.495 85.7059 125.536 85.8219 125.614C85.938 125.691 86.0285 125.801 86.0819 125.93C86.1354 126.059 86.1493 126.201 86.1221 126.338C86.0949 126.475 86.0276 126.601 85.9289 126.7C85.8302 126.798 85.7044 126.866 85.5675 126.893C85.4306 126.92 85.2887 126.906 85.1597 126.853C85.0307 126.799 84.9204 126.709 84.8429 126.593C84.7653 126.477 84.7239 126.34 84.7239 126.2C84.7239 126.013 84.7983 125.834 84.9307 125.701C85.063 125.569 85.2426 125.495 85.4298 125.495ZM74.0091 125.495C74.1487 125.495 74.2852 125.536 74.4013 125.614C74.5174 125.691 74.6078 125.801 74.6613 125.93C74.7147 126.059 74.7287 126.201 74.7014 126.338C74.6742 126.475 74.607 126.601 74.5083 126.7C74.4095 126.798 74.2838 126.866 74.1468 126.893C74.0099 126.92 73.868 126.906 73.739 126.853C73.61 126.799 73.4998 126.709 73.4222 126.593C73.3447 126.477 73.3033 126.34 73.3033 126.2C73.3032 126.017 73.3743 125.841 73.5015 125.71C73.6288 125.578 73.8023 125.501 73.9853 125.495H74.0091ZM62.5805 125.495C62.7201 125.495 62.8566 125.536 62.9727 125.614C63.0888 125.691 63.1792 125.801 63.2327 125.93C63.2861 126.059 63.3001 126.201 63.2728 126.338C63.2456 126.475 63.1784 126.601 63.0797 126.7C62.981 126.798 62.8552 126.866 62.7182 126.893C62.5813 126.92 62.4394 126.906 62.3104 126.853C62.1815 126.799 62.0712 126.709 61.9936 126.593C61.9161 126.477 61.8747 126.34 61.8747 126.2C61.8746 126.017 61.9457 125.841 62.0729 125.71C62.2002 125.578 62.3737 125.501 62.5568 125.495H62.5805ZM91.1322 118.174C91.2737 118.174 91.412 118.216 91.5296 118.295C91.6471 118.374 91.7386 118.486 91.7924 118.617C91.8462 118.748 91.8598 118.892 91.8316 119.03C91.8034 119.169 91.7347 119.296 91.6341 119.396C91.5334 119.495 91.4055 119.562 91.2665 119.589C91.1275 119.616 90.9838 119.6 90.8535 119.545C90.7232 119.49 90.6123 119.397 90.5348 119.279C90.4574 119.16 90.4168 119.022 90.4184 118.88C90.4184 118.693 90.4928 118.513 90.6252 118.381C90.7575 118.249 90.9371 118.174 91.1243 118.174H91.1322ZM79.7036 118.174C79.8454 118.173 79.9845 118.213 80.1031 118.291C80.2217 118.369 80.3144 118.48 80.3694 118.611C80.4244 118.742 80.4392 118.886 80.4119 119.025C80.3847 119.165 80.3165 119.292 80.2162 119.393C80.1159 119.493 79.988 119.561 79.8488 119.588C79.7096 119.616 79.5654 119.601 79.4347 119.546C79.304 119.491 79.1926 119.398 79.1147 119.28C79.0369 119.161 78.9962 119.022 78.9978 118.88C78.9977 118.694 79.071 118.516 79.2017 118.384C79.3323 118.252 79.5098 118.176 79.6957 118.174H79.7036ZM68.2829 118.174C68.4245 118.174 68.5628 118.216 68.6803 118.295C68.7979 118.374 68.8893 118.486 68.9431 118.617C68.9969 118.748 69.0106 118.892 68.9824 119.03C68.9542 119.169 68.8854 119.296 68.7848 119.396C68.6842 119.495 68.5563 119.562 68.4173 119.589C68.2783 119.616 68.1345 119.6 68.0042 119.545C67.874 119.49 67.763 119.397 67.6856 119.279C67.6081 119.16 67.5676 119.022 67.5692 118.88C67.5692 118.693 67.6435 118.513 67.7759 118.381C67.9083 118.249 68.0878 118.174 68.275 118.174H68.2829ZM79.7036 133.457C79.8454 133.456 79.9845 133.497 80.1031 133.574C80.2217 133.652 80.3144 133.764 80.3694 133.894C80.4244 134.025 80.4392 134.169 80.4119 134.308C80.3847 134.448 80.3165 134.576 80.2162 134.676C80.1159 134.776 79.988 134.844 79.8488 134.872C79.7096 134.899 79.5654 134.884 79.4347 134.829C79.304 134.774 79.1926 134.681 79.1147 134.563C79.0369 134.444 78.9962 134.305 78.9978 134.163C78.9977 133.977 79.071 133.799 79.2017 133.667C79.3323 133.535 79.5098 133.459 79.6957 133.457H79.7036ZM68.2829 133.457C68.4245 133.457 68.5628 133.499 68.6803 133.578C68.7979 133.657 68.8893 133.769 68.9431 133.9C68.9969 134.031 69.0106 134.175 68.9824 134.313C68.9542 134.452 68.8854 134.579 68.7848 134.679C68.6842 134.778 68.5563 134.846 68.4173 134.872C68.2783 134.899 68.1345 134.884 68.0042 134.828C67.874 134.773 67.763 134.68 67.6856 134.562C67.6081 134.443 67.5676 134.305 67.5692 134.163C67.5692 133.976 67.6435 133.796 67.7759 133.664C67.9083 133.532 68.0878 133.457 68.275 133.457H68.2829Z" fill="white"/>
<path d="M83.7642 130.713C85.7073 127.699 87.5394 124.59 89.3952 121.513C91.2511 118.436 93.0911 115.343 94.8993 112.234C98.4683 106.087 101.783 99.8058 104.98 93.461C106.788 89.8683 108.628 86.3231 110.349 82.659C110.404 82.54 110.595 82.659 110.555 82.7462C108.89 86.9761 107.097 91.1373 105.178 95.2297L105.257 95.1266C105.686 94.5476 106.114 93.9686 106.534 93.3817C107.367 92.2238 108.12 91.0421 108.913 89.8286C108.969 89.7335 109.12 89.8286 109.064 89.9238C108.206 91.5744 107.236 93.1643 106.161 94.6824C105.636 95.392 105.069 96.0699 104.464 96.7128L104.409 96.7603C103.528 98.5845 102.632 100.401 101.688 102.201C98.3965 108.596 94.7859 114.822 90.8704 120.855C89.76 122.544 88.6418 124.225 87.4759 125.883C86.31 127.541 85.0966 129.143 83.8594 130.776C83.8435 130.88 83.7007 130.816 83.7642 130.713Z" fill="#002064"/>
<path d="M74.9932 133.331C80.0215 126.121 77.4994 111.782 71.9477 77.3614C71.1546 72.6028 35.0368 72.2301 35.592 77.3614C36.2899 83.8173 42.7299 109.331 44.4033 113.051C52.6278 131.451 71.5908 138.224 74.9932 133.331Z" fill="#F7A9A0"/>
<path d="M36.7649 81.8025C35.2659 77.9481 28.3739 56.5819 28.0408 51.165C27.7077 45.7481 27.8266 30.0844 31.9508 29.4023C36.0749 28.7202 36.4001 33.3044 36.4001 33.3044C36.4001 33.3044 37.5025 26.6978 41.7138 26.3806C45.9252 26.0634 46.2028 33.2251 46.2028 33.2251C46.2028 33.2251 47.8287 26.5234 52.0559 26.5154C56.2831 26.5075 55.2917 33.7406 55.2917 33.7406C55.2917 33.7406 56.4973 27.5465 59.979 28.982C64.1665 30.7268 60.661 41.9016 61.4938 47.8498C61.6841 49.2061 67.2676 74.9739 67.2676 74.9739L36.7649 81.8025Z" fill="#F7A9A0"/>
<path d="M55.4022 33.1222C52.8405 41.3467 53.1419 45.3836 55.3308 53.5684C55.3705 53.7349 55.1405 53.8301 55.085 53.6715C52.2139 45.8436 51.1195 40.8312 55.0057 32.9795C55.196 32.5908 55.5212 32.7336 55.4022 33.1222Z" fill="#002064"/>
<path d="M46.4019 32.5748C44.4905 41.3465 44.776 45.7324 46.4019 54.4803C46.4019 54.5993 46.2116 54.6548 46.1798 54.5279C43.8005 46.0893 42.8409 41.0452 45.9022 32.551C46.0847 32.1624 46.4891 32.1783 46.4019 32.5748Z" fill="#002064"/>
<path d="M36.4806 33.7411C35.2434 42.3701 35.3544 47.2238 38.0668 55.4721C38.0826 55.5121 38.0818 55.5567 38.0647 55.5961C38.0476 55.6355 38.0156 55.6665 37.9756 55.6823C37.9356 55.6981 37.8911 55.6973 37.8516 55.6802C37.8122 55.6631 37.7812 55.631 37.7654 55.5911C34.1885 47.4142 34.0061 41.4025 36.2268 33.7332C36.3696 33.2097 36.5599 33.2018 36.4806 33.7411Z" fill="#002064"/>
<path d="M72.4693 81.7148C72.4693 81.7148 75.3324 71.3173 75.5783 66.4635C75.8241 61.6097 70.0979 43.2177 66.0611 44.2567C60.8345 45.5653 62.048 56.8432 63.3645 62.2839C63.3645 62.2839 51.2776 65.2976 50.3973 73.5776C49.517 81.8576 72.4693 81.7148 72.4693 81.7148Z" fill="#F7A9A0"/>
<path d="M64.7297 45.0582C60.8276 49.682 63.0166 56.7168 63.9366 62.094C63.9539 62.1726 63.952 62.2542 63.9311 62.3319C63.9101 62.4095 63.8707 62.481 63.8162 62.5402C63.7617 62.5994 63.6937 62.6445 63.618 62.6718C63.5423 62.699 63.4612 62.7076 63.3814 62.6968C58.4008 64.283 51.8339 68.0026 50.2159 73.2768C50.2055 73.305 50.1854 73.3286 50.1592 73.3433C50.1329 73.3581 50.1023 73.363 50.0728 73.3573C50.0433 73.3516 50.0167 73.3356 49.9979 73.3121C49.9791 73.2886 49.9692 73.2593 49.9701 73.2292C50.9377 67.3285 57.108 63.1568 62.6597 61.7609C61.6683 56.2568 59.7807 49.0713 64.7297 45.0186C64.7218 44.9948 64.7614 45.0265 64.7297 45.0582Z" fill="#002064"/>
<path d="M35.0193 89.019L76.9347 100.916C76.9347 100.916 85.294 128.389 79.9802 135.281C74.2937 142.649 47.9072 131.228 42.6569 115.176L35.0193 89.019Z" fill="#ED7155"/>
<path d="M50.4311 95.6334C50.4311 95.773 50.4725 95.9095 50.55 96.0256C50.6276 96.1416 50.7378 96.2321 50.8668 96.2855C50.9958 96.3389 51.1377 96.3529 51.2746 96.3257C51.4116 96.2985 51.5373 96.2312 51.6361 96.1325C51.7348 96.0338 51.802 95.908 51.8292 95.7711C51.8565 95.6342 51.8425 95.4923 51.7891 95.3633C51.7356 95.2343 51.6452 95.1241 51.5291 95.0465C51.413 94.9689 51.2766 94.9275 51.137 94.9275C50.9497 94.9275 50.7702 95.0019 50.6378 95.1343C50.5055 95.2667 50.4311 95.4462 50.4311 95.6334ZM39.7163 94.9275C39.8578 94.9275 39.9961 94.9696 40.1136 95.0484C40.2312 95.1272 40.3227 95.2391 40.3765 95.37C40.4303 95.5009 40.4439 95.6448 40.4157 95.7835C40.3875 95.9222 40.3188 96.0494 40.2181 96.1489C40.1175 96.2484 39.9896 96.3157 39.8506 96.3424C39.7116 96.369 39.5679 96.3537 39.4376 96.2985C39.3073 96.2432 39.1964 96.1505 39.1189 96.0321C39.0414 95.9137 39.0009 95.7749 39.0025 95.6334C39.0025 95.54 39.021 95.4476 39.057 95.3614C39.0929 95.2753 39.1457 95.1971 39.212 95.1314C39.2784 95.0658 39.3572 95.014 39.4437 94.979C39.5303 94.944 39.6229 94.9265 39.7163 94.9275ZM73.9862 110.195C74.128 110.193 74.2671 110.234 74.3857 110.312C74.5043 110.39 74.597 110.501 74.652 110.632C74.707 110.762 74.7218 110.907 74.6945 111.046C74.6673 111.185 74.5991 111.313 74.4988 111.413C74.3985 111.514 74.2706 111.582 74.1314 111.609C73.9922 111.636 73.848 111.621 73.7173 111.566C73.5865 111.511 73.4752 111.419 73.3973 111.3C73.3195 111.182 73.2788 111.042 73.2803 110.901C73.2803 110.713 73.3547 110.534 73.4871 110.401C73.6195 110.269 73.799 110.195 73.9862 110.195ZM62.5576 110.195C62.6995 110.193 62.8385 110.234 62.9571 110.312C63.0757 110.39 63.1684 110.501 63.2234 110.632C63.2784 110.762 63.2932 110.907 63.266 111.046C63.2387 111.185 63.1705 111.313 63.0702 111.413C62.9699 111.514 62.842 111.582 62.7028 111.609C62.5636 111.636 62.4195 111.621 62.2887 111.566C62.158 111.511 62.0466 111.419 61.9687 111.3C61.8909 111.182 61.8502 111.042 61.8517 110.901C61.8517 110.713 61.9261 110.534 62.0585 110.401C62.1909 110.269 62.3704 110.195 62.5576 110.195ZM51.137 110.195C51.2788 110.193 51.4179 110.234 51.5365 110.312C51.655 110.39 51.7478 110.501 51.8028 110.632C51.8578 110.762 51.8726 110.907 51.8453 111.046C51.818 111.185 51.7499 111.313 51.6496 111.413C51.5493 111.514 51.4213 111.582 51.2822 111.609C51.143 111.636 50.9988 111.621 50.868 111.566C50.7373 111.511 50.6259 111.419 50.5481 111.3C50.4703 111.182 50.4295 111.042 50.4311 110.901C50.4311 110.713 50.5055 110.534 50.6378 110.401C50.7702 110.269 50.9497 110.195 51.137 110.195ZM68.2759 102.874C68.4174 102.874 68.5557 102.916 68.6732 102.995C68.7908 103.074 68.8823 103.186 68.936 103.317C68.9898 103.448 69.0035 103.592 68.9753 103.73C68.9471 103.869 68.8783 103.996 68.7777 104.096C68.6771 104.195 68.5492 104.263 68.4102 104.289C68.2712 104.316 68.1274 104.301 67.9972 104.245C67.8669 104.19 67.756 104.097 67.6785 103.979C67.601 103.861 67.5605 103.722 67.5621 103.58C67.5662 103.394 67.6435 103.218 67.7772 103.089C67.9108 102.959 68.09 102.888 68.2759 102.89V102.874ZM56.8473 102.874C56.9891 102.873 57.1282 102.914 57.2468 102.991C57.3654 103.069 57.4581 103.181 57.5131 103.311C57.5681 103.442 57.5829 103.586 57.5556 103.725C57.5283 103.865 57.4602 103.993 57.3599 104.093C57.2596 104.193 57.1317 104.261 56.9925 104.289C56.8533 104.316 56.7091 104.301 56.5784 104.246C56.4476 104.191 56.3362 104.098 56.2584 103.98C56.1806 103.861 56.1399 103.722 56.1414 103.58C56.1434 103.486 56.1643 103.393 56.2026 103.308C56.241 103.222 56.2962 103.144 56.3649 103.08C56.4336 103.016 56.5145 102.966 56.6028 102.933C56.6911 102.901 56.785 102.886 56.879 102.89L56.8473 102.874ZM45.4266 102.874C45.5681 102.874 45.7064 102.916 45.824 102.995C45.9415 103.074 46.033 103.186 46.0868 103.317C46.1406 103.448 46.1542 103.592 46.126 103.73C46.0979 103.869 46.0291 103.996 45.9285 104.096C45.8279 104.195 45.6999 104.263 45.5609 104.289C45.422 104.316 45.2782 104.301 45.1479 104.245C45.0176 104.19 44.9067 104.097 44.8292 103.979C44.7518 103.861 44.7113 103.722 44.7128 103.58C44.717 103.394 44.7943 103.218 44.9279 103.089C45.0616 102.959 45.2408 102.888 45.4266 102.89V102.874ZM73.9783 125.478C74.1179 125.478 74.2543 125.519 74.3704 125.597C74.4865 125.674 74.577 125.785 74.6304 125.914C74.6838 126.043 74.6978 126.184 74.6706 126.321C74.6433 126.458 74.5761 126.584 74.4774 126.683C74.3787 126.782 74.2529 126.849 74.116 126.876C73.9791 126.903 73.8371 126.889 73.7082 126.836C73.5792 126.782 73.4689 126.692 73.3914 126.576C73.3138 126.46 73.2724 126.323 73.2724 126.184C73.2766 125.998 73.3539 125.821 73.4875 125.692C73.6211 125.563 73.8003 125.492 73.9862 125.494L73.9783 125.478ZM62.5497 125.478C62.6893 125.478 62.8258 125.519 62.9418 125.597C63.0579 125.674 63.1484 125.785 63.2018 125.914C63.2552 126.043 63.2692 126.184 63.242 126.321C63.2147 126.458 63.1475 126.584 63.0488 126.683C62.9501 126.782 62.8243 126.849 62.6874 126.876C62.5505 126.903 62.4085 126.889 62.2796 126.836C62.1506 126.782 62.0403 126.692 61.9628 126.576C61.8852 126.46 61.8438 126.323 61.8438 126.184C61.848 125.998 61.9253 125.821 62.0589 125.692C62.1926 125.563 62.3718 125.492 62.5576 125.494L62.5497 125.478ZM51.129 125.478C51.2686 125.478 51.4051 125.519 51.5212 125.597C51.6372 125.674 51.7277 125.785 51.7812 125.914C51.8346 126.043 51.8485 126.184 51.8213 126.321C51.7941 126.458 51.7269 126.584 51.6281 126.683C51.5294 126.782 51.4037 126.849 51.2667 126.876C51.1298 126.903 50.9879 126.889 50.8589 126.836C50.7299 126.782 50.6197 126.692 50.5421 126.576C50.4645 126.46 50.4231 126.323 50.4231 126.184C50.4273 125.998 50.5046 125.821 50.6382 125.692C50.7719 125.563 50.9511 125.492 51.137 125.494L51.129 125.478ZM79.6807 118.157C79.8225 118.156 79.9616 118.197 80.0802 118.274C80.1988 118.352 80.2915 118.464 80.3465 118.594C80.4015 118.725 80.4163 118.869 80.389 119.009C80.3617 119.148 80.2936 119.276 80.1933 119.376C80.093 119.476 79.9651 119.544 79.8259 119.572C79.6867 119.599 79.5425 119.584 79.4118 119.529C79.281 119.474 79.1696 119.381 79.0918 119.263C79.014 119.144 78.9732 119.005 78.9748 118.863C78.9769 118.771 78.9972 118.679 79.0346 118.594C79.0719 118.51 79.1257 118.433 79.1927 118.369C79.2598 118.305 79.3387 118.254 79.4252 118.221C79.5116 118.187 79.6038 118.171 79.6965 118.173L79.6807 118.157ZM68.26 118.157C68.4015 118.157 68.5398 118.2 68.6574 118.278C68.7749 118.357 68.8664 118.469 68.9202 118.6C68.974 118.731 68.9876 118.875 68.9594 119.013C68.9313 119.152 68.8625 119.279 68.7619 119.379C68.6613 119.478 68.5333 119.546 68.3943 119.572C68.2554 119.599 68.1116 119.584 67.9813 119.528C67.851 119.473 67.7401 119.38 67.6626 119.262C67.5852 119.144 67.5447 119.005 67.5462 118.863C67.5483 118.77 67.5688 118.678 67.6067 118.593C67.6446 118.507 67.699 118.43 67.7669 118.366C67.8348 118.302 67.9147 118.252 68.0021 118.219C68.0895 118.186 68.1825 118.17 68.2759 118.173L68.26 118.157ZM56.8314 118.157C56.9733 118.156 57.1123 118.197 57.2309 118.274C57.3495 118.352 57.4422 118.464 57.4972 118.594C57.5522 118.725 57.567 118.869 57.5398 119.009C57.5125 119.148 57.4443 119.276 57.344 119.376C57.2437 119.476 57.1158 119.544 56.9766 119.572C56.8374 119.599 56.6933 119.584 56.5625 119.529C56.4318 119.474 56.3204 119.381 56.2425 119.263C56.1647 119.144 56.124 119.005 56.1255 118.863C56.1275 118.768 56.1488 118.674 56.1881 118.587C56.2275 118.5 56.2841 118.422 56.3546 118.357C56.425 118.293 56.5078 118.243 56.598 118.211C56.6881 118.18 56.7837 118.167 56.879 118.173L56.8314 118.157ZM45.4108 118.157C45.5523 118.157 45.6906 118.2 45.8081 118.278C45.9257 118.357 46.0172 118.469 46.0709 118.6C46.1247 118.731 46.1384 118.875 46.1102 119.013C46.082 119.152 46.0132 119.279 45.9126 119.379C45.812 119.478 45.6841 119.546 45.5451 119.572C45.4061 119.599 45.2623 119.584 45.1321 119.528C45.0018 119.473 44.8909 119.38 44.8134 119.262C44.7359 119.144 44.6954 119.005 44.697 118.863C44.699 118.77 44.7196 118.678 44.7575 118.593C44.7953 118.507 44.8498 118.43 44.9177 118.366C44.9855 118.302 45.0655 118.252 45.1528 118.219C45.2402 118.186 45.3333 118.17 45.4266 118.173L45.4108 118.157ZM79.6807 133.441C79.8225 133.439 79.9616 133.48 80.0802 133.558C80.1988 133.635 80.2915 133.747 80.3465 133.877C80.4015 134.008 80.4163 134.152 80.389 134.292C80.3617 134.431 80.2936 134.559 80.1933 134.659C80.093 134.759 79.9651 134.827 79.8259 134.855C79.6867 134.882 79.5425 134.867 79.4118 134.812C79.281 134.757 79.1696 134.665 79.0918 134.546C79.014 134.427 78.9732 134.288 78.9748 134.146C78.9769 134.054 78.9972 133.962 79.0346 133.877C79.0719 133.793 79.1257 133.716 79.1927 133.652C79.2598 133.588 79.3387 133.538 79.4252 133.504C79.5116 133.47 79.6038 133.454 79.6965 133.456L79.6807 133.441ZM68.26 133.441C68.4015 133.441 68.5398 133.483 68.6574 133.561C68.7749 133.64 68.8664 133.752 68.9202 133.883C68.974 134.014 68.9876 134.158 68.9594 134.297C68.9313 134.435 68.8625 134.562 68.7619 134.662C68.6613 134.761 68.5333 134.829 68.3943 134.855C68.2554 134.882 68.1116 134.867 67.9813 134.811C67.851 134.756 67.7401 134.664 67.6626 134.545C67.5852 134.427 67.5447 134.288 67.5462 134.146C67.5483 134.053 67.5688 133.961 67.6067 133.876C67.6446 133.79 67.699 133.713 67.7669 133.649C67.8348 133.585 67.9147 133.535 68.0021 133.502C68.0895 133.469 68.1825 133.453 68.2759 133.456L68.26 133.441Z" fill="white"/>
<path d="M75.5633 110.441C70.884 109.378 66.2682 108.062 61.6523 106.745C57.0365 105.429 52.4127 104.112 47.8286 102.677C45.2431 101.884 42.6496 101.09 40.0879 100.163C40.0165 100.163 40.0403 100.02 40.0879 100.036C44.7593 101.09 49.391 102.415 53.9989 103.676C58.6068 104.937 63.2464 106.309 67.8464 107.689C70.4399 108.482 73.0254 109.275 75.5871 110.203C75.7378 110.251 75.6982 110.473 75.5633 110.441Z" fill="#002064"/>
<path d="M75.4445 100.458C76.0949 100.521 76.7452 100.656 77.3876 100.783C77.4366 100.797 77.4813 100.823 77.5173 100.859C77.5534 100.895 77.5797 100.94 77.5938 100.989C78.3076 103.432 78.8152 105.946 79.3228 108.436C79.8304 110.926 80.2666 113.353 80.6711 115.828C80.8931 117.152 81.0835 118.493 81.2342 119.793C82.0434 121.411 82.536 123.169 82.6855 124.972C82.6855 124.993 82.6772 125.013 82.6623 125.028C82.6474 125.043 82.6273 125.052 82.6062 125.052C82.5852 125.052 82.565 125.043 82.5502 125.028C82.5353 125.013 82.5269 124.993 82.5269 124.972C82.3282 123.372 81.9147 121.806 81.2976 120.317C81.6983 123.582 81.6101 126.888 81.0359 130.127C81.829 125.29 80.6393 120.245 79.8462 115.487C79.4497 113.107 78.9976 110.728 78.5297 108.349C78.0617 105.97 77.5145 103.63 77.0783 101.259C76.5231 101.044 75.9601 100.838 75.4287 100.584C75.4196 100.576 75.4127 100.565 75.4085 100.554C75.4043 100.542 75.4029 100.529 75.4044 100.517C75.406 100.505 75.4104 100.493 75.4174 100.482C75.4244 100.472 75.4337 100.464 75.4445 100.458Z" fill="#002064"/>
<path d="M117.946 59.595C118.319 60.9432 125.156 69.5484 131.374 69.0249C133.396 68.8505 132.96 57.755 132.96 57.755L133.111 56.9619L135.252 45.3905L121.46 37.2295L119.469 36.1509C119.469 36.1509 119.089 39.3233 118.676 43.3602C118.676 43.5426 118.636 43.725 118.621 43.9233C118.605 44.1216 118.557 44.3674 118.541 44.5736C118.462 45.1684 118.399 45.7791 118.335 46.3898C118.288 46.8498 118.248 47.3019 118.216 47.7857C118.184 48.2695 118.137 48.7533 118.097 49.2371C117.813 52.6823 117.763 56.1429 117.946 59.595Z" fill="#F7A9A0"/>
<path d="M118.662 43.3364C119.943 46.516 121.9 49.3789 124.398 51.7263C126.896 54.0737 129.875 55.8494 133.128 56.9301L135.27 45.3588L121.462 37.2295L119.471 36.1509C119.471 36.1509 119.09 39.3391 118.662 43.3364Z" fill="#002064"/>
<path d="M149.822 26.635C151.955 47.1842 139.884 50.7849 135.451 51.2211C131.43 51.6335 117.677 52.5297 113.434 32.3056C109.191 12.0815 118.074 4.6026 127.226 3.16708C136.379 1.73157 147.688 6.08569 149.822 26.635Z" fill="#F7A9A0"/>
<path d="M142.898 21.8599C142.425 21.8284 141.954 21.7728 141.486 21.6934C140.98 21.7037 140.484 21.5477 140.075 21.2493C139.962 21.1312 139.892 20.9787 139.876 20.8162C139.86 20.6537 139.9 20.4907 139.987 20.3531C140.204 20.1121 140.479 19.9325 140.787 19.8322C141.095 19.7319 141.424 19.7146 141.74 19.782C142.405 19.8185 143.033 20.1012 143.501 20.5751C143.592 20.6907 143.65 20.8295 143.667 20.9759C143.684 21.1223 143.659 21.2705 143.597 21.4039C143.534 21.5373 143.436 21.6507 143.312 21.7312C143.189 21.8118 143.045 21.8563 142.898 21.8599Z" fill="#002064"/>
<path d="M128.163 21.7482C128.627 21.6428 129.085 21.5104 129.535 21.3517C130.036 21.2786 130.499 21.0415 130.851 20.6775C130.94 20.5432 130.982 20.3833 130.971 20.2226C130.959 20.0619 130.895 19.9095 130.788 19.7892C130.537 19.5824 130.236 19.4461 129.916 19.3945C129.595 19.3429 129.266 19.3779 128.964 19.4958C128.32 19.6433 127.755 20.025 127.378 20.5665C127.304 20.6943 127.268 20.8399 127.273 20.9871C127.278 21.1344 127.323 21.2773 127.405 21.4C127.486 21.5227 127.6 21.6202 127.734 21.6817C127.868 21.7432 128.016 21.7663 128.163 21.7482Z" fill="#002064"/>
<path d="M131.835 27.9196C131.835 27.8721 131.732 27.999 131.74 28.0545C131.922 29.4503 131.89 31.0841 130.669 31.671C130.669 31.671 130.669 31.7583 130.669 31.7503C132.224 31.3776 132.224 29.2124 131.835 27.9196Z" fill="#002064"/>
<path d="M130.439 26.5786C128.171 26.6341 128.44 31.1627 130.542 31.1231C132.644 31.0834 132.342 26.539 130.439 26.5786Z" fill="#002064"/>
<path d="M129.564 26.8715C129.184 27.1491 128.819 27.6249 128.351 27.7042C127.883 27.7835 127.351 27.3394 126.963 26.9111C126.923 26.9111 126.891 26.9111 126.891 26.9666C126.931 27.839 127.312 28.7115 128.256 28.7828C129.199 28.8542 129.675 28.0532 129.842 27.1966C129.842 26.9904 129.715 26.7604 129.564 26.8715Z" fill="#002064"/>
<path d="M140.391 26.9194C140.391 26.8639 140.51 26.9749 140.51 27.0305C140.558 28.4422 140.851 30.0442 142.152 30.4249C142.199 30.4249 142.199 30.5042 142.152 30.5042C140.581 30.3536 140.217 28.228 140.391 26.9194Z" fill="#002064"/>
<path d="M141.55 25.3329C143.794 25.0077 144.278 29.5284 142.2 29.8298C140.122 30.1311 139.662 25.6105 141.55 25.3329Z" fill="#002064"/>
<path d="M142.534 25.5321C142.922 25.7304 143.327 26.1269 143.747 26.1111C144.168 26.0952 144.54 25.5638 144.826 25.0642C144.826 25.0087 144.889 25.0642 144.897 25.1038C145.016 25.9604 144.826 26.8962 144.017 27.15C143.208 27.4038 142.637 26.698 142.344 25.8652C142.272 25.7066 142.367 25.4528 142.534 25.5321Z" fill="#002064"/>
<path d="M134.056 38.8649C134.397 39.1901 134.738 39.658 135.253 39.658C135.777 39.6453 136.291 39.5181 136.76 39.2853C136.77 39.2835 136.779 39.2841 136.788 39.2872C136.798 39.2903 136.806 39.2957 136.812 39.3029C136.819 39.3101 136.823 39.3189 136.825 39.3283C136.827 39.3377 136.826 39.3475 136.824 39.3567C136.628 39.6383 136.359 39.8611 136.046 40.0009C135.733 40.1407 135.387 40.1922 135.047 40.1498C134.758 40.0803 134.497 39.9262 134.296 39.7072C134.095 39.4882 133.965 39.2142 133.921 38.9205C133.897 38.8174 134.008 38.8174 134.056 38.8649Z" fill="#002064"/>
<path d="M139.566 33.3749C139.566 33.3749 140.003 35.4529 140.074 36.4442C140.074 36.5315 139.844 36.5949 139.511 36.6425C139.511 36.6425 139.511 36.6425 139.471 36.6425C138.634 36.8582 137.753 36.8384 136.925 36.5851C136.098 36.3317 135.357 35.8548 134.784 35.207C134.705 35.1198 134.824 35.0087 134.919 35.0643C136.241 35.8349 137.776 36.1602 139.297 35.9922C139.352 35.7146 138.432 32.4629 138.583 32.4391C139.357 32.4505 140.125 32.5679 140.867 32.788C140.074 28.4418 138.607 24.2463 137.893 19.9081C137.882 19.8755 137.885 19.84 137.901 19.8095C137.917 19.779 137.944 19.756 137.976 19.7455C138.009 19.735 138.044 19.7378 138.075 19.7535C138.105 19.7691 138.128 19.7962 138.139 19.8288C140.003 24.1036 141.01 29.0922 141.938 33.5653C142.065 34.1205 139.971 33.5177 139.566 33.3749Z" fill="#002064"/>
<path d="M139.17 36.2777C138.681 37.1013 137.987 37.7844 137.155 38.2604C136.695 38.51 136.167 38.6045 135.649 38.5301C134.514 38.3715 134.372 37.3722 134.475 36.4839C134.531 36.015 134.643 35.5544 134.808 35.1118C136.1 35.9559 137.629 36.3645 139.17 36.2777Z" fill="#002064"/>
<path d="M137.156 38.2614C136.696 38.511 136.168 38.6056 135.649 38.5311C134.515 38.3725 134.372 37.3732 134.476 36.4849C135.057 36.4391 135.636 36.5891 136.122 36.9111C136.608 37.2331 136.972 37.7085 137.156 38.2614Z" fill="#FF9CBD"/>
<path d="M114.29 31.1151C119.049 30.7741 118.375 23.311 118.375 23.311C118.375 23.311 123.704 22.3831 123.379 13.6907C123.379 13.6907 126.393 18.711 133.753 19.171C135.339 19.2741 129.788 15.7051 129.788 15.7051C129.788 15.7051 137.227 20.5748 148.529 17.5055C149.322 17.2913 145.8 5.54551 136.458 2.15103C127.115 -1.24344 119.192 1.77826 114.092 7.91687C114.092 7.91687 107.747 11.5017 107.517 17.8148C107.287 24.1279 112.45 31.2499 114.29 31.1151Z" fill="#002064"/>
<path d="M110.635 27.943C109.059 25.3463 108.145 22.4021 107.974 19.3694C107.802 16.3366 108.379 13.3082 109.652 10.5503C113.998 0.858618 129.59 -2.98792 139.877 3.87241C139.877 3.87241 122.191 0.699998 116.211 8.6786C110.231 16.6572 110.635 27.943 110.635 27.943Z" fill="#ED7155"/>
<path d="M116.972 33.1064C116.972 33.1064 112.356 26.7616 109.461 28.3478C106.566 29.934 110.103 39.3006 113.561 40.514C113.993 40.7015 114.459 40.7997 114.93 40.8025C115.401 40.8054 115.867 40.7128 116.302 40.5306C116.736 40.3483 117.129 40.08 117.457 39.7418C117.784 39.4037 118.04 39.0027 118.209 38.563L116.972 33.1064Z" fill="#F7A9A0"/>
<path d="M110.54 31.0281C110.484 31.0281 110.476 31.0995 110.54 31.1233C112.966 32.0512 114.267 34.2957 115.195 36.5639C114.465 35.6915 113.482 35.2157 112.3 36.0881C112.237 36.1357 112.3 36.2308 112.372 36.215C112.793 36.0718 113.249 36.0637 113.675 36.1916C114.102 36.3195 114.478 36.5772 114.751 36.9288C115.201 37.516 115.589 38.1486 115.909 38.8163C116.028 39.0305 116.416 38.9115 116.329 38.6656V38.6101C116.305 35.5408 113.847 31.2819 110.54 31.0281Z" fill="#002064"/>
</svg>
