<svg width="522" height="468" viewBox="0 0 522 468" fill="none" xmlns="http://www.w3.org/2000/svg">
<path d="M12.4476 457.577L76.1088 457.296L139.77 457.191L267.08 456.992L394.39 457.191L458.051 457.296L521.713 457.577L458.051 457.87L394.39 457.964L267.08 458.163L139.77 457.964L76.1088 457.858L12.4476 457.577Z" fill="#263238"/>
<path d="M460.003 354.1C477.667 370.799 480.613 396.645 476.904 419.283C476.807 419.798 475.982 419.658 475.982 419.177C475.982 414.025 476.152 408.919 476.128 403.824C476.031 403.59 475.958 403.368 475.861 403.133C471.254 399.901 467.011 396.247 464.38 391.223C461.434 385.625 460.27 379.302 458.015 373.446C457.809 372.884 458.427 373.048 458.827 373.341C469.581 381 473 389.232 476.079 400.276C476.016 394.517 475.391 388.777 474.212 383.131C471.897 372.685 467.302 362.332 459.53 354.58C459.464 354.519 459.426 354.436 459.424 354.348C459.422 354.26 459.456 354.175 459.518 354.111C459.581 354.048 459.667 354.011 459.758 354.008C459.849 354.006 459.937 354.039 460.003 354.1Z" fill="#263238"/>
<path d="M456.682 356.044C453.639 356.149 451.736 360.834 449.408 362.204C449.159 362.399 448.871 362.541 448.562 362.622C448.253 362.702 447.929 362.719 447.613 362.672C447.297 362.624 446.994 362.513 446.725 362.346C446.455 362.179 446.225 361.959 446.05 361.7C443.698 358.527 446.922 354.674 449.953 352.449C447.783 353.303 445.989 354.791 443.649 355.247C443.35 355.341 443.034 355.371 442.722 355.336C442.411 355.302 442.11 355.203 441.841 355.046C441.572 354.89 441.341 354.679 441.164 354.429C440.986 354.179 440.866 353.895 440.812 353.596C439.782 349.287 445.383 347.366 449.226 347.272C447.359 346.031 442.024 342.588 444.861 340.948C447.698 339.309 454.003 344.134 456.051 345.738C459.046 348.08 462.635 351.594 462.768 355.294C462.913 359.592 459.022 356.946 456.682 356.044Z" fill="#ED7155"/>
<path opacity="0.1" d="M456.682 356.044C453.639 356.149 451.736 360.834 449.408 362.204C449.159 362.399 448.871 362.541 448.562 362.622C448.253 362.702 447.929 362.719 447.613 362.672C447.297 362.624 446.994 362.513 446.725 362.346C446.455 362.179 446.225 361.959 446.05 361.7C443.698 358.527 446.922 354.674 449.953 352.449C447.783 353.303 445.989 354.791 443.649 355.247C443.35 355.341 443.034 355.371 442.722 355.336C442.411 355.302 442.11 355.203 441.841 355.046C441.572 354.89 441.341 354.679 441.164 354.429C440.986 354.179 440.866 353.895 440.812 353.596C439.782 349.287 445.383 347.366 449.226 347.272C447.359 346.031 442.024 342.588 444.861 340.948C447.698 339.309 454.003 344.134 456.051 345.738C459.046 348.08 462.635 351.594 462.768 355.294C462.913 359.592 459.022 356.946 456.682 356.044Z" fill="black"/>
<path d="M457.556 356.769C453.676 355.059 446.208 357.519 445.578 356.102C444.293 353.209 450.257 351.218 453.47 350.843C450.512 350.059 444.826 348.829 444.984 346.065C445.202 342.693 453.7 345.597 458.004 348.782C463.424 352.799 463.387 356.664 462.49 357.448C461.278 358.502 458.198 357.05 457.556 356.769Z" fill="#ED7155"/>
<path d="M500.229 352.448C481.923 368.492 477.934 394.209 480.771 416.964C480.844 417.479 481.668 417.373 481.692 416.882C481.886 411.74 481.935 406.623 482.153 401.54L482.444 400.861C487.184 397.804 491.561 394.303 494.386 389.384C497.55 383.892 498.956 377.615 501.442 371.818C501.684 371.267 501.054 371.408 500.642 371.677C489.597 378.938 485.851 387.042 482.335 397.933C482.632 392.181 483.484 386.469 484.881 380.87C487.609 370.518 492.604 360.341 500.642 352.881C500.981 352.623 500.545 352.155 500.229 352.448Z" fill="#263238"/>
<path d="M503.49 354.51C506.521 354.721 508.242 359.475 510.558 360.939C510.798 361.143 511.081 361.297 511.386 361.389C511.692 361.48 512.015 361.509 512.333 361.473C512.65 361.436 512.957 361.335 513.232 361.177C513.507 361.018 513.744 360.806 513.928 360.553C516.353 357.473 513.334 353.456 510.4 351.184C512.522 352.121 514.256 353.702 516.571 354.217C516.867 354.323 517.182 354.366 517.496 354.344C517.811 354.321 518.116 354.234 518.392 354.087C518.668 353.94 518.908 353.738 519.096 353.494C519.284 353.249 519.415 352.969 519.481 352.671C520.693 348.408 515.153 346.277 511.322 346.043C513.237 344.872 518.705 341.663 515.929 339.883C513.152 338.103 506.678 342.729 504.569 344.263C501.477 346.499 497.755 349.884 497.477 353.561C497.101 357.824 501.065 355.33 503.49 354.51Z" fill="#ED7155"/>
<path opacity="0.1" d="M503.49 354.51C506.521 354.721 508.242 359.475 510.558 360.939C510.798 361.143 511.081 361.297 511.386 361.389C511.692 361.48 512.015 361.509 512.333 361.473C512.65 361.436 512.957 361.335 513.232 361.177C513.507 361.018 513.744 360.806 513.928 360.553C516.353 357.473 513.334 353.456 510.4 351.184C512.522 352.121 514.256 353.702 516.571 354.217C516.867 354.323 517.182 354.366 517.496 354.344C517.811 354.321 518.116 354.234 518.392 354.087C518.668 353.94 518.908 353.738 519.096 353.494C519.284 353.249 519.415 352.969 519.481 352.671C520.693 348.408 515.153 346.277 511.322 346.043C513.237 344.872 518.705 341.663 515.929 339.883C513.152 338.103 506.678 342.729 504.569 344.263C501.477 346.499 497.755 349.884 497.477 353.561C497.101 357.824 501.065 355.33 503.49 354.51Z" fill="black"/>
<path d="M502.558 355.2C506.51 353.642 513.869 356.371 514.56 354.977C515.967 352.131 510.087 349.93 506.874 349.426C509.868 348.759 515.603 347.728 515.53 344.964C515.457 341.591 506.85 344.18 502.425 347.201C496.848 351.019 496.726 354.883 497.575 355.691C498.775 356.804 501.915 355.457 502.558 355.2Z" fill="#ED7155"/>
<path d="M481.51 394.817C480.266 403.397 478.366 411.876 475.824 420.183C475.807 420.265 475.774 420.342 475.726 420.411C475.678 420.481 475.617 420.54 475.545 420.586C475.474 420.632 475.394 420.665 475.309 420.681C475.225 420.697 475.138 420.697 475.054 420.681C474.969 420.665 474.889 420.633 474.817 420.587C474.746 420.541 474.684 420.481 474.637 420.412C474.589 420.343 474.555 420.266 474.539 420.184C474.522 420.103 474.522 420.019 474.538 419.937C475.751 412.114 477.933 404.444 479.133 396.621C480.449 388.713 480.921 380.696 480.54 372.695C479.776 359.52 476.066 345.514 467.204 335.22C467.01 334.986 467.422 334.635 467.628 334.857C485.438 354.93 482.613 379.535 482.589 381.701C485.11 373.398 487.717 363.877 497.258 355.41C497.67 355.047 497.986 355.223 497.925 355.843C496.215 371.255 491.778 379.265 482.528 387.533C482.237 389.981 481.91 392.417 481.51 394.817Z" fill="#263238"/>
<path d="M467.011 337.505C463.81 336.123 459.385 340.07 456.209 340.339C455.849 340.421 455.475 340.428 455.112 340.361C454.749 340.294 454.405 340.153 454.101 339.949C453.798 339.744 453.543 339.481 453.353 339.174C453.162 338.868 453.041 338.527 452.996 338.173C452.208 333.758 457.591 331.263 461.87 330.478C459.167 330.314 456.524 331.005 453.881 330.314C453.522 330.269 453.177 330.149 452.87 329.963C452.564 329.778 452.302 329.53 452.103 329.238C451.904 328.946 451.772 328.616 451.717 328.27C451.662 327.924 451.685 327.571 451.783 327.235C452.996 322.257 459.773 322.983 463.81 324.763C462.525 322.562 458.755 316.425 462.598 316.074C466.441 315.723 470.43 323.827 471.715 326.485C473.606 330.385 475.485 335.772 473.703 339.66C471.63 344.215 468.963 339.578 467.011 337.505Z" fill="#ED7155"/>
<path opacity="0.1" d="M467.011 337.505C463.81 336.123 459.385 340.07 456.209 340.339C455.849 340.421 455.475 340.428 455.112 340.361C454.749 340.294 454.405 340.153 454.101 339.949C453.798 339.744 453.543 339.481 453.353 339.174C453.162 338.868 453.041 338.527 452.996 338.173C452.208 333.758 457.591 331.263 461.87 330.478C459.167 330.314 456.524 331.005 453.881 330.314C453.522 330.269 453.177 330.149 452.87 329.963C452.564 329.778 452.302 329.53 452.103 329.238C451.904 328.946 451.772 328.616 451.717 328.27C451.662 327.924 451.685 327.571 451.783 327.235C452.996 322.257 459.773 322.983 463.81 324.763C462.525 322.562 458.755 316.425 462.598 316.074C466.441 315.723 470.43 323.827 471.715 326.485C473.606 330.385 475.485 335.772 473.703 339.66C471.63 344.215 468.963 339.578 467.011 337.505Z" fill="black"/>
<path d="M467.545 338.676C464.405 335.022 455.421 333.933 455.421 332.153C455.591 328.534 462.817 329.366 466.333 330.537C463.666 328.288 458.416 324.248 460.028 321.461C462.017 318.065 469.315 325.208 472.152 330.607C475.68 337.411 473.619 341.416 472.285 341.779C470.491 342.306 468.066 339.297 467.545 338.676Z" fill="#ED7155"/>
<path d="M493.221 399.457L501.065 457.449H453.274C454.256 452.308 463.154 399.386 463.154 399.386L493.221 399.457Z" fill="#ED7155"/>
<path d="M418.213 0.580841H209.311C206.509 0.604841 203.74 1.16284 201.162 2.22084C198.583 3.27984 196.246 4.81884 194.284 6.75084C192.321 8.68184 190.772 10.9678 189.725 13.4778C188.677 15.9878 188.152 18.6728 188.179 21.3788V436.779C188.131 442.243 190.329 447.502 194.291 451.401C198.253 455.301 203.655 457.522 209.311 457.578H418.213C423.872 457.525 429.279 455.306 433.245 451.406C437.212 447.507 439.414 442.246 439.369 436.779V21.3788C439.394 18.6718 438.867 15.9858 437.818 13.4748C436.768 10.9638 435.217 8.67683 433.252 6.74583C431.288 4.81383 428.948 3.27583 426.368 2.21783C423.787 1.15983 421.016 0.603841 418.213 0.580841ZM426.154 423.932C426.154 434.87 417.667 443.712 407.217 443.712H220.331C209.856 443.712 201.37 434.87 201.37 423.932V37.1188C201.37 14.8678 209.856 13.6968 220.331 13.6968H257.769C259.951 13.6968 261.733 16.0388 261.733 19.0488V20.3258C261.733 27.2578 265.661 27.2818 270.475 27.2818H357.049C361.899 27.2818 365.827 27.2818 365.827 20.3258V19.1078C365.827 16.1448 367.585 13.7558 369.791 13.7558H407.217C417.68 13.7558 426.154 16.7188 426.154 37.1778V423.932Z" fill="#263238"/>
<path d="M426.167 37.1199V423.933C426.167 434.871 417.681 443.713 407.23 443.713H220.345C209.87 443.713 201.383 434.871 201.383 423.933V37.1199C201.383 14.8689 209.87 13.6978 220.345 13.6978H257.782C259.965 13.6978 261.747 16.0399 261.747 19.0499V20.3269C261.747 27.2589 265.675 27.2829 270.488 27.2829H357.063C361.912 27.2829 365.84 27.2829 365.84 20.3269V19.1089C365.84 16.1459 367.598 13.7569 369.805 13.7569H407.23C417.693 13.7569 426.167 16.7199 426.167 37.1199Z" fill="white"/>
<path d="M426.167 37.1299V72.2628H201.383V37.1299C201.383 14.8789 209.87 13.7079 220.345 13.7079H257.782C259.965 13.7079 261.747 16.0498 261.747 19.0598V20.3358C261.747 27.2688 265.675 27.2928 270.488 27.2928H357.063C361.912 27.2928 365.84 27.2928 365.84 20.3358V19.1178C365.84 16.1558 367.598 13.7668 369.805 13.7668H407.23C417.693 13.7668 426.167 16.7289 426.167 37.1299Z" fill="#ED7155"/>
<path d="M325.576 18.3459H301.959C301.572 18.3429 301.202 18.1918 300.93 17.9268C300.657 17.6608 300.504 17.3028 300.504 16.9288C300.504 16.7438 300.542 16.5609 300.615 16.3909C300.688 16.2199 300.795 16.0658 300.93 15.9348C301.066 15.8048 301.226 15.7009 301.402 15.6299C301.579 15.5599 301.768 15.5229 301.959 15.5229H325.576C325.767 15.5229 325.956 15.5599 326.133 15.6299C326.309 15.7009 326.47 15.8048 326.605 15.9348C326.74 16.0658 326.847 16.2199 326.92 16.3909C326.993 16.5609 327.031 16.7438 327.031 16.9288C327.032 17.1138 326.996 17.2978 326.924 17.4698C326.851 17.6418 326.744 17.7979 326.609 17.9299C326.474 18.0619 326.313 18.1659 326.136 18.2379C325.958 18.3089 325.768 18.3459 325.576 18.3459Z" fill="white"/>
<path d="M235.546 46.8388H216.039V58.7838H235.546V46.8388Z" fill="white"/>
<path d="M235.559 46.8388C234.771 47.5648 233.97 48.2678 233.134 48.9818L230.709 51.0778L228.284 53.2328L228.212 53.3038L225.86 55.1888L225.751 55.2708L225.642 55.1888L223.435 53.2918H223.362C222.514 52.5768 221.665 51.8628 220.828 51.1368L218.404 49.0408C217.616 48.3258 216.816 47.6238 215.979 46.8978C216.816 47.5298 217.64 48.1738 218.404 48.8178C219.168 49.4618 220.053 50.1178 220.828 50.7858C221.604 51.4528 222.659 52.2608 223.568 53.0108L225.605 54.6968L227.654 53.0108L230.382 50.7858L232.807 48.8298L235.559 46.8388Z" fill="#ED7155"/>
<path d="M223.764 53.2209L223.448 53.4669C222.964 53.8649 222.454 54.2508 221.945 54.6378C221.436 55.0238 220.733 55.5278 220.054 55.9608C219.375 56.3938 218.769 56.8158 218.114 57.2258C217.459 57.6358 216.78 58.0339 216.102 58.3969C216.683 57.8929 217.314 57.4248 217.92 56.9678C218.526 56.5108 219.132 56.0779 219.824 55.6449C220.515 55.2109 221.109 54.7899 221.763 54.3799C222.418 53.9699 222.83 53.7358 223.376 53.4308C223.497 53.3578 223.622 53.2919 223.752 53.2319L223.764 53.2209Z" fill="#ED7155"/>
<path d="M235.559 58.4088C234.868 58.0458 234.201 57.6479 233.546 57.2379C232.892 56.8279 232.237 56.4059 231.594 55.9729C230.952 55.5399 230.321 55.1059 229.703 54.6499C229.085 54.1929 228.697 53.8999 228.212 53.4789L227.897 53.2328L228.272 53.4429C228.822 53.7479 229.355 54.0638 229.873 54.3918C230.54 54.8018 231.182 55.2238 231.825 55.6568C232.467 56.0898 233.098 56.5229 233.716 56.9799C234.334 57.4369 234.904 57.9048 235.559 58.4088Z" fill="#ED7155"/>
<path d="M239.73 46.8378C239.73 47.6378 239.484 48.4198 239.024 49.0838C238.564 49.7488 237.91 50.2668 237.145 50.5718C236.38 50.8778 235.538 50.9568 234.727 50.7998C233.915 50.6428 233.17 50.2568 232.585 49.6908C232.001 49.1248 231.604 48.4038 231.444 47.6188C231.283 46.8348 231.368 46.0218 231.686 45.2838C232.005 44.5458 232.543 43.9158 233.232 43.4728C233.922 43.0308 234.732 42.7958 235.559 42.7978C236.667 42.8008 237.727 43.2278 238.509 43.9858C239.291 44.7428 239.73 45.7688 239.73 46.8378Z" fill="#455A64"/>
<path d="M236.928 47.6458C236.925 47.7298 236.888 47.8109 236.825 47.8699C236.761 47.9289 236.677 47.9619 236.589 47.9619V48.4068C236.574 48.4818 236.533 48.5489 236.472 48.5979C236.411 48.6459 236.334 48.6729 236.256 48.6729C236.177 48.6729 236.1 48.6459 236.039 48.5979C235.978 48.5489 235.937 48.4818 235.922 48.4068V47.9619H234.031C233.993 47.9649 233.956 47.9598 233.92 47.9478C233.884 47.9358 233.852 47.9169 233.825 47.8909C233.793 47.8629 233.768 47.8289 233.751 47.7899C233.734 47.7519 233.725 47.7109 233.725 47.6689C233.725 47.6269 233.734 47.5859 233.751 47.5479C233.768 47.5089 233.793 47.4748 233.825 47.4458L235.934 44.7299H236.031H236.225V47.0719C236.304 46.9819 236.417 46.9248 236.538 46.9158C236.66 46.9058 236.781 46.9428 236.874 47.0188C236.967 47.0948 237.025 47.2038 237.035 47.3208C237.046 47.4388 237.007 47.5548 236.928 47.6458ZM235.862 45.8889L234.649 47.3289H235.862V45.8889Z" fill="white"/>
<path d="M251.319 22.1048L250.955 22.4558L250.749 22.6548C249.824 21.7638 248.571 21.2628 247.264 21.2628C245.957 21.2628 244.703 21.7638 243.778 22.6548L243.584 22.4558C243.463 22.3388 243.342 22.2338 243.233 22.1168L243.693 21.7188C244.016 21.4618 244.37 21.2458 244.748 21.0738C245.192 20.8578 245.665 20.7038 246.154 20.6178C246.385 20.6178 246.615 20.6178 246.845 20.5238H247.464H247.937C248.377 20.5708 248.809 20.6738 249.222 20.8278C249.523 20.9328 249.815 21.0628 250.095 21.2148C250.388 21.3808 250.668 21.5688 250.931 21.7768L251.307 22.1168L251.319 22.1048Z" fill="white"/>
<path d="M244.919 23.7568L244.349 23.2058C244.962 22.5738 245.778 22.1618 246.665 22.0348C247.303 21.9488 247.953 22.0098 248.563 22.2128C249.172 22.4168 249.722 22.7568 250.168 23.2058L249.599 23.7568C248.976 23.1608 248.135 22.8288 247.259 22.8318C246.825 22.8278 246.394 22.9078 245.993 23.0668C245.591 23.2258 245.226 23.4598 244.919 23.7568Z" fill="white"/>
<path d="M249.027 24.3058C248.833 24.4818 248.639 24.6688 248.457 24.8568C248.299 24.7018 248.11 24.5788 247.902 24.4958C247.694 24.4138 247.47 24.3728 247.245 24.3768C247.019 24.3718 246.795 24.4118 246.587 24.4938C246.378 24.5768 246.189 24.6998 246.032 24.8568L245.463 24.3058C245.695 24.0778 245.972 23.8958 246.278 23.7718C246.584 23.6478 246.913 23.5838 247.245 23.5838C247.577 23.5838 247.905 23.6478 248.211 23.7718C248.517 23.8958 248.794 24.0778 249.027 24.3058Z" fill="white"/>
<path d="M247.766 25.3488C247.768 25.4498 247.74 25.5489 247.683 25.6329C247.627 25.7179 247.546 25.7838 247.45 25.8238C247.354 25.8628 247.248 25.8739 247.146 25.8549C247.044 25.8359 246.95 25.7879 246.876 25.7169C246.803 25.6459 246.753 25.5548 246.733 25.4558C246.713 25.3568 246.725 25.2549 246.766 25.1629C246.806 25.0699 246.875 24.9918 246.963 24.9368C247.05 24.8828 247.153 24.8549 247.257 24.8569C247.392 24.8569 247.521 24.9088 247.617 25.0008C247.712 25.0938 247.766 25.2188 247.766 25.3488Z" fill="white"/>
<path d="M216.039 23.1609C216.039 22.8759 216.127 22.5969 216.291 22.3599C216.454 22.1229 216.687 21.9389 216.96 21.8299C217.232 21.7209 217.532 21.6919 217.821 21.7479C218.111 21.8029 218.376 21.9409 218.585 22.1419C218.793 22.3429 218.935 22.5999 218.993 22.8799C219.05 23.1589 219.021 23.4489 218.908 23.7119C218.795 23.9749 218.604 24.1999 218.359 24.3579C218.114 24.5169 217.825 24.6008 217.53 24.6008C217.335 24.6008 217.141 24.5638 216.96 24.4908C216.779 24.4188 216.614 24.3129 216.476 24.1789C216.337 24.0449 216.228 23.8869 216.153 23.7119C216.078 23.5369 216.039 23.3499 216.039 23.1609Z" fill="white"/>
<path d="M220.731 23.1609C220.731 22.8759 220.818 22.5969 220.982 22.3599C221.146 22.1229 221.379 21.9389 221.651 21.8299C221.924 21.7209 222.224 21.6919 222.513 21.7479C222.802 21.8029 223.068 21.9409 223.277 22.1419C223.485 22.3429 223.627 22.5999 223.685 22.8799C223.742 23.1589 223.713 23.4489 223.6 23.7119C223.487 23.9749 223.296 24.1999 223.051 24.3579C222.805 24.5169 222.517 24.6008 222.222 24.6008C221.827 24.6008 221.447 24.4489 221.168 24.1789C220.888 23.9089 220.731 23.5429 220.731 23.1609Z" fill="white"/>
<path d="M225.423 23.1609C225.423 22.8759 225.51 22.5969 225.674 22.3599C225.838 22.1229 226.071 21.9389 226.343 21.8299C226.616 21.7209 226.916 21.6919 227.205 21.7479C227.494 21.8029 227.76 21.9409 227.968 22.1419C228.177 22.3429 228.319 22.5999 228.376 22.8799C228.434 23.1589 228.404 23.4489 228.292 23.7119C228.179 23.9749 227.988 24.1999 227.742 24.3579C227.497 24.5169 227.209 24.6008 226.914 24.6008C226.518 24.6008 226.139 24.4489 225.859 24.1789C225.58 23.9089 225.423 23.5429 225.423 23.1609Z" fill="white"/>
<path d="M230.117 23.1609C230.117 22.8759 230.204 22.5969 230.368 22.3599C230.532 22.1229 230.765 21.9389 231.037 21.8299C231.31 21.7209 231.61 21.6919 231.899 21.7479C232.188 21.8029 232.454 21.9409 232.662 22.1419C232.871 22.3429 233.013 22.5999 233.07 22.8799C233.128 23.1589 233.098 23.4489 232.986 23.7119C232.873 23.9749 232.682 24.1999 232.436 24.3579C232.191 24.5169 231.903 24.6008 231.608 24.6008C231.412 24.6008 231.218 24.5638 231.037 24.4908C230.856 24.4188 230.692 24.3129 230.553 24.1789C230.415 24.0449 230.305 23.8869 230.23 23.7119C230.155 23.5369 230.117 23.3499 230.117 23.1609Z" fill="white"/>
<path d="M234.806 23.1609C234.806 22.8759 234.894 22.5969 235.058 22.3599C235.221 22.1229 235.454 21.9389 235.727 21.8299C235.999 21.7209 236.299 21.6919 236.588 21.7479C236.878 21.8029 237.143 21.9409 237.352 22.1419C237.56 22.3429 237.702 22.5999 237.76 22.8799C237.818 23.1589 237.788 23.4489 237.675 23.7119C237.562 23.9749 237.371 24.1999 237.126 24.3579C236.881 24.5169 236.592 24.6008 236.297 24.6008C236.102 24.6008 235.908 24.5638 235.727 24.4908C235.546 24.4188 235.381 24.3129 235.243 24.1789C235.105 24.0449 234.995 23.8869 234.92 23.7119C234.845 23.5369 234.806 23.3499 234.806 23.1609Z" fill="white"/>
<path d="M409.29 26.3098H397.166V20.8759H409.29V26.3098ZM397.784 25.7119H408.695V21.4729H397.784V25.7119Z" fill="white"/>
<path d="M405.993 21.8018H398.173V25.3858H405.993V21.8018Z" fill="white"/>
<path d="M410.381 22.1408H409.302V25.0448H410.381V22.1408Z" fill="white"/>
<path d="M294.43 49.1568C294.429 49.0648 294.446 48.9718 294.482 48.8858C294.518 48.8008 294.572 48.7218 294.64 48.6568C294.708 48.5908 294.788 48.5398 294.877 48.5048C294.966 48.4698 295.062 48.4528 295.158 48.4548C295.254 48.4528 295.35 48.4698 295.44 48.5048C295.529 48.5388 295.611 48.5908 295.68 48.6558C295.749 48.7218 295.803 48.7998 295.841 48.8858C295.878 48.9718 295.897 49.0638 295.897 49.1568V56.6638C295.897 56.7568 295.878 56.8498 295.841 56.9358C295.803 57.0218 295.749 57.0998 295.68 57.1648C295.611 57.2298 295.529 57.2818 295.44 57.3168C295.35 57.3508 295.254 57.3678 295.158 57.3668C295.062 57.3678 294.966 57.3508 294.877 57.3158C294.788 57.2818 294.708 57.2298 294.64 57.1638C294.572 57.0988 294.518 57.0208 294.482 56.9348C294.446 56.8488 294.429 56.7568 294.43 56.6638V49.1568Z" fill="white"/>
<path d="M299.814 56.6638C299.814 56.8478 299.739 57.0248 299.605 57.1568C299.471 57.2878 299.29 57.3638 299.099 57.3668C299.004 57.3668 298.91 57.3488 298.822 57.3128C298.735 57.2778 298.655 57.2258 298.589 57.1598C298.522 57.0948 298.47 57.0169 298.434 56.9319C298.399 56.8469 298.382 56.7558 298.383 56.6638V49.2628C298.375 49.1498 298.396 49.0378 298.445 48.9348C298.494 48.8328 298.568 48.7438 298.662 48.6768C298.818 48.5728 299.01 48.5309 299.197 48.5589C299.384 48.5879 299.553 48.6839 299.669 48.8289L303.924 54.5208V49.2628C303.927 49.0818 304.004 48.9088 304.138 48.7818C304.271 48.6548 304.452 48.5838 304.639 48.5838C304.828 48.5828 305.009 48.6539 305.145 48.7809C305.281 48.9079 305.36 49.0808 305.367 49.2628V56.6638C305.367 56.8498 305.29 57.0289 305.154 57.1609C305.017 57.2929 304.832 57.3668 304.639 57.3668C304.535 57.3638 304.432 57.3388 304.338 57.2948C304.244 57.2498 304.16 57.1869 304.094 57.1089V57.0388L299.814 51.3818V56.6638Z" fill="white"/>
<path d="M308.531 56.6648V49.1578C308.531 48.9718 308.607 48.7928 308.744 48.6608C308.88 48.5298 309.065 48.4558 309.258 48.4558H311.125C311.789 48.4558 312.425 48.7088 312.895 49.1608C313.366 49.6138 313.631 50.2268 313.635 50.8678C313.638 51.3938 313.459 51.9048 313.125 52.3198C313.647 52.6328 314.049 53.0998 314.27 53.6528C314.492 54.2048 314.522 54.8118 314.354 55.3818C314.187 55.9518 313.833 56.4538 313.344 56.8118C312.856 57.1708 312.26 57.3658 311.646 57.3678H309.307C309.207 57.3738 309.107 57.3608 309.013 57.3278C308.919 57.2958 308.833 57.2448 308.761 57.1788C308.688 57.1128 308.63 57.0338 308.59 56.9448C308.551 56.8568 308.53 56.7608 308.531 56.6648ZM309.998 51.9098H311.125C311.406 51.9038 311.673 51.7908 311.868 51.5958C312.063 51.4008 312.171 51.1388 312.168 50.8678C312.168 50.7358 312.141 50.6058 312.088 50.4838C312.036 50.3628 311.959 50.2528 311.862 50.1598C311.765 50.0668 311.65 49.9938 311.523 49.9448C311.397 49.8958 311.261 49.8708 311.125 49.8728H309.998V51.9098ZM309.998 55.9508H311.646C311.986 55.9198 312.301 55.7668 312.531 55.5238C312.76 55.2798 312.888 54.9628 312.888 54.6328C312.888 54.3038 312.76 53.9858 312.531 53.7418C312.301 53.4988 311.986 53.3468 311.646 53.3158H309.998V55.9508Z" fill="white"/>
<path d="M323.637 49.5558C324.493 50.4268 324.971 51.5818 324.971 52.7828C324.971 53.9828 324.493 55.1378 323.637 56.0088C323.236 56.4318 322.749 56.7698 322.207 57.0038C321.665 57.2378 321.079 57.3608 320.485 57.3668C319.88 57.3628 319.283 57.2408 318.728 57.0068C318.174 56.7738 317.675 56.4338 317.26 56.0088C316.417 55.1318 315.949 53.9788 315.949 52.7828C315.949 51.5858 316.417 50.4328 317.26 49.5558C317.677 49.1368 318.178 48.8048 318.733 48.5788C319.287 48.3538 319.883 48.2398 320.485 48.2448C321.075 48.2428 321.66 48.3578 322.202 48.5838C322.744 48.8088 323.233 49.1398 323.637 49.5558ZM323.467 52.7768C323.467 51.9528 323.147 51.1588 322.57 50.5518C322.307 50.2688 321.986 50.0418 321.627 49.8868C321.267 49.7318 320.878 49.6508 320.485 49.6498C320.084 49.6478 319.687 49.7268 319.319 49.8828C318.952 50.0378 318.622 50.2658 318.351 50.5518C317.774 51.1588 317.454 51.9528 317.454 52.7768C317.449 53.6018 317.77 54.3968 318.351 55.0018C318.621 55.2888 318.951 55.5188 319.318 55.6758C319.686 55.8338 320.083 55.9148 320.485 55.9148C320.879 55.9118 321.269 55.8288 321.628 55.6718C321.987 55.5148 322.308 55.2858 322.57 55.0018C323.151 54.3968 323.472 53.6018 323.467 52.7768Z" fill="white"/>
<path d="M333.517 49.6608L331.008 52.9288L333.517 56.2308C333.628 56.3808 333.674 56.5658 333.644 56.7478C333.615 56.9298 333.513 57.0928 333.36 57.2028C333.238 57.2928 333.089 57.3418 332.935 57.3438C332.82 57.3408 332.707 57.3128 332.604 57.2618C332.501 57.2108 332.412 57.1388 332.341 57.0508L330.123 54.0998L327.892 57.0388C327.823 57.1258 327.735 57.1968 327.635 57.2478C327.534 57.2978 327.423 57.3268 327.31 57.3318C327.156 57.3338 327.006 57.2838 326.886 57.1908C326.731 57.0828 326.627 56.9208 326.595 56.7388C326.563 56.5568 326.607 56.3708 326.716 56.2188L329.226 52.9168L326.716 49.6258C326.607 49.4768 326.564 49.2918 326.596 49.1118C326.628 48.9318 326.732 48.7718 326.886 48.6658C326.96 48.6058 327.046 48.5628 327.139 48.5378C327.232 48.5128 327.329 48.5078 327.424 48.5228C327.52 48.5368 327.611 48.5708 327.691 48.6218C327.772 48.6728 327.84 48.7398 327.892 48.8178L330.123 51.7578L332.329 48.8298C332.382 48.7508 332.452 48.6838 332.534 48.6328C332.615 48.5818 332.707 48.5478 332.803 48.5338C332.899 48.5188 332.998 48.5248 333.091 48.5488C333.185 48.5738 333.273 48.6178 333.348 48.6778C333.427 48.7298 333.495 48.7978 333.547 48.8758C333.599 48.9548 333.634 49.0428 333.65 49.1338C333.666 49.2258 333.662 49.3198 333.639 49.4108C333.617 49.5008 333.575 49.5868 333.517 49.6608Z" fill="white"/>
<path d="M395.203 57.2948L393.675 58.4668L390.85 54.8598L389.82 53.5358C390.031 53.4558 390.231 53.3498 390.414 53.2198C390.756 52.9618 391.023 52.6228 391.19 52.2358L392.293 53.6298L395.203 57.2948Z" fill="white"/>
<path d="M392.195 48.7948C391.71 48.1858 391.055 47.7228 390.307 47.4608C389.559 47.1988 388.749 47.1489 387.973 47.3179C387.197 47.4859 386.486 47.8649 385.926 48.4109C385.366 48.9559 384.978 49.6448 384.81 50.3958C384.642 51.1468 384.7 51.9289 384.976 52.6499C385.253 53.3699 385.738 53.9988 386.372 54.4628C387.007 54.9258 387.766 55.2039 388.559 55.2639C389.352 55.3249 390.147 55.1649 390.849 54.8029C391.054 54.6999 391.249 54.5788 391.431 54.4398C391.765 54.1988 392.056 53.9058 392.292 53.5728C392.805 52.8708 393.073 52.0289 393.056 51.1689C393.038 50.3089 392.737 49.4768 392.195 48.7948ZM390.412 53.1629C390.229 53.2929 390.03 53.3999 389.818 53.4799C389.285 53.6849 388.695 53.7058 388.147 53.5388C387.6 53.3718 387.129 53.0258 386.815 52.5618C386.502 52.0968 386.364 51.5418 386.426 50.9908C386.488 50.4398 386.746 49.9258 387.155 49.5368C387.565 49.1488 388.101 48.9089 388.673 48.8589C389.245 48.8089 389.817 48.9518 390.292 49.2628C390.767 49.5738 391.116 50.0348 391.279 50.5668C391.443 51.0978 391.411 51.6679 391.188 52.1799C391.022 52.5669 390.754 52.9049 390.412 53.1629Z" fill="white"/>
<path d="M374.472 47.4588H363.391V58.1628H374.472V47.4588Z" fill="white"/>
<path d="M369.538 49.4508H368.325V56.1848H369.538V49.4508Z" fill="#ED7155"/>
<path d="M365.44 52.2268V53.3978H372.411V52.2268H365.44Z" fill="#ED7155"/>
<path d="M409.291 48.1499C409.291 48.3329 409.235 48.5118 409.129 48.6638C409.024 48.8168 408.875 48.9349 408.7 49.0049C408.525 49.0749 408.332 49.0928 408.146 49.0578C407.96 49.0218 407.79 48.9339 407.656 48.8049C407.522 48.6749 407.431 48.5099 407.394 48.3309C407.357 48.1509 407.376 47.9649 407.448 47.7959C407.521 47.6269 407.643 47.4828 407.801 47.3808C407.958 47.2788 408.144 47.2249 408.333 47.2249C408.459 47.2249 408.583 47.2489 408.7 47.2959C408.816 47.3419 408.921 47.4098 409.01 47.4958C409.099 47.5818 409.17 47.6839 409.218 47.7959C409.266 47.9089 409.291 48.0289 409.291 48.1499Z" fill="white"/>
<path d="M409.291 52.9299C409.291 53.1749 409.19 53.4098 409.01 53.5838C408.831 53.7568 408.587 53.8549 408.333 53.8549C408.079 53.8549 407.835 53.7568 407.656 53.5838C407.476 53.4098 407.375 53.1749 407.375 52.9299C407.375 52.8079 407.4 52.6879 407.448 52.5759C407.496 52.4629 407.567 52.3609 407.656 52.2749C407.745 52.1899 407.85 52.1208 407.966 52.0748C408.083 52.0278 408.207 52.0038 408.333 52.0038C408.459 52.0038 408.583 52.0278 408.7 52.0748C408.816 52.1208 408.921 52.1899 409.01 52.2749C409.099 52.3609 409.17 52.4629 409.218 52.5759C409.266 52.6879 409.291 52.8079 409.291 52.9299Z" fill="white"/>
<path d="M409.291 57.7538C409.291 57.8748 409.266 57.9958 409.218 58.1078C409.17 58.2198 409.099 58.3219 409.01 58.4079C408.921 58.4939 408.816 58.5618 408.7 58.6078C408.583 58.6548 408.459 58.6788 408.333 58.6788C408.207 58.6788 408.083 58.6548 407.966 58.6078C407.85 58.5618 407.745 58.4939 407.656 58.4079C407.567 58.3219 407.496 58.2198 407.448 58.1078C407.4 57.9958 407.375 57.8748 407.375 57.7538C407.375 57.5078 407.476 57.2729 407.656 57.0999C407.835 56.9259 408.079 56.8289 408.333 56.8289C408.587 56.8289 408.831 56.9259 409.01 57.0999C409.19 57.2729 409.291 57.5078 409.291 57.7538Z" fill="white"/>
<path d="M426.155 72.2159H201.383V105.745H426.155V72.2159Z" fill="#F4F4F4"/>
<path d="M237.983 95.4618C237.279 95.8818 236.51 96.1898 235.704 96.3748C233.782 96.8208 231.757 96.5498 230.033 95.6178C228.308 94.6848 227.011 93.1588 226.4 91.3428C225.788 89.5268 225.908 87.5558 226.735 85.8218C227.561 84.0878 229.034 82.7178 230.86 81.9868C232.685 81.2548 234.729 81.2148 236.584 81.8738C238.439 82.5338 239.968 83.8448 240.867 85.5448C241.766 87.2448 241.968 89.2098 241.434 91.0478C240.899 92.8858 239.667 94.4618 237.983 95.4618Z" fill="#ED7155"/>
<path d="M236.177 88.0608C236.177 88.5238 236.035 88.9768 235.768 89.3618C235.502 89.7468 235.123 90.0468 234.68 90.2248C234.237 90.4018 233.749 90.4478 233.279 90.3578C232.809 90.2678 232.377 90.0448 232.038 89.7168C231.698 89.3888 231.468 88.9718 231.374 88.5178C231.28 88.0628 231.328 87.5918 231.512 87.1638C231.695 86.7358 232.006 86.3708 232.405 86.1128C232.804 85.8558 233.273 85.7188 233.752 85.7188C234.395 85.7188 235.012 85.9648 235.467 86.4048C235.921 86.8438 236.177 87.4398 236.177 88.0608Z" fill="white"/>
<path d="M237.983 94.5018V95.4619C237.279 95.8829 236.509 96.1909 235.704 96.3759C234.682 96.6229 233.618 96.6689 232.577 96.5119C231.536 96.3549 230.538 95.9979 229.642 95.4619V94.5018C229.642 93.4398 230.079 92.4208 230.856 91.6698C231.634 90.9188 232.689 90.4969 233.788 90.4969C234.888 90.4969 235.943 90.9188 236.72 91.6698C237.498 92.4208 237.935 93.4398 237.935 94.5018H237.983Z" fill="white"/>
<path d="M283.277 94.0228H272.85L277.106 88.9868L272.85 83.9508H283.277L287.532 88.9868L283.277 94.0228Z" fill="white"/>
<path d="M256.484 83.9508L258.182 87.2648L261.964 87.7918L259.224 90.3808L259.879 94.0228L256.484 92.3008L253.102 94.0228L253.744 90.3808L251.004 87.7918L254.787 87.2648L256.484 83.9508Z" fill="#ED7155"/>
<path d="M356.527 86.9378H295.012V91.0368H356.527V86.9378Z" fill="#263238"/>
<path d="M405.994 86.9378H381.88V91.0368H405.994V86.9378Z" fill="#455A64"/>
<path d="M237.983 129.05C237.279 129.47 236.51 129.779 235.704 129.964C233.782 130.409 231.757 130.139 230.033 129.206C228.308 128.273 227.011 126.747 226.4 124.931C225.788 123.116 225.908 121.144 226.735 119.41C227.561 117.676 229.034 116.307 230.86 115.575C232.685 114.843 234.729 114.803 236.584 115.463C238.439 116.122 239.968 117.433 240.867 119.133C241.766 120.834 241.968 122.799 241.434 124.637C240.899 126.475 239.667 128.051 237.983 129.05Z" fill="#455A64"/>
<path d="M236.177 121.648C236.177 122.111 236.035 122.564 235.768 122.949C235.502 123.334 235.123 123.635 234.68 123.812C234.237 123.989 233.749 124.036 233.279 123.945C232.809 123.855 232.377 123.632 232.038 123.304C231.698 122.977 231.468 122.559 231.374 122.105C231.28 121.651 231.328 121.18 231.512 120.752C231.695 120.324 232.006 119.958 232.405 119.701C232.804 119.443 233.273 119.306 233.752 119.306C234.395 119.306 235.012 119.553 235.467 119.992C235.921 120.431 236.177 121.027 236.177 121.648Z" fill="white"/>
<path d="M237.983 128.032V129.051C237.279 129.471 236.509 129.779 235.704 129.964C234.682 130.214 233.618 130.262 232.576 130.106C231.535 129.949 230.537 129.59 229.642 129.051V128.09C229.642 127.028 230.079 126.009 230.856 125.258C231.634 124.507 232.689 124.085 233.788 124.085C234.888 124.085 235.943 124.507 236.72 125.258C237.498 126.009 237.935 127.028 237.935 128.09L237.983 128.032Z" fill="white"/>
<path d="M283.277 127.552H272.85L277.106 122.516L272.85 117.48H283.277L287.532 122.516L283.277 127.552Z" fill="white"/>
<path d="M283.423 127.879H272.208L276.718 122.551L272.208 117.222H283.423L287.92 122.551L283.423 127.879ZM273.493 127.294H283.192L287.193 122.551L283.192 117.866H273.493L277.494 122.551L273.493 127.294Z" fill="#F4F4F4"/>
<path d="M256.484 117.48L258.182 120.795L261.964 121.322L259.224 123.91L259.879 127.552L256.484 125.83L253.102 127.552L253.744 123.91L251.004 121.322L254.787 120.795L256.484 117.48Z" fill="#ED7155"/>
<path d="M356.527 120.466H295.012V124.565H356.527V120.466Z" fill="#263238"/>
<path d="M405.994 120.466H381.88V124.565H405.994V120.466Z" fill="#455A64"/>
<path d="M426.155 139.274H201.383V172.802H426.155V139.274Z" fill="#F4F4F4"/>
<path d="M237.983 162.519C237.276 162.939 236.508 163.251 235.703 163.445C233.772 163.903 231.732 163.641 229.992 162.71C228.251 161.78 226.938 160.25 226.313 158.426C225.689 156.602 225.8 154.617 226.623 152.868C227.447 151.119 228.922 149.734 230.756 148.99C232.59 148.246 234.647 148.196 236.517 148.852C238.386 149.508 239.931 150.821 240.843 152.528C241.755 154.236 241.967 156.213 241.437 158.065C240.907 159.916 239.673 161.507 237.983 162.519Z" fill="#ED7155"/>
<path d="M236.177 155.176C236.177 155.639 236.035 156.092 235.768 156.477C235.502 156.863 235.123 157.163 234.68 157.34C234.237 157.517 233.749 157.564 233.279 157.473C232.809 157.383 232.377 157.16 232.038 156.832C231.698 156.505 231.468 156.087 231.374 155.633C231.28 155.179 231.328 154.708 231.512 154.28C231.695 153.852 232.006 153.486 232.405 153.229C232.804 152.971 233.273 152.834 233.752 152.834C234.395 152.834 235.012 153.081 235.467 153.52C235.921 153.959 236.177 154.555 236.177 155.176Z" fill="white"/>
<path d="M237.983 161.559V162.52C237.277 162.939 236.508 163.251 235.704 163.445C234.681 163.693 233.617 163.739 232.575 163.58C231.534 163.421 230.536 163.06 229.642 162.52V161.559C229.642 160.497 230.079 159.478 230.856 158.727C231.634 157.976 232.689 157.554 233.788 157.554C234.888 157.554 235.943 157.976 236.72 158.727C237.498 159.478 237.935 160.497 237.935 161.559H237.983Z" fill="white"/>
<path d="M283.277 161.08H272.85L277.106 156.044L272.85 151.009H283.277L287.532 156.044L283.277 161.08Z" fill="white"/>
<path d="M256.484 151.009L258.182 154.323L261.964 154.85L259.224 157.438L259.879 161.08L256.484 159.359L253.102 161.08L253.744 157.438L251.004 154.85L254.787 154.323L256.484 151.009Z" fill="white"/>
<path d="M356.527 153.994H295.012V158.093H356.527V153.994Z" fill="#4D4C4C"/>
<path d="M405.994 153.994H381.88V158.093H405.994V153.994Z" fill="#D51818"/>
<path d="M237.983 196.05C237.276 196.469 236.508 196.781 235.703 196.975C233.772 197.433 231.732 197.171 229.992 196.241C228.251 195.311 226.938 193.781 226.313 191.956C225.689 190.132 225.8 188.148 226.623 186.399C227.447 184.649 228.922 183.265 230.756 182.52C232.59 181.776 234.647 181.727 236.517 182.383C238.386 183.038 239.931 184.351 240.843 186.059C241.755 187.766 241.967 189.743 241.437 191.595C240.907 193.447 239.673 195.038 237.983 196.05Z" fill="#950404"/>
<path d="M236.177 188.705C236.177 189.169 236.035 189.622 235.768 190.007C235.502 190.392 235.123 190.692 234.68 190.869C234.237 191.047 233.749 191.093 233.279 191.003C232.809 190.912 232.377 190.689 232.038 190.362C231.698 190.034 231.468 189.617 231.374 189.162C231.28 188.708 231.328 188.237 231.512 187.809C231.695 187.381 232.006 187.015 232.405 186.758C232.804 186.501 233.273 186.363 233.752 186.363C234.395 186.363 235.012 186.61 235.467 187.049C235.921 187.488 236.177 188.084 236.177 188.705Z" fill="white"/>
<path d="M237.983 195.1V196.048C237.277 196.467 236.508 196.779 235.704 196.973C234.681 197.221 233.617 197.267 232.575 197.108C231.534 196.949 230.536 196.589 229.642 196.048V195.1C229.642 194.037 230.079 193.019 230.856 192.267C231.634 191.516 232.689 191.094 233.788 191.094C234.888 191.094 235.943 191.516 236.72 192.267C237.498 193.019 237.935 194.037 237.935 195.1H237.983Z" fill="white"/>
<path d="M283.277 194.608H272.85L277.106 189.573L272.85 184.537H283.277L287.532 189.573L283.277 194.608Z" fill="white"/>
<path d="M283.423 194.902H272.208L276.718 189.573L272.208 184.245H283.423L287.92 189.573L283.423 194.902ZM273.493 194.316H283.192L287.193 189.632L283.192 184.889H273.493L277.494 189.632L273.493 194.316Z" fill="#F4F4F4"/>
<path d="M256.484 184.537L258.182 187.851L261.964 188.39L259.224 190.966L259.879 194.608L256.484 192.887L253.102 194.608L253.744 190.966L251.004 188.39L254.787 187.851L256.484 184.537Z" fill="#ED7155"/>
<path d="M356.527 187.523H295.012V191.621H356.527V187.523Z" fill="#4D4C4C"/>
<path d="M405.994 187.523H381.88V191.621H405.994V187.523Z" fill="#D51818"/>
<path d="M426.155 206.342H201.383V239.871H426.155V206.342Z" fill="#F4F4F4"/>
<path d="M237.983 229.578C237.276 229.997 236.508 230.309 235.703 230.503C233.772 230.961 231.732 230.699 229.992 229.769C228.251 228.839 226.938 227.309 226.313 225.485C225.689 223.66 225.8 221.676 226.623 219.927C227.447 218.178 228.922 216.793 230.756 216.049C232.59 215.304 234.647 215.255 236.517 215.911C238.386 216.567 239.931 217.879 240.843 219.587C241.755 221.294 241.967 223.271 241.437 225.123C240.907 226.975 239.673 228.566 237.983 229.578Z" fill="#37474F"/>
<path d="M236.177 222.234C236.177 222.697 236.035 223.15 235.768 223.535C235.502 223.92 235.123 224.22 234.68 224.397C234.237 224.575 233.749 224.621 233.279 224.531C232.809 224.44 232.377 224.217 232.038 223.89C231.698 223.562 231.468 223.145 231.374 222.69C231.28 222.236 231.328 221.765 231.512 221.337C231.695 220.909 232.006 220.543 232.405 220.286C232.804 220.029 233.273 219.891 233.752 219.891C234.395 219.891 235.012 220.138 235.467 220.577C235.921 221.017 236.177 221.612 236.177 222.234Z" fill="white"/>
<path d="M237.983 228.594V229.542C237.277 229.962 236.508 230.274 235.704 230.468C234.681 230.715 233.617 230.761 232.575 230.602C231.534 230.443 230.536 230.083 229.642 229.542V228.594C229.642 227.532 230.079 226.513 230.856 225.762C231.634 225.011 232.689 224.589 233.788 224.589C234.888 224.589 235.943 225.011 236.72 225.762C237.498 226.513 237.935 227.532 237.935 228.594H237.983Z" fill="white"/>
<path d="M283.277 228.138H272.85L277.106 223.102L272.85 218.066H283.277L287.532 223.102L283.277 228.138Z" fill="white"/>
<path d="M256.484 218.066L258.182 221.38L261.964 221.919L259.224 224.496L259.879 228.138L256.484 226.416L253.102 228.138L253.744 224.496L251.004 221.919L254.787 221.38L256.484 218.066Z" fill="#ED7155"/>
<path d="M356.527 221.052H295.012V225.151H356.527V221.052Z" fill="#4D4C4C"/>
<path d="M405.994 221.052H381.88V225.151H405.994V221.052Z" fill="#D51818"/>
<path d="M426.166 407.513V423.909C426.216 427.298 425.378 430.644 423.728 433.636C422.079 436.627 419.673 439.167 416.734 441.019H210.826C207.886 439.168 205.48 436.628 203.83 433.636C202.181 430.645 201.343 427.298 201.394 423.909V407.513H426.166Z" fill="#F4F4F4"/>
<path d="M237.983 430.76C237.276 431.179 236.508 431.491 235.703 431.685C233.772 432.143 231.732 431.881 229.992 430.951C228.251 430.021 226.938 428.491 226.313 426.667C225.689 424.842 225.8 422.858 226.623 421.109C227.447 419.36 228.922 417.975 230.756 417.231C232.59 416.486 234.647 416.437 236.517 417.093C238.386 417.749 239.931 419.061 240.843 420.769C241.755 422.476 241.967 424.453 241.437 426.305C240.907 428.157 239.673 429.748 237.983 430.76Z" fill="#ED7155"/>
<path d="M236.177 423.418C236.177 423.881 236.035 424.334 235.768 424.719C235.502 425.104 235.123 425.405 234.68 425.582C234.237 425.759 233.749 425.806 233.279 425.715C232.809 425.625 232.377 425.402 232.038 425.074C231.698 424.747 231.468 424.329 231.374 423.875C231.28 423.421 231.328 422.95 231.512 422.522C231.695 422.094 232.006 421.728 232.405 421.471C232.804 421.213 233.273 421.076 233.752 421.076C234.395 421.076 235.012 421.323 235.467 421.762C235.921 422.201 236.177 422.797 236.177 423.418Z" fill="white"/>
<path d="M237.983 429.8V430.76C237.277 431.18 236.508 431.492 235.704 431.686C234.681 431.931 233.617 431.975 232.576 431.816C231.535 431.657 230.537 431.298 229.642 430.76V429.8C229.642 428.738 230.079 427.719 230.856 426.968C231.634 426.217 232.689 425.795 233.788 425.795C234.888 425.795 235.943 426.217 236.72 426.968C237.498 427.719 237.935 428.738 237.935 429.8H237.983Z" fill="white"/>
<path d="M283.277 429.319H272.85L277.106 424.283L272.85 419.247H283.277L287.532 424.283L283.277 429.319Z" fill="white"/>
<path d="M256.484 419.247L258.182 422.561L261.964 423.088L259.224 425.677L259.879 429.319L256.484 427.597L253.102 429.319L253.744 425.677L251.004 423.088L254.787 422.561L256.484 419.247Z" fill="#ED7155"/>
<path d="M356.527 422.234H295.012V426.333H356.527V422.234Z" fill="#4D4C4C"/>
<path d="M405.994 422.234H381.88V426.333H405.994V422.234Z" fill="#D51818"/>
<path d="M237.983 263.106C236.923 263.736 235.724 264.116 234.483 264.214C233.243 264.311 231.996 264.124 230.844 263.667C229.693 263.211 228.669 262.497 227.858 261.585C227.046 260.674 226.469 259.589 226.175 258.421C225.83 257.055 225.883 255.623 226.328 254.284C226.773 252.945 227.593 251.751 228.697 250.834C229.801 249.917 231.146 249.313 232.583 249.089C234.02 248.865 235.494 249.029 236.841 249.563C238.187 250.097 239.355 250.981 240.214 252.116C241.073 253.252 241.591 254.594 241.709 255.996C241.827 257.398 241.542 258.804 240.884 260.058C240.227 261.313 239.222 262.368 237.983 263.106Z" fill="#263238"/>
<path d="M236.177 255.763C236.177 256.226 236.035 256.679 235.768 257.064C235.502 257.449 235.123 257.749 234.68 257.927C234.237 258.104 233.749 258.15 233.279 258.06C232.809 257.97 232.377 257.747 232.038 257.419C231.698 257.091 231.468 256.674 231.374 256.22C231.28 255.765 231.328 255.295 231.512 254.867C231.695 254.439 232.006 254.073 232.405 253.815C232.804 253.558 233.273 253.421 233.752 253.421C234.395 253.421 235.012 253.667 235.467 254.107C235.921 254.546 236.177 255.142 236.177 255.763Z" fill="white"/>
<path d="M237.984 262.157V263.106C236.739 263.853 235.303 264.249 233.838 264.249C232.372 264.249 230.936 263.853 229.691 263.106V262.157C229.691 261.095 230.128 260.076 230.906 259.325C231.683 258.574 232.738 258.152 233.838 258.152C234.937 258.152 235.992 258.574 236.769 259.325C237.547 260.076 237.984 261.095 237.984 262.157Z" fill="white"/>
<path d="M283.277 261.666H272.85L277.106 256.63L272.85 251.594H283.277L287.532 256.63L283.277 261.666Z" fill="white"/>
<path d="M283.423 261.958H272.208L276.718 256.63L272.208 251.301H283.423L287.92 256.63L283.423 261.958ZM273.493 261.373H283.192L287.193 256.63L283.192 251.887H273.493L277.494 256.63L273.493 261.373Z" fill="#F4F4F4"/>
<path d="M256.484 251.594L258.182 254.908L261.964 255.447L259.224 258.024L259.879 261.666L256.484 259.944L253.102 261.666L253.744 258.024L251.004 255.447L254.787 254.908L256.484 251.594Z" fill="white"/>
<path d="M260.279 262.204L256.484 260.283L252.689 262.204L253.417 258.129L250.349 255.236L254.593 254.651L256.484 250.938L258.375 254.651L262.618 255.236L259.551 258.129L260.279 262.204ZM256.484 259.616L259.466 261.138L258.897 257.918L261.321 255.646L257.975 255.178L256.484 252.261L254.956 255.178L251.622 255.646L254.047 257.918L253.477 261.138L256.484 259.616Z" fill="#F4F4F4"/>
<path d="M356.527 254.58H295.012V258.679H356.527V254.58Z" fill="#4D4C4C"/>
<path d="M405.994 254.58H381.88V258.679H405.994V254.58Z" fill="#D51818"/>
<path d="M426.155 273.4H201.383V306.928H426.155V273.4Z" fill="#F4F4F4"/>
<path d="M237.984 296.646C237.277 297.061 236.508 297.37 235.704 297.559C234.19 297.915 232.601 297.828 231.138 297.311C229.675 296.794 228.403 295.87 227.483 294.655C226.563 293.44 226.037 291.989 225.971 290.486C225.905 288.982 226.302 287.493 227.111 286.207C227.921 284.921 229.107 283.896 230.52 283.261C231.932 282.626 233.508 282.41 235.048 282.639C236.588 282.869 238.022 283.535 239.171 284.552C240.319 285.569 241.129 286.893 241.499 288.355C241.892 289.918 241.764 291.562 241.133 293.051C240.501 294.54 239.399 295.798 237.984 296.646Z" fill="#ED7155"/>
<path d="M236.177 289.291C236.177 289.754 236.035 290.207 235.768 290.592C235.502 290.977 235.123 291.278 234.68 291.455C234.237 291.632 233.749 291.679 233.279 291.588C232.809 291.498 232.377 291.275 232.038 290.947C231.698 290.62 231.468 290.202 231.374 289.748C231.28 289.294 231.328 288.823 231.512 288.395C231.695 287.967 232.006 287.601 232.405 287.344C232.804 287.086 233.273 286.949 233.752 286.949C234.395 286.949 235.012 287.196 235.467 287.635C235.921 288.074 236.177 288.67 236.177 289.291Z" fill="white"/>
<path d="M237.983 295.685V296.645C237.276 297.061 236.508 297.369 235.704 297.559C234.681 297.807 233.617 297.853 232.575 297.694C231.534 297.535 230.536 297.174 229.642 296.634V295.685C229.642 294.623 230.079 293.604 230.856 292.853C231.634 292.102 232.689 291.68 233.788 291.68C234.888 291.68 235.943 292.102 236.72 292.853C237.498 293.604 237.935 294.623 237.935 295.685H237.983Z" fill="white"/>
<path d="M283.277 295.207H272.85L277.106 290.159L272.85 285.124H283.277L287.532 290.159L283.277 295.207Z" fill="white"/>
<path d="M256.484 285.124L258.182 288.449L261.964 288.976L259.224 291.553L259.879 295.207L256.484 293.485L253.102 295.207L253.744 291.553L251.004 288.976L254.787 288.449L256.484 285.124Z" fill="#ED7155"/>
<path d="M356.527 288.119H295.012V292.218H356.527V288.119Z" fill="#263238"/>
<path d="M405.994 288.119H381.88V292.218H405.994V288.119Z" fill="#455A64"/>
<path d="M237.984 330.174C237.279 330.594 236.51 330.903 235.704 331.088C234.19 331.443 232.601 331.357 231.138 330.84C229.675 330.323 228.403 329.398 227.483 328.183C226.563 326.968 226.037 325.517 225.971 324.014C225.905 322.51 226.302 321.021 227.111 319.735C227.921 318.449 229.107 317.424 230.52 316.789C231.932 316.154 233.508 315.938 235.048 316.168C236.588 316.397 238.022 317.063 239.171 318.08C240.319 319.098 241.129 320.421 241.499 321.883C241.892 323.446 241.764 325.09 241.133 326.579C240.501 328.068 239.399 329.326 237.984 330.174Z" fill="#ED7155"/>
<path d="M236.177 322.82C236.177 323.284 236.035 323.736 235.768 324.122C235.502 324.507 235.123 324.807 234.68 324.984C234.237 325.162 233.749 325.208 233.279 325.118C232.809 325.027 232.377 324.804 232.038 324.477C231.698 324.149 231.468 323.732 231.374 323.277C231.28 322.823 231.328 322.352 231.512 321.924C231.695 321.496 232.006 321.13 232.405 320.873C232.804 320.616 233.273 320.478 233.752 320.478C234.395 320.478 235.012 320.725 235.467 321.164C235.921 321.603 236.177 322.199 236.177 322.82Z" fill="white"/>
<path d="M237.983 329.213V330.174C237.279 330.594 236.509 330.902 235.704 331.087C234.681 331.335 233.617 331.381 232.575 331.222C231.534 331.063 230.536 330.702 229.642 330.162V329.213C229.642 328.151 230.079 327.132 230.856 326.381C231.634 325.63 232.689 325.208 233.788 325.208C234.888 325.208 235.943 325.63 236.72 326.381C237.498 327.132 237.935 328.151 237.935 329.213H237.983Z" fill="white"/>
<path d="M283.277 328.734H272.85L277.106 323.698L272.85 318.663H283.277L287.532 323.698L283.277 328.734Z" fill="white"/>
<path d="M283.423 329.027H272.208L276.718 323.698L272.208 318.37H283.423L287.92 323.698L283.423 329.027ZM273.493 328.441H283.192L287.193 323.698L283.192 319.014H273.493L277.494 323.698L273.493 328.441Z" fill="#F4F4F4"/>
<path d="M256.484 318.663L258.182 321.977L261.964 322.504L259.224 325.08L259.879 328.734L256.484 327.013L253.102 328.734L253.744 325.08L251.004 322.504L254.787 321.977L256.484 318.663Z" fill="white"/>
<path d="M260.279 329.308L256.484 327.387L252.689 329.308L253.417 325.232L250.349 322.281L254.593 321.684L256.484 317.971L258.375 321.684L262.618 322.281L259.551 325.162L260.279 329.308ZM251.659 322.761L254.083 325.033L253.514 328.242L256.496 326.72L259.478 328.242L258.909 325.033L261.333 322.761L257.987 322.281L256.496 319.365L254.956 322.281L251.659 322.761Z" fill="#F4F4F4"/>
<path d="M356.527 321.648H295.012V325.747H356.527V321.648Z" fill="#4D4C4C"/>
<path d="M405.994 321.648H381.88V325.747H405.994V321.648Z" fill="#D51818"/>
<path d="M426.155 340.457H201.383V373.986H426.155V340.457Z" fill="#F4F4F4"/>
<path d="M237.983 363.704C237.279 364.124 236.51 364.432 235.704 364.617C233.782 365.063 231.757 364.792 230.033 363.859C228.308 362.927 227.011 361.4 226.4 359.585C225.788 357.769 225.908 355.798 226.735 354.064C227.561 352.33 229.034 350.96 230.86 350.229C232.685 349.497 234.729 349.457 236.584 350.116C238.439 350.776 239.968 352.086 240.867 353.787C241.766 355.487 241.968 357.452 241.434 359.29C240.899 361.128 239.667 362.704 237.983 363.704Z" fill="#455A64"/>
<path d="M236.177 356.349C236.177 356.812 236.035 357.265 235.768 357.65C235.502 358.035 235.123 358.335 234.68 358.512C234.237 358.69 233.749 358.736 233.279 358.646C232.809 358.555 232.377 358.332 232.038 358.005C231.698 357.677 231.468 357.26 231.374 356.806C231.28 356.351 231.328 355.88 231.512 355.452C231.695 355.024 232.006 354.658 232.405 354.401C232.804 354.144 233.273 354.006 233.752 354.006C234.395 354.006 235.012 354.253 235.467 354.692C235.921 355.132 236.177 355.727 236.177 356.349Z" fill="white"/>
<path d="M237.983 362.743V363.703C237.279 364.123 236.509 364.432 235.704 364.616C234.682 364.863 233.618 364.91 232.577 364.753C231.536 364.596 230.538 364.239 229.642 363.703V362.743C229.642 361.68 230.079 360.662 230.856 359.911C231.634 359.159 232.689 358.737 233.788 358.737C234.888 358.737 235.943 359.159 236.72 359.911C237.498 360.662 237.935 361.68 237.935 362.743H237.983Z" fill="white"/>
<path d="M283.277 362.262H272.85L277.106 357.227L272.85 352.191H283.277L287.532 357.227L283.277 362.262Z" fill="white"/>
<path d="M256.484 352.191L258.182 355.505L261.964 356.032L259.224 358.608L259.879 362.262L256.484 360.541L253.102 362.262L253.744 358.608L251.004 356.032L254.787 355.505L256.484 352.191Z" fill="white"/>
<path d="M356.527 355.178H295.012V359.276H356.527V355.178Z" fill="#4D4C4C"/>
<path d="M405.994 355.178H381.88V359.276H405.994V355.178Z" fill="#D51818"/>
<path d="M237.983 397.231C237.279 397.651 236.51 397.959 235.704 398.144C233.782 398.59 231.757 398.319 230.033 397.387C228.308 396.454 227.011 394.928 226.4 393.112C225.788 391.296 225.908 389.325 226.735 387.591C227.561 385.857 229.034 384.487 230.86 383.756C232.685 383.024 234.729 382.984 236.584 383.643C238.439 384.303 239.968 385.613 240.867 387.314C241.766 389.014 241.968 390.979 241.434 392.817C240.899 394.655 239.667 396.231 237.983 397.231Z" fill="#950404"/>
<path d="M236.177 389.889C236.177 390.352 236.035 390.805 235.768 391.19C235.502 391.575 235.123 391.875 234.68 392.053C234.237 392.23 233.749 392.276 233.279 392.186C232.809 392.096 232.377 391.872 232.038 391.545C231.698 391.217 231.468 390.8 231.374 390.346C231.28 389.891 231.328 389.42 231.512 388.992C231.695 388.564 232.006 388.199 232.405 387.941C232.804 387.684 233.273 387.547 233.752 387.547C234.395 387.547 235.012 387.793 235.467 388.233C235.921 388.672 236.177 389.268 236.177 389.889Z" fill="white"/>
<path d="M237.983 396.272V397.232C237.279 397.653 236.509 397.961 235.704 398.146C234.682 398.396 233.618 398.444 232.576 398.287C231.535 398.13 230.537 397.771 229.642 397.232V396.272C229.642 395.21 230.079 394.191 230.856 393.44C231.634 392.689 232.689 392.267 233.788 392.267C234.888 392.267 235.943 392.689 236.72 393.44C237.498 394.191 237.935 395.21 237.935 396.272H237.983Z" fill="white"/>
<path d="M283.277 395.79H272.85L277.106 390.755L272.85 385.719H283.277L287.532 390.755L283.277 395.79Z" fill="white"/>
<path d="M283.423 396.061H272.208L276.718 390.733L272.208 385.404H283.423L287.92 390.733L283.423 396.061ZM273.493 395.476H283.192L287.193 390.791L283.192 386.048H273.493L277.494 390.791L273.493 395.476Z" fill="#F4F4F4"/>
<path d="M256.484 385.719L258.182 389.033L261.964 389.56L259.224 392.148L259.879 395.79L256.484 394.069L253.102 395.79L253.744 392.148L251.004 389.56L254.787 389.033L256.484 385.719Z" fill="white"/>
<path d="M260.279 396.33L256.484 394.397L252.689 396.33L253.417 392.242L250.349 389.362L254.593 388.764L256.484 385.052L258.375 388.764L262.618 389.362L259.551 392.242L260.279 396.33ZM256.484 393.718L259.466 395.229L258.897 392.02L261.321 389.748L257.975 389.28L256.484 386.352L254.993 389.28L251.659 389.748L254.083 392.02L253.514 395.229L256.484 393.718Z" fill="#F4F4F4"/>
<path d="M356.527 388.705H295.012V392.804H356.527V388.705Z" fill="#4D4C4C"/>
<path d="M405.994 388.705H381.88V392.804H405.994V388.705Z" fill="#D51818"/>
<path d="M236.444 457.8H138.024C126.252 417.912 116.784 387.534 116.784 387.534H210.099C210.099 387.534 221.629 417.62 236.444 457.8Z" fill="#37474F"/>
<path d="M152.44 457.8H150.415C144.584 439.003 138.522 420.324 132.581 401.505C132.496 401.259 132.896 401.142 132.993 401.388C134.206 404.643 135.418 407.899 136.63 411.166C142.304 426.578 147.505 442.154 152.44 457.8Z" fill="#263238"/>
<path d="M207.967 387.569C207.858 389.455 202.657 406.705 199.965 432.516C198.983 442.037 197.868 450.996 196.68 457.8H66.0718C53.148 419.224 72.3276 387.534 72.3276 387.534C72.3276 387.534 207.979 387.487 207.967 387.569Z" fill="#37474F"/>
<path d="M181.865 430.291C182.325 436.768 182.483 443.256 182.398 449.732C182.185 452.417 182.161 455.112 182.325 457.801H180.058C179.513 453.69 180.058 448.572 180.058 444.532C179.985 427.797 177.779 411.249 175.112 394.737C175.109 394.663 175.134 394.59 175.181 394.532C175.229 394.474 175.296 394.433 175.371 394.418C175.446 394.403 175.525 394.413 175.592 394.448C175.66 394.483 175.713 394.539 175.742 394.608C179.046 406.268 181.097 418.226 181.865 430.291Z" fill="#263238"/>
<path d="M198.062 438.654C197.941 442.097 196.971 451.266 194.17 457.801H192.218C196.013 448.866 195.795 431.428 195.516 427.353C194.728 415.407 193.77 404.188 191.673 391.611C191.6 391.213 192.279 391.189 192.364 391.552C196.062 406.73 198.571 423.078 198.062 438.654Z" fill="#263238"/>
<path d="M74.1342 404.316C70.3516 420.115 72.1944 437.107 75.8072 452.741C76.1831 454.439 76.6074 456.126 77.0196 457.8H75.0556C69.709 436.006 68.0724 413.451 77.4803 392.313C77.6015 392.055 78.0016 392.313 77.8925 392.535C76.3317 396.364 75.0753 400.303 74.1342 404.316Z" fill="#263238"/>
<path d="M290.965 157.156L269.506 223.136C268.646 225.056 269.579 226.719 271.567 226.825L307.308 228.792C308.402 228.776 309.469 228.459 310.384 227.879C311.299 227.298 312.023 226.477 312.472 225.513L333.883 159.58C334.744 157.648 333.81 155.997 331.822 155.891L296.178 153.924C295.081 153.927 294.007 154.233 293.083 154.805C292.16 155.378 291.425 156.194 290.965 157.156Z" fill="#37474F"/>
<path d="M295.207 157.402L273.796 223.335C272.936 225.255 273.869 226.906 275.87 227.024L311.598 228.991C312.694 228.973 313.761 228.655 314.678 228.075C315.594 227.495 316.321 226.675 316.775 225.712L338.173 159.767C339.034 157.847 338.112 156.254 336.112 156.09L300.371 154.111C299.277 154.132 298.211 154.453 297.296 155.035C296.382 155.617 295.658 156.438 295.207 157.402Z" fill="#455A64"/>
<path d="M304.821 160.998C304.774 161.577 304.549 162.131 304.176 162.587C303.803 163.043 303.298 163.383 302.726 163.562C302.153 163.741 301.538 163.752 300.959 163.594C300.379 163.435 299.862 163.114 299.471 162.672C299.081 162.229 298.835 161.684 298.765 161.107C298.696 160.529 298.805 159.944 299.079 159.427C299.353 158.909 299.78 158.481 300.306 158.198C300.832 157.915 301.433 157.789 302.033 157.836C302.837 157.898 303.582 158.267 304.104 158.859C304.627 159.452 304.885 160.221 304.821 160.998Z" fill="#263238"/>
<path d="M169.764 252.143C187.138 295.017 228.831 351.909 247.598 353.338C256.521 354.028 272.33 357.108 284.733 347.939C311.793 327.936 336.004 287.908 341.981 264.498C344.114 256.172 302.918 235.221 296.178 241.673C280.417 256.804 261.201 287.241 258.594 286.889C249.041 285.578 213.519 252.928 188.75 229.986C158.683 202.114 162.818 235.057 169.764 252.143Z" fill="#EB9481"/>
<path d="M346.006 221.028C342.684 203.625 339.071 199.655 344.333 183.553C347.788 173.013 342.284 166.302 333.809 174.43C319.94 187.71 319.346 211.026 321.552 219.166L346.006 221.028Z" fill="#EB9481"/>
<path d="M339.409 271.714C339.409 271.714 348.939 248.374 347.302 229.555C346.162 216.509 340.416 188.379 303.96 171.398C295.316 167.37 280.04 167.557 291.691 179.092C299.959 187.29 307.779 190.065 311.695 195.675C311.695 195.675 292.297 198.134 288.442 206.66C285.093 214.115 282.294 221.789 280.064 229.625C281.455 230.35 282.893 230.987 284.368 231.534C284.368 231.534 281.034 239.626 286.575 251.759L339.409 271.714Z" fill="#EB9481"/>
<path d="M344.162 217.21C339.058 212.432 328.062 202.489 316.132 197.371C302.893 191.691 275.785 184.196 271.541 193.682C268.438 200.639 278.525 204.386 278.525 204.386C278.525 204.386 266.644 203.566 265.261 210.441C264.049 216.706 271.978 219.154 271.978 219.154C271.978 219.154 264.704 219.856 264.704 226.122C264.704 233.652 279.967 230.947 286.781 238.594C288.284 240.304 344.162 217.21 344.162 217.21Z" fill="#EB9481"/>
<path d="M312.253 211.893C306.689 208.157 291.801 202.817 278.768 204.21C278.465 204.21 278.331 204.468 278.61 204.492C290.082 205.677 301.362 208.202 312.205 212.01C312.278 212.045 312.314 211.928 312.253 211.893Z" fill="#263238"/>
<path d="M305.877 224.647C300.736 221.895 285.145 217.058 271.93 218.897C271.64 218.897 271.518 219.178 271.797 219.201C283.294 219.808 294.682 221.675 305.743 224.764C305.759 224.781 305.782 224.791 305.806 224.792C305.83 224.793 305.853 224.785 305.871 224.77C305.888 224.754 305.899 224.732 305.9 224.709C305.901 224.686 305.893 224.664 305.877 224.647Z" fill="#263238"/>
<path d="M223.994 255.634L217.374 263.398L216.004 265.014L189.49 295.955C189.49 295.955 165.497 258.105 160.648 236.58C157.75 223.698 159.836 216.027 165.667 214.634C166.101 214.535 166.543 214.473 166.989 214.446C170.759 214.13 175.827 216.051 181.889 220.372C198.959 232.552 223.994 255.634 223.994 255.634Z" fill="#ED7155"/>
<path d="M222.515 254.358C221.903 256.298 221.154 258.196 220.272 260.037L223.909 255.822C223.918 255.771 223.918 255.72 223.909 255.669C223.8 255.458 223.303 255.002 222.515 254.358ZM181.792 220.396C179.436 221.843 177.277 223.57 175.366 225.537C169.559 231.407 166.312 239.211 166.298 247.331C166.316 249.512 166.461 251.689 166.734 253.854C167.332 255.189 167.939 256.524 168.553 257.859C168.444 256.993 168.322 256.138 168.201 255.259C167.356 250.584 167.291 245.808 168.007 241.113C168.773 237.411 170.232 233.875 172.311 230.678C174.873 226.684 178.287 223.262 182.325 220.642C182.168 220.548 182.034 220.443 181.889 220.337L181.792 220.396Z" fill="white"/>
<path d="M184.338 283.085C185.769 279.829 200.499 260.283 212.768 247.87C212.805 247.829 212.857 247.805 212.913 247.802C212.969 247.798 213.023 247.816 213.065 247.852C213.107 247.888 213.132 247.938 213.136 247.992C213.139 248.046 213.12 248.099 213.083 248.139C211.871 249.662 187.624 281.059 184.763 283.436C184.532 283.635 184.241 283.319 184.338 283.085Z" fill="#263238"/>
<path opacity="0.05" d="M206.462 276.175L189.489 295.943C189.489 295.943 165.496 258.105 160.647 236.58C157.301 221.731 160.562 213.837 168.527 214.435L206.462 276.175Z" fill="black"/>
<path d="M211.313 392.768C207.919 396.282 64.3868 411.096 63.5624 410.136C61.368 407.548 74.5707 267.426 133.37 216.097C143.736 207.056 162.043 209.632 170.529 214.282C174.76 216.624 182.132 235.97 189.345 258.584C194.801 275.858 213.398 390.497 211.313 392.768Z" fill="#ED7155"/>
<path d="M211.313 392.769C210.561 393.554 202.827 394.912 191.273 396.528L189.963 396.704C184.12 397.512 177.379 398.379 170.105 399.257L168.529 399.456C147.761 401.974 122.992 404.668 102.722 406.729L102.067 406.787C80.2445 409.012 63.8413 410.464 63.5624 410.137C63.2836 409.809 63.2836 403.965 64.2414 394.76C64.2414 394.374 64.3262 393.964 64.3626 393.589C66.654 372.31 73.0067 333.652 85.9305 296.259C86.1366 295.65 86.3549 295.088 86.561 294.444C90.4282 283.296 94.991 272.385 100.224 261.77C100.382 261.454 100.527 261.15 100.697 260.833C105.82 250.42 111.992 240.519 119.125 231.275C119.367 230.97 119.598 230.678 119.852 230.397C123.906 225.256 128.43 220.478 133.37 216.121C134.755 214.928 136.291 213.909 137.941 213.088C138.317 212.9 138.705 212.725 139.093 212.561C144.262 210.465 149.895 209.659 155.472 210.219L156.854 210.359C161.635 210.811 166.279 212.155 170.529 214.317C172.19 215.243 174.348 218.779 176.785 224.155C176.906 224.389 177.015 224.647 177.124 224.904C180.762 233.102 185.114 245.328 189.345 258.62C190.836 263.304 193.322 275.25 196.074 290.146L196.256 291.153C197.213 296.294 198.195 301.798 199.177 307.467C199.323 308.275 199.468 309.071 199.602 309.879C201.602 321.449 203.602 333.605 205.385 344.942C205.445 345.398 205.518 345.867 205.603 346.312C207.106 356.008 208.44 365.049 209.47 372.533C209.543 373.13 209.616 373.704 209.701 374.289C211.071 385.04 211.774 392.219 211.313 392.769Z" fill="#ED7155"/>
<path d="M164.611 379.185C162.165 375.882 159.051 373.094 155.458 370.987C151.598 368.82 147.342 367.392 142.922 366.783C138.291 366.01 133.429 365.612 129.089 363.668C124.943 361.853 122.033 358.609 119.135 355.341C118.372 354.486 117.584 353.631 116.783 352.812C117.693 352.214 118.614 351.641 119.56 351.043C125.003 347.811 131.017 345.375 136.048 341.534C140.601 338.124 143.789 333.294 145.068 327.867C146.291 322.519 145.869 316.943 143.855 311.823C141.717 306.657 138.194 302.134 133.647 298.719C128.986 295.271 123.657 292.761 117.974 291.337C112.291 289.913 106.371 289.603 100.562 290.427C95.702 291.054 90.9685 292.388 86.5228 294.386C86.3167 294.995 86.0985 295.557 85.8924 296.201C88.0474 295.153 90.2852 294.272 92.5846 293.566C103.676 290.046 115.755 290.866 126.228 295.849C131.279 298.276 135.65 301.843 138.97 306.249C142.164 310.606 143.964 315.774 144.146 321.11C144.399 326.384 142.834 331.59 139.697 335.913C136.06 340.679 130.519 343.56 125.258 346.312C122.009 348.022 118.857 349.825 115.789 351.828C114.016 350.052 111.888 348.641 109.533 347.682C105.623 346.304 101.338 346.279 97.4099 347.612C88.8627 350.387 83.7829 358.386 82.8009 366.783C82.322 371.465 82.8841 376.193 84.4497 380.649C80.8866 384.176 76.9023 387.281 72.5807 389.9C69.986 391.449 67.2 392.677 64.2881 393.554C64.2881 393.952 64.2032 394.362 64.1669 394.725C64.6882 394.585 65.2095 394.432 65.7187 394.257C73.1505 391.833 79.3335 387.172 84.9225 381.937C86.4786 386.001 88.5125 389.879 90.9843 393.496C94.1845 398.266 97.8812 402.708 102.017 406.752L102.672 406.694C100.281 404.256 98.0419 401.683 95.9671 398.988C91.621 393.601 88.1727 387.591 85.7469 381.176C87.8201 379.185 89.8205 377.112 91.8087 375.062C95.6398 371.034 99.4102 366.865 103.496 363.106C107.305 359.568 111.413 356.345 115.777 353.467C118.384 356.149 120.627 359.182 123.464 361.665C126.811 364.351 130.835 366.133 135.126 366.83C139.576 367.731 144.159 368.094 148.535 369.394C152.432 370.582 156.012 372.581 159.022 375.25C162.057 377.86 164.488 381.057 166.159 384.635C167.83 388.212 168.703 392.089 168.721 396.013C168.713 397.17 168.62 398.324 168.442 399.468L170.018 399.269C170.89 392.156 168.96 384.986 164.611 379.185ZM109.097 356.571C104.502 360.227 100.194 364.208 96.2096 368.481C92.5725 372.252 89.0688 376.198 85.2983 379.887C84.6338 377.806 84.1711 375.669 83.9162 373.505C82.9706 365.307 85.5529 355.938 92.8514 351.043C96.1852 348.776 100.197 347.628 104.272 347.776C108.265 348.043 112.01 349.743 114.771 352.542C112.843 353.819 110.94 355.142 109.097 356.571ZM205.322 344.86C201.127 348.104 197.139 351.641 192.447 354.229C185.694 357.953 176.407 359.932 170.261 354.018C167.7 351.617 166.157 348.38 165.933 344.94C165.709 341.499 166.82 338.101 169.048 335.409C171.473 332.13 174.468 329.378 176.82 326.04C178.748 323.249 180.431 320.308 181.851 317.245C184.863 318.119 188.089 318.008 191.029 316.929C194.615 315.537 197.607 313.01 199.515 309.762C199.382 308.954 199.236 308.158 199.091 307.35C198.14 309.149 196.914 310.799 195.454 312.245C194.106 313.63 192.456 314.707 190.623 315.398C188.79 316.089 186.82 316.376 184.858 316.238C184.064 316.161 183.277 316.024 182.506 315.828C182.687 315.465 182.857 315.091 183.027 314.657C186.434 307.139 189.283 299.187 194.641 292.676C195.117 292.09 195.623 291.527 196.157 290.989L195.975 289.982C190.932 295.041 187.682 301.623 184.809 307.982C183.682 310.477 182.578 312.983 181.378 315.465C178.687 314.539 176.249 313.033 174.249 311.062C167.666 304.586 167.169 294.585 167.848 286.059C168.285 280.859 169.06 275.683 169.327 270.484C169.384 265.349 168.979 260.22 168.115 255.154C167.27 250.478 167.204 245.702 167.921 241.007C168.687 237.305 170.145 233.769 172.225 230.573C173.565 228.447 175.161 226.482 176.977 224.717C176.868 224.459 176.759 224.202 176.638 223.968C176.177 224.389 175.728 224.822 175.28 225.279C169.439 231.227 166.218 239.133 166.296 247.331C166.296 252.671 167.4 257.929 167.824 263.246C168.113 268.724 167.841 274.216 167.012 279.642C165.884 289.116 164.878 299.55 169.994 308.169C172.409 312.224 176.212 315.338 180.748 316.976C180.178 318.147 179.596 319.318 178.965 320.396C177.851 322.396 176.603 324.324 175.231 326.169C173.934 327.879 172.479 329.472 171.049 331.076C168.418 334.039 165.739 337.271 164.987 341.183C164.342 344.542 164.879 348.013 166.515 351.043C168.093 354.116 170.742 356.554 173.995 357.929C177.933 359.396 182.274 359.508 186.288 358.246C193.878 356.102 199.624 350.938 205.601 346.277C205.456 345.832 205.383 345.363 205.322 344.907V344.86ZM209.638 374.208C205.819 371.28 201.746 368.352 196.751 367.966C194.309 367.695 191.848 368.281 189.816 369.617C187.959 370.972 186.575 372.844 185.852 374.98C184.197 379.688 184.392 384.818 186.397 389.397C187.554 392.055 189.197 394.491 191.247 396.587L189.937 396.763C188.576 395.34 187.392 393.768 186.409 392.079C185.018 389.669 184.093 387.033 183.682 384.302C182.93 379.559 183.682 374.219 186.906 370.413C190.41 366.291 196.12 365.869 201.03 367.603C204.089 368.797 206.93 370.458 209.444 372.521C209.481 373.095 209.553 373.681 209.638 374.254V374.208ZM155.543 212.128C155.979 211.542 156.379 210.957 156.755 210.324L155.373 210.184C152.56 214.354 149.216 218.166 145.419 221.532L144.668 222.223C143.904 219.634 142.703 217.185 141.116 214.974C140.475 214.109 139.766 213.295 138.994 212.538C138.606 212.702 138.218 212.877 137.842 213.065C140.383 215.56 142.266 218.609 143.334 221.953C143.455 222.34 143.565 222.726 143.674 223.124C140.389 226.269 136.545 228.816 132.326 230.643C128.349 232.2 123.5 232.517 119.754 230.385C119.499 230.666 119.269 230.959 119.026 231.264C122.127 232.982 125.777 233.529 129.271 232.798C134.835 231.779 139.588 228.23 143.746 224.705L144.025 224.471C145.771 231.709 145.116 239.344 146.292 246.722C147.638 255.119 151.809 263.609 149.663 272.205C148.957 275.575 147.058 278.602 144.292 280.766C142.626 281.865 140.711 282.561 138.708 282.793C136.706 283.025 134.674 282.788 132.787 282.101C124.203 279.442 119.196 271.561 112.092 266.713C108.449 264.433 104.603 262.473 100.598 260.857C100.429 261.173 100.283 261.478 100.125 261.794C102.55 262.907 104.975 263.949 107.181 265.132C108.918 266.016 110.579 267.03 112.152 268.165C113.99 269.56 115.739 271.062 117.39 272.662C120.675 275.753 123.9 279.044 127.901 281.304C131.538 283.354 135.89 284.654 140.109 283.869C141.919 283.483 143.623 282.73 145.109 281.66C146.595 280.59 147.829 279.227 148.729 277.662C150.576 274.497 151.529 270.919 151.493 267.286C151.493 262.602 150.172 257.918 148.996 253.386C148.332 250.975 147.802 248.532 147.408 246.066C147.092 243.888 146.911 241.71 146.777 239.52C146.642 235.182 146.27 230.855 145.662 226.556C145.492 225.56 145.286 224.577 145.044 223.593C148.975 220.162 152.497 216.316 155.543 212.128Z" fill="white"/>
<path d="M119.403 235.62C95.7746 283.131 64.144 401.201 59.5007 418.557C56.3364 430.338 120.022 442.272 121.707 434.086C123.647 424.717 148.003 286.527 145.578 236.756C144.257 209.516 127.575 219.224 119.403 235.62Z" fill="#EB9481"/>
<path d="M122.495 428.64C121.743 437.587 116.433 455.786 111.971 458.749C107.51 461.712 83.0323 462.368 70.7511 463C58.4698 463.633 55.8269 460.471 55.8027 456.337C55.7784 452.203 81.5896 450.142 81.5896 450.142C81.5896 450.142 47.6434 461.443 39.0478 463.434C30.4521 465.424 10.7512 471.315 7.52637 464.523C5.97455 461.454 11.2726 458.011 11.2726 458.011C11.2726 458.011 3.01638 460.799 1.46456 456.84C-0.305487 452.332 6.22915 449.474 6.22915 449.474C6.22915 449.474 1.04023 450.762 0.725021 447.026C-0.00239731 438.7 32.5617 432.973 32.5617 432.973C32.5617 432.973 8.09618 446.054 6.92019 439.286C5.29563 429.917 56.1785 416.964 61.3068 412.585C65.0342 409.25 68.4915 405.644 71.6482 401.799L122.495 428.64Z" fill="#EB9481"/>
<path d="M56.1301 458.398C56.0128 457.82 56.042 457.223 56.2151 456.658C56.3882 456.094 56.7001 455.577 57.1242 455.154C57.9662 454.327 58.9456 453.643 60.0218 453.128C62.2427 452.069 64.5601 451.211 66.9443 450.564C71.7332 449.123 76.6432 448.034 81.4927 446.547C76.3708 446.728 71.294 447.542 66.3867 448.971C63.8822 449.658 61.4905 450.683 59.2822 452.016C58.1402 452.699 57.1576 453.604 56.3968 454.674C56.0249 455.22 55.805 455.85 55.7583 456.502C55.7116 457.155 55.8396 457.808 56.1301 458.398Z" fill="#263238"/>
<path d="M11.2721 458.01C14.7758 456.991 18.2189 455.844 21.6499 454.696C25.0809 453.548 28.4998 452.354 31.9186 451.183L42.1389 447.506C45.5456 446.334 48.9402 445.07 52.3833 443.887C48.7759 444.458 45.2118 445.26 41.7145 446.288C38.1987 447.248 34.7556 448.419 31.3246 449.614C27.8936 450.808 24.5111 452.12 21.1771 453.537C17.8431 454.954 14.5091 456.347 11.2721 458.01Z" fill="#263238"/>
<path d="M43.6065 435.959C40.276 436.339 36.978 436.95 33.7379 437.786C30.486 438.593 27.2809 439.566 24.136 440.702C20.9863 441.822 17.9059 443.117 14.9099 444.578C11.8995 446.008 8.99863 447.644 6.22937 449.473C9.34514 448.302 12.3639 446.92 15.4554 445.749C18.547 444.578 21.6264 443.407 24.7421 442.236C27.8579 441.065 30.9858 440.046 34.1137 438.98C37.2416 437.915 40.4301 436.966 43.6065 435.959Z" fill="#263238"/>
<path d="M38.1021 428.265C32.7249 428.941 27.4628 430.295 22.4505 432.294C17.3947 434.197 12.6211 436.737 8.25378 439.847C13.2608 437.833 18.1224 435.737 23.0931 433.851C28.0638 431.966 33.0951 430.127 38.1021 428.265Z" fill="#263238"/>
<path d="M146.802 290.204L90.0394 290.474C90.0394 290.474 105.449 246.405 120.118 228.195C134.788 209.984 146.56 212.385 147.869 233.816C149.178 255.247 146.802 290.204 146.802 290.204Z" fill="#ED7155"/>
<path d="M147.87 233.817C147.943 234.789 147.991 235.808 148.028 236.827C148.028 237.283 148.028 237.74 148.101 238.209C148.901 259.675 146.815 290.205 146.815 290.205L131.394 290.287H129.854L90.0526 290.498C90.0526 290.498 96.5872 271.761 105.171 253.749C105.462 253.152 105.741 252.578 106.056 251.946C110.432 242.905 115.306 234.18 120.107 228.219C134.789 209.985 146.549 212.398 147.87 233.817Z" fill="#ED7155"/>
<path d="M100.805 290.429L112.335 290.358C108.503 289.925 104.631 289.949 100.805 290.429ZM147.445 246.021C147.13 243.843 146.948 241.664 146.815 239.474C146.679 235.137 146.307 230.81 145.699 226.51C145.529 225.515 145.323 224.531 145.081 223.547C145.299 223.337 145.529 223.149 145.76 222.927C145.59 222.505 145.42 222.107 145.239 221.756C145.069 221.931 144.875 222.084 144.705 222.259C144.377 221.134 143.972 220.03 143.493 218.957C142.832 218.123 142.008 217.423 141.068 216.896C142.086 218.493 142.9 220.204 143.493 221.99C143.614 222.376 143.723 222.763 143.832 223.161C140.548 226.305 136.704 228.852 132.484 230.679C128.181 232.377 122.846 232.6 119.003 229.836C118.773 230.141 118.554 230.433 118.336 230.75C119.939 231.812 121.751 232.545 123.659 232.903C125.567 233.262 127.531 233.238 129.429 232.834C134.994 231.815 139.746 228.267 143.905 224.742L144.184 224.508C145.93 231.745 145.275 239.381 146.451 246.759C146.899 249.499 147.663 252.263 148.366 255.027C148.366 253.469 148.366 251.911 148.366 250.342C147.942 248.867 147.651 247.45 147.445 246.021ZM144.329 280.709C142.664 281.808 140.749 282.504 138.746 282.736C136.743 282.968 134.712 282.731 132.824 282.044C124.24 279.385 119.233 271.504 112.129 266.655C108.832 264.568 105.346 262.773 101.715 261.292C101.557 261.608 101.424 261.936 101.278 262.264C103.291 263.189 105.315 264.091 107.219 265.086C108.955 265.971 110.617 266.985 112.189 268.119C114.028 269.515 115.777 271.017 117.427 272.616C120.712 275.708 123.937 278.999 127.938 281.259C131.575 283.308 135.928 284.608 140.147 283.824C143.023 283.235 145.596 281.694 147.421 279.467C147.421 278.776 147.494 278.05 147.518 277.301C146.69 278.623 145.607 279.78 144.329 280.709Z" fill="white"/>
<path d="M97.3498 277.778C100.987 276.701 127.186 275.026 145.759 276.221C145.817 276.221 145.873 276.243 145.914 276.283C145.955 276.322 145.978 276.376 145.978 276.432C145.978 276.488 145.955 276.541 145.914 276.581C145.873 276.62 145.817 276.642 145.759 276.642C143.711 276.76 101.229 278.985 97.3498 278.352C96.974 278.341 97.0346 277.907 97.3498 277.778Z" fill="#263238"/>
<path d="M150.404 256.969C150.404 256.932 150.388 256.896 150.361 256.87C150.334 256.843 150.297 256.828 150.258 256.828C150.22 256.828 150.183 256.843 150.155 256.87C150.128 256.896 150.113 256.932 150.113 256.969C149.594 258.834 149.189 260.726 148.9 262.637C148.816 263.07 148.755 263.515 148.67 263.949C148.512 259.264 148.282 254.709 148.028 250.118C148.028 249.907 147.664 249.907 147.676 250.118C147.821 266.033 147.385 280.567 146.379 289.771L141.457 290.17C141.388 290.183 141.326 290.219 141.282 290.271C141.238 290.323 141.214 290.389 141.214 290.457C141.214 290.524 141.238 290.589 141.282 290.642C141.326 290.694 141.388 290.73 141.457 290.743L147.712 290.954C147.979 290.954 149.022 277.697 148.767 267.251C149.107 265.741 149.47 264.242 149.725 262.719C150.103 260.822 150.33 258.9 150.404 256.969Z" fill="#263238"/>
<path d="M97.7144 290.486C95.1563 290.638 92.5982 290.767 90.0523 290.837H89.5431L89.7007 290.357C90.6948 287.336 91.7132 284.326 92.8286 281.351C93.9439 278.377 95.0714 275.391 96.2838 272.451C97.4962 269.512 98.7085 266.596 100.127 263.691C101.545 260.787 102.903 257.941 104.491 255.166L100.854 264.019L97.3628 272.873L93.8712 281.738L90.3917 290.662L90.0523 290.193C92.5982 290.205 95.1563 290.334 97.7144 290.486Z" fill="#263238"/>
<path d="M167.036 238.56C158.404 241.312 142.11 229.589 135.187 219.564C134.715 218.874 135.187 189.737 134.702 183.963C134.593 182.792 173.098 189.608 173.098 189.608C173.098 189.608 170.491 202.045 171.461 212.116C171.558 212.959 175.377 235.901 167.036 238.56Z" fill="#EB9481"/>
<path d="M173.111 189.595C173.111 189.771 172.929 190.497 172.735 191.668C172.395 193.659 171.886 196.879 171.583 200.533C171.209 204.373 171.18 208.236 171.498 212.08C171.51 212.348 171.543 212.614 171.595 212.877V213.005C171.68 213.474 171.753 214.106 171.838 214.856C170.641 215.115 169.425 215.283 168.2 215.359C147.699 216.624 138.631 192.956 135.891 183.798L136.546 183.857C137.552 183.927 138.886 184.079 140.486 184.278L141.698 184.442C144.256 184.794 147.311 185.262 150.488 185.754C151.53 185.918 152.573 186.07 153.64 186.258C155.919 186.644 158.223 187.019 160.356 187.358C161.278 187.534 162.187 187.686 163.036 187.827C163.884 187.967 164.915 188.143 165.776 188.284L166.988 188.494L167.582 188.611L170.771 189.162L172.298 189.42C172.515 189.454 172.73 189.501 172.941 189.56C173.001 189.56 173.026 189.56 173.05 189.56L173.111 189.595Z" fill="#263238"/>
<path d="M127.331 141.511C123.694 154.545 132.011 191.587 141.795 199.597C156.004 211.203 178.614 211.636 188.689 195.311C198.388 179.49 186.713 131.381 175.838 124.167C159.811 113.545 132.714 122.258 127.331 141.511Z" fill="#EB9481"/>
<path d="M132.896 177.767C139.746 175.636 136.715 158.421 136.715 158.421C136.715 158.421 144.887 153.736 144.778 137.622C144.778 137.622 153.604 151.991 182.155 143.536C182.129 138.389 180.433 133.38 177.305 129.214C181.086 133.568 184.492 138.213 187.489 143.103C187.489 143.103 190.12 118.51 167.885 113.825C159.035 111.963 146.632 114.797 129.271 127.176C129.271 127.176 123.585 116.788 121.658 118.615C119.73 120.442 125.865 129.998 125.865 129.998C125.865 129.998 117.039 128.944 115.948 130.877C115.002 132.539 123.44 133.219 123.44 133.219C123.44 133.219 111.316 139.367 116.166 153.244C120.518 165.939 129.502 178.833 132.896 177.767Z" fill="#263238"/>
<path d="M125.72 132.563C122.009 133.082 118.622 134.894 116.197 137.657C113.772 140.42 112.476 143.944 112.553 147.565C112.687 151.699 114.542 155.868 116.578 159.452C118.872 163.256 121.663 166.759 124.883 169.874C125.053 170.05 125.32 169.757 125.138 169.582C122.297 166.622 119.945 163.256 118.167 159.604C116.263 156.2 114.937 152.523 114.239 148.713C113.771 145.166 114.701 141.579 116.843 138.664C118.986 135.748 122.184 133.717 125.805 132.973C125.855 132.957 125.897 132.923 125.923 132.879C125.95 132.834 125.959 132.782 125.948 132.732C125.938 132.682 125.909 132.637 125.867 132.606C125.825 132.575 125.773 132.56 125.72 132.563Z" fill="#263238"/>
<path d="M150.488 112.783C145.719 114.725 141.235 117.265 137.152 120.337C133.125 123.076 129.614 126.463 126.774 130.35C126.641 130.549 126.908 130.783 127.077 130.596C133.442 124.003 141.735 119.014 150.112 115.079C157.908 111.39 167.643 109.715 175.111 115.079C175.122 115.094 175.136 115.106 175.153 115.114C175.169 115.123 175.188 115.128 175.207 115.128C175.225 115.129 175.244 115.125 175.261 115.118C175.278 115.11 175.293 115.099 175.305 115.084C175.317 115.07 175.325 115.054 175.329 115.036C175.333 115.018 175.332 115 175.328 114.982C175.323 114.965 175.314 114.948 175.302 114.935C175.289 114.921 175.274 114.91 175.257 114.903C168.37 109.141 158.453 109.668 150.488 112.783Z" fill="#263238"/>
<path d="M137.079 171.855C137.079 171.855 128.156 159.921 122.53 163.013C116.905 166.105 123.743 183.484 130.435 185.779C131.272 186.131 132.175 186.315 133.088 186.321C134.001 186.327 134.906 186.155 135.748 185.815C136.591 185.474 137.353 184.973 137.99 184.341C138.627 183.709 139.125 182.96 139.455 182.137L137.079 171.855Z" fill="#EB9481"/>
<path d="M124.615 167.942C124.506 167.942 124.494 168.083 124.615 168.118C129.307 169.875 131.829 173.974 133.611 178.318C132.205 176.679 130.301 175.789 128.01 177.417C127.889 177.499 128.01 177.686 128.131 177.651C128.948 177.387 129.829 177.373 130.654 177.612C131.479 177.851 132.207 178.331 132.738 178.986C133.613 180.079 134.369 181.256 134.993 182.499C135.211 182.897 135.963 182.675 135.805 182.206C135.803 182.175 135.803 182.144 135.805 182.113C135.769 176.398 131.017 168.434 124.615 167.942Z" fill="#263238"/>
<path d="M167.315 162.778C167.315 162.696 167.145 162.93 167.158 163.035C167.703 165.495 167.885 168.411 165.715 169.629C165.702 169.634 165.691 169.643 165.683 169.655C165.675 169.666 165.671 169.679 165.671 169.693C165.671 169.707 165.675 169.72 165.683 169.732C165.691 169.743 165.702 169.752 165.715 169.758C168.515 168.868 168.237 165.038 167.315 162.778Z" fill="#263238"/>
<path d="M164.552 160.588C160.382 160.998 161.521 169.044 165.389 168.669C169.256 168.294 168.056 160.249 164.552 160.588Z" fill="#263238"/>
<path d="M181.997 159.873C181.997 159.779 182.215 159.966 182.228 160.072C182.506 162.566 183.258 165.389 185.707 165.927C185.78 165.927 185.792 166.068 185.707 166.068C182.797 166.044 181.84 162.285 181.997 159.873Z" fill="#263238"/>
<path d="M183.936 156.968C188.046 156.113 189.513 164.112 185.706 164.896C181.9 165.681 180.493 157.682 183.936 156.968Z" fill="#263238"/>
<path d="M160.647 158.327C161.697 157.869 162.721 157.357 163.714 156.793C164.875 156.406 165.869 155.656 166.539 154.661C166.686 154.312 166.709 153.925 166.606 153.561C166.504 153.197 166.28 152.876 165.969 152.647C165.277 152.286 164.497 152.11 163.711 152.136C162.925 152.163 162.16 152.392 161.496 152.799C160.024 153.419 158.844 154.547 158.186 155.961C158.057 156.293 158.029 156.653 158.107 156.999C158.185 157.346 158.365 157.663 158.625 157.913C158.885 158.163 159.214 158.335 159.573 158.408C159.931 158.482 160.304 158.453 160.647 158.327Z" fill="#263238"/>
<path d="M185.949 152.566C184.799 152.492 183.654 152.359 182.518 152.167C181.291 152.191 180.09 151.825 179.099 151.125C178.833 150.848 178.669 150.492 178.634 150.115C178.599 149.738 178.694 149.36 178.905 149.041C179.42 148.469 180.084 148.04 180.828 147.799C181.572 147.558 182.369 147.514 183.137 147.67C184.746 147.747 186.266 148.408 187.392 149.521C187.637 149.786 187.797 150.114 187.853 150.465C187.908 150.817 187.855 151.176 187.702 151.499C187.549 151.823 187.302 152.096 186.99 152.285C186.679 152.474 186.317 152.572 185.949 152.566Z" fill="#263238"/>
<path d="M167.801 184.946C168.504 185.449 169.232 186.117 170.226 186.117C171.182 185.974 172.096 185.634 172.905 185.121C172.99 185.121 173.087 185.121 173.039 185.239C172.739 185.776 172.295 186.226 171.753 186.542C171.211 186.857 170.592 187.026 169.959 187.03C169.414 186.966 168.9 186.747 168.484 186.401C168.067 186.055 167.767 185.598 167.619 185.086C167.51 184.946 167.668 184.875 167.801 184.946Z" fill="#263238"/>
<path d="M169.449 177.123C170.244 178.022 171.223 178.753 172.325 179.269C173.427 179.785 174.627 180.075 175.85 180.121C176.917 180.174 177.987 180.079 179.027 179.84C179.228 179.807 179.426 179.76 179.621 179.699L180.178 179.535C180.311 179.492 180.426 179.408 180.505 179.296C180.583 179.184 180.622 179.05 180.615 178.915L180.554 178.657V178.435C180.324 176.514 179.718 173.621 179.718 173.621C180.494 173.879 184.422 174.992 184.228 173.996C182.53 165.799 180.651 156.617 177.172 148.771C177.154 148.71 177.112 148.659 177.055 148.628C176.998 148.597 176.931 148.59 176.869 148.607C176.806 148.624 176.753 148.664 176.721 148.719C176.689 148.774 176.681 148.839 176.699 148.9C178.008 156.875 180.748 164.569 182.191 172.556C180.793 172.133 179.339 171.908 177.875 171.888C177.608 172.005 179.148 177.463 179.184 178.329C179.187 178.36 179.187 178.392 179.184 178.423C175.911 179.278 173.256 178.634 169.704 176.901C169.449 176.748 169.267 176.947 169.449 177.123Z" fill="#263238"/>
<path d="M177.718 179.021C176.825 180.535 175.543 181.802 173.996 182.698C173.138 183.164 172.149 183.357 171.171 183.249C169.038 183.003 168.747 181.188 168.88 179.572C168.97 178.713 169.166 177.868 169.462 177.054C171.926 178.543 174.819 179.233 177.718 179.021Z" fill="#263238"/>
<path d="M173.996 182.697C173.138 183.163 172.149 183.355 171.171 183.247C169.038 183.001 168.747 181.186 168.88 179.57C171.123 179.5 173.511 180.647 173.996 182.697Z" fill="#FF9ABB"/>
</svg>
