<svg width="313" height="330" viewBox="0 0 313 330" fill="none" xmlns="http://www.w3.org/2000/svg">
<path d="M85.8518 45.9354H226.945V263.253H85.8518V45.9354Z" fill="white"/>
<path d="M81.0528 268.012H231.702V41.1853H81.0528V268.012ZM222.146 258.495H90.57V50.7026H222.185L222.146 258.495Z" fill="#002064"/>
<path d="M85.8518 128.125H226.945V132.931H85.8518V128.125Z" fill="#002064"/>
<path d="M85.8518 92.2918H226.945V97.098H85.8518V92.2918Z" fill="#002064"/>
<path d="M124.476 55.0409V129.545H120.114V55.0409H124.476Z" fill="#002064"/>
<path d="M158.579 55.0408V129.545H154.217V55.0408H158.579Z" fill="#002064"/>
<path d="M192.683 55.0408V129.545H188.321V55.0408H192.683Z" fill="#002064"/>
<path d="M77.0175 40.3826H235.781V57.7832H77.0175V40.3826Z" fill="#002064"/>
<path d="M77.0175 40.3826H235.781V52.5171H77.0175V40.3826Z" fill="#002064"/>
<path d="M71.012 31.6834H241.775V49.084H71.012V31.6834Z" fill="#002064"/>
<path d="M231.703 57.7918H302.241V268.011H231.703V57.7918Z" fill="#DBDBDB"/>
<path d="M237.952 64.8347H295.991V68.7051H237.952V64.8347Z" fill="#C7C7C7"/>
<path d="M237.952 71.9568H295.991V75.8271H237.952V71.9568Z" fill="#C7C7C7"/>
<path d="M237.952 79.0786H295.991V82.949H237.952V79.0786Z" fill="#C7C7C7"/>
<path d="M237.952 86.1931H295.991V90.0635H237.952V86.1931Z" fill="#C7C7C7"/>
<path d="M237.952 93.3142H295.991V97.1846H237.952V93.3142Z" fill="#C7C7C7"/>
<path d="M237.952 100.437H295.991V104.308H237.952V100.437Z" fill="#C7C7C7"/>
<path d="M237.952 107.559H295.991V111.43H237.952V107.559Z" fill="#C7C7C7"/>
<path d="M237.952 114.681H295.991V118.552H237.952V114.681Z" fill="#C7C7C7"/>
<path d="M237.952 121.803H295.991V125.673H237.952V121.803Z" fill="#C7C7C7"/>
<path d="M237.952 128.926H295.991V132.797H237.952V128.926Z" fill="#C7C7C7"/>
<path d="M237.952 136.04H295.991V139.91H237.952V136.04Z" fill="#C7C7C7"/>
<path d="M237.952 143.162H295.991V147.032H237.952V143.162Z" fill="#C7C7C7"/>
<path d="M237.952 157.406H295.991V161.277H237.952V157.406Z" fill="#C7C7C7"/>
<path d="M237.952 164.529H295.991V168.399H237.952V164.529Z" fill="#C7C7C7"/>
<path d="M237.952 171.65H295.991V175.521H237.952V171.65Z" fill="#C7C7C7"/>
<path d="M237.952 178.771H295.991V182.642H237.952V178.771Z" fill="#C7C7C7"/>
<path d="M237.952 185.887H295.991V189.757H237.952V185.887Z" fill="#C7C7C7"/>
<path d="M237.952 193.009H295.991V196.879H237.952V193.009Z" fill="#C7C7C7"/>
<path d="M237.952 200.131H295.991V204.001H237.952V200.131Z" fill="#C7C7C7"/>
<path d="M237.952 207.253H295.991V211.123H237.952V207.253Z" fill="#C7C7C7"/>
<path d="M237.952 214.374H295.991V218.244H237.952V214.374Z" fill="#C7C7C7"/>
<path d="M237.952 221.497H295.991V225.367H237.952V221.497Z" fill="#C7C7C7"/>
<path d="M237.952 228.618H295.991V232.489H237.952V228.618Z" fill="#C7C7C7"/>
<path d="M237.952 235.74H295.991V239.61H237.952V235.74Z" fill="#C7C7C7"/>
<path d="M237.952 242.855H295.991V246.726H237.952V242.855Z" fill="#C7C7C7"/>
<path d="M237.952 249.976H295.991V253.847H237.952V249.976Z" fill="#C7C7C7"/>
<path d="M237.952 257.099H295.991V260.969H237.952V257.099Z" fill="#C7C7C7"/>
<path d="M10.5546 57.7918H81.093V268.011H10.5546V57.7918Z" fill="#DBDBDB"/>
<path d="M16.8041 64.8347H74.8433V68.7051H16.8041V64.8347Z" fill="#C7C7C7"/>
<path d="M16.8038 71.9568H74.843V75.8271H16.8038V71.9568Z" fill="#C7C7C7"/>
<path d="M16.8041 79.0787H74.8433V82.949H16.8041V79.0787Z" fill="#C7C7C7"/>
<path d="M16.8041 86.1933H74.8433V90.0636H16.8041V86.1933Z" fill="#C7C7C7"/>
<path d="M16.8038 93.3142H74.843V97.1846H16.8038V93.3142Z" fill="#C7C7C7"/>
<path d="M16.8041 100.437H74.8433V104.308H16.8041V100.437Z" fill="#C7C7C7"/>
<path d="M16.8038 107.559H74.843V111.43H16.8038V107.559Z" fill="#C7C7C7"/>
<path d="M16.8041 114.681H74.8433V118.552H16.8041V114.681Z" fill="#C7C7C7"/>
<path d="M16.8041 121.803H74.8433V125.673H16.8041V121.803Z" fill="#C7C7C7"/>
<path d="M16.8041 128.926H74.8433V132.797H16.8041V128.926Z" fill="#C7C7C7"/>
<path d="M16.8041 136.04H74.8433V139.91H16.8041V136.04Z" fill="#C7C7C7"/>
<path d="M16.8038 143.162H74.843V147.032H16.8038V143.162Z" fill="#C7C7C7"/>
<path d="M16.8041 157.406H74.8433V161.277H16.8041V157.406Z" fill="#C7C7C7"/>
<path d="M16.8038 164.529H74.843V168.399H16.8038V164.529Z" fill="#C7C7C7"/>
<path d="M16.8041 171.65H74.8433V175.521H16.8041V171.65Z" fill="#C7C7C7"/>
<path d="M16.8038 178.771H74.843V182.642H16.8038V178.771Z" fill="#C7C7C7"/>
<path d="M16.8038 185.887H74.843V189.757H16.8038V185.887Z" fill="#C7C7C7"/>
<path d="M16.8041 193.009H74.8433V196.879H16.8041V193.009Z" fill="#C7C7C7"/>
<path d="M16.8038 200.131H74.843V204.001H16.8038V200.131Z" fill="#C7C7C7"/>
<path d="M16.8041 207.253H74.8433V211.123H16.8041V207.253Z" fill="#C7C7C7"/>
<path d="M16.8038 214.374H74.843V218.244H16.8038V214.374Z" fill="#C7C7C7"/>
<path d="M16.8041 221.497H74.8433V225.367H16.8041V221.497Z" fill="#C7C7C7"/>
<path d="M16.8041 228.618H74.8433V232.488H16.8041V228.618Z" fill="#C7C7C7"/>
<path d="M16.8038 235.74H74.843V239.61H16.8038V235.74Z" fill="#C7C7C7"/>
<path d="M16.8041 242.855H74.8433V246.726H16.8041V242.855Z" fill="#C7C7C7"/>
<path d="M16.8038 249.976H74.843V253.847H16.8038V249.976Z" fill="#C7C7C7"/>
<path d="M16.8041 257.099H74.8433V260.97H16.8041V257.099Z" fill="#C7C7C7"/>
<path d="M140.918 159.943C141.346 173.973 139.506 190.874 146.469 203.691C151.918 213.716 162.228 219.957 172.689 223.669C195.689 231.83 226.961 230.735 240.896 207.458C246.448 198.155 246.115 179.699 235.281 173.743C229.729 170.706 223.384 170.388 217.23 169.223C209.156 167.7 203.113 163.671 198.901 156.612C190.661 142.812 191.287 132.201 188.742 116.791C188.258 113.935 187.37 111.152 184.34 108.939C181.604 106.624 178.289 105.1 174.751 104.529C171.696 103.47 168.427 103.181 165.234 103.689C158.421 104.926 152.307 111.77 147.294 116.116C142.282 120.463 140.061 124.888 140.156 131.669C140.212 141.099 140.632 150.521 140.918 159.943Z" fill="#002064"/>
<path d="M139.687 166.67C140.116 153.774 140.806 140.918 141.408 128.038C141.408 127.959 141.527 127.951 141.527 128.038C141.345 138.65 141.297 149.253 140.972 159.865C140.655 170.263 139.616 180.93 140.179 191.327C141.512 214.652 166.185 222.314 185.909 219.665C186.806 219.546 186.893 220.989 185.981 221.077C168.596 222.861 147.357 218.491 140.655 199.956C137.015 189.813 139.331 177.226 139.687 166.67Z" fill="#002064"/>
<path d="M187.466 115.657C187.475 115.612 187.5 115.572 187.535 115.543C187.57 115.514 187.615 115.498 187.66 115.498C187.706 115.498 187.75 115.514 187.786 115.543C187.821 115.572 187.846 115.612 187.855 115.657C189.441 128.426 190.036 143.415 198.165 154.059C202.185 159.264 207.684 163.134 213.94 165.162C218.897 166.748 224.012 166.534 229.12 167.145C249.074 169.524 251.327 196.053 237.78 207.498C237.503 207.736 237.075 207.26 237.352 206.998C246.798 198.219 249.011 183.395 239.993 173.323C232.76 165.241 220.324 168.929 210.997 164.98C191.67 156.795 188.489 134.287 187.466 115.657Z" fill="#002064"/>
<path d="M185.411 170.088C206.135 191.097 232.204 235.297 227.351 244.251C221.934 254.236 193.073 224.78 193.184 223.059C193.271 221.758 183.111 194.912 175.41 175.386C167.709 155.86 180.28 164.861 185.411 170.088Z" fill="#F7A9A0"/>
<path d="M192.994 223.059C192.105 220.188 178.29 184.792 174.34 173.593C170.39 162.395 174.054 158.937 185.332 169.192C196.61 179.446 221.339 213.692 226.978 231.847C232.419 249.358 223.401 249.358 211.505 241.284C201.765 234.71 192.994 223.059 192.994 223.059Z" fill="#ED7155"/>
<path d="M172.857 167.55C172.857 167.756 172.897 167.962 172.929 168.184C172.995 168.28 173.084 168.358 173.188 168.412C173.292 168.466 173.407 168.494 173.523 168.494C173.653 168.493 173.779 168.458 173.89 168.39C174 168.323 174.09 168.227 174.149 168.112C174.208 167.997 174.235 167.868 174.226 167.739C174.217 167.61 174.173 167.486 174.098 167.381C174.024 167.275 173.922 167.192 173.803 167.141C173.685 167.089 173.554 167.071 173.426 167.089C173.298 167.106 173.178 167.158 173.077 167.24C172.977 167.321 172.901 167.428 172.857 167.55ZM196.373 182.365C196.514 182.364 196.654 182.404 196.772 182.482C196.891 182.56 196.983 182.671 197.038 182.802C197.093 182.933 197.108 183.077 197.081 183.216C197.054 183.355 196.986 183.483 196.885 183.584C196.785 183.684 196.657 183.752 196.518 183.779C196.379 183.807 196.235 183.792 196.104 183.737C195.973 183.682 195.862 183.589 195.784 183.471C195.706 183.352 195.665 183.213 195.667 183.071C195.667 182.884 195.741 182.704 195.874 182.572C196.006 182.439 196.185 182.365 196.373 182.365ZM184.952 182.365C185.094 182.365 185.232 182.407 185.349 182.486C185.467 182.565 185.558 182.677 185.612 182.808C185.666 182.939 185.68 183.082 185.651 183.221C185.623 183.36 185.554 183.487 185.454 183.586C185.353 183.686 185.225 183.753 185.086 183.78C184.947 183.807 184.804 183.791 184.673 183.736C184.543 183.681 184.432 183.588 184.355 183.47C184.277 183.351 184.237 183.212 184.238 183.071C184.238 182.978 184.257 182.885 184.293 182.799C184.329 182.713 184.381 182.635 184.448 182.569C184.514 182.503 184.593 182.452 184.679 182.417C184.766 182.382 184.859 182.364 184.952 182.365ZM190.662 175.045C190.804 175.045 190.942 175.087 191.06 175.166C191.177 175.244 191.269 175.356 191.323 175.487C191.376 175.618 191.39 175.762 191.362 175.901C191.334 176.039 191.265 176.167 191.164 176.266C191.064 176.366 190.936 176.433 190.797 176.46C190.658 176.486 190.514 176.471 190.384 176.416C190.253 176.36 190.142 176.268 190.065 176.149C189.987 176.031 189.947 175.892 189.949 175.751C189.949 175.657 189.967 175.565 190.003 175.479C190.039 175.393 190.092 175.314 190.158 175.249C190.224 175.183 190.303 175.131 190.39 175.096C190.476 175.061 190.569 175.044 190.662 175.045ZM179.234 175.045C179.376 175.043 179.515 175.084 179.633 175.162C179.752 175.24 179.845 175.351 179.9 175.482C179.955 175.612 179.969 175.757 179.942 175.896C179.915 176.035 179.847 176.163 179.746 176.263C179.646 176.364 179.518 176.432 179.379 176.459C179.24 176.486 179.096 176.471 178.965 176.416C178.834 176.361 178.723 176.269 178.645 176.15C178.567 176.032 178.526 175.893 178.528 175.751C178.528 175.563 178.602 175.384 178.735 175.252C178.867 175.119 179.047 175.045 179.234 175.045ZM207.785 197.648C207.927 197.647 208.066 197.687 208.185 197.765C208.303 197.843 208.396 197.954 208.451 198.085C208.506 198.216 208.521 198.36 208.494 198.499C208.466 198.638 208.398 198.766 208.298 198.867C208.198 198.967 208.07 199.035 207.931 199.062C207.791 199.09 207.647 199.075 207.516 199.02C207.386 198.965 207.274 198.872 207.197 198.754C207.119 198.635 207.078 198.496 207.08 198.354C207.08 198.261 207.098 198.168 207.134 198.082C207.17 197.996 207.223 197.918 207.289 197.852C207.355 197.786 207.434 197.735 207.521 197.7C207.607 197.665 207.7 197.647 207.793 197.648H207.785ZM196.365 197.648C196.507 197.647 196.646 197.687 196.764 197.765C196.883 197.843 196.976 197.954 197.031 198.085C197.086 198.216 197.1 198.36 197.073 198.499C197.046 198.638 196.978 198.766 196.877 198.867C196.777 198.967 196.649 199.035 196.51 199.062C196.371 199.09 196.227 199.075 196.096 199.02C195.965 198.965 195.854 198.872 195.776 198.754C195.698 198.635 195.657 198.496 195.659 198.354C195.659 198.261 195.677 198.168 195.713 198.082C195.749 197.996 195.802 197.918 195.868 197.852C195.935 197.786 196.014 197.735 196.1 197.7C196.187 197.665 196.279 197.647 196.373 197.648H196.365ZM184.944 197.648C185.086 197.648 185.224 197.69 185.341 197.769C185.459 197.848 185.55 197.96 185.604 198.091C185.658 198.222 185.672 198.365 185.644 198.504C185.615 198.643 185.547 198.77 185.446 198.87C185.345 198.969 185.217 199.036 185.078 199.063C184.939 199.09 184.796 199.074 184.665 199.019C184.535 198.964 184.424 198.871 184.347 198.753C184.269 198.634 184.229 198.496 184.23 198.354C184.23 198.26 184.249 198.167 184.285 198.08C184.322 197.994 184.375 197.915 184.443 197.849C184.51 197.783 184.59 197.732 184.677 197.697C184.764 197.663 184.858 197.646 184.952 197.648H184.944ZM202.075 190.328C202.217 190.326 202.356 190.367 202.475 190.445C202.593 190.523 202.686 190.634 202.741 190.765C202.796 190.896 202.811 191.04 202.783 191.179C202.756 191.318 202.688 191.446 202.588 191.546C202.487 191.647 202.359 191.715 202.22 191.742C202.081 191.769 201.937 191.755 201.806 191.7C201.675 191.645 201.564 191.552 201.486 191.433C201.408 191.315 201.368 191.176 201.369 191.034C201.369 190.94 201.388 190.848 201.424 190.762C201.46 190.676 201.512 190.597 201.579 190.532C201.645 190.466 201.724 190.414 201.81 190.379C201.897 190.344 201.99 190.327 202.083 190.328H202.075ZM190.654 190.328C190.796 190.328 190.934 190.37 191.052 190.449C191.169 190.528 191.261 190.639 191.315 190.77C191.368 190.901 191.382 191.045 191.354 191.184C191.326 191.323 191.257 191.45 191.156 191.549C191.056 191.649 190.928 191.716 190.789 191.743C190.65 191.769 190.506 191.754 190.376 191.699C190.245 191.644 190.135 191.551 190.057 191.432C189.98 191.314 189.939 191.175 189.941 191.034C189.941 190.94 189.959 190.847 189.996 190.76C190.032 190.673 190.086 190.595 190.153 190.529C190.22 190.463 190.3 190.411 190.387 190.377C190.475 190.342 190.568 190.326 190.662 190.328H190.654ZM207.793 212.915C207.935 212.914 208.074 212.955 208.193 213.032C208.311 213.11 208.404 213.222 208.459 213.352C208.514 213.483 208.529 213.627 208.502 213.766C208.474 213.906 208.406 214.034 208.306 214.134C208.206 214.234 208.078 214.302 207.939 214.33C207.799 214.357 207.655 214.342 207.524 214.287C207.394 214.232 207.282 214.139 207.204 214.021C207.127 213.902 207.086 213.763 207.087 213.621C207.087 213.434 207.162 213.255 207.294 213.122C207.427 212.99 207.606 212.915 207.793 212.915ZM196.373 212.915C196.514 212.914 196.654 212.955 196.772 213.032C196.891 213.11 196.983 213.222 197.038 213.352C197.093 213.483 197.108 213.627 197.081 213.766C197.054 213.906 196.986 214.034 196.885 214.134C196.785 214.234 196.657 214.302 196.518 214.33C196.379 214.357 196.235 214.342 196.104 214.287C195.973 214.232 195.862 214.139 195.784 214.021C195.706 213.902 195.665 213.763 195.667 213.621C195.667 213.434 195.741 213.255 195.874 213.122C196.006 212.99 196.185 212.915 196.373 212.915ZM213.504 205.611C213.645 205.611 213.783 205.653 213.901 205.732C214.019 205.811 214.11 205.923 214.164 206.053C214.218 206.184 214.231 206.328 214.203 206.467C214.175 206.606 214.106 206.733 214.006 206.832C213.905 206.932 213.777 206.999 213.638 207.026C213.499 207.052 213.355 207.037 213.225 206.982C213.095 206.927 212.984 206.834 212.906 206.715C212.829 206.597 212.788 206.458 212.79 206.317C212.79 206.223 212.808 206.131 212.844 206.045C212.88 205.959 212.933 205.881 212.999 205.815C213.066 205.749 213.145 205.697 213.231 205.662C213.318 205.627 213.41 205.61 213.504 205.611ZM202.075 205.611C202.217 205.609 202.356 205.65 202.475 205.728C202.593 205.806 202.686 205.917 202.741 206.048C202.796 206.179 202.811 206.323 202.783 206.462C202.756 206.601 202.688 206.729 202.588 206.829C202.487 206.93 202.359 206.998 202.22 207.025C202.081 207.052 201.937 207.038 201.806 206.983C201.675 206.928 201.564 206.835 201.486 206.716C201.408 206.598 201.368 206.459 201.369 206.317C201.369 206.223 201.388 206.131 201.424 206.045C201.46 205.959 201.512 205.881 201.579 205.815C201.645 205.749 201.724 205.697 201.81 205.662C201.897 205.627 201.99 205.61 202.083 205.611H202.075ZM190.654 205.611C190.796 205.611 190.934 205.653 191.052 205.732C191.169 205.811 191.261 205.923 191.315 206.053C191.368 206.184 191.382 206.328 191.354 206.467C191.326 206.606 191.257 206.733 191.156 206.832C191.056 206.932 190.928 206.999 190.789 207.026C190.65 207.052 190.506 207.037 190.376 206.982C190.245 206.927 190.135 206.834 190.057 206.715C189.98 206.597 189.939 206.458 189.941 206.317C189.941 206.223 189.959 206.13 189.996 206.043C190.032 205.956 190.086 205.878 190.153 205.812C190.22 205.746 190.3 205.695 190.387 205.66C190.475 205.626 190.568 205.609 190.662 205.611H190.654ZM219.206 228.214C219.345 228.216 219.481 228.259 219.596 228.337C219.711 228.416 219.8 228.526 219.852 228.656C219.905 228.785 219.918 228.926 219.889 229.063C219.861 229.199 219.793 229.324 219.694 229.422C219.595 229.52 219.47 229.586 219.333 229.613C219.196 229.64 219.055 229.625 218.926 229.572C218.798 229.518 218.688 229.427 218.611 229.312C218.533 229.196 218.492 229.059 218.492 228.92C218.492 228.825 218.511 228.732 218.548 228.644C218.585 228.557 218.639 228.478 218.707 228.412C218.775 228.347 218.856 228.295 218.944 228.261C219.033 228.227 219.127 228.211 219.222 228.214H219.206ZM207.777 228.214C207.917 228.214 208.054 228.256 208.17 228.333C208.286 228.411 208.376 228.521 208.43 228.65C208.483 228.779 208.497 228.921 208.47 229.058C208.443 229.195 208.375 229.321 208.277 229.419C208.178 229.518 208.052 229.585 207.915 229.612C207.778 229.64 207.636 229.626 207.507 229.572C207.378 229.519 207.268 229.428 207.191 229.312C207.113 229.196 207.072 229.06 207.072 228.92C207.072 228.826 207.09 228.733 207.127 228.646C207.163 228.56 207.217 228.481 207.284 228.415C207.351 228.35 207.431 228.298 207.518 228.263C207.606 228.229 207.699 228.212 207.793 228.214H207.777ZM213.504 220.894C213.645 220.894 213.783 220.936 213.901 221.015C214.019 221.094 214.11 221.206 214.164 221.336C214.218 221.467 214.231 221.611 214.203 221.75C214.175 221.889 214.106 222.016 214.006 222.115C213.905 222.215 213.777 222.282 213.638 222.309C213.499 222.335 213.355 222.32 213.225 222.265C213.095 222.21 212.984 222.117 212.906 221.999C212.829 221.88 212.788 221.741 212.79 221.6C212.79 221.507 212.808 221.414 212.844 221.328C212.88 221.242 212.933 221.164 212.999 221.098C213.066 221.032 213.145 220.98 213.231 220.945C213.318 220.91 213.41 220.893 213.504 220.894ZM202.075 220.894C202.217 220.892 202.356 220.933 202.475 221.011C202.593 221.089 202.686 221.2 202.741 221.331C202.796 221.462 202.811 221.606 202.783 221.745C202.756 221.884 202.688 222.012 202.588 222.112C202.487 222.213 202.359 222.281 202.22 222.308C202.081 222.335 201.937 222.321 201.806 222.266C201.675 222.211 201.564 222.118 201.486 221.999C201.408 221.881 201.368 221.742 201.369 221.6C201.369 221.507 201.388 221.414 201.424 221.328C201.46 221.242 201.512 221.164 201.579 221.098C201.645 221.032 201.724 220.98 201.81 220.945C201.897 220.91 201.99 220.893 202.083 220.894H202.075ZM219.214 243.497C219.353 243.499 219.489 243.542 219.604 243.62C219.719 243.699 219.808 243.809 219.86 243.939C219.913 244.068 219.925 244.209 219.897 244.346C219.869 244.482 219.801 244.607 219.702 244.705C219.603 244.803 219.478 244.869 219.341 244.896C219.204 244.923 219.063 244.908 218.934 244.855C218.806 244.801 218.696 244.71 218.619 244.595C218.541 244.479 218.5 244.343 218.5 244.203C218.5 244.109 218.519 244.016 218.555 243.929C218.592 243.843 218.645 243.764 218.713 243.698C218.78 243.633 218.859 243.581 218.947 243.546C219.034 243.512 219.128 243.495 219.222 243.497H219.214ZM224.924 236.177C225.066 236.175 225.205 236.216 225.324 236.294C225.442 236.372 225.535 236.483 225.59 236.614C225.645 236.745 225.66 236.889 225.633 237.028C225.605 237.167 225.537 237.295 225.437 237.396C225.337 237.496 225.209 237.564 225.07 237.591C224.93 237.619 224.786 237.604 224.655 237.549C224.525 237.494 224.413 237.401 224.335 237.282C224.258 237.164 224.217 237.025 224.218 236.883C224.218 236.79 224.237 236.697 224.273 236.611C224.309 236.525 224.362 236.447 224.428 236.381C224.494 236.315 224.573 236.264 224.66 236.229C224.746 236.194 224.839 236.176 224.932 236.177H224.924ZM213.504 236.177C213.645 236.177 213.783 236.219 213.901 236.298C214.019 236.377 214.11 236.489 214.164 236.62C214.218 236.75 214.231 236.894 214.203 237.033C214.175 237.172 214.106 237.299 214.006 237.398C213.905 237.498 213.777 237.565 213.638 237.592C213.499 237.619 213.355 237.603 213.225 237.548C213.095 237.493 212.984 237.4 212.906 237.282C212.829 237.163 212.788 237.024 212.79 236.883C212.79 236.79 212.808 236.697 212.844 236.611C212.88 236.525 212.933 236.447 212.999 236.381C213.066 236.315 213.145 236.264 213.231 236.229C213.318 236.194 213.41 236.176 213.504 236.177Z" fill="white"/>
<path d="M201.185 255.218L199.115 242.806L196.141 220.782C196.141 220.782 203.144 208.552 199.083 199.781C197.029 195.331 179.034 167.708 171.468 162.156C164.33 156.993 154.019 162.521 150.197 166.558C135.397 182.134 128.418 213.065 123.104 255.195L201.185 255.218Z" fill="#F7A9A0"/>
<path d="M198.591 238.914L196.14 220.791C196.14 220.791 203.143 208.562 199.083 199.782C197.029 195.333 179.033 167.709 171.467 162.157C164.329 157.002 154.019 162.522 150.196 166.567C137.379 180.05 130.424 205.064 125.34 238.89L198.591 238.914Z" fill="#ED7155"/>
<path d="M168.215 220.418C171.67 220.115 175.143 220.07 178.605 220.283C180.318 220.41 182.023 220.616 183.728 220.862C184.577 220.981 185.426 221.076 186.282 221.164C187.172 221.275 188.073 221.275 188.963 221.164C188.972 221.16 188.983 221.159 188.993 221.16C189.003 221.161 189.013 221.165 189.021 221.171C189.03 221.177 189.036 221.185 189.041 221.194C189.046 221.203 189.048 221.213 189.048 221.223C189.048 221.233 189.046 221.243 189.041 221.252C189.036 221.261 189.03 221.269 189.021 221.275C189.013 221.281 189.003 221.285 188.993 221.286C188.983 221.287 188.972 221.286 188.963 221.282C188.135 221.473 187.295 221.608 186.449 221.687C185.627 221.742 184.803 221.742 183.982 221.687C182.237 221.576 180.5 221.378 178.756 221.251C175.242 220.981 171.729 220.719 168.199 220.704C168.162 220.701 168.126 220.684 168.101 220.656C168.076 220.628 168.062 220.591 168.065 220.553C168.067 220.515 168.084 220.48 168.112 220.454C168.14 220.429 168.177 220.416 168.215 220.418Z" fill="#002064"/>
<path d="M160.366 224.923C163.114 224.13 165.905 223.495 168.725 223.019C170.137 222.781 171.548 222.639 172.976 222.52C173.658 222.464 174.34 222.425 175.022 222.393C175.704 222.361 176.529 222.393 177.282 222.393C177.362 222.393 177.385 222.504 177.282 222.512C176.577 222.583 175.879 222.766 175.181 222.877L173.071 223.194C171.659 223.408 170.248 223.638 168.836 223.844C166.012 224.249 163.197 224.677 160.389 225.177C160.239 225.184 160.207 224.962 160.366 224.923Z" fill="#002064"/>
<path d="M199.114 242.807C198.718 239.127 198.321 235.439 197.853 231.767C197.386 228.095 196.981 224.407 196.489 220.735L196.418 220.996C197.471 219.498 198.336 217.876 198.996 216.166C199.672 214.472 200.161 212.709 200.455 210.908C200.74 209.102 200.82 207.268 200.693 205.444C200.487 203.622 200.033 201.837 199.344 200.138C197.973 196.803 196.27 193.614 194.261 190.621C192.299 187.603 190.159 184.706 187.852 181.944C189.986 184.831 191.984 187.821 193.856 190.874C195.743 193.899 197.359 197.083 198.686 200.392C199.338 202.031 199.76 203.752 199.939 205.507C200.038 207.27 199.951 209.037 199.678 210.781C199.408 212.531 198.948 214.247 198.306 215.897C197.686 217.551 196.866 219.122 195.863 220.576L195.783 220.695V220.83C196.275 224.502 196.854 228.158 197.37 231.83C197.885 235.502 198.52 239.151 199.114 242.807Z" fill="#002064"/>
<path d="M193.857 190.605C193.815 190.111 193.717 189.624 193.563 189.153C193.419 188.684 193.247 188.223 193.048 187.773C192.85 187.329 192.643 186.885 192.406 186.457C192.169 186.025 191.904 185.609 191.612 185.212C191.914 186.155 192.302 187.044 192.683 187.932C193.064 188.82 193.484 189.693 193.857 190.605Z" fill="#002064"/>
<path d="M258.123 317.264H54.6761L47.0941 279.131H265.705L258.123 317.264Z" fill="#ED7155"/>
<path opacity="0.12" d="M265.697 279.131L262.984 292.765H49.8146L47.1022 279.131H265.697Z" fill="black"/>
<path d="M269.511 288.086H43.2866V276.483H269.511V288.086Z" fill="#ED7155"/>
<path d="M45.8495 272.818C46.5403 273.495 47.4143 273.956 48.3636 274.142C47.9052 275.296 47.8114 276.562 48.0951 277.77C48.3787 278.979 49.0261 280.071 49.9499 280.9C49.6822 281.501 49.5942 282.168 49.6962 282.818C49.7983 283.469 50.0861 284.076 50.5251 284.567C50.9641 285.058 51.5355 285.412 52.1707 285.586C52.806 285.759 53.4779 285.746 54.1057 285.547C54.6647 286.6 55.4382 287.525 56.3763 288.261C57.3144 288.997 58.3964 289.528 59.5523 289.82C60.7083 290.112 61.9127 290.159 63.0878 289.957C64.2629 289.755 65.3827 289.309 66.375 288.648C66.9002 289.585 67.6485 290.378 68.5535 290.956C69.4585 291.535 70.4923 291.881 71.5631 291.964C72.6339 292.047 73.7086 291.865 74.6921 291.433C75.6755 291.001 76.5373 290.333 77.2008 289.489C79.2519 290.978 81.7773 291.663 84.2996 291.416C86.8219 291.169 89.1664 290.007 90.8897 288.149C91.8423 289.025 93.0465 289.58 94.3318 289.735C95.918 290.004 97.5835 289.822 99.138 290.195C101.343 290.726 102.667 292.312 104.372 293.637C106.078 294.961 109.131 295.461 110.773 294.113C112.551 297.264 115.075 299.931 118.124 301.879C121.173 303.828 124.654 304.998 128.261 305.288C134.455 305.763 142.172 302.805 143.639 296.46C145.204 297.812 147.07 298.769 149.081 299.253C151.092 299.737 153.19 299.732 155.199 299.24C157.207 298.748 159.069 297.782 160.629 296.424C162.189 295.066 163.401 293.354 164.164 291.432C169.026 293.462 175.323 294.819 178.44 290.131C179.749 291.643 181.569 292.618 183.552 292.87C185.536 293.121 187.542 292.632 189.187 291.495C194.136 296.738 203.011 303.067 208.864 296.135C213.876 300.632 222.243 303.598 226.558 296.928C230.753 299.395 236.075 301.615 240.691 299.189C243.736 297.602 245.703 294.351 245.204 291.028C246.385 291.249 247.605 291.12 248.713 290.654C249.821 290.189 250.769 289.409 251.437 288.41C253.42 289.354 254.546 287.284 256.109 285.96C259.115 283.382 263.088 285.262 266.221 283.057C271.297 279.496 266.934 273.801 262.866 271.953C263.052 270.668 262.916 269.357 262.472 268.136C262.027 266.916 261.287 265.825 260.317 264.961C259.348 264.097 258.179 263.486 256.916 263.184C255.653 262.882 254.335 262.898 253.079 263.229C253.374 261.228 253.055 259.184 252.162 257.368C251.27 255.553 249.847 254.051 248.082 253.062C242.674 250.016 236.392 252.673 232.427 256.813C230.468 253.837 227.763 251.426 224.582 249.821C221.401 248.217 217.854 247.475 214.296 247.669C209.871 247.907 203.986 250.508 201.845 254.632C200.387 253.794 198.812 253.177 197.173 252.8C194.087 252.077 190.861 252.221 187.851 253.214C184.841 254.208 182.163 256.013 180.114 258.431C177.492 257.463 174.656 257.23 171.911 257.759C169.167 258.287 166.62 259.556 164.545 261.429C163.27 259.657 161.576 258.228 159.614 257.269C157.652 256.31 155.484 255.851 153.302 255.934C151.12 256.016 148.992 256.637 147.108 257.741C145.224 258.845 143.643 260.398 142.505 262.262C140.424 259.837 137.817 257.919 134.883 256.654C131.949 255.39 128.764 254.812 125.573 254.965C122.381 255.118 119.267 255.998 116.467 257.537C113.667 259.077 111.256 261.235 109.417 263.848C105.53 256.972 97.6946 256.575 90.1839 257.416C87.8046 257.67 86.2184 257.654 84.0612 256.662C83.2681 256.306 82.586 255.79 81.8008 255.449C80.1637 254.719 78.4158 254.269 76.6298 254.117C73.035 253.8 69.4283 254.574 66.2798 256.337C64.8919 257.13 63.4722 259.129 62.1398 259.676C60.4664 260.358 57.3812 259.383 55.454 259.637C51.9961 260.105 48.3161 261.73 46.0716 264.514C44.1602 266.973 43.3671 270.494 45.8495 272.818Z" fill="#002064"/>
<path d="M242.213 269.591C240.626 266.299 242.213 260.414 246.361 258.725C250.509 257.036 256.155 260.24 257.075 263.864C257.995 267.489 254.03 273.548 250.778 273.984C247.146 274.444 243.386 272.01 242.213 269.591Z" fill="#ED7155"/>
<path opacity="0.12" d="M258.813 264.736C255.87 267.258 250.985 269.495 246.988 269.328C248.551 271.258 250.328 273.003 252.285 274.531C252.397 274.626 252.285 274.832 252.135 274.745C247.551 271.692 243.038 266.172 242.84 260.469C242.84 260.39 242.943 260.39 242.951 260.469C243.145 262.068 243.598 263.624 244.291 265.077C245.877 261.667 250.366 259.105 253.808 258.296C253.83 258.289 253.854 258.291 253.875 258.301C253.896 258.311 253.912 258.33 253.919 258.352C253.927 258.374 253.925 258.398 253.915 258.419C253.904 258.44 253.886 258.455 253.864 258.463C252.811 258.889 251.781 259.371 250.779 259.906C252.682 261.588 254.118 264.863 253.689 267.377C255.426 266.602 257.075 265.642 258.606 264.514C258.71 264.395 258.948 264.625 258.813 264.736ZM246.813 269.13C248.459 269.016 250.083 268.686 251.643 268.147C249.287 268.281 246.949 267.665 244.965 266.386C245.516 267.343 246.133 268.26 246.813 269.13ZM244.434 265.339C244.561 265.601 244.695 265.855 244.838 266.132C246.387 266.918 248.062 267.426 249.787 267.631C248.149 266.602 246.871 265.088 246.131 263.301C245.505 263.928 244.937 264.61 244.434 265.339ZM246.226 263.182C246.857 264.296 247.621 265.33 248.502 266.259C248.828 266.188 249.145 266.092 249.462 265.989C248.95 265.606 248.538 265.104 248.262 264.527C247.985 263.949 247.853 263.314 247.876 262.674C247.432 262.73 246.98 262.809 246.52 262.904L246.226 263.182ZM249.605 262.579C249.46 262.81 249.343 263.058 249.256 263.317C249.183 263.636 249.154 263.965 249.169 264.292C249.697 264.367 250.234 264.346 250.755 264.229C250.634 263.681 250.45 263.148 250.208 262.642C249.985 262.595 249.803 262.587 249.605 262.579ZM249.311 262.579C248.869 262.578 248.426 262.605 247.987 262.658C248.102 263.187 248.272 263.703 248.494 264.197L249.105 264.284C249.011 264.003 248.98 263.703 249.016 263.408C249.051 263.113 249.152 262.83 249.311 262.579ZM248.59 264.379C248.886 264.947 249.284 265.455 249.763 265.878C250.053 265.763 250.336 265.634 250.612 265.49C250.758 265.145 250.815 264.768 250.779 264.395C250.435 264.555 250.061 264.636 249.682 264.634C249.304 264.631 248.931 264.544 248.59 264.379ZM250.652 259.962C249.297 260.69 248.031 261.571 246.877 262.587C248.672 261.993 250.626 262.106 252.341 262.904C251.917 261.85 251.348 260.86 250.652 259.962ZM252.436 263.134C251.767 262.88 251.069 262.707 250.358 262.619C250.667 262.976 250.883 263.404 250.986 263.865C251.09 264.325 251.079 264.805 250.953 265.26C251.612 264.874 252.198 264.375 252.682 263.785C252.603 263.578 252.515 263.364 252.436 263.15V263.134ZM252.801 264.133C252.29 264.765 251.657 265.287 250.941 265.67C250.224 266.053 249.438 266.288 248.629 266.362C249.09 266.832 249.591 267.259 250.128 267.639C250.826 267.734 251.548 267.798 252.309 267.869C252.698 267.718 253.102 267.568 253.475 267.401C253.354 266.298 253.129 265.209 252.801 264.149V264.133Z" fill="black"/>
<path d="M172.904 268.361C171.318 265.061 172.904 259.184 177.052 257.487C181.2 255.79 186.855 259.01 187.775 262.626C188.695 266.243 184.721 272.318 181.43 272.739C177.814 273.191 174.078 270.811 172.904 268.361Z" fill="#ED7155"/>
<path opacity="0.12" d="M189.503 263.508C186.561 266.022 181.683 268.266 177.678 268.1C179.242 270.029 181.019 271.774 182.976 273.303C183.087 273.398 182.976 273.596 182.826 273.517C178.241 270.463 173.729 264.935 173.53 259.241C173.53 259.226 173.536 259.212 173.547 259.202C173.557 259.191 173.571 259.185 173.586 259.185C173.601 259.185 173.615 259.191 173.625 259.202C173.636 259.212 173.641 259.226 173.641 259.241C173.837 260.839 174.289 262.395 174.982 263.849C176.568 260.438 181.057 257.877 184.499 257.068C184.521 257.06 184.545 257.062 184.566 257.073C184.587 257.083 184.603 257.101 184.61 257.123C184.617 257.145 184.616 257.169 184.605 257.19C184.595 257.211 184.577 257.227 184.554 257.234C183.5 257.659 182.471 258.141 181.469 258.678C183.373 260.359 184.808 263.627 184.38 266.141C186.118 265.371 187.767 264.413 189.297 263.286C189.44 263.167 189.638 263.389 189.503 263.508ZM177.52 267.902C179.166 267.786 180.79 267.452 182.35 266.91C179.995 267.054 177.657 266.436 175.68 265.149C176.223 266.112 176.838 267.032 177.52 267.902ZM175.14 264.11C175.267 264.372 175.402 264.626 175.545 264.904C177.094 265.69 178.769 266.197 180.494 266.403C178.855 265.373 177.578 263.86 176.838 262.072C176.202 262.695 175.629 263.378 175.124 264.11H175.14ZM176.941 261.945C177.564 263.065 178.326 264.102 179.209 265.03C179.534 264.957 179.855 264.865 180.169 264.753C179.656 264.369 179.245 263.867 178.968 263.29C178.692 262.713 178.56 262.077 178.582 261.438C178.138 261.491 177.686 261.57 177.226 261.676L176.941 261.945ZM180.311 261.351C180.17 261.584 180.053 261.831 179.962 262.088C179.89 262.408 179.86 262.736 179.875 263.064C180.404 263.136 180.941 263.112 181.461 262.992C181.338 262.445 181.155 261.913 180.914 261.406C180.692 261.366 180.494 261.351 180.296 261.351H180.311ZM180.018 261.351C179.575 261.353 179.133 261.38 178.693 261.43C178.806 261.961 178.979 262.477 179.209 262.968C179.407 262.968 179.613 263.04 179.812 263.064C179.714 262.781 179.68 262.479 179.713 262.182C179.746 261.884 179.845 261.597 180.002 261.343L180.018 261.351ZM179.296 263.159C179.594 263.725 179.992 264.232 180.47 264.658C180.759 264.543 181.043 264.413 181.319 264.269C181.464 263.924 181.521 263.548 181.485 263.175C181.139 263.336 180.762 263.417 180.38 263.413C179.999 263.409 179.623 263.319 179.28 263.151L179.296 263.159ZM181.358 258.741C180.004 259.467 178.738 260.345 177.583 261.358C179.38 260.767 181.334 260.883 183.048 261.684C182.619 260.626 182.045 259.633 181.342 258.733L181.358 258.741ZM183.143 261.914C182.474 261.656 181.776 261.482 181.065 261.398C181.374 261.755 181.589 262.183 181.693 262.644C181.797 263.105 181.785 263.584 181.66 264.039C182.312 263.653 182.889 263.154 183.365 262.564L183.143 261.914ZM183.508 262.913C182.995 263.543 182.362 264.064 181.646 264.447C180.93 264.83 180.144 265.066 179.336 265.142C179.798 265.609 180.3 266.036 180.835 266.418C181.533 266.506 182.254 266.577 183.016 266.64H183.056C183.444 266.498 183.849 266.347 184.221 266.181C184.084 265.073 183.84 263.981 183.492 262.921L183.508 262.913Z" fill="black"/>
<path d="M120.02 283.311C116.435 282.518 112.779 277.672 113.976 273.373C115.174 269.075 121.185 266.561 124.612 268.052C128.038 269.543 130.393 276.403 128.728 279.242C126.872 282.391 122.645 283.866 120.02 283.311Z" fill="#ED7155"/>
<path opacity="0.12" d="M126.363 267.227C126.546 271.089 125.316 276.316 122.739 279.377C125.219 279.323 127.685 278.991 130.091 278.386C130.242 278.386 130.313 278.592 130.17 278.639C124.952 280.384 117.822 280.559 113.182 277.22C113.175 277.209 113.171 277.196 113.172 277.183C113.172 277.17 113.177 277.158 113.185 277.147C113.192 277.137 113.203 277.129 113.215 277.125C113.228 277.121 113.241 277.121 113.253 277.124C114.636 277.953 116.144 278.55 117.719 278.893C115.974 275.57 116.727 270.431 118.194 267.219C118.202 267.197 118.218 267.178 118.238 267.168C118.259 267.157 118.283 267.156 118.305 267.163C118.327 267.17 118.346 267.186 118.356 267.207C118.367 267.228 118.368 267.252 118.361 267.274C118.036 268.366 117.771 269.476 117.568 270.597C120.066 270.121 123.524 271.002 125.253 272.881C125.717 271.035 125.983 269.145 126.046 267.242C126.054 267.06 126.355 267.044 126.363 267.227ZM122.485 279.385C123.401 278.014 124.134 276.528 124.666 274.967C123.333 276.912 121.413 278.38 119.186 279.155C120.278 279.311 121.381 279.388 122.485 279.385ZM118.02 278.949C118.305 279.012 118.591 279.06 118.876 279.099C120.449 278.36 121.877 277.348 123.096 276.109C121.278 276.774 119.3 276.857 117.433 276.347C117.547 277.231 117.743 278.102 118.02 278.949ZM117.417 276.204C118.682 276.395 119.967 276.427 121.24 276.3C121.384 275.999 121.508 275.689 121.613 275.372C120.995 275.538 120.347 275.553 119.723 275.415C119.099 275.277 118.517 274.99 118.028 274.579C117.795 274.97 117.581 275.374 117.385 275.792C117.393 275.935 117.401 276.07 117.417 276.204ZM119.003 273.167C119.1 273.423 119.225 273.668 119.376 273.897C119.576 274.156 119.817 274.381 120.09 274.563C120.47 274.194 120.78 273.759 121.002 273.278C120.496 273.033 119.964 272.847 119.416 272.723L119.003 273.167ZM118.821 273.405C118.55 273.751 118.301 274.114 118.075 274.491C118.56 274.733 119.071 274.916 119.598 275.039L120.05 274.61C119.77 274.513 119.514 274.355 119.303 274.146C119.092 273.937 118.93 273.684 118.829 273.405H118.821ZM119.796 275.078C120.428 275.197 121.076 275.197 121.708 275.078C121.796 274.782 121.865 274.48 121.914 274.174C121.724 273.844 121.451 273.571 121.121 273.381C121.04 273.744 120.881 274.084 120.653 274.377C120.425 274.671 120.136 274.91 119.804 275.078H119.796ZM117.576 270.74C117.323 272.254 117.243 273.792 117.338 275.324C117.967 273.544 119.256 272.073 120.938 271.216C119.848 270.902 118.719 270.741 117.584 270.74H117.576ZM121.192 271.287C120.577 271.655 120.012 272.1 119.511 272.612C119.983 272.586 120.453 272.678 120.881 272.879C121.308 273.079 121.68 273.383 121.962 273.762C122.06 273.002 122.022 272.232 121.851 271.486L121.192 271.287ZM122.2 271.612C122.386 272.403 122.412 273.223 122.275 274.025C122.139 274.826 121.844 275.591 121.406 276.276C122.06 276.2 122.705 276.064 123.334 275.871C123.833 275.372 124.333 274.848 124.848 274.285C124.975 273.881 125.086 273.492 125.197 273.08C124.25 272.493 123.249 271.999 122.207 271.604L122.2 271.612Z" fill="black"/>
<path d="M65.2871 274.572C68.864 273.778 72.5281 268.933 71.3305 264.634C70.1329 260.335 64.1212 257.821 60.695 259.32C57.2688 260.819 54.9133 267.664 56.5788 270.503C58.4268 273.652 62.6619 275.127 65.2871 274.572Z" fill="#ED7155"/>
<path opacity="0.12" d="M59.2526 258.503C59.3196 260.405 59.5854 262.295 60.0457 264.142C61.7668 262.262 65.2326 261.39 67.7309 261.858C67.5269 260.737 67.2621 259.627 66.9378 258.535C66.9342 258.524 66.9327 258.512 66.9335 258.501C66.9343 258.489 66.9374 258.478 66.9425 258.468C66.9477 258.458 66.9548 258.448 66.9636 258.441C66.9723 258.433 66.9824 258.428 66.9933 258.424C67.0042 258.42 67.0158 258.419 67.0273 258.42C67.0388 258.42 67.05 258.423 67.0603 258.429C67.0706 258.434 67.0798 258.441 67.0874 258.45C67.0949 258.458 67.1007 258.468 67.1043 258.479C68.5716 261.691 69.3171 266.831 67.5802 270.154C69.1549 269.811 70.6632 269.214 72.0454 268.385C72.0516 268.381 72.0586 268.378 72.066 268.377C72.0734 268.375 72.081 268.375 72.0883 268.377C72.0957 268.378 72.1027 268.381 72.1089 268.385C72.1152 268.389 72.1205 268.395 72.1247 268.401C72.1288 268.407 72.1317 268.414 72.1332 268.422C72.1346 268.429 72.1346 268.437 72.1332 268.444C72.1317 268.451 72.1288 268.458 72.1246 268.465C72.1204 268.471 72.1151 268.476 72.1088 268.48C67.4771 271.827 60.3471 271.653 55.1206 269.9C54.9857 269.852 55.0571 269.615 55.1999 269.654C57.6099 270.251 60.0778 270.583 62.5599 270.646C59.9823 267.576 58.745 262.35 58.9354 258.487C58.9513 258.305 59.2526 258.321 59.2526 258.503ZM66.1209 270.4C63.8941 269.624 61.9737 268.157 60.6406 266.212C61.1689 267.775 61.9023 269.26 62.8216 270.63C63.9251 270.638 65.0278 270.567 66.1209 270.416V270.4ZM67.8657 267.592C65.9991 268.102 64.0203 268.018 62.203 267.354C63.4261 268.593 64.8568 269.608 66.4302 270.352C66.7157 270.305 67.0012 270.257 67.2788 270.194C67.5557 269.363 67.7522 268.508 67.8657 267.64V267.592ZM67.9212 267.045C67.715 266.625 67.5009 266.252 67.2709 265.831C66.7815 266.243 66.2 266.53 65.5758 266.668C64.9516 266.806 64.3033 266.791 63.6861 266.625C63.7939 266.94 63.9183 267.25 64.0588 267.552C65.3348 267.679 66.6215 267.647 67.8895 267.457C67.9054 267.33 67.9054 267.196 67.9212 267.061V267.045ZM65.8988 263.976C65.35 264.094 64.8175 264.277 64.3126 264.523C64.5386 265.006 64.8503 265.444 65.2326 265.816C65.502 265.627 65.7425 265.4 65.9464 265.141C66.097 264.915 66.2221 264.673 66.3192 264.42C66.1685 264.285 66.0337 264.134 65.8988 263.991V263.976ZM65.2485 265.855C65.3913 266.006 65.5419 266.149 65.6926 266.284C66.2215 266.162 66.735 265.981 67.2233 265.744C66.9997 265.363 66.7506 264.997 66.4778 264.65C66.3767 264.932 66.2138 265.188 66.0012 265.399C65.7885 265.611 65.5314 265.772 65.2485 265.871V265.855ZM64.1382 264.61C63.8075 264.799 63.5336 265.073 63.3451 265.403C63.4005 265.708 63.4719 266.01 63.5592 266.307C64.1881 266.426 64.8337 266.426 65.4626 266.307C65.1327 266.14 64.8432 265.904 64.6145 265.613C64.3857 265.323 64.2231 264.986 64.1382 264.626V264.61ZM64.3602 262.461C66.0415 263.323 67.3296 264.796 67.9609 266.577C68.0561 265.042 67.9763 263.502 67.723 261.985C66.5846 261.991 65.4526 262.156 64.3602 262.477V262.461ZM63.4481 262.738C63.2697 263.481 63.2294 264.25 63.3292 265.007C63.6123 264.627 63.9851 264.325 64.4143 264.125C64.8435 263.926 65.3154 263.836 65.7878 263.865C65.2873 263.35 64.7221 262.902 64.1064 262.532C63.8844 262.619 63.6623 262.675 63.4481 262.754V262.738ZM60.0616 264.325C60.1647 264.729 60.2837 265.118 60.4106 265.53C60.934 266.093 61.4257 266.617 61.9254 267.116C62.5569 267.309 63.2046 267.445 63.8606 267.521C63.4232 266.836 63.1277 266.07 62.9915 265.269C62.8552 264.468 62.8811 263.648 63.0675 262.857C62.021 263.249 61.0145 263.741 60.0616 264.325Z" fill="black"/>
<path d="M213.661 289.354C217.238 288.6 220.894 283.715 219.704 279.416C218.515 275.117 212.495 272.603 209.069 274.102C205.643 275.601 203.279 282.454 204.945 285.285C206.8 288.442 211.028 289.917 213.661 289.354Z" fill="#ED7155"/>
<path opacity="0.12" d="M207.625 273.285C207.684 275.188 207.95 277.079 208.418 278.924C210.139 277.045 213.597 276.172 216.096 276.64C215.905 275.522 215.653 274.415 215.342 273.325C215.334 273.303 215.335 273.278 215.344 273.257C215.354 273.235 215.372 273.218 215.394 273.21C215.416 273.201 215.44 273.202 215.462 273.212C215.484 273.221 215.5 273.239 215.509 273.261C216.984 276.473 217.729 281.621 215.985 284.936C217.56 284.595 219.068 283.997 220.45 283.167C220.513 283.167 220.577 283.223 220.521 283.262C215.889 286.609 208.752 286.435 203.533 284.682C203.39 284.634 203.47 284.404 203.612 284.436C206.018 285.041 208.484 285.374 210.964 285.428C208.387 282.358 207.157 277.132 207.34 273.277C207.324 273.095 207.617 273.111 207.625 273.285ZM214.494 285.182C212.265 284.402 210.342 282.933 209.005 280.986C209.535 282.548 210.269 284.033 211.186 285.404C212.292 285.421 213.398 285.355 214.494 285.206V285.182ZM216.238 282.366C214.373 282.878 212.394 282.798 210.576 282.136C211.797 283.375 213.228 284.387 214.803 285.126L215.652 284.976C215.927 284.134 216.123 283.268 216.238 282.39V282.366ZM216.294 281.827C216.088 281.399 215.874 280.994 215.644 280.606C215.154 281.017 214.573 281.304 213.949 281.442C213.324 281.58 212.676 281.565 212.059 281.399C212.165 281.712 212.29 282.019 212.432 282.319C213.704 282.448 214.989 282.419 216.254 282.231C216.278 282.12 216.278 281.986 216.294 281.851V281.827ZM214.295 278.742C213.747 278.866 213.215 279.052 212.709 279.297C212.937 279.774 213.246 280.209 213.621 280.582C213.89 280.396 214.131 280.171 214.335 279.916C214.492 279.69 214.617 279.445 214.708 279.186C214.533 279.067 214.406 278.916 214.295 278.742ZM213.645 280.629L214.089 281.05C214.617 280.925 215.13 280.745 215.62 280.51C215.39 280.131 215.138 279.766 214.866 279.416C214.768 279.705 214.605 279.968 214.389 280.184C214.173 280.4 213.91 280.563 213.621 280.661L213.645 280.629ZM212.535 279.376C212.206 279.567 211.932 279.84 211.742 280.169C211.789 280.478 211.861 280.783 211.956 281.081C212.585 281.196 213.23 281.196 213.859 281.081C213.525 280.919 213.23 280.685 212.997 280.396C212.764 280.107 212.598 279.769 212.511 279.408L212.535 279.376ZM212.757 277.227C214.436 278.09 215.722 279.563 216.349 281.343C216.444 279.811 216.365 278.273 216.112 276.759C214.959 276.759 213.813 276.927 212.709 277.259L212.757 277.227ZM211.837 277.505C211.665 278.251 211.627 279.021 211.726 279.781C212.007 279.4 212.38 279.095 212.809 278.894C213.238 278.693 213.711 278.603 214.184 278.631C213.68 278.122 213.115 277.678 212.503 277.306L211.837 277.505ZM208.458 279.091C208.561 279.503 208.68 279.884 208.799 280.296C208.799 280.296 208.799 280.296 208.839 280.296C209.354 280.859 209.854 281.383 210.354 281.882C210.986 282.07 211.634 282.203 212.289 282.279C211.852 281.596 211.556 280.831 211.42 280.032C211.284 279.232 211.31 278.413 211.496 277.623C210.429 278.016 209.403 278.512 208.434 279.107L208.458 279.091Z" fill="black"/>
<path d="M227.35 244.218C222.686 250.896 209.989 252.149 178.304 258.375C173.926 259.231 159.571 229.926 164.179 228.776C170.016 227.317 192.977 222.923 194.698 222.812C209.203 221.884 230.514 239.697 227.35 244.218Z" fill="#F7A9A0"/>
<path d="M170.517 227.327C170.517 227.327 157.089 229.349 150.372 232.601C141.37 236.947 135.39 244.41 133.074 247.67C128.236 254.514 121.273 274.398 126.658 277.403C131.52 280.124 137.611 259.44 137.611 259.44C137.611 259.44 127.919 279.505 134.383 281.702C140.847 283.899 146.557 259.495 146.557 259.495C146.557 259.495 137.04 280.33 144.083 281.543C149.388 282.463 155.805 260.637 155.805 260.637C155.805 260.637 147.771 278.609 153.187 279.783C159.175 281.123 166.353 261.295 166.353 261.295C180.629 261.97 187.703 256.45 192.271 251.929C193.374 250.85 170.517 227.327 170.517 227.327Z" fill="#F7A9A0"/>
<path d="M140.537 252.301C139.316 254.617 138.055 256.949 137.047 259.368C136.04 261.787 135.104 264.238 134.319 266.736C133.224 269.984 132.511 273.348 132.194 276.761C133.209 270.749 136.706 262.041 137.745 259.622C138.784 257.203 139.649 254.744 140.664 252.333C140.64 252.27 140.537 252.246 140.537 252.301Z" fill="#002064"/>
<path d="M149.316 255.798C147.881 258.828 146.342 261.778 145.041 264.863C143.741 267.949 142.789 270.97 141.71 274.127C141.623 274.365 141.782 274.333 141.877 274.087C143.083 270.978 144.439 268.202 145.676 265.101C146.913 262 148.055 258.868 149.388 255.83C149.411 255.782 149.332 255.743 149.316 255.798Z" fill="#002064"/>
<path d="M157.398 257.448C155.088 262.035 153.257 266.848 151.934 271.811C151.855 272.049 152.061 271.986 152.148 271.74C153.877 266.934 155.194 263.151 157.557 257.536C157.597 257.448 157.454 257.329 157.398 257.448Z" fill="#002064"/>
<path d="M142.417 237.708C140.852 238.725 139.391 239.894 138.055 241.197C136.699 242.484 135.447 243.876 134.312 245.361C133.733 246.099 133.218 246.876 132.678 247.645C132.139 248.415 131.671 249.232 131.266 250.025C130.37 251.665 129.642 253.393 129.093 255.18C129.561 254.387 129.886 253.506 130.402 252.721L131.068 251.508C131.298 251.111 131.552 250.715 131.79 250.334C132.767 248.77 133.826 247.258 134.962 245.805C136.073 244.346 137.27 242.942 138.507 241.586C139.134 240.904 139.769 240.238 140.427 239.587C141.085 238.937 141.727 238.334 142.417 237.708Z" fill="#002064"/>
<path d="M167.717 227.326L195.475 258.257C195.475 258.257 223.543 251.809 227.675 244.616C230.395 239.857 209.267 220.688 193.318 222.925L167.717 227.326Z" fill="#ED7155"/>
<path d="M207.085 228.921C207.084 229.063 207.124 229.202 207.202 229.32C207.28 229.439 207.391 229.532 207.522 229.587C207.653 229.642 207.797 229.656 207.936 229.629C208.075 229.602 208.203 229.534 208.304 229.433C208.404 229.333 208.472 229.205 208.499 229.066C208.527 228.927 208.512 228.783 208.457 228.652C208.402 228.521 208.309 228.41 208.19 228.332C208.072 228.254 207.933 228.213 207.791 228.215C207.604 228.215 207.424 228.289 207.292 228.422C207.159 228.554 207.085 228.734 207.085 228.921ZM196.37 228.215C196.51 228.215 196.646 228.256 196.762 228.334C196.879 228.411 196.969 228.522 197.022 228.651C197.076 228.78 197.09 228.922 197.063 229.058C197.035 229.195 196.968 229.321 196.869 229.42C196.771 229.519 196.645 229.586 196.508 229.613C196.371 229.64 196.229 229.626 196.1 229.573C195.971 229.519 195.861 229.429 195.783 229.313C195.706 229.197 195.664 229.06 195.664 228.921C195.664 228.734 195.739 228.554 195.871 228.422C196.004 228.289 196.183 228.215 196.37 228.215ZM184.95 228.215C185.089 228.216 185.225 228.259 185.34 228.338C185.455 228.416 185.544 228.527 185.596 228.656C185.648 228.785 185.661 228.927 185.633 229.063C185.605 229.2 185.537 229.325 185.438 229.423C185.339 229.521 185.213 229.587 185.077 229.614C184.94 229.64 184.798 229.626 184.67 229.572C184.541 229.518 184.432 229.428 184.354 229.312C184.277 229.196 184.236 229.06 184.236 228.921C184.236 228.827 184.254 228.735 184.29 228.649C184.326 228.563 184.379 228.484 184.445 228.419C184.512 228.353 184.591 228.301 184.677 228.266C184.764 228.231 184.856 228.214 184.95 228.215ZM173.521 228.215C173.661 228.215 173.797 228.256 173.913 228.334C174.029 228.411 174.12 228.522 174.173 228.651C174.227 228.78 174.241 228.922 174.213 229.058C174.186 229.195 174.119 229.321 174.02 229.42C173.921 229.519 173.796 229.586 173.659 229.613C173.522 229.64 173.38 229.626 173.251 229.573C173.122 229.519 173.012 229.429 172.934 229.313C172.857 229.197 172.815 229.06 172.815 228.921C172.815 228.734 172.89 228.554 173.022 228.422C173.154 228.289 173.334 228.215 173.521 228.215ZM219.22 243.498C219.359 243.5 219.494 243.542 219.61 243.621C219.725 243.699 219.814 243.81 219.866 243.939C219.918 244.068 219.931 244.21 219.903 244.346C219.875 244.483 219.807 244.608 219.708 244.706C219.609 244.804 219.483 244.87 219.346 244.897C219.21 244.923 219.068 244.909 218.94 244.855C218.811 244.802 218.701 244.711 218.624 244.595C218.547 244.479 218.506 244.343 218.506 244.204C218.506 244.11 218.524 244.018 218.56 243.932C218.596 243.846 218.649 243.768 218.715 243.702C218.782 243.636 218.86 243.584 218.947 243.549C219.034 243.514 219.126 243.497 219.22 243.498ZM207.791 243.498C207.931 243.498 208.067 243.539 208.183 243.617C208.299 243.694 208.39 243.805 208.443 243.934C208.497 244.063 208.51 244.205 208.483 244.342C208.456 244.478 208.389 244.604 208.29 244.703C208.191 244.802 208.066 244.869 207.929 244.896C207.792 244.923 207.65 244.909 207.521 244.856C207.392 244.803 207.282 244.712 207.204 244.596C207.127 244.48 207.085 244.343 207.085 244.204C207.085 244.017 207.159 243.837 207.292 243.705C207.424 243.572 207.604 243.498 207.791 243.498ZM196.37 243.498C196.51 243.498 196.646 243.539 196.762 243.617C196.879 243.694 196.969 243.805 197.022 243.934C197.076 244.063 197.09 244.205 197.063 244.342C197.035 244.478 196.968 244.604 196.869 244.703C196.771 244.802 196.645 244.869 196.508 244.896C196.371 244.923 196.229 244.909 196.1 244.856C195.971 244.803 195.861 244.712 195.783 244.596C195.706 244.48 195.664 244.343 195.664 244.204C195.664 244.017 195.739 243.837 195.871 243.705C196.004 243.572 196.183 243.498 196.37 243.498ZM184.95 243.498C185.089 243.5 185.225 243.542 185.34 243.621C185.455 243.699 185.544 243.81 185.596 243.939C185.648 244.068 185.661 244.21 185.633 244.346C185.605 244.483 185.537 244.608 185.438 244.706C185.339 244.804 185.213 244.87 185.077 244.897C184.94 244.923 184.798 244.909 184.67 244.855C184.541 244.802 184.432 244.711 184.354 244.595C184.277 244.479 184.236 244.343 184.236 244.204C184.236 244.11 184.254 244.018 184.29 243.932C184.326 243.846 184.379 243.768 184.445 243.702C184.512 243.636 184.591 243.584 184.677 243.549C184.764 243.514 184.856 243.497 184.95 243.498ZM213.501 236.178C213.643 236.178 213.781 236.22 213.899 236.299C214.016 236.377 214.108 236.489 214.161 236.62C214.215 236.751 214.229 236.895 214.201 237.034C214.173 237.172 214.104 237.299 214.003 237.399C213.903 237.498 213.775 237.566 213.636 237.592C213.497 237.619 213.353 237.604 213.223 237.549C213.092 237.493 212.981 237.401 212.904 237.282C212.826 237.164 212.786 237.025 212.788 236.884C212.788 236.79 212.806 236.698 212.842 236.612C212.878 236.525 212.931 236.447 212.997 236.382C213.063 236.316 213.142 236.264 213.229 236.229C213.315 236.194 213.408 236.177 213.501 236.178ZM202.073 236.178C202.215 236.176 202.354 236.217 202.472 236.295C202.591 236.372 202.684 236.484 202.739 236.615C202.794 236.745 202.808 236.89 202.781 237.029C202.754 237.168 202.686 237.296 202.585 237.396C202.485 237.496 202.357 237.565 202.218 237.592C202.079 237.619 201.935 237.604 201.804 237.549C201.673 237.494 201.562 237.402 201.484 237.283C201.406 237.164 201.365 237.025 201.367 236.884C201.367 236.79 201.385 236.698 201.421 236.612C201.457 236.525 201.51 236.447 201.576 236.382C201.643 236.316 201.722 236.264 201.808 236.229C201.895 236.194 201.987 236.177 202.081 236.178H202.073ZM190.652 236.178C190.794 236.178 190.932 236.22 191.049 236.299C191.167 236.377 191.258 236.489 191.312 236.62C191.366 236.751 191.38 236.895 191.351 237.034C191.323 237.172 191.255 237.299 191.154 237.399C191.053 237.498 190.925 237.566 190.786 237.592C190.647 237.619 190.504 237.604 190.373 237.549C190.243 237.493 190.132 237.401 190.055 237.282C189.977 237.164 189.937 237.025 189.938 236.884C189.938 236.789 189.957 236.696 189.993 236.61C190.03 236.523 190.083 236.444 190.151 236.379C190.218 236.313 190.298 236.261 190.385 236.227C190.472 236.192 190.566 236.176 190.66 236.178H190.652ZM179.223 236.178C179.365 236.176 179.504 236.217 179.623 236.295C179.742 236.372 179.834 236.484 179.889 236.615C179.944 236.745 179.959 236.89 179.932 237.029C179.905 237.168 179.836 237.296 179.736 237.396C179.636 237.496 179.508 237.565 179.369 237.592C179.229 237.619 179.085 237.604 178.955 237.549C178.824 237.494 178.712 237.402 178.635 237.283C178.557 237.164 178.516 237.025 178.518 236.884C178.518 236.79 178.536 236.698 178.572 236.612C178.608 236.525 178.661 236.447 178.727 236.382C178.794 236.316 178.872 236.264 178.959 236.229C179.045 236.194 179.138 236.177 179.231 236.178H179.223ZM213.501 251.461C213.643 251.461 213.781 251.503 213.899 251.582C214.016 251.66 214.108 251.772 214.161 251.903C214.215 252.034 214.229 252.178 214.201 252.317C214.173 252.455 214.104 252.583 214.003 252.682C213.903 252.782 213.775 252.849 213.636 252.876C213.497 252.902 213.353 252.887 213.223 252.832C213.092 252.776 212.981 252.684 212.904 252.565C212.826 252.447 212.786 252.308 212.788 252.167C212.788 252.073 212.806 251.981 212.842 251.895C212.878 251.808 212.931 251.73 212.997 251.665C213.063 251.599 213.142 251.547 213.229 251.512C213.315 251.477 213.408 251.46 213.501 251.461ZM202.073 251.461C202.215 251.459 202.354 251.5 202.472 251.578C202.591 251.656 202.684 251.767 202.739 251.898C202.794 252.028 202.808 252.173 202.781 252.312C202.754 252.451 202.686 252.579 202.585 252.679C202.485 252.779 202.357 252.848 202.218 252.875C202.079 252.902 201.935 252.887 201.804 252.832C201.673 252.777 201.562 252.685 201.484 252.566C201.406 252.448 201.365 252.308 201.367 252.167C201.367 252.073 201.385 251.981 201.421 251.895C201.457 251.808 201.51 251.73 201.576 251.665C201.643 251.599 201.722 251.547 201.808 251.512C201.895 251.477 201.987 251.46 202.081 251.461H202.073ZM190.644 251.461C190.833 251.461 191.015 251.536 191.149 251.67C191.283 251.804 191.358 251.985 191.358 252.175C191.358 252.268 191.339 252.36 191.303 252.446C191.267 252.533 191.215 252.611 191.148 252.676C191.082 252.742 191.003 252.794 190.917 252.829C190.83 252.864 190.737 252.881 190.644 252.88L189.946 252.087C189.966 251.913 190.048 251.753 190.178 251.636C190.309 251.519 190.477 251.454 190.652 251.453L190.644 251.461Z" fill="white"/>
<path d="M212.337 227.928C209.767 226.064 202.526 221.718 193.302 222.876C193.223 222.876 193.215 223.019 193.302 223.011C200.266 222.812 209.664 226.453 212.337 228.039C212.345 228.079 212.4 227.983 212.337 227.928Z" fill="#002064"/>
<path d="M203.057 253.053C200.186 249.492 197.132 246.09 194.063 242.695C190.994 239.301 187.932 235.891 184.776 232.568C182.999 230.688 181.223 228.8 179.375 227.016C179.327 226.968 179.24 227.016 179.28 227.095C182.143 230.648 185.196 234.074 188.234 237.485C191.271 240.895 194.364 244.29 197.473 247.652C199.234 249.548 201.027 251.412 202.874 253.204C202.97 253.291 203.136 253.156 203.057 253.053Z" fill="#002064"/>
<path d="M167.661 226.921C169.366 226.409 171.105 226.014 172.864 225.74C174.617 225.407 176.377 225.113 178.13 224.828C181.628 224.264 188.98 222.678 195.443 222.694C195.515 222.694 195.15 223.043 195.079 223.043C192.001 222.877 169.953 227.262 168.113 227.389C168.187 227.507 168.253 227.628 168.311 227.754C168.311 227.849 168.256 227.96 168.161 227.897C167.931 227.746 167.772 227.556 167.558 227.389C167.517 227.359 167.486 227.318 167.468 227.271C167.45 227.223 167.446 227.171 167.457 227.122C167.468 227.072 167.493 227.027 167.529 226.991C167.565 226.956 167.611 226.931 167.661 226.921Z" fill="#002064"/>
<path d="M145.137 168.501C118.616 191.636 97.757 220.219 99.137 227.365C101.635 240.673 119.123 241.506 121.804 238.627C132.542 226.992 143.876 204.452 156.153 179.303C167.122 156.826 153.869 160.895 145.137 168.501Z" fill="#ED7155"/>
<path d="M149.967 167.788C149.965 167.93 150.006 168.069 150.084 168.187C150.162 168.306 150.273 168.399 150.404 168.454C150.535 168.509 150.679 168.524 150.818 168.496C150.957 168.469 151.085 168.401 151.185 168.301C151.286 168.2 151.354 168.072 151.381 167.933C151.408 167.794 151.394 167.65 151.339 167.519C151.284 167.388 151.191 167.277 151.072 167.199C150.954 167.121 150.815 167.081 150.673 167.082C150.486 167.082 150.306 167.156 150.174 167.289C150.041 167.421 149.967 167.601 149.967 167.788ZM150.673 182.365C150.815 182.364 150.954 182.404 151.072 182.482C151.191 182.56 151.284 182.671 151.339 182.802C151.394 182.933 151.408 183.077 151.381 183.216C151.354 183.355 151.286 183.483 151.185 183.584C151.085 183.684 150.957 183.752 150.818 183.779C150.679 183.807 150.535 183.792 150.404 183.737C150.273 183.682 150.162 183.589 150.084 183.471C150.006 183.352 149.965 183.213 149.967 183.071C149.967 182.884 150.041 182.704 150.174 182.572C150.306 182.44 150.486 182.365 150.673 182.365ZM139.252 182.365C139.394 182.365 139.532 182.407 139.649 182.486C139.767 182.565 139.858 182.677 139.912 182.808C139.966 182.939 139.98 183.082 139.952 183.221C139.923 183.36 139.855 183.487 139.754 183.586C139.653 183.686 139.525 183.753 139.386 183.78C139.247 183.807 139.104 183.791 138.973 183.736C138.843 183.681 138.732 183.588 138.655 183.47C138.577 183.351 138.537 183.213 138.538 183.071C138.538 182.978 138.557 182.885 138.593 182.799C138.629 182.713 138.681 182.635 138.748 182.569C138.814 182.503 138.893 182.452 138.98 182.417C139.066 182.382 139.159 182.364 139.252 182.365ZM156.399 175.045C156.541 175.043 156.68 175.084 156.798 175.162C156.917 175.24 157.01 175.351 157.065 175.482C157.12 175.613 157.135 175.757 157.107 175.896C157.08 176.035 157.012 176.163 156.912 176.263C156.811 176.364 156.683 176.432 156.544 176.459C156.405 176.486 156.261 176.472 156.13 176.417C155.999 176.362 155.888 176.269 155.81 176.15C155.732 176.032 155.692 175.893 155.693 175.751C155.693 175.564 155.767 175.384 155.9 175.252C156.032 175.119 156.212 175.045 156.399 175.045ZM144.978 175.045C145.12 175.043 145.259 175.084 145.378 175.162C145.496 175.24 145.589 175.351 145.644 175.482C145.699 175.613 145.714 175.757 145.687 175.896C145.659 176.035 145.591 176.163 145.491 176.263C145.391 176.364 145.263 176.432 145.123 176.459C144.984 176.486 144.84 176.472 144.709 176.417C144.579 176.362 144.467 176.269 144.389 176.15C144.312 176.032 144.271 175.893 144.272 175.751C144.272 175.566 144.345 175.389 144.474 175.257C144.602 175.125 144.778 175.049 144.962 175.045H144.978ZM139.268 197.648C139.409 197.648 139.548 197.69 139.665 197.769C139.783 197.848 139.874 197.96 139.928 198.091C139.982 198.222 139.996 198.366 139.967 198.504C139.939 198.643 139.87 198.77 139.77 198.87C139.669 198.969 139.541 199.036 139.402 199.063C139.263 199.09 139.12 199.074 138.989 199.019C138.859 198.964 138.748 198.871 138.671 198.753C138.593 198.634 138.553 198.496 138.554 198.354C138.554 198.168 138.627 197.99 138.758 197.858C138.889 197.726 139.066 197.65 139.252 197.648H139.268ZM127.839 197.648C127.981 197.647 128.12 197.687 128.239 197.765C128.357 197.843 128.45 197.954 128.505 198.085C128.56 198.216 128.575 198.36 128.548 198.499C128.52 198.638 128.452 198.766 128.352 198.867C128.252 198.967 128.124 199.035 127.985 199.062C127.845 199.09 127.701 199.075 127.57 199.02C127.44 198.965 127.328 198.872 127.25 198.754C127.173 198.635 127.132 198.496 127.133 198.354C127.133 198.261 127.152 198.168 127.188 198.082C127.224 197.996 127.277 197.918 127.343 197.852C127.409 197.786 127.488 197.735 127.575 197.7C127.661 197.665 127.754 197.647 127.847 197.648H127.839ZM116.665 197.688C116.8 197.739 116.916 197.831 116.998 197.949C117.08 198.068 117.124 198.21 117.125 198.354C117.125 198.541 117.05 198.721 116.918 198.853C116.785 198.986 116.606 199.06 116.419 199.06C116.296 199.06 116.176 199.028 116.069 198.968C115.962 198.909 115.873 198.823 115.808 198.719L116.665 197.688ZM144.978 190.328C145.12 190.326 145.259 190.367 145.378 190.445C145.496 190.523 145.589 190.634 145.644 190.765C145.699 190.896 145.714 191.04 145.687 191.179C145.659 191.318 145.591 191.446 145.491 191.546C145.391 191.647 145.263 191.715 145.123 191.742C144.984 191.769 144.84 191.755 144.709 191.7C144.579 191.645 144.467 191.552 144.389 191.433C144.312 191.315 144.271 191.176 144.272 191.034C144.272 190.849 144.345 190.672 144.474 190.54C144.602 190.408 144.778 190.332 144.962 190.328H144.978ZM133.558 190.328C133.699 190.328 133.837 190.37 133.955 190.449C134.073 190.528 134.164 190.64 134.218 190.77C134.272 190.901 134.285 191.045 134.257 191.184C134.229 191.323 134.16 191.45 134.059 191.549C133.959 191.649 133.831 191.716 133.692 191.743C133.553 191.769 133.409 191.754 133.279 191.699C133.149 191.644 133.038 191.551 132.96 191.432C132.883 191.314 132.842 191.175 132.844 191.034C132.844 190.848 132.917 190.67 133.048 190.537C133.178 190.405 133.356 190.33 133.542 190.328H133.558ZM122.732 190.661C122.799 190.774 122.835 190.903 122.835 191.034C122.836 191.127 122.818 191.22 122.783 191.306C122.748 191.393 122.697 191.472 122.631 191.538C122.565 191.604 122.487 191.657 122.401 191.693C122.315 191.729 122.222 191.748 122.129 191.748C122.028 191.749 121.927 191.727 121.836 191.684C122.113 191.335 122.415 191.002 122.716 190.661H122.732ZM138.951 212.979C138.8 213.241 138.665 213.502 138.522 213.772C138.519 213.732 138.519 213.693 138.522 213.653C138.516 213.51 138.554 213.369 138.631 213.249C138.707 213.128 138.819 213.034 138.951 212.979ZM127.847 212.915C127.989 212.914 128.128 212.955 128.247 213.032C128.365 213.11 128.458 213.222 128.513 213.352C128.568 213.483 128.583 213.627 128.556 213.767C128.528 213.906 128.46 214.034 128.36 214.134C128.26 214.234 128.132 214.302 127.992 214.33C127.853 214.357 127.709 214.342 127.578 214.287C127.448 214.232 127.336 214.139 127.258 214.021C127.181 213.902 127.14 213.763 127.141 213.621C127.141 213.434 127.216 213.255 127.348 213.122C127.481 212.99 127.66 212.915 127.847 212.915ZM116.427 212.915C116.568 212.914 116.708 212.955 116.826 213.032C116.945 213.11 117.037 213.222 117.092 213.352C117.147 213.483 117.162 213.627 117.135 213.767C117.108 213.906 117.04 214.034 116.939 214.134C116.839 214.234 116.711 214.302 116.572 214.33C116.433 214.357 116.288 214.342 116.158 214.287C116.027 214.232 115.916 214.139 115.838 214.021C115.76 213.902 115.719 213.763 115.721 213.621C115.721 213.438 115.792 213.262 115.919 213.13C116.046 212.999 116.22 212.922 116.403 212.915H116.427ZM105.276 212.963C105.423 213.03 105.544 213.144 105.617 213.288C105.691 213.432 105.714 213.597 105.681 213.756C105.649 213.914 105.564 214.057 105.44 214.161C105.316 214.265 105.16 214.323 104.998 214.327C104.82 214.327 104.648 214.263 104.514 214.145C104.736 213.772 104.99 213.375 105.252 212.979L105.276 212.963ZM133.566 205.595C133.707 205.595 133.845 205.637 133.963 205.716C134.08 205.795 134.172 205.907 134.226 206.038C134.28 206.169 134.293 206.312 134.265 206.451C134.237 206.59 134.168 206.717 134.067 206.816C133.967 206.916 133.839 206.983 133.7 207.01C133.561 207.037 133.417 207.021 133.287 206.966C133.157 206.911 133.046 206.818 132.968 206.7C132.891 206.581 132.85 206.442 132.852 206.301C132.856 206.119 132.93 205.946 133.058 205.818C133.187 205.689 133.36 205.615 133.542 205.611L133.566 205.595ZM122.137 205.595C122.279 205.594 122.418 205.634 122.536 205.712C122.655 205.79 122.748 205.901 122.803 206.032C122.858 206.163 122.873 206.307 122.845 206.446C122.818 206.585 122.75 206.713 122.65 206.814C122.549 206.914 122.421 206.982 122.282 207.009C122.143 207.037 121.999 207.022 121.868 206.967C121.737 206.912 121.626 206.819 121.548 206.7C121.47 206.582 121.43 206.443 121.431 206.301C121.435 206.121 121.508 205.949 121.635 205.82C121.762 205.692 121.933 205.617 122.113 205.611L122.137 205.595ZM110.01 206.158L110.344 205.722C110.452 205.658 110.575 205.626 110.7 205.627C110.876 205.645 111.038 205.728 111.156 205.859C111.274 205.99 111.339 206.16 111.339 206.337C111.339 206.513 111.274 206.683 111.156 206.814C111.038 206.945 110.876 207.028 110.7 207.046C110.513 207.044 110.334 206.97 110.201 206.838C110.067 206.706 109.991 206.528 109.987 206.341C109.982 206.285 109.982 206.229 109.987 206.174L110.01 206.158ZM127.847 228.214C127.987 228.214 128.123 228.256 128.239 228.333C128.355 228.411 128.446 228.521 128.499 228.65C128.553 228.779 128.567 228.921 128.54 229.058C128.512 229.195 128.445 229.321 128.346 229.419C128.248 229.518 128.122 229.585 127.985 229.613C127.848 229.64 127.706 229.626 127.577 229.572C127.448 229.519 127.338 229.428 127.26 229.312C127.183 229.196 127.141 229.06 127.141 228.92C127.141 228.733 127.216 228.553 127.348 228.421C127.481 228.289 127.66 228.214 127.847 228.214ZM116.427 228.214C116.566 228.214 116.703 228.256 116.819 228.333C116.935 228.411 117.025 228.521 117.079 228.65C117.132 228.779 117.146 228.921 117.119 229.058C117.092 229.195 117.024 229.321 116.926 229.419C116.827 229.518 116.701 229.585 116.564 229.613C116.427 229.64 116.285 229.626 116.156 229.572C116.028 229.519 115.917 229.428 115.84 229.312C115.762 229.196 115.721 229.06 115.721 228.92C115.721 228.737 115.792 228.561 115.919 228.429C116.046 228.298 116.22 228.221 116.403 228.214H116.427ZM104.998 228.214C105.138 228.214 105.274 228.256 105.39 228.333C105.506 228.411 105.597 228.521 105.65 228.65C105.704 228.779 105.718 228.921 105.69 229.058C105.663 229.195 105.596 229.321 105.497 229.419C105.398 229.518 105.273 229.585 105.136 229.613C104.999 229.64 104.857 229.626 104.728 229.572C104.599 229.519 104.489 229.428 104.411 229.312C104.334 229.196 104.292 229.06 104.292 228.92C104.292 228.737 104.363 228.561 104.49 228.429C104.618 228.298 104.791 228.221 104.974 228.214H104.998ZM133.55 220.894C133.691 220.894 133.83 220.936 133.947 221.015C134.065 221.094 134.156 221.206 134.21 221.337C134.264 221.467 134.277 221.611 134.249 221.75C134.221 221.889 134.152 222.016 134.052 222.115C133.951 222.215 133.823 222.282 133.684 222.309C133.545 222.335 133.401 222.32 133.271 222.265C133.141 222.21 133.03 222.117 132.952 221.999C132.875 221.88 132.834 221.741 132.836 221.6C132.836 221.413 132.91 221.233 133.043 221.101C133.175 220.968 133.355 220.894 133.542 220.894H133.55ZM122.121 220.894C122.263 220.892 122.402 220.933 122.521 221.011C122.639 221.089 122.732 221.2 122.787 221.331C122.842 221.462 122.857 221.606 122.829 221.745C122.802 221.884 122.734 222.012 122.634 222.113C122.533 222.213 122.405 222.281 122.266 222.308C122.127 222.336 121.983 222.321 121.852 222.266C121.721 222.211 121.61 222.118 121.532 221.999C121.454 221.881 121.414 221.742 121.415 221.6C121.415 221.414 121.488 221.236 121.619 221.104C121.75 220.971 121.927 220.896 122.113 220.894H122.121ZM110.7 220.894C110.842 220.894 110.98 220.936 111.098 221.015C111.215 221.094 111.307 221.206 111.361 221.337C111.414 221.467 111.428 221.611 111.4 221.75C111.372 221.889 111.303 222.016 111.202 222.115C111.102 222.215 110.974 222.282 110.835 222.309C110.696 222.335 110.552 222.32 110.422 222.265C110.291 222.21 110.181 222.117 110.103 221.999C110.026 221.88 109.985 221.741 109.987 221.6C109.987 221.413 110.061 221.233 110.193 221.101C110.326 220.968 110.505 220.894 110.692 220.894H110.7ZM122.121 236.177C122.263 236.176 122.402 236.216 122.521 236.294C122.639 236.372 122.732 236.483 122.787 236.614C122.842 236.745 122.857 236.889 122.829 237.028C122.802 237.167 122.734 237.295 122.634 237.396C122.533 237.496 122.405 237.564 122.266 237.591C122.127 237.619 121.983 237.604 121.852 237.549C121.721 237.494 121.61 237.401 121.532 237.282C121.454 237.164 121.414 237.025 121.415 236.883C121.415 236.697 121.488 236.519 121.619 236.387C121.75 236.254 121.927 236.179 122.113 236.177H122.121ZM110.7 236.177C110.842 236.177 110.98 236.219 111.098 236.298C111.215 236.377 111.307 236.489 111.361 236.62C111.414 236.75 111.428 236.894 111.4 237.033C111.372 237.172 111.303 237.299 111.202 237.398C111.102 237.498 110.974 237.565 110.835 237.592C110.696 237.619 110.552 237.603 110.422 237.548C110.291 237.493 110.181 237.4 110.103 237.282C110.026 237.163 109.985 237.024 109.987 236.883C109.987 236.696 110.061 236.516 110.193 236.384C110.326 236.251 110.505 236.177 110.692 236.177H110.7Z" fill="white"/>
<path d="M126.182 233.433C128.125 230.419 129.957 227.31 131.813 224.233C133.669 221.156 135.509 218.063 137.317 214.954C140.886 208.807 144.201 202.526 147.397 196.181C149.205 192.588 151.045 189.043 152.766 185.379C152.822 185.26 153.012 185.379 152.973 185.466C151.307 189.696 149.515 193.857 147.595 197.95L147.675 197.847C148.103 197.268 148.531 196.689 148.952 196.102C149.784 194.944 150.538 193.762 151.331 192.549C151.386 192.453 151.537 192.549 151.482 192.644C150.624 194.294 149.654 195.884 148.579 197.402C148.054 198.112 147.487 198.79 146.882 199.433L146.826 199.48C145.946 201.304 145.05 203.121 144.106 204.921C140.814 211.316 137.203 217.542 133.288 223.575C132.178 225.264 131.059 226.945 129.893 228.603C128.728 230.261 127.514 231.863 126.277 233.496C126.261 233.6 126.118 233.536 126.182 233.433Z" fill="#002064"/>
<path d="M117.411 236.05C122.439 228.841 119.917 214.502 114.365 180.081C113.572 175.323 77.4543 174.95 78.0094 180.081C78.7074 186.537 85.1473 212.051 86.8208 215.771C95.0452 234.171 114.008 240.944 117.411 236.05Z" fill="#F7A9A0"/>
<path d="M79.1824 184.522C77.6834 180.667 70.7914 159.301 70.4583 153.884C70.1252 148.467 70.2441 132.804 74.3682 132.122C78.4924 131.44 78.8175 136.024 78.8175 136.024C78.8175 136.024 79.92 129.417 84.1313 129.1C88.3427 128.783 88.6203 135.944 88.6203 135.944C88.6203 135.944 90.2461 129.243 94.4734 129.235C98.7006 129.227 97.7092 136.46 97.7092 136.46C97.7092 136.46 98.9147 130.266 102.396 131.701C106.584 133.446 103.079 144.621 103.911 150.569C104.102 151.925 109.685 177.693 109.685 177.693L79.1824 184.522Z" fill="#F7A9A0"/>
<path d="M97.8197 135.842C95.258 144.066 95.5593 148.103 97.7483 156.288C97.788 156.455 97.558 156.55 97.5024 156.391C94.6314 148.563 93.537 143.551 97.4232 135.699C97.6135 135.311 97.9387 135.453 97.8197 135.842Z" fill="#002064"/>
<path d="M88.8194 135.295C86.908 144.066 87.1935 148.452 88.8194 157.2C88.8194 157.319 88.629 157.375 88.5973 157.248C86.218 148.809 85.2584 143.765 88.3197 135.271C88.5021 134.882 88.9066 134.898 88.8194 135.295Z" fill="#002064"/>
<path d="M78.8961 136.461C77.6589 145.09 77.7699 149.944 80.4823 158.192C80.4981 158.232 80.4974 158.276 80.4803 158.316C80.4632 158.355 80.4311 158.386 80.3911 158.402C80.3512 158.418 80.3066 158.417 80.2672 158.4C80.2278 158.383 80.1967 158.351 80.181 158.311C76.6041 150.134 76.4217 144.122 78.6423 136.453C78.7851 135.929 78.9754 135.922 78.8961 136.461Z" fill="#002064"/>
<path d="M114.887 184.435C114.887 184.435 117.75 174.037 117.996 169.183C118.242 164.329 112.515 145.937 108.479 146.976C103.252 148.285 104.465 159.563 105.782 165.004C105.782 165.004 93.6951 168.017 92.8148 176.297C91.9344 184.577 114.887 184.435 114.887 184.435Z" fill="#F7A9A0"/>
<path d="M107.147 147.778C103.245 152.402 105.434 159.437 106.354 164.814C106.371 164.893 106.37 164.974 106.349 165.052C106.328 165.13 106.288 165.201 106.234 165.26C106.179 165.319 106.111 165.365 106.035 165.392C105.96 165.419 105.879 165.428 105.799 165.417C100.818 167.003 94.2514 170.723 92.6334 175.997C92.623 176.025 92.6029 176.049 92.5766 176.063C92.5504 176.078 92.5198 176.083 92.4903 176.077C92.4607 176.072 92.4342 176.056 92.4154 176.032C92.3966 176.009 92.3867 175.979 92.3876 175.949C93.3551 170.049 99.5255 165.877 105.077 164.481C104.086 158.977 102.198 151.791 107.147 147.739C107.139 147.715 107.179 147.746 107.147 147.778Z" fill="#002064"/>
<path d="M77.4368 191.739L119.352 203.635C119.352 203.635 127.711 231.108 122.398 238C116.711 245.368 90.3247 233.948 85.0743 217.895L77.4368 191.739Z" fill="#ED7155"/>
<path d="M92.8486 198.353C92.8486 198.493 92.89 198.629 92.9675 198.745C93.0451 198.861 93.1553 198.952 93.2843 199.005C93.4133 199.059 93.5552 199.073 93.6921 199.045C93.8291 199.018 93.9548 198.951 94.0535 198.852C94.1523 198.754 94.2195 198.628 94.2467 198.491C94.274 198.354 94.26 198.212 94.2066 198.083C94.1531 197.954 94.0627 197.844 93.9466 197.766C93.8305 197.689 93.694 197.647 93.5544 197.647C93.3672 197.647 93.1877 197.722 93.0553 197.854C92.9229 197.986 92.8486 198.166 92.8486 198.353ZM82.1338 197.647C82.2753 197.647 82.4136 197.689 82.5311 197.768C82.6487 197.847 82.7402 197.959 82.794 198.09C82.8477 198.221 82.8614 198.365 82.8332 198.503C82.805 198.642 82.7362 198.769 82.6356 198.869C82.535 198.968 82.4071 199.035 82.2681 199.062C82.1291 199.089 81.9854 199.073 81.8551 199.018C81.7248 198.963 81.6139 198.87 81.5364 198.752C81.4589 198.633 81.4184 198.495 81.42 198.353C81.42 198.26 81.4385 198.167 81.4745 198.081C81.5104 197.995 81.5631 197.917 81.6295 197.851C81.6959 197.786 81.7746 197.734 81.8612 197.699C81.9478 197.664 82.0404 197.646 82.1338 197.647ZM116.404 212.914C116.546 212.913 116.685 212.954 116.803 213.031C116.922 213.109 117.014 213.221 117.07 213.351C117.125 213.482 117.139 213.626 117.112 213.766C117.085 213.905 117.017 214.033 116.916 214.133C116.816 214.233 116.688 214.301 116.549 214.329C116.41 214.356 116.266 214.341 116.135 214.286C116.004 214.231 115.893 214.138 115.815 214.02C115.737 213.901 115.696 213.762 115.698 213.62C115.698 213.433 115.772 213.254 115.905 213.121C116.037 212.989 116.216 212.914 116.404 212.914ZM104.975 212.914C105.117 212.913 105.256 212.954 105.375 213.031C105.493 213.109 105.586 213.221 105.641 213.351C105.696 213.482 105.711 213.626 105.683 213.766C105.656 213.905 105.588 214.033 105.488 214.133C105.387 214.233 105.259 214.301 105.12 214.329C104.981 214.356 104.837 214.341 104.706 214.286C104.575 214.231 104.464 214.138 104.386 214.02C104.308 213.901 104.268 213.762 104.269 213.62C104.269 213.433 104.344 213.254 104.476 213.121C104.608 212.989 104.788 212.914 104.975 212.914ZM93.5544 212.914C93.6963 212.913 93.8353 212.954 93.9539 213.031C94.0725 213.109 94.1652 213.221 94.2203 213.351C94.2753 213.482 94.2901 213.626 94.2628 213.766C94.2355 213.905 94.1673 214.033 94.067 214.133C93.9667 214.233 93.8388 214.301 93.6996 214.329C93.5604 214.356 93.4163 214.341 93.2855 214.286C93.1548 214.231 93.0434 214.138 92.9656 214.02C92.8877 213.901 92.847 213.762 92.8486 213.62C92.8486 213.433 92.9229 213.254 93.0553 213.121C93.1877 212.989 93.3672 212.914 93.5544 212.914ZM110.693 205.594C110.835 205.594 110.973 205.636 111.091 205.715C111.208 205.794 111.3 205.906 111.354 206.037C111.407 206.168 111.421 206.311 111.393 206.45C111.365 206.589 111.296 206.716 111.195 206.815C111.095 206.915 110.967 206.982 110.828 207.009C110.689 207.036 110.545 207.02 110.415 206.965C110.284 206.91 110.173 206.817 110.096 206.699C110.019 206.58 109.978 206.442 109.98 206.3C109.984 206.114 110.061 205.938 110.195 205.808C110.328 205.679 110.507 205.608 110.693 205.61V205.594ZM99.2648 205.594C99.4066 205.593 99.5457 205.633 99.6643 205.711C99.7829 205.789 99.8756 205.9 99.9306 206.031C99.9856 206.162 100 206.306 99.9731 206.445C99.9458 206.584 99.8777 206.712 99.7774 206.813C99.6771 206.913 99.5492 206.981 99.41 207.008C99.2708 207.036 99.1266 207.021 98.9959 206.966C98.8651 206.911 98.7537 206.818 98.6759 206.7C98.5981 206.581 98.5573 206.442 98.5589 206.3C98.5609 206.206 98.5817 206.113 98.6201 206.027C98.6585 205.941 98.7137 205.864 98.7824 205.8C98.8511 205.735 98.932 205.686 99.0203 205.653C99.1086 205.62 99.2025 205.606 99.2965 205.61L99.2648 205.594ZM87.8441 205.594C87.9856 205.594 88.1239 205.636 88.2415 205.715C88.359 205.794 88.4505 205.906 88.5043 206.037C88.5581 206.168 88.5717 206.311 88.5435 206.45C88.5153 206.589 88.4466 206.716 88.346 206.815C88.2453 206.915 88.1174 206.982 87.9784 207.009C87.8394 207.036 87.6957 207.02 87.5654 206.965C87.4351 206.91 87.3242 206.817 87.2467 206.699C87.1693 206.58 87.1287 206.442 87.1303 206.3C87.1345 206.114 87.2118 205.938 87.3454 205.808C87.479 205.679 87.6582 205.608 87.8441 205.61V205.594ZM116.396 228.198C116.535 228.198 116.672 228.239 116.788 228.317C116.904 228.394 116.994 228.504 117.048 228.633C117.101 228.762 117.115 228.904 117.088 229.041C117.061 229.178 116.994 229.304 116.895 229.403C116.796 229.501 116.67 229.568 116.533 229.596C116.397 229.623 116.255 229.609 116.126 229.556C115.997 229.502 115.886 229.412 115.809 229.296C115.731 229.179 115.69 229.043 115.69 228.903C115.694 228.718 115.771 228.541 115.905 228.412C116.039 228.283 116.218 228.211 116.404 228.213L116.396 228.198ZM104.967 228.198C105.107 228.198 105.243 228.239 105.359 228.317C105.475 228.394 105.566 228.504 105.619 228.633C105.673 228.762 105.687 228.904 105.659 229.041C105.632 229.178 105.565 229.304 105.466 229.403C105.368 229.501 105.242 229.568 105.105 229.596C104.968 229.623 104.826 229.609 104.697 229.556C104.568 229.502 104.458 229.412 104.38 229.296C104.303 229.179 104.261 229.043 104.261 228.903C104.265 228.718 104.343 228.541 104.476 228.412C104.61 228.283 104.789 228.211 104.975 228.213L104.967 228.198ZM93.5465 228.198C93.6861 228.198 93.8226 228.239 93.9386 228.317C94.0547 228.394 94.1452 228.504 94.1986 228.633C94.2521 228.762 94.266 228.904 94.2388 229.041C94.2116 229.178 94.1443 229.304 94.0456 229.403C93.9469 229.501 93.8211 229.568 93.6842 229.596C93.5473 229.623 93.4054 229.609 93.2764 229.556C93.1474 229.502 93.0371 229.412 92.9596 229.296C92.882 229.179 92.8406 229.043 92.8406 228.903C92.8448 228.718 92.9221 228.541 93.0557 228.412C93.1894 228.283 93.3686 228.211 93.5544 228.213L93.5465 228.198ZM122.098 220.877C122.24 220.876 122.379 220.916 122.498 220.994C122.616 221.072 122.709 221.183 122.764 221.314C122.819 221.445 122.834 221.589 122.806 221.728C122.779 221.868 122.711 221.995 122.611 222.096C122.51 222.196 122.383 222.264 122.243 222.291C122.104 222.319 121.96 222.304 121.829 222.249C121.699 222.194 121.587 222.101 121.509 221.983C121.431 221.864 121.391 221.725 121.392 221.583C121.394 221.49 121.415 221.399 121.452 221.314C121.489 221.229 121.543 221.153 121.61 221.089C121.677 221.024 121.756 220.974 121.843 220.941C121.929 220.907 122.021 220.891 122.114 220.893L122.098 220.877ZM110.677 220.877C110.819 220.877 110.957 220.919 111.075 220.998C111.192 221.077 111.284 221.189 111.338 221.32C111.391 221.451 111.405 221.595 111.377 221.733C111.349 221.872 111.28 221.999 111.179 222.099C111.079 222.198 110.951 222.265 110.812 222.292C110.673 222.319 110.529 222.303 110.399 222.248C110.269 222.193 110.158 222.1 110.08 221.982C110.003 221.863 109.962 221.725 109.964 221.583C109.966 221.49 109.986 221.398 110.024 221.312C110.062 221.227 110.117 221.15 110.184 221.086C110.252 221.021 110.332 220.971 110.42 220.938C110.507 220.905 110.6 220.89 110.693 220.893L110.677 220.877ZM99.2489 220.877C99.3907 220.876 99.5298 220.916 99.6484 220.994C99.767 221.072 99.8597 221.183 99.9147 221.314C99.9697 221.445 99.9845 221.589 99.9572 221.728C99.93 221.868 99.8618 221.995 99.7615 222.096C99.6612 222.196 99.5333 222.264 99.3941 222.291C99.2549 222.319 99.1107 222.304 98.98 222.249C98.8493 222.194 98.7379 222.101 98.66 221.983C98.5822 221.864 98.5415 221.725 98.543 221.583C98.545 221.488 98.5663 221.393 98.6056 221.306C98.645 221.219 98.7016 221.141 98.772 221.077C98.8425 221.012 98.9253 220.963 99.0154 220.931C99.1056 220.9 99.2012 220.887 99.2965 220.893L99.2489 220.877ZM87.8282 220.877C87.9698 220.877 88.1081 220.919 88.2256 220.998C88.3432 221.077 88.4346 221.189 88.4884 221.32C88.5422 221.451 88.5559 221.595 88.5277 221.733C88.4995 221.872 88.4307 221.999 88.3301 222.099C88.2295 222.198 88.1016 222.265 87.9626 222.292C87.8236 222.319 87.6798 222.303 87.5495 222.248C87.4193 222.193 87.3083 222.1 87.2309 221.982C87.1534 221.863 87.1129 221.725 87.1145 221.583C87.1165 221.49 87.1371 221.398 87.1749 221.312C87.2128 221.227 87.2673 221.15 87.3351 221.086C87.403 221.021 87.4829 220.971 87.5703 220.938C87.6577 220.905 87.7507 220.89 87.8441 220.893L87.8282 220.877ZM122.098 236.16C122.24 236.159 122.379 236.199 122.498 236.277C122.616 236.355 122.709 236.466 122.764 236.597C122.819 236.728 122.834 236.872 122.806 237.011C122.779 237.151 122.711 237.278 122.611 237.379C122.51 237.479 122.383 237.547 122.243 237.575C122.104 237.602 121.96 237.587 121.829 237.532C121.699 237.477 121.587 237.384 121.509 237.266C121.431 237.147 121.391 237.008 121.392 236.866C121.394 236.773 121.415 236.682 121.452 236.597C121.489 236.512 121.543 236.436 121.61 236.372C121.677 236.308 121.756 236.257 121.843 236.224C121.929 236.19 122.021 236.174 122.114 236.176L122.098 236.16ZM110.677 236.16C110.819 236.16 110.957 236.202 111.075 236.281C111.192 236.36 111.284 236.472 111.338 236.603C111.391 236.734 111.405 236.878 111.377 237.016C111.349 237.155 111.28 237.282 111.179 237.382C111.079 237.481 110.951 237.548 110.812 237.575C110.673 237.602 110.529 237.586 110.399 237.531C110.269 237.476 110.158 237.383 110.08 237.265C110.003 237.146 109.962 237.008 109.964 236.866C109.966 236.773 109.986 236.681 110.024 236.595C110.062 236.51 110.117 236.433 110.184 236.369C110.252 236.305 110.332 236.254 110.42 236.221C110.507 236.188 110.6 236.173 110.693 236.176L110.677 236.16Z" fill="white"/>
<path d="M117.981 213.161C113.302 212.099 108.686 210.782 104.07 209.466C99.4539 208.149 94.8302 206.832 90.246 205.397C87.6605 204.604 85.0671 203.811 82.5054 202.883C82.434 202.883 82.4578 202.74 82.5054 202.756C87.1767 203.811 91.8085 205.135 96.4164 206.396C101.024 207.657 105.664 209.029 110.264 210.409C112.857 211.202 115.443 211.996 118.005 212.923C118.155 212.971 118.116 213.193 117.981 213.161Z" fill="#002064"/>
<path d="M117.862 203.178C118.512 203.241 119.163 203.376 119.805 203.503C119.854 203.517 119.899 203.543 119.935 203.579C119.971 203.615 119.997 203.66 120.011 203.709C120.725 206.152 121.233 208.666 121.74 211.156C122.248 213.646 122.684 216.073 123.089 218.548C123.311 219.872 123.501 221.213 123.652 222.513C124.461 224.131 124.953 225.889 125.103 227.692C125.103 227.713 125.095 227.733 125.08 227.748C125.065 227.763 125.045 227.772 125.024 227.772C125.003 227.772 124.983 227.763 124.968 227.748C124.953 227.733 124.944 227.713 124.944 227.692C124.746 226.092 124.332 224.526 123.715 223.037C124.116 226.302 124.028 229.608 123.453 232.847C124.246 228.01 123.057 222.965 122.264 218.207C121.867 215.827 121.415 213.448 120.947 211.069C120.479 208.69 119.932 206.35 119.496 203.979C118.941 203.764 118.378 203.558 117.846 203.304C117.837 203.296 117.83 203.285 117.826 203.274C117.822 203.262 117.82 203.249 117.822 203.237C117.823 203.225 117.828 203.213 117.835 203.202C117.842 203.192 117.851 203.184 117.862 203.178Z" fill="#002064"/>
<path d="M160.364 162.315C160.737 163.663 167.573 172.268 173.791 171.745C175.814 171.57 175.377 160.475 175.377 160.475L175.528 159.682L177.669 148.11L163.877 139.949L161.887 138.871C161.887 138.871 161.506 142.043 161.094 146.08C161.094 146.262 161.054 146.445 161.038 146.643C161.022 146.841 160.975 147.087 160.959 147.293C160.879 147.888 160.816 148.499 160.753 149.11C160.705 149.57 160.665 150.022 160.634 150.505C160.602 150.989 160.554 151.473 160.515 151.957C160.23 155.402 160.18 158.863 160.364 162.315Z" fill="#F7A9A0"/>
<path d="M161.079 146.056C162.36 149.236 164.318 152.099 166.816 154.446C169.314 156.793 172.293 158.569 175.546 159.65L177.687 148.079L163.879 139.949L161.888 138.871C161.888 138.871 161.508 142.059 161.079 146.056Z" fill="#002064"/>
<path d="M192.239 129.355C194.373 149.904 182.302 153.505 177.868 153.941C173.847 154.354 160.095 155.25 155.852 135.026C151.609 114.802 160.491 107.323 169.644 105.887C178.796 104.452 190.106 108.806 192.239 129.355Z" fill="#F7A9A0"/>
<path d="M185.316 124.58C184.842 124.548 184.371 124.493 183.904 124.413C183.397 124.424 182.901 124.268 182.492 123.969C182.379 123.851 182.31 123.699 182.294 123.536C182.278 123.374 182.317 123.211 182.405 123.073C182.621 122.832 182.897 122.652 183.205 122.552C183.512 122.452 183.841 122.435 184.158 122.502C184.823 122.538 185.45 122.821 185.918 123.295C186.01 123.411 186.067 123.549 186.084 123.696C186.101 123.842 186.077 123.991 186.014 124.124C185.952 124.257 185.853 124.371 185.73 124.451C185.606 124.532 185.463 124.576 185.316 124.58Z" fill="#002064"/>
<path d="M170.58 124.467C171.045 124.362 171.503 124.23 171.952 124.071C172.454 123.998 172.916 123.761 173.269 123.397C173.358 123.262 173.4 123.103 173.388 122.942C173.377 122.781 173.312 122.629 173.205 122.509C172.955 122.302 172.654 122.165 172.333 122.114C172.012 122.062 171.684 122.097 171.381 122.215C170.738 122.363 170.172 122.744 169.795 123.286C169.722 123.414 169.685 123.559 169.69 123.706C169.695 123.854 169.741 123.997 169.822 124.119C169.904 124.242 170.018 124.34 170.152 124.401C170.286 124.463 170.434 124.486 170.58 124.467Z" fill="#002064"/>
<path d="M174.252 130.639C174.252 130.592 174.149 130.719 174.157 130.774C174.34 132.17 174.308 133.804 173.087 134.391C173.087 134.391 173.087 134.478 173.087 134.47C174.641 134.097 174.641 131.932 174.252 130.639Z" fill="#002064"/>
<path d="M172.856 129.299C170.588 129.354 170.858 133.883 172.959 133.843C175.061 133.804 174.76 129.259 172.856 129.299Z" fill="#002064"/>
<path d="M171.982 129.591C171.601 129.869 171.236 130.345 170.768 130.424C170.3 130.503 169.769 130.059 169.38 129.631C169.341 129.631 169.309 129.631 169.309 129.686C169.349 130.559 169.729 131.431 170.673 131.503C171.617 131.574 172.093 130.773 172.259 129.916C172.259 129.71 172.132 129.48 171.982 129.591Z" fill="#002064"/>
<path d="M182.809 129.639C182.809 129.584 182.928 129.695 182.928 129.75C182.975 131.162 183.269 132.764 184.57 133.145C184.617 133.145 184.617 133.224 184.57 133.224C182.999 133.073 182.634 130.948 182.809 129.639Z" fill="#002064"/>
<path d="M183.967 128.053C186.212 127.727 186.695 132.248 184.618 132.55C182.54 132.851 182.08 128.33 183.967 128.053Z" fill="#002064"/>
<path d="M184.951 128.252C185.34 128.45 185.744 128.847 186.165 128.831C186.585 128.815 186.958 128.284 187.243 127.784C187.243 127.728 187.307 127.784 187.315 127.824C187.434 128.68 187.243 129.616 186.434 129.87C185.625 130.124 185.054 129.418 184.761 128.585C184.69 128.426 184.785 128.173 184.951 128.252Z" fill="#002064"/>
<path d="M176.473 141.584C176.814 141.909 177.155 142.377 177.671 142.377C178.194 142.365 178.709 142.237 179.178 142.005C179.187 142.003 179.197 142.003 179.206 142.006C179.215 142.01 179.223 142.015 179.23 142.022C179.236 142.029 179.24 142.038 179.242 142.048C179.244 142.057 179.244 142.067 179.241 142.076C179.045 142.358 178.776 142.58 178.463 142.72C178.15 142.86 177.805 142.911 177.464 142.869C177.176 142.8 176.914 142.646 176.714 142.426C176.513 142.207 176.382 141.934 176.338 141.64C176.314 141.537 176.426 141.537 176.473 141.584Z" fill="#002064"/>
<path d="M181.984 136.094C181.984 136.094 182.42 138.172 182.492 139.164C182.492 139.251 182.262 139.314 181.928 139.362C181.928 139.362 181.928 139.362 181.889 139.362C181.051 139.578 180.17 139.558 179.343 139.305C178.516 139.051 177.775 138.574 177.202 137.927C177.122 137.839 177.241 137.728 177.336 137.784C178.658 138.554 180.193 138.88 181.714 138.712C181.77 138.434 180.85 135.182 181 135.159C181.774 135.17 182.543 135.287 183.285 135.508C182.492 131.161 181.024 126.966 180.31 122.628C180.3 122.595 180.303 122.56 180.318 122.529C180.334 122.499 180.361 122.476 180.394 122.465C180.426 122.454 180.462 122.457 180.492 122.473C180.523 122.489 180.546 122.516 180.556 122.548C182.42 126.823 183.427 131.812 184.355 136.285C184.482 136.84 182.388 136.237 181.984 136.094Z" fill="#002064"/>
<path d="M181.587 138.998C181.098 139.821 180.404 140.504 179.573 140.98C179.113 141.23 178.584 141.325 178.066 141.25C176.932 141.091 176.789 140.092 176.892 139.204C176.949 138.735 177.06 138.274 177.225 137.832C178.518 138.676 180.046 139.084 181.587 138.998Z" fill="#002064"/>
<path d="M179.574 140.981C179.113 141.23 178.585 141.325 178.067 141.25C176.933 141.092 176.79 140.092 176.893 139.204C177.474 139.158 178.054 139.308 178.54 139.63C179.025 139.952 179.39 140.428 179.574 140.981Z" fill="#FF9CBD"/>
<path d="M156.708 133.835C161.467 133.494 160.793 126.031 160.793 126.031C160.793 126.031 166.122 125.103 165.797 116.411C165.797 116.411 168.811 121.431 176.171 121.891C177.757 121.994 172.205 118.425 172.205 118.425C172.205 118.425 179.645 123.295 190.946 120.225C191.739 120.011 188.218 108.265 178.875 104.871C169.533 101.476 161.609 104.498 156.51 110.637C156.51 110.637 150.165 114.222 149.935 120.535C149.705 126.848 154.868 133.97 156.708 133.835Z" fill="#002064"/>
<path d="M153.053 130.663C151.477 128.066 150.563 125.122 150.391 122.089C150.22 119.056 150.796 116.028 152.069 113.27C156.416 103.578 172.008 99.7318 182.294 106.592C182.294 106.592 164.608 103.42 158.628 111.398C152.648 119.377 153.053 130.663 153.053 130.663Z" fill="#ED7155"/>
<path d="M159.389 135.826C159.389 135.826 154.773 129.482 151.879 131.068C148.984 132.654 152.521 142.021 155.979 143.234C156.411 143.422 156.876 143.52 157.347 143.523C157.818 143.525 158.285 143.433 158.719 143.251C159.153 143.068 159.546 142.8 159.874 142.462C160.202 142.124 160.458 141.723 160.626 141.283L159.389 135.826Z" fill="#F7A9A0"/>
<path d="M152.957 133.748C152.902 133.748 152.894 133.819 152.957 133.843C155.384 134.771 156.685 137.015 157.613 139.284C156.883 138.411 155.9 137.935 154.718 138.808C154.654 138.855 154.718 138.95 154.789 138.935C155.211 138.792 155.667 138.783 156.093 138.911C156.519 139.039 156.895 139.297 157.169 139.648C157.619 140.236 158.007 140.868 158.327 141.536C158.445 141.75 158.834 141.631 158.747 141.385V141.33C158.723 138.26 156.264 134.002 152.957 133.748Z" fill="#002064"/>
<path d="M212.725 106.584C210.635 103.485 209.504 99.8379 209.473 96.0995C209.473 82.815 224.066 72.0447 242.046 72.0447C260.025 72.0447 274.602 82.815 274.602 96.0995C274.602 109.384 260.025 120.146 242.046 120.146C233.321 120.146 225.39 117.624 219.577 113.492L208.363 116.347L212.725 106.584Z" fill="white"/>
<path d="M212.725 106.585C210.685 103.661 209.531 100.212 209.4 96.6493C209.27 93.0867 210.168 89.5618 211.987 86.4961C213.801 83.4356 216.232 80.786 219.125 78.7158C222.004 76.6304 225.191 75.0087 228.571 73.9096C231.942 72.7948 235.436 72.0969 238.977 71.8317C242.52 71.5906 246.08 71.7716 249.58 72.371C250.445 72.5455 251.333 72.6644 252.19 72.8944L254.759 73.5844L257.273 74.4727C258.114 74.7741 258.907 75.1786 259.724 75.5275C262.951 77.0402 265.901 79.086 268.448 81.5789C271.027 84.0885 272.959 87.1853 274.079 90.6044C275.169 94.0606 275.205 97.7632 274.182 101.24C273.121 104.679 271.237 107.807 268.694 110.353C266.195 112.878 263.282 114.957 260.081 116.499C256.88 118.05 253.475 119.142 249.969 119.743C246.474 120.371 242.916 120.574 239.373 120.346C235.832 120.135 232.332 119.471 228.96 118.371C225.577 117.275 222.381 115.671 219.482 113.612H219.633L208.395 116.372L208.212 116.42L208.291 116.253L212.725 106.585ZM212.725 106.585L208.442 116.348L208.339 116.229L219.538 113.287H219.617L219.688 113.335C225.544 117.245 232.362 119.47 239.397 119.767C242.894 119.956 246.401 119.721 249.842 119.069C253.284 118.48 256.626 117.412 259.772 115.896C262.915 114.384 265.775 112.343 268.226 109.861C270.676 107.396 272.489 104.372 273.508 101.05C274.474 97.7172 274.43 94.1733 273.381 90.8661C272.305 87.5643 270.446 84.5714 267.964 82.142C265.48 79.6988 262.6 77.6931 259.447 76.2096C258.653 75.8686 257.86 75.4641 257.067 75.1706L254.609 74.2903L252.079 73.6003C251.238 73.3703 250.365 73.2592 249.517 73.0768C246.069 72.4829 242.564 72.2913 239.072 72.5058C235.568 72.7368 232.106 73.3947 228.761 74.4648C225.429 75.5049 222.279 77.0597 219.427 79.0727C216.558 81.084 214.13 83.6583 212.289 86.6389C210.465 89.6522 209.525 93.1178 209.576 96.6399C209.682 100.183 210.772 103.627 212.725 106.585Z" fill="#002064"/>
<path d="M229.244 92.0232V100.961H227.562V97.1467H223.502V100.961H221.765V92.0232H223.502V95.6398H227.562V92.0232H229.244Z" fill="#002064"/>
<path d="M237.321 99.4387V100.961H231.111V92.0232H237.202V93.546H232.847V95.727H236.615V97.1387H232.847V99.4625L237.321 99.4387Z" fill="#002064"/>
<path d="M238.667 100.961V92.0232H240.404V99.4387H245.012V100.961H238.667Z" fill="#002064"/>
<path d="M246.027 100.961V92.0232H247.764V99.4387H252.324V100.961H246.027Z" fill="#002064"/>
<path d="M256.631 101.026C256.015 101.035 255.405 100.905 254.846 100.645C254.325 100.4 253.858 100.052 253.474 99.6223C252.703 98.7643 252.276 97.6512 252.277 96.4975C252.275 95.9102 252.388 95.3283 252.61 94.7844C252.823 94.2472 253.135 93.7548 253.53 93.333C253.921 92.9101 254.393 92.5703 254.918 92.3337C255.468 92.0837 256.066 91.9565 256.67 91.9609C257.283 91.9548 257.888 92.0905 258.439 92.3575C258.956 92.6141 259.418 92.9667 259.803 93.3964C260.563 94.2617 260.987 95.3701 261.001 96.5213C261.003 97.106 260.89 97.6855 260.668 98.2264C260.464 98.7692 260.157 99.2674 259.764 99.6937C259.37 100.11 258.902 100.449 258.383 100.693C257.83 100.929 257.232 101.042 256.631 101.026ZM254.037 96.5213C254.035 96.901 254.094 97.2785 254.212 97.6395C254.321 97.9876 254.493 98.3128 254.719 98.5992C254.934 98.874 255.205 99.101 255.512 99.2654C255.857 99.4348 256.235 99.5228 256.619 99.5228C257.002 99.5228 257.381 99.4348 257.725 99.2654C258.034 99.096 258.305 98.8636 258.518 98.5833C258.741 98.2921 258.913 97.9648 259.026 97.6157C259.169 97.2666 259.258 96.8974 259.288 96.5213C259.288 96.1411 259.226 95.7634 259.105 95.403C258.993 95.0545 258.818 94.7293 258.59 94.4433C258.375 94.1698 258.105 93.9454 257.797 93.7851C257.451 93.6208 257.073 93.5355 256.69 93.5355C256.307 93.5355 255.93 93.6208 255.584 93.7851C255.273 93.9525 255.003 94.1852 254.791 94.4671C254.569 94.7549 254.4 95.0798 254.291 95.4268C254.149 95.776 254.064 96.1453 254.037 96.5213Z" fill="#002064"/>
<path d="M262.501 97.607V91.9363H264.183V97.607H262.501ZM262.501 100.962V99.0663H264.183V100.962H262.501Z" fill="#002064"/>
</svg>
