<svg xmlns="http://www.w3.org/2000/svg" width="24" height="12" viewBox="0 0 24 12" fill="none">
  <path fill-rule="evenodd" clip-rule="evenodd"
    d="M5.154 1.30304C5.4469 1.01014 5.4469 0.535268 5.154 0.242375C4.86111 -0.0505182 4.38624 -0.0505182 4.09334 0.242375L0.718342 3.61737C0.425449 3.91027 0.425449 4.38514 0.718342 4.67804L4.09334 8.05304C4.38624 8.34593 4.86111 8.34593 5.154 8.05304C5.4469 7.76014 5.4469 7.28527 5.154 6.99237L3.05933 4.89771H17.5963C20.2623 4.89771 22.4362 7.14456 22.4362 9.84302V10.8977C22.4362 11.3119 22.772 11.6477 23.1862 11.6477C23.6004 11.6477 23.9362 11.3119 23.9362 10.8977V9.84302C23.9362 6.35362 21.1277 3.39771 17.5963 3.39771H3.05933L5.154 1.30304Z"
    fill="#002064" />
</svg>