<svg xmlns="http://www.w3.org/2000/svg" width="20" height="21" viewBox="0 0 20 21" fill="none">
  <path fill-rule="evenodd" clip-rule="evenodd"
    d="M6.17317 1.0864C7.38642 0.583853 8.68678 0.325195 10 0.325195C11.3132 0.325195 12.6136 0.583853 13.8268 1.0864C15.0401 1.58895 16.1425 2.32554 17.0711 3.25413C17.9997 4.18271 18.7362 5.2851 19.2388 6.49836C19.7413 7.71162 20 9.01198 20 10.3252C20 11.6384 19.7413 12.9388 19.2388 14.152C18.7362 15.3653 17.9997 16.4677 17.0711 17.3963C16.1425 18.3248 15.0401 19.0614 13.8268 19.564C12.6136 20.0665 11.3132 20.3252 10 20.3252C8.68678 20.3252 7.38642 20.0665 6.17317 19.564C4.95991 19.0614 3.85752 18.3248 2.92893 17.3963C2.00035 16.4677 1.26375 15.3653 0.761205 14.152C0.258658 12.9388 0 11.6384 0 10.3252C0 9.01198 0.258658 7.71162 0.761205 6.49836C1.26375 5.28511 2.00035 4.18271 2.92893 3.25413C3.85752 2.32554 4.95991 1.58895 6.17317 1.0864ZM10 2.3252C8.94943 2.3252 7.90914 2.53212 6.93853 2.93416C5.96793 3.3362 5.08601 3.92547 4.34315 4.66834C3.60028 5.41121 3.011 6.29312 2.60896 7.26373C2.20693 8.23433 2 9.27462 2 10.3252C2 11.3758 2.20693 12.4161 2.60896 13.3867C3.011 14.3573 3.60028 15.2392 4.34315 15.982C5.08601 16.7249 5.96793 17.3142 6.93853 17.7162C7.90914 18.1183 8.94942 18.3252 10 18.3252C11.0506 18.3252 12.0909 18.1183 13.0615 17.7162C14.0321 17.3142 14.914 16.7249 15.6569 15.982C16.3997 15.2392 16.989 14.3573 17.391 13.3867C17.7931 12.4161 18 11.3758 18 10.3252C18 9.27462 17.7931 8.23433 17.391 7.26373C16.989 6.29312 16.3997 5.41121 15.6569 4.66834C14.914 3.92547 14.0321 3.3362 13.0615 2.93416C12.0909 2.53212 11.0506 2.3252 10 2.3252ZM7.29289 7.61809C7.68342 7.22756 8.31658 7.22756 8.70711 7.61809L10 8.91098L11.2929 7.61809C11.6834 7.22756 12.3166 7.22756 12.7071 7.61809C13.0976 8.00861 13.0976 8.64178 12.7071 9.0323L11.4142 10.3252L12.7071 11.6181C13.0976 12.0086 13.0976 12.6418 12.7071 13.0323C12.3166 13.4228 11.6834 13.4228 11.2929 13.0323L10 11.7394L8.70711 13.0323C8.31658 13.4228 7.68342 13.4228 7.29289 13.0323C6.90237 12.6418 6.90237 12.0086 7.29289 11.6181L8.58579 10.3252L7.29289 9.0323C6.90237 8.64178 6.90237 8.00861 7.29289 7.61809Z"
    fill="#354052" />
</svg>