<svg xmlns="http://www.w3.org/2000/svg" width="21" height="21" viewBox="0 0 21 21" fill="none">
  <path fill-rule="evenodd" clip-rule="evenodd" d="M7.03645 1.5571C8.2497 1.05456 9.55006 0.795898 10.8633 0.795898C12.1765 0.795898 13.4769 1.05456 14.6901 1.5571C15.9034 2.05965 17.0058 2.79624 17.9343 3.72483C18.8629 4.65342 19.5995 5.75581 20.1021 6.96906C20.6046 8.18232 20.8633 9.48268 20.8633 10.7959C20.8633 12.1091 20.6046 13.4095 20.1021 14.6227C19.5995 15.836 18.8629 16.9384 17.9343 17.867C17.0058 18.7956 15.9034 19.5321 14.6901 20.0347C13.4769 20.5372 12.1765 20.7959 10.8633 20.7959C9.55006 20.7959 8.2497 20.5372 7.03645 20.0347C5.82319 19.5321 4.7208 18.7956 3.79221 17.867C2.86363 16.9384 2.12703 15.836 1.62449 14.6227C1.12194 13.4095 0.863281 12.1091 0.863281 10.7959C0.863281 9.48268 1.12194 8.18232 1.62449 6.96906C2.12703 5.75581 2.86363 4.65342 3.79221 3.72483C4.7208 2.79624 5.82319 2.05965 7.03645 1.5571ZM10.8633 2.7959C9.81271 2.7959 8.77242 3.00282 7.80181 3.40486C6.83121 3.8069 5.9493 4.39618 5.20643 5.13904C4.46356 5.88191 3.87428 6.76383 3.47224 7.73443C3.07021 8.70504 2.86328 9.74532 2.86328 10.7959C2.86328 11.8465 3.07021 12.8868 3.47224 13.8574C3.87428 14.828 4.46356 15.7099 5.20643 16.4528C5.9493 17.1956 6.83121 17.7849 7.80181 18.1869C8.77242 18.589 9.81271 18.7959 10.8633 18.7959C11.9139 18.7959 12.9541 18.589 13.9247 18.1869C14.8954 17.7849 15.7773 17.1956 16.5201 16.4528C17.263 15.7099 17.8523 14.828 18.2543 13.8574C18.6564 12.8868 18.8633 11.8465 18.8633 10.7959C18.8633 9.74532 18.6564 8.70504 18.2543 7.73443C17.8523 6.76383 17.263 5.88191 16.5201 5.13904C15.7773 4.39618 14.8954 3.8069 13.9247 3.40486C12.9541 3.00282 11.9139 2.7959 10.8633 2.7959ZM10.8633 6.7959C11.4156 6.7959 11.8633 7.24361 11.8633 7.7959V9.7959H13.8633C14.4156 9.7959 14.8633 10.2436 14.8633 10.7959C14.8633 11.3482 14.4156 11.7959 13.8633 11.7959H11.8633V13.7959C11.8633 14.3482 11.4156 14.7959 10.8633 14.7959C10.311 14.7959 9.86328 14.3482 9.86328 13.7959V11.7959H7.86328C7.311 11.7959 6.86328 11.3482 6.86328 10.7959C6.86328 10.2436 7.311 9.7959 7.86328 9.7959H9.86328V7.7959C9.86328 7.24361 10.311 6.7959 10.8633 6.7959Z" fill="#354052"/>
</svg>