<svg xmlns="http://www.w3.org/2000/svg" width="20" height="20" viewBox="0 0 20 20" fill="none">
  <path fill-rule="evenodd" clip-rule="evenodd"
    d="M13.9636 1.25293C14.5449 0.67203 15.333 0.345703 16.1549 0.345703C16.9771 0.345703 17.7656 0.67232 18.347 1.2537C18.9284 1.83509 19.255 2.62361 19.255 3.44581C19.255 4.26778 18.9286 5.05609 18.3475 5.63742C18.3473 5.63759 18.3476 5.63726 18.3475 5.63742L17.0836 6.90587C17.0484 6.95772 17.0079 7.00699 16.962 7.05292C16.9169 7.09796 16.8687 7.13781 16.8179 7.17246L9.96325 14.0517C9.77561 14.24 9.52072 14.3458 9.25488 14.3458H6.25488C5.7026 14.3458 5.25488 13.8981 5.25488 13.3458V10.3458C5.25488 10.08 5.36073 9.82508 5.54904 9.63744L12.4282 2.78278C12.4629 2.73202 12.5027 2.68375 12.5478 2.6387C12.5937 2.59278 12.643 2.55226 12.6948 2.51713L13.9628 1.2537C13.963 1.25344 13.9633 1.25319 13.9636 1.25293ZM13.2661 4.77126L7.25488 10.7611V12.3458H8.83962L14.8294 6.33457L13.2661 4.77126ZM16.2411 4.91783L14.6829 3.35957L15.377 2.66792C15.5833 2.46161 15.8631 2.3457 16.1549 2.3457C16.4466 2.3457 16.7265 2.46161 16.9328 2.66792C17.1391 2.87423 17.255 3.15404 17.255 3.44581C17.255 3.73758 17.1391 4.01739 16.9328 4.2237L16.2411 4.91783ZM1.13356 5.22449C1.69617 4.66188 2.45923 4.34581 3.25488 4.34581H4.25488C4.80717 4.34581 5.25488 4.79353 5.25488 5.34581C5.25488 5.89809 4.80717 6.34581 4.25488 6.34581H3.25488C2.98967 6.34581 2.73531 6.45117 2.54778 6.6387C2.36024 6.82624 2.25488 7.08059 2.25488 7.34581V16.3458C2.25488 16.611 2.36024 16.8654 2.54778 17.0529C2.73531 17.2405 2.98967 17.3458 3.25488 17.3458H12.2549C12.5201 17.3458 12.7745 17.2405 12.962 17.0529C13.1495 16.8654 13.2549 16.611 13.2549 16.3458V15.3458C13.2549 14.7935 13.7026 14.3458 14.2549 14.3458C14.8072 14.3458 15.2549 14.7935 15.2549 15.3458V16.3458C15.2549 17.1415 14.9388 17.9045 14.3762 18.4671C13.8136 19.0297 13.0505 19.3458 12.2549 19.3458H3.25488C2.45923 19.3458 1.69617 19.0297 1.13356 18.4671C0.570953 17.9045 0.254883 17.1415 0.254883 16.3458V7.34581C0.254883 6.55016 0.570953 5.7871 1.13356 5.22449Z"
    fill="#354052" />
</svg>