<svg xmlns="http://www.w3.org/2000/svg" width="17" height="21" viewBox="0 0 17 21" fill="none">
  <path fill-rule="evenodd" clip-rule="evenodd"
    d="M2.93108 2.61809C3.11861 2.43055 3.37297 2.3252 3.63818 2.3252H9.63818V5.3252C9.63818 5.85563 9.8489 6.36434 10.224 6.73941C10.599 7.11448 11.1077 7.3252 11.6382 7.3252H14.6382V17.3252C14.6382 17.5904 14.5328 17.8448 14.3453 18.0323C14.1578 18.2198 13.9034 18.3252 13.6382 18.3252H3.63818C3.37297 18.3252 3.11861 18.2198 2.93108 18.0323C2.74354 17.8448 2.63818 17.5904 2.63818 17.3252V3.3252C2.63818 3.05998 2.74354 2.80562 2.93108 2.61809ZM13.224 5.3252L11.6382 3.73941V5.3252H13.224ZM3.63818 0.325195C2.84253 0.325195 2.07947 0.641266 1.51686 1.20387C0.954254 1.76648 0.638184 2.52955 0.638184 3.3252V17.3252C0.638184 18.1208 0.954254 18.8839 1.51686 19.4465C2.07947 20.0091 2.84253 20.3252 3.63818 20.3252H13.6382C14.4338 20.3252 15.1969 20.0091 15.7595 19.4465C16.3221 18.8839 16.6382 18.1208 16.6382 17.3252V6.3252C16.6382 6.05998 16.5328 5.80562 16.3453 5.61809L11.3453 0.618089C11.1578 0.430552 10.9034 0.325195 10.6382 0.325195H3.63818ZM7.63818 15.3033C7.63818 15.8556 8.0859 16.3033 8.63818 16.3033C9.19047 16.3033 9.63818 15.8556 9.63818 15.3033V11.7175L10.4311 12.5104C10.8216 12.9009 11.4548 12.9009 11.8453 12.5104C12.2358 12.1199 12.2358 11.4867 11.8453 11.0962L9.34529 8.59618C8.95477 8.20565 8.3216 8.20565 7.93108 8.59618L5.43108 11.0962C5.04055 11.4867 5.04055 12.1199 5.43108 12.5104C5.8216 12.9009 6.45477 12.9009 6.84529 12.5104L7.63818 11.7175V15.3033Z"
    fill="#354052" />
</svg>