<svg xmlns="http://www.w3.org/2000/svg" width="19" height="18" viewBox="0 0 19 18" fill="none">
  <path fill-rule="evenodd" clip-rule="evenodd"
    d="M3.0332 2C2.76799 2 2.51363 2.10536 2.3261 2.29289C2.13856 2.48043 2.0332 2.73478 2.0332 3V15C2.0332 15.2652 2.13856 15.5196 2.3261 15.7071C2.51363 15.8946 2.76799 16 3.0332 16H15.0332C15.2984 16 15.5528 15.8946 15.7403 15.7071C15.9278 15.5196 16.0332 15.2652 16.0332 15V5.41421L12.619 2H12.0332V5C12.0332 5.55228 11.5855 6 11.0332 6H5.0332C4.48092 6 4.0332 5.55228 4.0332 5V2H3.0332ZM3.0332 0C2.23755 0 1.47449 0.31607 0.911883 0.87868C0.349273 1.44129 0.0332031 2.20435 0.0332031 3V15C0.0332031 15.7956 0.349274 16.5587 0.911883 17.1213C1.47449 17.6839 2.23755 18 3.0332 18H15.0332C15.8289 18 16.5919 17.6839 17.1545 17.1213C17.7171 16.5587 18.0332 15.7957 18.0332 15V5C18.0332 4.73478 17.9278 4.48043 17.7403 4.29289L13.7403 0.292893C13.5528 0.105357 13.2984 0 13.0332 0H3.0332ZM6.0332 2V4H10.0332V2H6.0332ZM6.91188 8.87868C7.47449 8.31607 8.23755 8 9.0332 8C9.82885 8 10.5919 8.31607 11.1545 8.87868C11.7171 9.44129 12.0332 10.2043 12.0332 11C12.0332 11.7957 11.7171 12.5587 11.1545 13.1213C10.5919 13.6839 9.82885 14 9.0332 14C8.23755 14 7.47449 13.6839 6.91188 13.1213C6.34927 12.5587 6.0332 11.7957 6.0332 11C6.0332 10.2043 6.34927 9.44129 6.91188 8.87868ZM9.0332 10C8.76799 10 8.51363 10.1054 8.3261 10.2929C8.13856 10.4804 8.0332 10.7348 8.0332 11C8.0332 11.2652 8.13856 11.5196 8.3261 11.7071C8.51363 11.8946 8.76799 12 9.0332 12C9.29842 12 9.55277 11.8946 9.74031 11.7071C9.92785 11.5196 10.0332 11.2652 10.0332 11C10.0332 10.7348 9.92785 10.4804 9.74031 10.2929C9.55277 10.1054 9.29842 10 9.0332 10Z"
    fill="#354052" />
</svg>