<svg xmlns="http://www.w3.org/2000/svg" width="24" height="22" viewBox="0 0 24 22" fill="none">
  <path fill-rule="evenodd" clip-rule="evenodd" d="M17.8294 1.95903C15.7375 0.841636 13.3229 0.484198 10.9971 0.947628C8.67119 1.41106 6.57799 2.66668 5.07417 4.50051C3.77623 6.08328 2.98666 8.01224 2.79546 10.0355C2.30441 9.62951 1.57579 9.65633 1.11612 10.116C0.627961 10.6042 0.627961 11.3956 1.11612 11.8838L3.10894 13.8766C3.20882 13.9781 3.32592 14.0626 3.4555 14.1254C3.62009 14.2052 3.80482 14.2499 4 14.2499C4.19518 14.2499 4.37991 14.2052 4.5445 14.1254C4.63601 14.0812 4.72324 14.0251 4.80391 13.9572C4.83426 13.9317 4.86337 13.9047 4.89116 13.8765L6.88388 11.8838C7.37204 11.3956 7.37204 10.6042 6.88388 10.116C6.45946 9.69159 5.80577 9.63617 5.32148 9.94977C5.51464 8.53751 6.09481 7.19849 7.0073 6.08576C8.14433 4.6992 9.727 3.74983 11.4856 3.39943C13.2442 3.04903 15.0698 3.31929 16.6515 4.16415C18.2331 5.00901 19.4729 6.37618 20.1594 8.03269C20.846 9.6892 20.9369 11.5325 20.4166 13.2485C19.8964 14.9646 18.7972 16.4471 17.3063 17.4435C15.8155 18.4398 14.0253 18.8884 12.2407 18.7127C10.4562 18.5371 8.78783 17.748 7.51989 16.4801C7.03174 15.9919 6.24028 15.9919 5.75212 16.4801C5.26396 16.9682 5.26396 17.7597 5.75211 18.2478C7.42907 19.9248 9.63565 20.9684 11.9958 21.2007C14.356 21.4331 16.7237 20.8398 18.6955 19.522C20.6672 18.2042 22.121 16.2435 22.8091 13.9739C23.4972 11.7043 23.377 9.26635 22.4689 7.07549C21.5609 4.88462 19.9212 3.07642 17.8294 1.95903ZM13.25 6.99989C13.25 6.30953 12.6904 5.74989 12 5.74989C11.3096 5.74989 10.75 6.30953 10.75 6.99989V11.9999C10.75 12.6902 11.3096 13.2499 12 13.2499H17C17.6904 13.2499 18.25 12.6902 18.25 11.9999C18.25 11.3095 17.6904 10.7499 17 10.7499H13.25V6.99989Z" fill="#001D5B"/>
  <path fill-rule="evenodd" clip-rule="evenodd" d="M17.8294 1.95903C15.7375 0.841636 13.3229 0.484198 10.9971 0.947628C8.67119 1.41106 6.57799 2.66668 5.07417 4.50051C3.77623 6.08328 2.98666 8.01224 2.79546 10.0355C2.30441 9.62951 1.57579 9.65633 1.11612 10.116C0.627961 10.6042 0.627961 11.3956 1.11612 11.8838L3.10894 13.8766C3.20882 13.9781 3.32592 14.0626 3.4555 14.1254C3.62009 14.2052 3.80482 14.2499 4 14.2499C4.19518 14.2499 4.37991 14.2052 4.5445 14.1254C4.63601 14.0812 4.72324 14.0251 4.80391 13.9572C4.83426 13.9317 4.86337 13.9047 4.89116 13.8765L6.88388 11.8838C7.37204 11.3956 7.37204 10.6042 6.88388 10.116C6.45946 9.69159 5.80577 9.63617 5.32148 9.94977C5.51464 8.53751 6.09481 7.19849 7.0073 6.08576C8.14433 4.6992 9.727 3.74983 11.4856 3.39943C13.2442 3.04903 15.0698 3.31929 16.6515 4.16415C18.2331 5.00901 19.4729 6.37618 20.1594 8.03269C20.846 9.6892 20.9369 11.5325 20.4166 13.2485C19.8964 14.9646 18.7972 16.4471 17.3063 17.4435C15.8155 18.4398 14.0253 18.8884 12.2407 18.7127C10.4562 18.5371 8.78783 17.748 7.51989 16.4801C7.03174 15.9919 6.24028 15.9919 5.75212 16.4801C5.26396 16.9682 5.26396 17.7597 5.75211 18.2478C7.42907 19.9248 9.63565 20.9684 11.9958 21.2007C14.356 21.4331 16.7237 20.8398 18.6955 19.522C20.6672 18.2042 22.121 16.2435 22.8091 13.9739C23.4972 11.7043 23.377 9.26635 22.4689 7.07549C21.5609 4.88462 19.9212 3.07642 17.8294 1.95903ZM13.25 6.99989C13.25 6.30953 12.6904 5.74989 12 5.74989C11.3096 5.74989 10.75 6.30953 10.75 6.99989V11.9999C10.75 12.6902 11.3096 13.2499 12 13.2499H17C17.6904 13.2499 18.25 12.6902 18.25 11.9999C18.25 11.3095 17.6904 10.7499 17 10.7499H13.25V6.99989Z" fill="black" fill-opacity="0.2"/>
</svg>