<svg xmlns="http://www.w3.org/2000/svg" width="25" height="26" viewBox="0 0 25 26" fill="none">
  <path d="M13.7857 0.285706C15.192 0.289456 15.9057 0.296956 16.522 0.314456L16.7645 0.323206C17.0445 0.333206 17.3207 0.345705 17.6545 0.360705C18.9845 0.423205 19.892 0.633206 20.6882 0.941956C21.5132 1.25946 22.2082 1.68946 22.9032 2.38321C23.5388 3.00808 24.0307 3.76394 24.3445 4.59821C24.6532 5.39446 24.8632 6.30196 24.9257 7.63321C24.9407 7.96571 24.9532 8.24196 24.9632 8.52321L24.9707 8.76571C24.9895 9.38071 24.997 10.0945 24.9995 11.5007L25.0007 12.4332V14.0707C25.0038 14.9825 24.9942 15.8942 24.972 16.8057L24.9645 17.0482C24.9545 17.3295 24.942 17.6057 24.927 17.9382C24.8645 19.2695 24.652 20.1757 24.3445 20.9732C24.0316 21.8079 23.5396 22.564 22.9032 23.1882C22.2782 23.8236 21.5224 24.3154 20.6882 24.6295C19.892 24.9382 18.9845 25.1482 17.6545 25.2107C17.3579 25.2247 17.0612 25.2372 16.7645 25.2482L16.522 25.2557C15.9057 25.2732 15.192 25.282 13.7857 25.2845L12.8532 25.2857H11.217C10.3048 25.2889 9.39263 25.2793 8.48072 25.257L8.23822 25.2495C7.94148 25.2382 7.64481 25.2253 7.34822 25.2107C6.01822 25.1482 5.11072 24.9382 4.31322 24.6295C3.47906 24.3162 2.72349 23.8243 2.09947 23.1882C1.46328 22.5636 0.971001 21.8077 0.656971 20.9732C0.348221 20.177 0.138221 19.2695 0.0757212 17.9382C0.0617947 17.6416 0.0492946 17.3449 0.0382212 17.0482L0.0319714 16.8057C0.00893643 15.8942 -0.00148136 14.9825 0.000721251 14.0707V11.5007C-0.00276746 10.589 0.00640019 9.6772 0.0282213 8.76571L0.0369713 8.52321C0.0469713 8.24196 0.0594713 7.96571 0.0744713 7.63321C0.136971 6.30196 0.346971 5.39571 0.655721 4.59821C0.969614 3.76309 1.46287 3.00698 2.10072 2.38321C2.72459 1.74755 3.47965 1.25569 4.31322 0.941956C5.11072 0.633206 6.01697 0.423205 7.34822 0.360705C7.68072 0.345705 7.95822 0.333206 8.23822 0.323206L8.48072 0.315705C9.39221 0.293496 10.304 0.283912 11.2157 0.286955L13.7857 0.285706ZM12.5007 6.53571C10.8431 6.53571 9.25341 7.19419 8.0813 8.36629C6.9092 9.53839 6.25072 11.1281 6.25072 12.7857C6.25072 14.4433 6.9092 16.033 8.0813 17.2051C9.25341 18.3772 10.8431 19.0357 12.5007 19.0357C14.1583 19.0357 15.748 18.3772 16.9201 17.2051C18.0922 16.033 18.7507 14.4433 18.7507 12.7857C18.7507 11.1281 18.0922 9.53839 16.9201 8.36629C15.748 7.19419 14.1583 6.53571 12.5007 6.53571ZM12.5007 9.03571C12.9932 9.03562 13.4808 9.13254 13.9358 9.32092C14.3908 9.5093 14.8043 9.78545 15.1526 10.1336C15.5008 10.4818 15.7771 10.8951 15.9657 11.3501C16.1542 11.805 16.2513 12.2926 16.2513 12.7851C16.2514 13.2775 16.1545 13.7652 15.9661 14.2202C15.7778 14.6752 15.5016 15.0886 15.1534 15.4369C14.8053 15.7852 14.3919 16.0615 13.937 16.25C13.482 16.4385 12.9944 16.5356 12.502 16.5357C11.5074 16.5357 10.5536 16.1406 9.85032 15.4374C9.14706 14.7341 8.75197 13.7803 8.75197 12.7857C8.75197 11.7911 9.14706 10.8373 9.85032 10.1341C10.5536 9.43079 11.5074 9.03571 12.502 9.03571M19.0645 4.66071C18.6501 4.66071 18.2526 4.82533 17.9596 5.11835C17.6666 5.41138 17.502 5.8088 17.502 6.22321C17.502 6.63761 17.6666 7.03503 17.9596 7.32806C18.2526 7.62109 18.6501 7.78571 19.0645 7.78571C19.4789 7.78571 19.8763 7.62109 20.1693 7.32806C20.4624 7.03503 20.627 6.63761 20.627 6.22321C20.627 5.8088 20.4624 5.41138 20.1693 5.11835C19.8763 4.82533 19.4789 4.66071 19.0645 4.66071Z" fill="#64748B"/>
</svg>