<svg xmlns="http://www.w3.org/2000/svg" width="20" height="20" viewBox="0 0 20 20" fill="none">
  <path fill-rule="evenodd" clip-rule="evenodd"
    d="M2.10557 0.552786C2.27496 0.214002 2.62123 0 3 0H17C17.3788 0 17.725 0.214002 17.8944 0.552786L19.8944 4.55279C19.9639 4.69164 20 4.84475 20 5V6C20 7.06087 19.5786 8.07828 18.8284 8.82843C18.5791 9.07778 18.3002 9.29081 18 9.46411V18H19C19.5523 18 20 18.4477 20 19C20 19.5523 19.5523 20 19 20H1C0.447715 20 0 19.5523 0 19C0 18.4477 0.447715 18 1 18H2V9.46411C1.69981 9.29081 1.42092 9.07778 1.17157 8.82843C0.421427 8.07828 0 7.06087 0 6V5C0 4.84475 0.0361451 4.69164 0.105573 4.55279L2.10557 0.552786ZM4 10V18H6V15C6 14.2043 6.31607 13.4413 6.87868 12.8787C7.44129 12.3161 8.20435 12 9 12H11C11.7957 12 12.5587 12.3161 13.1213 12.8787C13.6839 13.4413 14 14.2043 14 15V18H16V10C14.9391 10 13.9217 9.57857 13.1716 8.82843C13.1123 8.76917 13.0551 8.70824 13 8.64576C12.9449 8.70824 12.8877 8.76917 12.8284 8.82843C12.0783 9.57857 11.0609 10 10 10C8.93913 10 7.92172 9.57857 7.17157 8.82843C7.11232 8.76917 7.05511 8.70825 7 8.64576C6.94489 8.70825 6.88768 8.76917 6.82843 8.82843C6.07828 9.57857 5.06087 10 4 10ZM8 6C8 6.53043 8.21071 7.03914 8.58579 7.41421C8.96086 7.78929 9.46957 8 10 8C10.5304 8 11.0391 7.78929 11.4142 7.41421C11.7893 7.03914 12 6.53043 12 6H8ZM2.61803 4L3.61803 2H16.382L17.382 4H2.61803ZM14 6C14 6.53043 14.2107 7.03914 14.5858 7.41421C14.9609 7.78929 15.4696 8 16 8C16.5304 8 17.0391 7.78929 17.4142 7.41421C17.7893 7.03914 18 6.53043 18 6H14ZM2 6H6C6 6.53043 5.78929 7.03914 5.41421 7.41421C5.03914 7.78929 4.53043 8 4 8C3.46957 8 2.96086 7.78929 2.58579 7.41421C2.21071 7.03914 2 6.53043 2 6ZM12 18V15C12 14.7348 11.8946 14.4804 11.7071 14.2929C11.5196 14.1054 11.2652 14 11 14H9C8.73478 14 8.48043 14.1054 8.29289 14.2929C8.10536 14.4804 8 14.7348 8 15V18H12Z"
    fill="#354052" />
</svg>