<svg xmlns="http://www.w3.org/2000/svg" width="28" height="30" viewBox="0 0 28 30" fill="none">
  <path
    d="M0.666992 13.6668C0.666992 6.30283 6.63633 0.333496 14.0003 0.333496C21.3643 0.333496 27.3337 6.30283 27.3337 13.6668V20.5388C27.3337 22.7335 25.4403 24.3335 23.3337 24.3335H19.3337V13.6668H24.667C24.667 10.8379 23.5432 8.12475 21.5428 6.12436C19.5424 4.12397 16.8293 3.00016 14.0003 3.00016C11.1713 3.00016 8.45824 4.12397 6.45785 6.12436C4.45747 8.12475 3.33366 10.8379 3.33366 13.6668H8.66699V24.3335H6.08433C6.23215 24.906 6.56608 25.4132 7.03359 25.7752C7.5011 26.1373 8.07569 26.3336 8.66699 26.3335H10.7523C11.1737 25.7295 11.8737 25.3335 12.667 25.3335H15.3337C15.9525 25.3335 16.546 25.5793 16.9836 26.0169C17.4212 26.4545 17.667 27.048 17.667 27.6668C17.667 28.2857 17.4212 28.8792 16.9836 29.3167C16.546 29.7543 15.9525 30.0002 15.3337 30.0002H12.667C11.8737 30.0002 11.1737 29.6042 10.7523 29.0002H8.66699C7.33087 29.0003 6.04336 28.499 5.05919 27.5953C4.07502 26.6916 3.4659 25.4514 3.35233 24.1202C1.83233 23.6175 0.666992 22.2615 0.666992 20.5402V13.6668ZM6.00033 21.6668V16.3335H3.33366V20.5388C3.33366 21.0628 3.82699 21.6668 4.66699 21.6668H6.00033ZM24.667 16.3335H22.0003V21.6668H23.3337C24.1737 21.6668 24.667 21.0628 24.667 20.5388V16.3335Z"
    fill="#001D5B" />
  <path
    d="M0.666992 13.6668C0.666992 6.30283 6.63633 0.333496 14.0003 0.333496C21.3643 0.333496 27.3337 6.30283 27.3337 13.6668V20.5388C27.3337 22.7335 25.4403 24.3335 23.3337 24.3335H19.3337V13.6668H24.667C24.667 10.8379 23.5432 8.12475 21.5428 6.12436C19.5424 4.12397 16.8293 3.00016 14.0003 3.00016C11.1713 3.00016 8.45824 4.12397 6.45785 6.12436C4.45747 8.12475 3.33366 10.8379 3.33366 13.6668H8.66699V24.3335H6.08433C6.23215 24.906 6.56608 25.4132 7.03359 25.7752C7.5011 26.1373 8.07569 26.3336 8.66699 26.3335H10.7523C11.1737 25.7295 11.8737 25.3335 12.667 25.3335H15.3337C15.9525 25.3335 16.546 25.5793 16.9836 26.0169C17.4212 26.4545 17.667 27.048 17.667 27.6668C17.667 28.2857 17.4212 28.8792 16.9836 29.3167C16.546 29.7543 15.9525 30.0002 15.3337 30.0002H12.667C11.8737 30.0002 11.1737 29.6042 10.7523 29.0002H8.66699C7.33087 29.0003 6.04336 28.499 5.05919 27.5953C4.07502 26.6916 3.4659 25.4514 3.35233 24.1202C1.83233 23.6175 0.666992 22.2615 0.666992 20.5402V13.6668ZM6.00033 21.6668V16.3335H3.33366V20.5388C3.33366 21.0628 3.82699 21.6668 4.66699 21.6668H6.00033ZM24.667 16.3335H22.0003V21.6668H23.3337C24.1737 21.6668 24.667 21.0628 24.667 20.5388V16.3335Z"
    fill="black" fill-opacity="0.2" />
</svg>