<svg xmlns="http://www.w3.org/2000/svg" width="16" height="13" viewBox="0 0 16 13" fill="none">
  <path
    d="M15.1763 5.92161L12.0851 8.29078L13.0111 11.8181C13.0601 12.0024 13.0461 12.1954 12.9709 12.3729C12.8957 12.5503 12.7626 12.7044 12.5882 12.8158C12.4138 12.9271 12.2059 12.9909 11.9905 12.9991C11.7751 13.0073 11.5617 12.9595 11.3771 12.8618L7.8739 10.9958L4.37827 12.8618C4.1936 12.9595 3.98022 13.0073 3.76481 12.9991C3.54939 12.9909 3.34151 12.9271 3.16714 12.8158C2.99277 12.7044 2.85966 12.5503 2.78444 12.3729C2.70922 12.1954 2.69524 12.0024 2.74424 11.8181L3.66887 8.29439L0.576954 5.92161C0.41342 5.79774 0.295168 5.63424 0.237026 5.45159C0.178885 5.26895 0.183443 5.07529 0.250129 4.89491C0.316814 4.71453 0.442659 4.55545 0.611882 4.43763C0.781105 4.31981 0.986172 4.24849 1.20137 4.23261L5.27685 3.92262L6.8677 0.590367C6.95078 0.415518 7.09091 0.266163 7.27045 0.16111C7.44998 0.056056 7.6609 0 7.87664 0C8.09238 0 8.30329 0.056056 8.48283 0.16111C8.66237 0.266163 8.80249 0.415518 8.88557 0.590367L10.4812 3.92262L14.5553 4.23261C14.7705 4.24849 14.9756 4.31981 15.1448 4.43763C15.314 4.55545 15.4399 4.71453 15.5066 4.89491C15.5733 5.07529 15.5778 5.26895 15.5197 5.45159C15.4615 5.63424 15.3433 5.79774 15.1797 5.92161H15.1763Z"
    fill="#FFCD29" />
</svg>