<svg xmlns="http://www.w3.org/2000/svg" width="29" height="30" viewBox="0 0 29 30" fill="none">
  <path d="M27.697 13.8993C27.5218 13.549 27.2642 13.2463 26.9463 13.0172L25.1946 11.7007C25.1035 11.6379 25.038 11.5444 25.0102 11.4374C24.9708 11.3312 24.9708 11.2144 25.0102 11.1082L25.7346 8.96224C25.8508 8.57844 25.8779 8.17316 25.8136 7.77733C25.7528 7.37421 25.5896 6.99342 25.3394 6.67142C25.0985 6.34935 24.7818 6.09161 24.4175 5.92098C24.069 5.75371 23.684 5.67674 23.2979 5.69717H21.3223C21.2055 5.69575 21.0922 5.65648 20.9996 5.58527C20.907 5.51405 20.84 5.41472 20.8086 5.3022L20.2423 3.32736C20.133 2.92671 19.9247 2.55998 19.6364 2.26094C19.3489 1.96893 18.9971 1.74803 18.6091 1.61583C18.2169 1.49552 17.8019 1.46848 17.3974 1.53683C16.9962 1.61516 16.6206 1.79156 16.3042 2.05029L14.8027 3.2352C14.7195 3.31018 14.6118 3.3523 14.4998 3.35369C14.3986 3.36335 14.2971 3.34027 14.21 3.28786L12.7217 2.10295C12.4162 1.85337 12.0546 1.68169 11.6681 1.60266C11.2872 1.5105 10.8899 1.5105 10.509 1.60266C10.1271 1.70872 9.77529 1.90259 9.48168 2.16878C9.18129 2.45968 8.95151 2.81546 8.80997 3.20886L8.24362 5.19687C8.21487 5.31408 8.1447 5.41695 8.04606 5.48652C7.94194 5.55784 7.81611 5.59044 7.69044 5.57868H5.82017C5.4161 5.56285 5.01413 5.64411 4.64797 5.81566C4.27644 5.98054 3.95419 6.23914 3.71283 6.5661C3.4704 6.88765 3.30789 7.26219 3.23868 7.65884C3.17283 8.04459 3.19917 8.4422 3.31771 8.81742L3.96308 11.0411C3.99703 11.1468 3.99755 11.2604 3.96455 11.3664C3.93155 11.4725 3.86665 11.5657 3.77869 11.6335L2.02696 12.9501C1.70822 13.1871 1.44744 13.4925 1.26305 13.8454C1.09001 14.1954 1 14.5806 1 14.971C1 15.3615 1.09001 15.7467 1.26305 16.0967C1.44686 16.4489 1.70802 16.7549 2.02696 16.9919L3.77869 18.3085C3.86665 18.3763 3.93155 18.4696 3.96455 18.5756C3.99755 18.6816 3.99703 18.7952 3.96308 18.901L3.23868 21.047C3.11598 21.4339 3.08443 21.8439 3.14648 22.245C3.21234 22.6374 3.37566 23.0086 3.62064 23.3246C3.86166 23.6537 4.18435 23.9171 4.55577 24.0882C4.9048 24.2541 5.28939 24.3305 5.6753 24.312H7.63776C7.75655 24.3069 7.87327 24.3443 7.96703 24.4174C8.0617 24.4824 8.12772 24.5814 8.15142 24.6938L8.71777 26.6818C8.83483 27.0753 9.0423 27.436 9.32363 27.7351C9.75316 28.1822 10.3342 28.453 10.953 28.4944C11.5718 28.5358 12.1837 28.3449 12.669 27.9589L14.1837 26.7608C14.2751 26.6871 14.3889 26.6469 14.5064 26.6469C14.6238 26.6469 14.7377 26.6871 14.8291 26.7608L16.3174 27.9457C16.6335 28.2117 17.0154 28.3894 17.4237 28.4592C17.5726 28.4724 17.7227 28.4724 17.8715 28.4592C18.1308 28.4595 18.3885 28.4195 18.6355 28.3407C19.0264 28.2177 19.3805 27.9992 19.6657 27.705C19.9508 27.4107 20.1581 27.05 20.2686 26.6555L20.8482 24.6543C20.8719 24.5419 20.9379 24.443 21.0326 24.3779C21.1344 24.3008 21.2608 24.2634 21.3882 24.2725H23.2716C23.6743 24.2885 24.0754 24.212 24.4438 24.0487C24.807 23.8754 25.1233 23.6176 25.3662 23.2969C25.6091 22.9762 25.7716 22.6019 25.8399 22.2055C25.9081 21.8003 25.8765 21.3845 25.7477 20.9943L25.0365 18.8615C24.9972 18.7553 24.9972 18.6385 25.0365 18.5323C25.0644 18.4253 25.1298 18.3318 25.2209 18.269L26.9726 16.9524C27.2911 16.7186 27.5486 16.4115 27.7234 16.0572C27.9074 15.7083 28.0024 15.3194 28 14.9249C27.9751 14.5647 27.8717 14.2155 27.697 13.8993ZM20.5321 12.8974L14.7105 18.7166C14.4849 18.937 14.2218 19.1154 13.9334 19.2433C13.641 19.3618 13.3276 19.425 13.0115 19.4276C12.6892 19.4293 12.3703 19.362 12.0763 19.2301C11.7811 19.1077 11.5127 18.9288 11.2861 18.7035L8.41484 15.8202C8.19907 15.5683 8.08632 15.2444 8.09912 14.913C8.11192 14.5817 8.24934 14.2674 8.4839 14.0329C8.71847 13.7984 9.03291 13.6611 9.36439 13.6483C9.69587 13.6355 10.02 13.7482 10.2719 13.9639L13.0115 16.7023L18.675 11.0279C18.9217 10.7827 19.2556 10.6451 19.6035 10.6451C19.9515 10.6451 20.2853 10.7827 20.5321 11.0279C20.664 11.1509 20.7692 11.2996 20.8411 11.465C20.9131 11.6303 20.9502 11.8087 20.9502 11.989C20.9502 12.1693 20.9131 12.3477 20.8411 12.513C20.7692 12.6784 20.664 12.8272 20.5321 12.9501V12.8974Z" stroke="white" stroke-width="2"/>
</svg>